<?xml version="1.0" encoding="UTF-8" standalone="no"?>
<!-- Generator: Adobe Illustrator 18.0.0, SVG Export Plug-In . SVG Version: 6.00 Build 0)  -->

<svg
   xmlns:dc="http://purl.org/dc/elements/1.1/"
   xmlns:cc="http://creativecommons.org/ns#"
   xmlns:rdf="http://www.w3.org/1999/02/22-rdf-syntax-ns#"
   xmlns:svg="http://www.w3.org/2000/svg"
   xmlns="http://www.w3.org/2000/svg"
   xmlns:sodipodi="http://sodipodi.sourceforge.net/DTD/sodipodi-0.dtd"
   xmlns:inkscape="http://www.inkscape.org/namespaces/inkscape"
   version="1.1"
   id="Capa_1"
   x="0px"
   y="0px"
   viewBox="0 0 56.673 56.673"
   style="enable-background:new 0 0 56.673 56.673;"
   xml:space="preserve"
   sodipodi:docname="apple.svg"
   inkscape:version="0.92.4 (5da689c313, 2019-01-14)"><metadata
   id="metadata49"><rdf:RDF><cc:Work
       rdf:about=""><dc:format>image/svg+xml</dc:format><dc:type
         rdf:resource="http://purl.org/dc/dcmitype/StillImage" /></cc:Work></rdf:RDF></metadata><defs
   id="defs47" /><sodipodi:namedview
   pagecolor="#ffffff"
   bordercolor="#666666"
   borderopacity="1"
   objecttolerance="10"
   gridtolerance="10"
   guidetolerance="10"
   inkscape:pageopacity="0"
   inkscape:pageshadow="2"
   inkscape:window-width="1366"
   inkscape:window-height="745"
   id="namedview45"
   showgrid="false"
   inkscape:zoom="4.1642404"
   inkscape:cx="62.63651"
   inkscape:cy="28.3365"
   inkscape:window-x="-8"
   inkscape:window-y="-8"
   inkscape:window-maximized="1"
   inkscape:current-layer="Capa_1" />
<ellipse
   style="fill:#aa4400;stroke-width:1.03492987"
   id="path51"
   cx="29.77734"
   cy="24.134052"
   rx="23.293564"
   ry="22.933353" /><g
   id="g12"
   transform="matrix(0.67355697,0,0,0.66525688,10.931232,3.1218178)">
	<path
   style="fill:#d13834"
   d="m 31.483,16.213 c -2.065,0.511 -4.227,0.511 -6.292,0 C 14.435,13.553 5.429,14.573 5.533,34.856 5.586,45.246 15.316,58.718 25.542,56.413 27.376,56 29.297,56 31.131,56.413 41.357,58.718 51.087,45.246 51.14,34.856 51.244,14.574 42.239,13.553 31.483,16.213 Z"
   id="path2"
   inkscape:connector-curvature="0" />
	<path
   style="fill:#f75b57"
   d="m 10.533,29.674 c -0.553,0 -1,-0.448 -1,-1 0,-5.514 4.037,-10 9,-10 0.553,0 1,0.448 1,1 0,0.552 -0.447,1 -1,1 -3.859,0 -7,3.589 -7,8 0,0.552 -0.448,1 -1,1 z"
   id="path4"
   inkscape:connector-curvature="0" />
	<path
   style="fill:#4c312c"
   d="m 28.265,19.999 c -0.537,0 -0.981,-0.427 -0.998,-0.968 C 27.132,14.799 25.506,9.486 21.345,7.267 20.858,7.007 20.673,6.402 20.933,5.914 c 0.261,-0.487 0.864,-0.672 1.354,-0.412 4.914,2.62 6.827,8.673 6.979,13.465 0.018,0.552 -0.415,1.014 -0.968,1.031 -0.012,10e-4 -0.022,10e-4 -0.033,10e-4 z"
   id="path6"
   inkscape:connector-curvature="0" />
	<path
   style="fill:#994530"
   d="m 28.176,23.592 c -1.68,0 -3.261,-0.655 -4.45,-1.845 -0.391,-0.39 -0.391,-1.023 0,-1.414 0.391,-0.391 1.023,-0.391 1.414,0 0.812,0.812 1.891,1.259 3.036,1.259 1.145,0 2.224,-0.447 3.035,-1.259 0.391,-0.391 1.023,-0.391 1.414,0 0.391,0.39 0.391,1.023 0,1.414 -1.189,1.19 -2.769,1.845 -4.449,1.845 z"
   id="path8"
   inkscape:connector-curvature="0" />
	<path
   style="fill:#659c35"
   d="M 27.305,13.04 27.914,8.954 C 28.557,4.639 31.945,1.251 36.26,0.608 L 40.345,0 39.736,4.086 c -0.643,4.315 -4.031,7.703 -8.346,8.346 z"
   id="path10"
   inkscape:connector-curvature="0" />
</g>
<g
   id="g14">
</g>
<g
   id="g16">
</g>
<g
   id="g18">
</g>
<g
   id="g20">
</g>
<g
   id="g22">
</g>
<g
   id="g24">
</g>
<g
   id="g26">
</g>
<g
   id="g28">
</g>
<g
   id="g30">
</g>
<g
   id="g32">
</g>
<g
   id="g34">
</g>
<g
   id="g36">
</g>
<g
   id="g38">
</g>
<g
   id="g40">
</g>
<g
   id="g42">
</g>
<text
   xml:space="preserve"
   style="font-style:normal;font-weight:normal;font-size:9.14924145px;line-height:1.25;font-family:sans-serif;letter-spacing:0px;word-spacing:0px;fill:#000000;fill-opacity:1;stroke:none;stroke-width:0.22873102"
   x="13.600296"
   y="54.657646"
   id="text55"
   transform="scale(0.99852509,1.0014771)"><tspan
     sodipodi:role="line"
     id="tspan53"
     x="13.600296"
     y="54.657646"
     style="stroke-width:0.22873102">FRUITS</tspan></text>
</svg>