<?xml version="1.0" encoding="UTF-8" standalone="no"?>
<!-- Generator: Adobe Illustrator 18.0.0, SVG Export Plug-In . SVG Version: 6.00 Build 0)  -->

<svg
   xmlns:dc="http://purl.org/dc/elements/1.1/"
   xmlns:cc="http://creativecommons.org/ns#"
   xmlns:rdf="http://www.w3.org/1999/02/22-rdf-syntax-ns#"
   xmlns:svg="http://www.w3.org/2000/svg"
   xmlns="http://www.w3.org/2000/svg"
   xmlns:sodipodi="http://sodipodi.sourceforge.net/DTD/sodipodi-0.dtd"
   xmlns:inkscape="http://www.inkscape.org/namespaces/inkscape"
   version="1.1"
   id="Capa_1"
   x="0px"
   y="0px"
   viewBox="0 0 54.354 54.354"
   style="enable-background:new 0 0 54.354 54.354;"
   xml:space="preserve"
   sodipodi:docname="banana.svg"
   inkscape:version="0.92.4 (5da689c313, 2019-01-14)"><metadata
   id="metadata57"><rdf:RDF><cc:Work
       rdf:about=""><dc:format>image/svg+xml</dc:format><dc:type
         rdf:resource="http://purl.org/dc/dcmitype/StillImage" /></cc:Work></rdf:RDF></metadata><defs
   id="defs55" /><sodipodi:namedview
   pagecolor="#ffffff"
   bordercolor="#666666"
   borderopacity="1"
   objecttolerance="10"
   gridtolerance="10"
   guidetolerance="10"
   inkscape:pageopacity="0"
   inkscape:pageshadow="2"
   inkscape:window-width="1366"
   inkscape:window-height="745"
   id="namedview53"
   showgrid="false"
   inkscape:zoom="8.6838135"
   inkscape:cx="25.686475"
   inkscape:cy="27.177"
   inkscape:window-x="-8"
   inkscape:window-y="-8"
   inkscape:window-maximized="1"
   inkscape:current-layer="Capa_1"
   showguides="true"
   inkscape:guide-bbox="true"><sodipodi:guide
     position="67.59703,-6.6790932"
     orientation="0,1"
     id="guide65"
     inkscape:locked="false" /></sodipodi:namedview>
<ellipse
   style="fill:#c87137;stroke-width:1.29493177"
   id="path59"
   cx="29.019505"
   cy="22.858624"
   rx="23.607138"
   ry="22.628305" /><g
   id="g20"
   transform="matrix(0.62250125,0,0,0.57497802,12.328303,6.2743565)">
	<g
   id="g6">
		<path
   style="fill:#f9e280"
   d="M 51.169,8.959 C 51.015,8.668 50.863,8.376 50.695,8.089 50.076,7.033 49.36,6.066 48.59,5.15 c 2.132,8.869 -1.562,18.182 -7.06,24.259 -11.103,12.273 -21.646,16.44 -29.053,17.148 -1.766,0.722 -3.57,1.299 -5.527,1.749 -0.088,0.02 -0.17,0.026 -0.255,0.04 1.001,0.153 2.221,0.27 3.652,0.27 7.072,0 19.057,-2.821 32.666,-17.865 5.013,-5.542 8.615,-13.612 8.156,-21.792 z"
   id="path2"
   inkscape:connector-curvature="0" />
		<path
   style="fill:#f9e280"
   d="M 3.728,47.42 3.653,47.611 C 3.72,47.637 3.932,47.716 4.271,47.818 4.078,47.696 3.899,47.56 3.728,47.42 Z"
   id="path4"
   inkscape:connector-curvature="0" />
	</g>
	<g
   id="g16">
		<path
   style="fill:#f9d70b"
   d="m 6.949,48.306 c 0.493,-0.114 0.977,-0.235 1.453,-0.365 -0.476,0.13 -0.96,0.252 -1.453,0.365 z"
   id="path8"
   inkscape:connector-curvature="0" />
		<path
   style="fill:#e8c52e"
   d="M 48.411,4.925 45.324,0 43.13,1.446 45.753,6.485 c 0.222,0.7 0.538,1.441 0.542,2.115 0.067,10.542 -8.436,21.51 -20.674,30.164 -5.038,3.563 -8.902,6.035 -12.955,7.718 -0.064,0.026 -0.128,0.049 -0.192,0.075 10e-4,0 0.002,-0.001 0.002,-0.001 C 19.883,45.848 30.426,41.68 41.529,29.408 47.026,23.332 50.72,14.021 48.59,5.153 48.529,5.08 48.474,4.998 48.411,4.925 Z"
   id="path10"
   inkscape:connector-curvature="0" />
		<path
   style="fill:#f9d70b"
   d="m 9.634,47.578 c 0.051,-0.016 0.104,-0.03 0.155,-0.046 -0.051,0.016 -0.104,0.03 -0.155,0.046 z"
   id="path12"
   inkscape:connector-curvature="0" />
		<path
   style="fill:#f9d70b"
   d="m 51.131,8.89 c 0.012,0.023 0.025,0.045 0.037,0.068 0.46,8.18 -3.142,16.25 -8.156,21.792 -13.609,15.045 -25.594,17.866 -32.666,17.866 -1.431,0 -2.651,-0.117 -3.652,-0.27 0.085,-0.013 0.167,-0.019 0.255,-0.04 C 5.871,48.554 4.99,48.271 4.272,47.818 3.933,47.716 3.721,47.637 3.654,47.611 L 3.729,47.42 c -0.893,-0.733 -1.48,-1.611 -1.85,-1.621 -0.72,-0.02 -1.2,1.478 -1.254,2.536 8.653,9.16 21.722,7.076 35.425,-0.952 C 51.212,38.499 57.806,21.452 51.131,8.89 Z"
   id="path14"
   inkscape:connector-curvature="0" />
	</g>
	<path
   style="fill:#b58c30"
   d="M 47.313,8.272 48.912,7.888 C 49.615,7.719 49.921,6.887 49.496,6.301 49.164,5.843 48.816,5.399 48.451,4.972 48.425,4.94 48.4,4.907 48.378,4.872 L 45.874,0.878 C 45.572,0.397 44.934,0.258 44.46,0.571 L 43.893,0.945 C 43.46,1.23 43.313,1.797 43.552,2.257 l 2.164,4.158 c 0.025,0.048 0.045,0.097 0.062,0.149 0.109,0.335 0.233,0.677 0.333,1.017 0.15,0.513 0.68,0.816 1.202,0.691 z"
   id="path18"
   inkscape:connector-curvature="0" />
</g>
<g
   id="g22">
</g>
<g
   id="g24">
</g>
<g
   id="g26">
</g>
<g
   id="g28">
</g>
<g
   id="g30">
</g>
<g
   id="g32">
</g>
<g
   id="g34">
</g>
<g
   id="g36">
</g>
<g
   id="g38">
</g>
<g
   id="g40">
</g>
<g
   id="g42">
</g>
<g
   id="g44">
</g>
<g
   id="g46">
</g>
<g
   id="g48">
</g>
<g
   id="g50">
</g>
<text
   xml:space="preserve"
   style="font-style:normal;font-weight:normal;font-size:10.35648727px;line-height:1.25;font-family:sans-serif;letter-spacing:0px;word-spacing:0px;fill:#000000;fill-opacity:1;stroke:none;stroke-width:0.25891218"
   x="6.2437501"
   y="49.68351"
   id="text63"
   transform="scale(0.91935187,1.0877228)"><tspan
     sodipodi:role="line"
     id="tspan61"
     x="6.2437501"
     y="49.68351"
     style="stroke-width:0.25891218">BANANAS</tspan></text>
</svg>