<?xml version="1.0" encoding="UTF-8" standalone="no"?>
<!-- Generator: Adobe Illustrator 18.0.0, SVG Export Plug-In . SVG Version: 6.00 Build 0)  -->

<svg
   xmlns:dc="http://purl.org/dc/elements/1.1/"
   xmlns:cc="http://creativecommons.org/ns#"
   xmlns:rdf="http://www.w3.org/1999/02/22-rdf-syntax-ns#"
   xmlns:svg="http://www.w3.org/2000/svg"
   xmlns="http://www.w3.org/2000/svg"
   xmlns:sodipodi="http://sodipodi.sourceforge.net/DTD/sodipodi-0.dtd"
   xmlns:inkscape="http://www.inkscape.org/namespaces/inkscape"
   version="1.1"
   id="Capa_1"
   x="0px"
   y="0px"
   viewBox="0 0 56.745 56.745"
   style="enable-background:new 0 0 56.745 56.745;"
   xml:space="preserve"
   sodipodi:docname="broccoli.svg"
   inkscape:version="0.92.4 (5da689c313, 2019-01-14)"><metadata
   id="metadata61"><rdf:RDF><cc:Work
       rdf:about=""><dc:format>image/svg+xml</dc:format><dc:type
         rdf:resource="http://purl.org/dc/dcmitype/StillImage" /></cc:Work></rdf:RDF></metadata><defs
   id="defs59" /><sodipodi:namedview
   pagecolor="#ffffff"
   bordercolor="#666666"
   borderopacity="1"
   objecttolerance="10"
   gridtolerance="10"
   guidetolerance="10"
   inkscape:pageopacity="0"
   inkscape:pageshadow="2"
   inkscape:window-width="1366"
   inkscape:window-height="745"
   id="namedview57"
   showgrid="false"
   inkscape:zoom="8.3179136"
   inkscape:cx="46.705101"
   inkscape:cy="28.372499"
   inkscape:window-x="-8"
   inkscape:window-y="-8"
   inkscape:window-maximized="1"
   inkscape:current-layer="Capa_1" />
<ellipse
   style="fill:#ff6600;stroke-width:1.11818504"
   id="path63"
   cx="25.462915"
   cy="24.446508"
   rx="22.7253"
   ry="21.320721" /><g
   id="g24"
   transform="matrix(0.73934977,0,0,0.68729448,4.0824955,5.2706567)">
	<path
   style="fill:#88c057"
   d="m 45.146,13.699 c 0,-0.995 -0.563,-1.851 -1.387,-2.307 0.39,-0.796 0.615,-1.684 0.615,-2.626 0,-3.353 -2.767,-6.071 -6.18,-6.071 -0.892,0 -1.738,0.189 -2.504,0.524 C 34.777,1.984 33.3,1.177 31.628,1.177 29.733,1.177 28.085,2.209 27.23,3.731 26.288,3.08 25.142,2.695 23.903,2.695 c -3.2,0 -5.794,2.548 -5.794,5.692 0,0.235 0.019,0.466 0.047,0.693 -2.274,0.769 -3.91,2.883 -3.91,5.378 0,1.946 0.995,3.662 2.511,4.688 -0.605,0.815 -0.966,1.815 -0.966,2.901 0,2.724 2.248,4.933 5.021,4.933 1.161,0 2.226,-0.391 3.077,-1.04 1.12,1.546 2.955,2.558 5.035,2.558 2.198,0 4.123,-1.131 5.219,-2.829 0.737,1.237 2.101,2.07 3.665,2.07 2.347,0 4.249,-1.869 4.249,-4.174 0,-0.517 -0.1,-1.01 -0.275,-1.467 1.524,-0.634 2.593,-2.117 2.593,-3.845 0,-0.818 -0.243,-1.58 -0.658,-2.224 0.846,-0.449 1.429,-1.318 1.429,-2.33 z"
   id="path2"
   inkscape:connector-curvature="0" />
	<path
   style="fill:#659c35"
   d="m 22.832,26.543 c -0.62,0.271 -1.298,0.437 -2.021,0.437 -2.773,0 -5.021,-2.209 -5.021,-4.933 0,-1.086 0.361,-2.086 0.966,-2.901 -1.516,-1.026 -2.511,-2.742 -2.511,-4.688 0,-0.942 0.235,-1.83 0.648,-2.611 C 13.236,10.862 11.055,11.061 9.624,12.466 9.498,12.59 9.385,12.721 9.278,12.855 7.671,12.085 5.679,12.352 4.344,13.663 3.303,14.686 2.908,16.102 3.155,17.425 2.4,17.54 1.675,17.88 1.094,18.451 c -1.458,1.432 -1.458,3.755 0,5.187 0.61,0.6 1.38,0.945 2.175,1.042 -0.239,1.392 0.185,2.872 1.278,3.946 1.156,1.135 2.773,1.535 4.258,1.208 -0.274,1.031 -0.003,2.173 0.819,2.982 1.234,1.212 3.234,1.212 4.468,0 0.277,-0.272 0.488,-0.583 0.641,-0.914 1.141,0.454 2.496,0.226 3.421,-0.682 0.438,-0.43 0.717,-0.956 0.844,-1.509 0.686,0.202 1.457,0.046 1.999,-0.486 0.532,-0.523 0.695,-1.264 0.505,-1.929 0.477,-0.165 0.918,-0.432 1.33,-0.753 z"
   id="path4"
   inkscape:connector-curvature="0" />
	<path
   style="fill:#659c35"
   d="m 55.484,19.249 c -0.126,-0.124 -0.259,-0.235 -0.396,-0.34 0.784,-1.579 0.512,-3.536 -0.823,-4.847 -1.041,-1.023 -2.483,-1.411 -3.83,-1.168 -0.118,-0.741 -0.463,-1.454 -1.044,-2.024 -1.458,-1.433 -3.822,-1.433 -5.281,0 -0.095,0.094 -0.174,0.198 -0.256,0.299 -0.033,0.074 -0.06,0.152 -0.095,0.224 0.824,0.455 1.387,1.312 1.387,2.307 0,1.012 -0.583,1.881 -1.43,2.329 0.414,0.644 0.658,1.405 0.658,2.224 0,1.728 -1.069,3.211 -2.593,3.845 0.175,0.457 0.275,0.95 0.275,1.467 0,2.305 -1.902,4.174 -4.249,4.174 -0.549,0 -1.071,-0.108 -1.553,-0.295 0.052,0.059 0.082,0.129 0.138,0.184 0.438,0.43 0.973,0.705 1.536,0.83 -0.206,0.674 -0.047,1.432 0.495,1.964 0.532,0.523 1.287,0.683 1.964,0.496 0.221,0.62 0.578,1.203 1.083,1.698 1.795,1.763 4.704,1.763 6.499,0 0.469,-0.461 0.812,-0.997 1.036,-1.569 1.141,0.178 2.349,-0.161 3.229,-1.025 0.996,-0.979 1.311,-2.373 0.946,-3.615 0.843,-0.144 1.652,-0.533 2.304,-1.174 1.682,-1.652 1.682,-4.331 0,-5.984 z"
   id="path6"
   inkscape:connector-curvature="0" />
	<path
   style="fill:#436b1c"
   d="m 40.387,30.918 c -0.677,0.186 -1.431,0.027 -1.964,-0.496 -0.317,-0.311 -0.503,-0.7 -0.561,-1.104 -0.033,-0.225 -0.109,-0.442 -0.222,-0.635 -3.918,4.044 -6.655,11.494 -6.655,11.494 1.301,-4.626 1.096,-9.242 0.693,-12.321 -0.829,0.409 -1.764,0.642 -2.756,0.642 -0.966,0 -1.875,-0.226 -2.688,-0.615 1.751,6.191 0.751,16.294 0.751,16.294 -1.874,-7.495 -5.994,-12.181 -7.941,-14.058 -0.139,0.109 -0.264,0.235 -0.352,0.393 -0.14,0.254 -0.32,0.493 -0.539,0.709 -0.925,0.909 -2.281,1.136 -3.421,0.682 -0.153,0.331 -0.364,0.642 -0.641,0.914 -0.33,0.324 -0.717,0.555 -1.127,0.706 5.021,0 10.78,9.994 11.523,20.655 0.055,0.784 0.712,1.392 1.498,1.392 h 5 c 0.77,0 1.412,-0.577 1.499,-1.341 0.459,-4.056 1.876,-21.012 9.746,-21.012 -0.269,-0.171 -0.525,-0.368 -0.761,-0.599 -0.503,-0.497 -0.861,-1.08 -1.082,-1.7 z"
   id="path8"
   inkscape:connector-curvature="0" />
	<path
   style="fill:#659c35"
   d="m 23.468,15.177 c -0.121,0 -0.244,-0.022 -0.364,-0.069 -2.517,-0.984 -3.765,-3.833 -2.781,-6.35 0.984,-2.516 3.828,-3.764 6.351,-2.782 0.514,0.201 0.769,0.781 0.567,1.295 -0.201,0.515 -0.779,0.768 -1.296,0.568 -1.491,-0.583 -3.177,0.156 -3.759,1.646 -0.583,1.491 0.156,3.177 1.646,3.759 0.514,0.201 0.769,0.781 0.567,1.295 -0.154,0.397 -0.532,0.638 -0.931,0.638 z"
   id="path10"
   inkscape:connector-curvature="0" />
	<path
   style="fill:#88c057"
   d="m 49.084,25.647 c -0.604,0 -1.207,-0.113 -1.786,-0.339 -1.219,-0.477 -2.18,-1.399 -2.705,-2.599 -0.222,-0.506 0.009,-1.096 0.515,-1.317 0.51,-0.222 1.097,0.01 1.317,0.515 0.311,0.71 0.88,1.256 1.602,1.539 0.723,0.282 1.511,0.265 2.221,-0.045 0.71,-0.311 1.256,-0.88 1.538,-1.602 0.282,-0.722 0.267,-1.51 -0.045,-2.22 -0.222,-0.506 0.009,-1.096 0.515,-1.317 0.509,-0.221 1.096,0.009 1.317,0.515 0.525,1.199 0.553,2.531 0.076,3.751 -0.477,1.22 -1.399,2.181 -2.599,2.706 -0.631,0.274 -1.298,0.413 -1.966,0.413 z"
   id="path12"
   inkscape:connector-curvature="0" />
	<path
   style="fill:#659c35"
   d="m 35.391,23.175 c -1.711,0 -3.375,-0.896 -4.275,-2.489 -0.272,-0.481 -0.103,-1.091 0.378,-1.363 0.479,-0.272 1.091,-0.103 1.362,0.378 0.382,0.675 1.003,1.161 1.75,1.369 0.745,0.206 1.529,0.111 2.204,-0.27 0.675,-0.381 1.161,-1.002 1.369,-1.75 0.207,-0.747 0.111,-1.53 -0.27,-2.204 -0.272,-0.481 -0.103,-1.091 0.378,-1.363 0.479,-0.271 1.091,-0.103 1.362,0.378 0.645,1.14 0.807,2.462 0.456,3.724 -0.351,1.262 -1.172,2.311 -2.312,2.955 -0.759,0.431 -1.586,0.635 -2.402,0.635 z"
   id="path14"
   inkscape:connector-curvature="0" />
	<path
   style="fill:#659c35"
   d="m 31.881,17.778 c -0.716,0 -1.441,-0.157 -2.128,-0.489 -2.433,-1.178 -3.454,-4.115 -2.277,-6.548 0.241,-0.496 0.837,-0.705 1.336,-0.465 0.497,0.241 0.705,0.839 0.465,1.336 -0.697,1.44 -0.093,3.179 1.348,3.876 1.44,0.695 3.179,0.093 3.876,-1.348 0.24,-0.496 0.836,-0.706 1.336,-0.465 0.497,0.241 0.705,0.839 0.465,1.336 -0.847,1.748 -2.6,2.767 -4.421,2.767 z"
   id="path16"
   inkscape:connector-curvature="0" />
	<path
   style="fill:#659c35"
   d="m 24.279,23.391 c -0.667,0 -1.333,-0.138 -1.962,-0.413 -2.476,-1.083 -3.61,-3.978 -2.528,-6.455 0.221,-0.504 0.806,-0.737 1.316,-0.516 0.506,0.221 0.737,0.811 0.516,1.317 -0.64,1.466 0.031,3.181 1.497,3.821 0.712,0.311 1.5,0.326 2.221,0.043 0.722,-0.283 1.29,-0.829 1.601,-1.54 0.221,-0.504 0.807,-0.736 1.316,-0.516 0.506,0.221 0.737,0.811 0.516,1.317 -0.523,1.2 -1.483,2.124 -2.703,2.601 -0.58,0.228 -1.185,0.341 -1.79,0.341 z"
   id="path18"
   inkscape:connector-curvature="0" />
	<path
   style="fill:#659c35"
   d="m 35.404,12.479 c -0.158,0 -0.317,-0.007 -0.477,-0.022 -1.304,-0.125 -2.48,-0.75 -3.313,-1.76 -0.352,-0.426 -0.291,-1.056 0.135,-1.408 0.428,-0.353 1.057,-0.29 1.408,0.135 0.493,0.598 1.189,0.968 1.961,1.042 0.782,0.079 1.527,-0.158 2.124,-0.65 1.234,-1.018 1.41,-2.851 0.392,-4.085 -0.352,-0.426 -0.291,-1.056 0.135,-1.408 0.428,-0.353 1.057,-0.29 1.408,0.135 1.72,2.084 1.423,5.18 -0.661,6.9 -0.888,0.731 -1.978,1.121 -3.112,1.121 z"
   id="path20"
   inkscape:connector-curvature="0" />
	<path
   style="fill:#88c057"
   d="m 9.882,24.546 c -0.613,0 -1.235,-0.115 -1.837,-0.359 -2.504,-1.016 -3.715,-3.88 -2.699,-6.385 0.207,-0.512 0.79,-0.757 1.303,-0.551 0.512,0.208 0.758,0.791 0.551,1.303 -0.602,1.482 0.115,3.178 1.598,3.78 1.486,0.604 3.18,-0.115 3.78,-1.598 0.208,-0.513 0.793,-0.758 1.303,-0.551 0.512,0.208 0.759,0.791 0.551,1.303 -0.774,1.902 -2.612,3.058 -4.55,3.058 z"
   id="path22"
   inkscape:connector-curvature="0" />
</g>
<g
   id="g26">
</g>
<g
   id="g28">
</g>
<g
   id="g30">
</g>
<g
   id="g32">
</g>
<g
   id="g34">
</g>
<g
   id="g36">
</g>
<g
   id="g38">
</g>
<g
   id="g40">
</g>
<g
   id="g42">
</g>
<g
   id="g44">
</g>
<g
   id="g46">
</g>
<g
   id="g48">
</g>
<g
   id="g50">
</g>
<g
   id="g52">
</g>
<g
   id="g54">
</g>
<text
   xml:space="preserve"
   style="font-style:normal;font-weight:normal;font-size:9.28775692px;line-height:1.25;font-family:sans-serif;letter-spacing:0px;word-spacing:0px;fill:#000000;fill-opacity:1;stroke:none;stroke-width:0.23219392"
   x="1.0139679"
   y="52.782375"
   id="text67"
   transform="scale(0.96954522,1.0314114)"><tspan
     sodipodi:role="line"
     id="tspan65"
     x="1.0139679"
     y="52.782375"
     style="stroke-width:0.23219392">BROCCOLI</tspan></text>
</svg>