<?xml version="1.0" encoding="UTF-8" standalone="no"?>
<!-- Generator: Adobe Illustrator 19.0.0, SVG Export Plug-In . SVG Version: 6.00 Build 0)  -->

<svg
   xmlns:dc="http://purl.org/dc/elements/1.1/"
   xmlns:cc="http://creativecommons.org/ns#"
   xmlns:rdf="http://www.w3.org/1999/02/22-rdf-syntax-ns#"
   xmlns:svg="http://www.w3.org/2000/svg"
   xmlns="http://www.w3.org/2000/svg"
   xmlns:sodipodi="http://sodipodi.sourceforge.net/DTD/sodipodi-0.dtd"
   xmlns:inkscape="http://www.inkscape.org/namespaces/inkscape"
   version="1.1"
   id="Layer_1"
   x="0px"
   y="0px"
   viewBox="0 0 793.7008 1122.5197"
   xml:space="preserve"
   sodipodi:docname="butter.svg"
   width="210mm"
   height="297mm"
   inkscape:version="0.92.4 (5da689c313, 2019-01-14)"><metadata
   id="metadata85"><rdf:RDF><cc:Work
       rdf:about=""><dc:format>image/svg+xml</dc:format><dc:type
         rdf:resource="http://purl.org/dc/dcmitype/StillImage" /><dc:title></dc:title></cc:Work></rdf:RDF></metadata><defs
   id="defs83" /><sodipodi:namedview
   pagecolor="#ffffff"
   bordercolor="#666666"
   borderopacity="1"
   objecttolerance="10"
   gridtolerance="10"
   guidetolerance="10"
   inkscape:pageopacity="0"
   inkscape:pageshadow="2"
   inkscape:window-width="1366"
   inkscape:window-height="745"
   id="namedview81"
   showgrid="false"
   units="mm"
   inkscape:zoom="0.46093841"
   inkscape:cx="255.9995"
   inkscape:cy="516.33797"
   inkscape:window-x="-8"
   inkscape:window-y="-8"
   inkscape:window-maximized="1"
   inkscape:current-layer="Layer_1" />
<ellipse
   style="fill:#37c837;stroke-width:1.22063899"
   id="path87"
   cx="418.71103"
   cy="325.23306"
   rx="321.08411"
   ry="309.15195" /><path
   style="fill:#00838f;stroke-width:0.78409553"
   d="m 611.02455,438.54941 v 6.23515 c 0,6.88995 -6.42488,12.47103 -14.35649,12.47103 h -12.92044 l -20.81669,22.38573 c -1.35698,1.4901 -3.41643,2.3634 -5.59875,2.36924 H 248.66719 c -2.18228,-0.007 -4.24261,-0.87914 -5.59874,-2.36924 l -21.10356,-22.38573 h -12.92128 c -7.93162,0 -14.35649,-5.58108 -14.35649,-12.47103 v -6.23515 c 0,-3.44205 3.21622,-6.23589 7.17782,-6.23589 h 401.98094 c 3.96245,7.4e-4 7.17867,2.788 7.17867,6.23589 z"
   id="path2"
   inkscape:connector-curvature="0" />
<path
   style="fill:#00bcd4;stroke-width:0.78409553"
   d="m 567.95505,438.54941 v 6.23515 c 0,6.88995 -6.42485,12.47103 -14.35647,12.47103 h -12.92043 l -20.8167,22.38573 c -1.35698,1.4901 -3.41643,2.3634 -5.59873,2.36924 H 248.66719 c -2.18228,-0.007 -4.24261,-0.87914 -5.59874,-2.36924 l -21.10356,-22.38573 h -12.92128 c -7.93162,0 -14.35649,-5.58108 -14.35649,-12.47103 v -6.23515 c 0,-3.44205 3.21622,-6.23589 7.17782,-6.23589 h 358.91147 c 3.96245,7.4e-4 7.17864,2.788 7.17864,6.23589 z"
   id="path4"
   inkscape:connector-curvature="0" />
<path
   style="fill:#fdd834;stroke-width:0.78409553"
   d="m 546.41991,332.54604 v 99.39405 H 259.2909 v -99.39405 c 0,-10.33199 9.64026,-18.70618 21.53434,-18.70618 h 244.05952 c 11.89489,0 21.53515,8.37419 21.53515,18.70618 z"
   id="path6"
   inkscape:connector-curvature="0" />
<path
   style="fill:#ffeb3a;stroke-width:0.78409553"
   d="m 517.70691,332.54604 v 99.39405 H 259.2909 v -99.39405 c -0.56702,-9.80874 8.09735,-18.1705 19.38148,-18.70618 h 219.65391 c 11.28415,0.5364 19.94766,8.89817 19.38062,18.70618 z"
   id="path8"
   inkscape:connector-curvature="0" />
<g
   id="g16"
   transform="matrix(0.84128287,0,0,0.73079566,187.48741,114.26686)">
	<path
   style="fill:#fec108"
   d="m 238.935,273.09 v 59.727 c 0,9.428 -7.637,17.065 -17.065,17.065 -9.428,0 -17.065,-7.637 -17.065,-17.065 V 273.09 Z"
   id="path10"
   inkscape:connector-curvature="0" />
	<path
   style="fill:#fec108"
   d="m 307.194,273.09 v 25.597 c 0,9.428 -7.637,17.065 -17.065,17.065 -9.428,0 -17.065,-7.637 -17.065,-17.065 V 273.09 Z"
   id="path12"
   inkscape:connector-curvature="0" />
	<path
   style="fill:#fec108"
   d="m 273.065,273.09 v 93.857 c 0,9.428 -7.637,17.065 -17.065,17.065 -9.428,0 -17.065,-7.637 -17.065,-17.065 V 273.09 Z"
   id="path14"
   inkscape:connector-curvature="0" />
</g>
<path
   d="m 266.46872,463.49146 h -7.17782 c -3.96244,0 -7.17782,-2.79383 -7.17782,-6.23515 0,-3.44203 3.21624,-6.2359 7.17782,-6.2359 h 7.17782 c 3.96246,0 7.17785,2.79387 7.17785,6.2359 8.3e-4,3.44205 -3.21539,6.23515 -7.17785,6.23515 z"
   id="path18"
   inkscape:connector-curvature="0"
   style="stroke-width:0.78409553" />
<path
   d="m 352.60769,463.49146 h -57.42596 c -3.96244,0 -7.17784,-2.79383 -7.17784,-6.23515 0,-3.44203 3.21623,-6.2359 7.17784,-6.2359 h 57.42596 c 3.96246,0 7.17783,2.79387 7.17783,6.2359 8.4e-4,3.44205 -3.21537,6.23515 -7.17783,6.23515 z"
   id="path20"
   inkscape:connector-curvature="0"
   style="stroke-width:0.78409553" />
<path
   d="M 546.41991,438.54941 H 259.2909 c -3.96244,0 -7.17782,-2.79382 -7.17782,-6.23589 v -99.76821 c 0,-13.77404 12.85649,-24.94206 28.71298,-24.94206 h 244.05952 c 15.85653,0 28.713,11.16802 28.713,24.94206 v 99.76821 c 0,3.44278 -3.21623,6.23589 -7.17867,6.23589 z M 266.46872,426.07838 h 272.77253 v -93.53234 c 0,-6.88995 -6.42488,-12.47104 -14.35649,-12.47104 H 280.82524 c -7.93161,0 -14.35652,5.58109 -14.35652,12.47104 z"
   id="path22"
   inkscape:connector-curvature="0"
   style="stroke-width:0.78409553" />
<path
   d="m 374.14285,376.195 c -11.89405,0 -21.5343,-8.37418 -21.5343,-18.70617 v -43.64897 c 0,-3.44206 3.21622,-6.23515 7.17781,-6.23515 h 28.71298 c 3.96245,0 7.17783,2.79383 7.17783,6.23515 v 43.64822 c 0,10.332 -9.64026,18.70692 -21.53432,18.70692 z m -7.17866,-56.12 v 37.41308 c 0,3.44206 3.21621,6.23516 7.17781,6.23516 3.96244,0 7.17784,-2.79383 7.17784,-6.23516 V 320.075 Z"
   id="path24"
   inkscape:connector-curvature="0"
   style="stroke-width:0.78409553" />
<path
   d="m 431.56881,351.25295 c -11.89403,0 -21.5343,-8.37419 -21.5343,-18.70619 v -18.7069 c 0,-3.44206 3.2162,-6.23515 7.17781,-6.23515 h 28.71299 c 3.96243,0 7.17867,2.79383 7.17867,6.23515 v 18.70618 c -8.2e-4,10.33197 -9.6411,18.70691 -21.53517,18.70691 z M 424.39015,320.075 v 12.47104 c 0,3.44205 3.21623,6.23586 7.17866,6.23586 3.96245,0 7.17783,-2.79381 7.17783,-6.23586 V 320.075 Z"
   id="path26"
   inkscape:connector-curvature="0"
   style="stroke-width:0.78409553" />
<path
   d="m 402.85584,401.13631 c -11.89407,0 -21.53432,-8.37417 -21.53432,-18.70617 v -68.59028 c 0,-3.44206 3.21622,-6.23515 7.17782,-6.23515 h 28.71298 c 3.96245,0 7.17783,2.79383 7.17783,6.23515 v 68.59028 c 0,10.332 -9.64028,18.70617 -21.53431,18.70617 z M 395.67717,320.075 v 62.35514 c 0,3.44205 3.21624,6.23517 7.17784,6.23517 3.96158,0 7.1778,-2.79385 7.1778,-6.23517 V 320.075 Z"
   id="path28"
   inkscape:connector-curvature="0"
   style="stroke-width:0.78409553" />
<path
   d="m 288.00389,345.01707 c -0.94057,-0.0125 -1.86597,-0.18051 -2.72742,-0.49914 -0.86823,-0.3179 -1.67247,-0.76076 -2.36908,-1.30958 -1.34268,-1.17878 -2.09562,-2.76826 -2.08133,-4.42717 0.0143,-0.81703 0.2078,-1.6209 0.57459,-2.36924 0.36598,-0.75419 0.87579,-1.45281 1.50757,-2.0579 1.68679,-1.52738 4.14166,-2.20702 6.53257,-1.808 l 1.29222,0.37416 c 0.44503,0.12497 0.8539,0.31204 1.22072,0.56126 l 1.07684,0.74832 c 1.40662,1.19706 2.18227,2.84355 2.15367,4.55212 -0.007,1.66477 -0.78241,3.26082 -2.15367,4.42716 -1.3368,1.15321 -3.1464,1.80215 -5.02668,1.80801 z"
   id="path30"
   inkscape:connector-curvature="0"
   style="stroke-width:0.78409553" />
<path
   style="fill:#4e342e;stroke-width:0.78409553"
   d="m 601.90756,164.18753 -85.20514,73.76578 10.1215,8.85431 c 5.60631,4.87004 5.61304,12.76409 0.0141,17.63411 -0.007,0.007 -0.007,0.007 -0.0141,0.0124 l -10.193,8.85434 c -2.79221,2.44451 -7.33598,2.46277 -10.15006,0.0374 -0.0143,-0.0125 -0.0287,-0.0248 -0.043,-0.0374 L 460.784,233.65041 c -5.60633,-4.87001 -5.61307,-12.76406 -0.0143,-17.63411 0.007,-0.007 0.007,-0.007 0.0143,-0.0125 l 101.42839,-88.1069 c 2.27567,-1.98923 4.92404,-3.62913 7.82394,-4.86344 11.94453,-5.04469 26.31533,-2.30713 34.74247,6.6093 9.46863,10.42626 8.2193,25.40391 -2.87134,34.54471 z"
   id="path32"
   inkscape:connector-curvature="0" />
<path
   style="fill:#795548;stroke-width:0.78409553"
   d="m 580.37325,165.18506 -85.20597,73.82864 10.12148,8.79219 c 5.62735,4.85104 5.66351,12.74508 0.0857,17.6341 -0.0287,0.0248 -0.0571,0.0498 -0.0857,0.0745 l -3.73278,3.30466 -40.7728,-35.41729 c -5.6063,-4.87001 -5.61302,-12.76407 -0.0142,-17.63409 0.007,-0.007 0.007,-0.007 0.0142,-0.0124 l 101.4293,-87.85845 c 2.27565,-1.98922 4.92403,-3.62912 7.82393,-4.86345 5.16127,1.50252 9.73366,4.22109 13.20813,7.85678 9.28861,10.3817 8.04689,25.1847 -2.87129,34.29479 z"
   id="path34"
   inkscape:connector-curvature="0" />
<path
   d="m 511.53361,281.35234 c -3.79001,0 -7.4294,-1.29715 -10.1215,-3.61671 l -45.65388,-39.65808 c -8.42713,-7.29554 -8.44902,-19.13662 -0.0505,-26.457 0.0143,-0.0124 0.0361,-0.0314 0.0505,-0.0438 l 101.35774,-88.10692 c 13.96867,-12.21526 36.69509,-12.27736 50.75714,-0.14324 0.8539,0.7359 1.66572,1.51494 2.43383,2.32613 11.571,12.87003 10.14251,31.24006 -3.30206,42.65068 l -80.18096,69.65069 5.09648,4.42715 c 8.42713,7.29553 8.44898,19.13661 0.0505,26.45701 -0.0144,0.0124 -0.0361,0.0314 -0.0505,0.0438 l -10.19297,8.85432 c -2.71399,2.33196 -6.38198,3.63499 -10.19382,3.61598 z m 70.77794,-154.5779 c -5.77118,-0.0124 -11.306,1.98922 -15.36098,5.54967 l -101.07004,87.9834 c -2.81408,2.42551 -2.83511,6.37254 -0.043,8.81705 0.0143,0.0125 0.0287,0.0248 0.043,0.0372 l 45.65392,39.6581 v 0 l 10.19298,-8.85432 c 2.81408,-2.42551 2.83512,-6.37255 0.043,-8.81706 -0.0143,-0.0125 -0.0287,-0.0248 -0.043,-0.0372 l -10.19298,-8.85435 c -2.78549,-2.43207 -2.78549,-6.3601 0,-8.79219 l 85.13361,-73.9536 c 8.27655,-6.85925 9.29619,-18.03311 2.36905,-25.93959 -3.80427,-4.02157 -9.37442,-6.48508 -15.361,-6.79639 z"
   id="path36"
   inkscape:connector-curvature="0"
   style="stroke-width:0.78409553" />
<path
   d="m 567.95505,164.18753 c -0.90435,0.14981 -1.82303,0.14981 -2.72742,0 -0.87578,-0.30548 -1.65816,-0.77318 -2.2967,-1.37173 -1.5,-1.2723 -2.28998,-3.04886 -2.15368,-4.86342 -0.0143,-1.65892 0.73949,-3.24839 2.08134,-4.42715 0.67469,-0.56125 1.45038,-1.0224 2.29669,-1.37172 1.36371,-0.33689 2.79977,-0.33689 4.16352,0 h 1.36373 c 0.43073,0.16808 0.83959,0.38003 1.22068,0.62337 0.40886,0.19367 0.76809,0.44871 1.07684,0.74835 1.3713,1.16633 2.14611,2.76239 2.15369,4.42715 -0.0287,1.64648 -0.80427,3.21111 -2.15369,4.36503 -0.63854,0.59853 -1.42092,1.06623 -2.2967,1.37172 -0.8623,0.31788 -1.78855,0.48597 -2.7283,0.4984 z"
   id="path38"
   inkscape:connector-curvature="0"
   style="stroke-width:0.78409553" />
<path
   d="M 557.33135,488.43351 H 248.66719 c -4.35701,0 -8.47761,-1.72101 -11.19832,-4.67637 l -18.95073,-20.26568 h -9.47453 c -11.89406,0 -21.53432,-8.37418 -21.53432,-18.70617 v -6.23515 c 0,-6.88995 6.42488,-12.47103 14.35649,-12.47103 h 401.98095 c 7.9316,0 14.3565,5.58108 14.3565,12.47103 v 6.23515 c 0,10.33199 -9.64026,18.70617 -21.53434,18.70617 h -9.47535 l -18.66303,20.07862 c -2.67864,3.02402 -6.80682,4.81374 -11.19916,4.86343 z m -355.46641,-49.8841 v 6.23515 c 0,3.44204 3.21623,6.23513 7.17783,6.23513 h 12.92042 c 2.17472,-0.007 4.22829,0.8419 5.59875,2.30715 l 20.81668,22.63492 h 308.66417 l 20.8167,-22.44786 c 1.38558,-1.60846 3.57462,-2.53146 5.88646,-2.49421 h 12.92043 c 3.96246,0 7.17782,-2.79381 7.17782,-6.23513 v -6.23515 z"
   id="path40"
   inkscape:connector-curvature="0"
   style="stroke-width:0.78409553" />
<polygon
   style="fill:#607d8b"
   points="373.065,211.656 311.29,273.09 202.33,273.09 302.928,173.089 318.799,157.304 324.857,163.362 "
   id="polygon42"
   transform="matrix(0.84128287,0,0,0.73079566,187.48741,114.26686)" />
<path
   style="fill:#cfd8dc;stroke-width:0.78409553"
   d="m 469.61333,273.37132 -46.87377,40.46854 h -65.0354 l 84.6314,-73.08029 27.27692,23.75743 c 2.81408,2.42551 2.83511,6.37254 0.043,8.81705 -0.0135,0.0124 -0.0276,0.0248 -0.0421,0.0372 z"
   id="path44"
   inkscape:connector-curvature="0" />
<path
   d="m 449.37036,320.075 h -91.6662 c -3.96243,0.019 -7.19969,-2.75582 -7.22157,-6.19786 -0.0143,-1.67719 0.75381,-3.28639 2.1251,-4.46445 l 98.05487,-84.61589 c 2.7998,-2.41967 7.3217,-2.41967 10.1215,0 l 45.65388,39.7202 c 2.81409,2.42551 2.83513,6.37254 0.043,8.81705 -0.0143,0.0124 -0.0287,0.0248 -0.043,0.0372 l -51.97023,44.89569 c -1.357,1.16562 -3.18765,1.81456 -5.09735,1.80799 z m -74.29454,-12.47101 h 71.28022 l 44.79243,-38.65983 -35.53243,-31.17721 z"
   id="path46"
   inkscape:connector-curvature="0"
   style="stroke-width:0.78409553" />
<path
   d="m 331.07337,345.01707 h -14.35649 c -3.96245,0 -7.17781,-2.79383 -7.17781,-6.23517 0,-3.44204 3.2162,-6.23586 7.17781,-6.23586 h 14.35649 c 3.96244,0 7.17783,2.79382 7.17783,6.23586 0,3.44205 -3.21539,6.23517 -7.17783,6.23517 z"
   id="path48"
   inkscape:connector-curvature="0"
   style="stroke-width:0.78409553" />
<g
   id="g50"
   transform="translate(0,610.52069)">
</g>
<g
   id="g52"
   transform="translate(0,610.52069)">
</g>
<g
   id="g54"
   transform="translate(0,610.52069)">
</g>
<g
   id="g56"
   transform="translate(0,610.52069)">
</g>
<g
   id="g58"
   transform="translate(0,610.52069)">
</g>
<g
   id="g60"
   transform="translate(0,610.52069)">
</g>
<g
   id="g62"
   transform="translate(0,610.52069)">
</g>
<g
   id="g64"
   transform="translate(0,610.52069)">
</g>
<g
   id="g66"
   transform="translate(0,610.52069)">
</g>
<g
   id="g68"
   transform="translate(0,610.52069)">
</g>
<g
   id="g70"
   transform="translate(0,610.52069)">
</g>
<g
   id="g72"
   transform="translate(0,610.52069)">
</g>
<g
   id="g74"
   transform="translate(0,610.52069)">
</g>
<g
   id="g76"
   transform="translate(0,610.52069)">
</g>
<g
   id="g78"
   transform="translate(0,610.52069)">
</g>
<text
   xml:space="preserve"
   style="font-style:normal;font-weight:normal;font-size:159.51968384px;line-height:1.25;font-family:sans-serif;letter-spacing:0px;word-spacing:0px;fill:#000000;fill-opacity:1;stroke:none;stroke-width:3.98799229"
   x="176.77034"
   y="674.24438"
   id="text91"
   transform="scale(0.84367119,1.1852959)"><tspan
     sodipodi:role="line"
     id="tspan89"
     x="176.77034"
     y="674.24438"
     style="stroke-width:3.98799229">BUTTER</tspan></text>
</svg>