<?xml version="1.0" encoding="UTF-8" standalone="no"?>
<!-- Generator: Adobe Illustrator 18.0.0, SVG Export Plug-In . SVG Version: 6.00 Build 0)  -->

<svg
   xmlns:dc="http://purl.org/dc/elements/1.1/"
   xmlns:cc="http://creativecommons.org/ns#"
   xmlns:rdf="http://www.w3.org/1999/02/22-rdf-syntax-ns#"
   xmlns:svg="http://www.w3.org/2000/svg"
   xmlns="http://www.w3.org/2000/svg"
   xmlns:sodipodi="http://sodipodi.sourceforge.net/DTD/sodipodi-0.dtd"
   xmlns:inkscape="http://www.inkscape.org/namespaces/inkscape"
   version="1.1"
   id="Capa_1"
   x="0px"
   y="0px"
   viewBox="0 0 51.906 51.906"
   style="enable-background:new 0 0 51.906 51.906;"
   xml:space="preserve"
   sodipodi:docname="cereals.svg"
   inkscape:version="0.92.4 (5da689c313, 2019-01-14)"><metadata
   id="metadata59"><rdf:RDF><cc:Work
       rdf:about=""><dc:format>image/svg+xml</dc:format><dc:type
         rdf:resource="http://purl.org/dc/dcmitype/StillImage" /></cc:Work></rdf:RDF></metadata><defs
   id="defs57" /><sodipodi:namedview
   pagecolor="#ffffff"
   bordercolor="#666666"
   borderopacity="1"
   objecttolerance="10"
   gridtolerance="10"
   guidetolerance="10"
   inkscape:pageopacity="0"
   inkscape:pageshadow="2"
   inkscape:window-width="1366"
   inkscape:window-height="745"
   id="namedview55"
   showgrid="false"
   inkscape:zoom="9.0933614"
   inkscape:cx="33.466007"
   inkscape:cy="25.952999"
   inkscape:window-x="-8"
   inkscape:window-y="-8"
   inkscape:window-maximized="1"
   inkscape:current-layer="Capa_1" />
<ellipse
   style="fill:#ffdd55;stroke-width:1.22156036"
   id="path61"
   cx="24.303448"
   cy="22.873829"
   rx="24.083506"
   ry="22.543917" /><g
   id="g22"
   transform="matrix(0.66443521,0,0,0.62932377,8.151451,7.3461305)">
	<polygon
   style="fill:#b27c4f"
   points="7.88,49 0.904,46 0.904,0 7.88,0 "
   id="polygon2" />
	<path
   style="fill:#a46f3e"
   d="m 15.431,34.121 c 0,0 0,-0.069 0,-0.104 0,-2.371 7.963,-4.293 17.785,-4.293 1.028,0 2.03,0.026 3.01,0.066 L 38.903,19.75 V 0 H 7.911 V 49 H 23.489 C 18.64,45.823 15.431,40.35 15.431,34.121 Z"
   id="path4"
   inkscape:connector-curvature="0" />
	<path
   style="fill:#f9ea80"
   d="m 20.904,23.228 h -3.658 c -2.95,0 -5.342,-2.392 -5.342,-5.342 v -3.658 h 3.658 c 2.95,0 5.342,2.392 5.342,5.342 z"
   id="path6"
   inkscape:connector-curvature="0" />
	<path
   style="fill:#f9ea80"
   d="m 24.904,23.228 h 3.658 c 2.95,0 5.342,-2.392 5.342,-5.342 v -3.658 h -3.658 c -2.95,0 -5.342,2.392 -5.342,5.342 z"
   id="path8"
   inkscape:connector-curvature="0" />
	<path
   style="fill:#f9ea80"
   d="m 22.897,18.728 2.587,-2.587 c 2.086,-2.086 2.086,-5.468 0,-7.554 L 22.897,6 20.31,8.587 c -2.086,2.086 -2.086,5.468 0,7.554 z"
   id="path10"
   inkscape:connector-curvature="0" />
	<path
   style="fill:#efe7d0"
   d="M 40.154,30.063 43.904,16 c 0,-0.55 -0.45,-1 -1,-1 h -2 c -0.55,0 -1,0.45 -1,1 l -3.677,13.79 c -0.98,-0.041 -1.982,-0.066 -3.01,-0.066 -9.823,0 -17.785,1.922 -17.785,4.293 0,0.035 0,0.104 0,0.104 0,9.823 7.963,17.785 17.785,17.785 9.823,0 17.785,-7.963 17.785,-17.785 0,0 0,-0.069 0,-0.104 0,-1.777 -4.472,-3.301 -10.848,-3.954 z"
   id="path12"
   inkscape:connector-curvature="0" />
	<path
   style="fill:#fff5bb"
   d="M 40.154,30.063 43.904,16 c 0,-0.55 -0.45,-1 -1,-1 h -2 c -0.55,0 -1,0.45 -1,1 l -3.677,13.79 c -0.98,-0.041 -1.982,-0.066 -3.01,-0.066 -9.823,0 -17.785,1.922 -17.785,4.293 0,2.371 7.963,4.293 17.785,4.293 9.823,0 17.785,-1.922 17.785,-4.293 0,-1.777 -4.472,-3.301 -10.848,-3.954 z"
   id="path14"
   inkscape:connector-curvature="0" />
	<path
   style="fill:#d2d5d7"
   d="M 40.154,30.063 43.904,16 c 0,-0.55 -0.45,-1 -1,-1 h -2 c -0.55,0 -1,0.45 -1,1 L 36.227,29.79 35.571,32.292 39.446,33 Z"
   id="path16"
   inkscape:connector-curvature="0" />
	<path
   style="fill:#ed8f20"
   d="m 28.904,35 h -2 c 0,-0.552 -0.449,-1 -1,-1 -0.551,0 -1,0.448 -1,1 h -2 c 0,-1.654 1.346,-3 3,-3 1.654,0 3,1.346 3,3 z"
   id="path18"
   inkscape:connector-curvature="0" />
	<path
   style="fill:#ed8f20"
   d="m 36.904,36 h -2 c 0,-0.552 -0.449,-1 -1,-1 -0.551,0 -1,0.448 -1,1 h -2 c 0,-1.654 1.346,-3 3,-3 1.654,0 3,1.346 3,3 z"
   id="path20"
   inkscape:connector-curvature="0" />
</g>
<g
   id="g24">
</g>
<g
   id="g26">
</g>
<g
   id="g28">
</g>
<g
   id="g30">
</g>
<g
   id="g32">
</g>
<g
   id="g34">
</g>
<g
   id="g36">
</g>
<g
   id="g38">
</g>
<g
   id="g40">
</g>
<g
   id="g42">
</g>
<g
   id="g44">
</g>
<g
   id="g46">
</g>
<g
   id="g48">
</g>
<g
   id="g50">
</g>
<g
   id="g52">
</g>
<text
   xml:space="preserve"
   style="font-style:normal;font-weight:normal;font-size:9.17781448px;line-height:1.25;font-family:sans-serif;letter-spacing:0px;word-spacing:0px;fill:#000000;fill-opacity:1;stroke:none;stroke-width:0.22944538"
   x="4.8065648"
   y="56.321747"
   id="text65"
   transform="scale(1.0832827,0.92312007)"><tspan
     sodipodi:role="line"
     id="tspan63"
     x="4.8065648"
     y="56.321747"
     style="stroke-width:0.22944538">CEREAL</tspan></text>

</svg>