<?xml version="1.0" encoding="UTF-8" standalone="no"?>
<!-- Generator: Adobe Illustrator 18.0.0, SVG Export Plug-In . SVG Version: 6.00 Build 0)  -->

<svg
   xmlns:dc="http://purl.org/dc/elements/1.1/"
   xmlns:cc="http://creativecommons.org/ns#"
   xmlns:rdf="http://www.w3.org/1999/02/22-rdf-syntax-ns#"
   xmlns:svg="http://www.w3.org/2000/svg"
   xmlns="http://www.w3.org/2000/svg"
   xmlns:sodipodi="http://sodipodi.sourceforge.net/DTD/sodipodi-0.dtd"
   xmlns:inkscape="http://www.inkscape.org/namespaces/inkscape"
   version="1.1"
   id="Capa_1"
   x="0px"
   y="0px"
   viewBox="0 0 98.26771 139.84251"
   xml:space="preserve"
   sodipodi:docname="cheese.svg"
   inkscape:version="0.92.4 (5da689c313, 2019-01-14)"
   width="26mm"
   height="37mm"><metadata
   id="metadata59"><rdf:RDF><cc:Work
       rdf:about=""><dc:format>image/svg+xml</dc:format><dc:type
         rdf:resource="http://purl.org/dc/dcmitype/StillImage" /><dc:title></dc:title></cc:Work></rdf:RDF></metadata><defs
   id="defs57" /><sodipodi:namedview
   pagecolor="#ffffff"
   bordercolor="#666666"
   borderopacity="1"
   objecttolerance="10"
   gridtolerance="10"
   guidetolerance="10"
   inkscape:pageopacity="0"
   inkscape:pageshadow="2"
   inkscape:window-width="1366"
   inkscape:window-height="745"
   id="namedview55"
   showgrid="false"
   inkscape:zoom="4.5723141"
   inkscape:cx="37.467041"
   inkscape:cy="93.155635"
   inkscape:window-x="-8"
   inkscape:window-y="-8"
   inkscape:window-maximized="1"
   inkscape:current-layer="Capa_1"
   units="mm" />
<ellipse
   style="fill:#88aa00;stroke-width:2.00763893"
   id="path61"
   cx="48.717129"
   cy="41.47097"
   rx="40.296883"
   ry="38.211231" /><g
   id="g22"
   transform="matrix(1.1890432,0,0,1.0582134,17.140351,12.068792)">
	<path
   style="fill:#eeaf4b"
   d="m 47.923,33.056 c 0.388,-0.431 0.935,-0.702 1.587,-0.755 0.217,-0.018 0.446,-0.011 0.685,0.021 0.198,0.027 0.394,0.077 0.587,0.14 0.178,0.054 0.352,0.127 0.525,0.206 v -2.234 c 0,-1.875 -0.871,-3.644 -2.357,-4.788 L 31.54,9.176 C 30.991,9.627 30.197,9.781 29.303,9.505 27.649,8.993 26.308,7.237 26.308,5.582 c 0,-0.426 0.091,-0.801 0.251,-1.118 L 23.579,1.645 C 21.407,-0.01 18.97,-0.37 17.308,0.357 L 2.479,7.51 c -1.341,0.579 -2.172,1.94 -2.172,3.44 0,0.012 0,0.012 0,0.009 v 15.747 c 0.463,-0.085 0.976,-0.066 1.527,0.105 1.918,0.594 3.473,2.63 3.473,4.548 0,1.918 -1.555,2.992 -3.473,2.398 C 1.283,33.587 0.77,33.288 0.307,32.916 v 2.163 c 0,1.688 1.149,3.159 2.786,3.568 l 43.644,12.857 c 2.321,0.58 4.57,-1.175 4.57,-3.568 v -8.341 h -0.001 c -0.939,-0.152 -1.85,-0.677 -2.567,-1.417 -0.016,-0.016 -0.029,-0.035 -0.044,-0.052 -0.161,-0.17 -0.314,-0.347 -0.453,-0.536 -0.046,-0.062 -0.081,-0.131 -0.124,-0.195 -0.1,-0.15 -0.203,-0.298 -0.287,-0.457 -0.067,-0.125 -0.115,-0.258 -0.171,-0.388 -0.045,-0.105 -0.101,-0.208 -0.138,-0.315 -0.084,-0.242 -0.148,-0.489 -0.189,-0.739 -0.041,-0.252 -0.057,-0.494 -0.05,-0.725 0.014,-0.462 0.122,-0.879 0.307,-1.233 0.092,-0.178 0.204,-0.339 0.333,-0.482 z"
   id="path2"
   inkscape:connector-curvature="0" />
	<path
   style="fill:#fcdf76"
   d="m 50.196,32.322 c 0.379,0.052 0.751,0.181 1.112,0.346 v -2.235 c 0,-1.735 -1.212,-3.233 -2.908,-3.596 L 29.233,21.129 c 0.01,0.103 0.03,0.206 0.03,0.308 0,1.655 -1.341,2.581 -2.995,2.068 -1.654,-0.512 -2.995,-2.268 -2.995,-3.923 0,-0.078 0.017,-0.147 0.023,-0.222 L 2.244,13.091 C 1.073,12.866 0.498,11.975 0.373,10.965 L 0.308,10.95 v 15.755 c 0.463,-0.085 0.976,-0.066 1.527,0.105 1.918,0.594 3.473,2.63 3.473,4.548 0,1.918 -1.555,2.992 -3.473,2.398 -0.551,-0.17 -1.064,-0.469 -1.527,-0.841 v 2.163 c 0,1.688 1.149,3.159 2.786,3.568 l 43.644,12.857 c 2.321,0.58 4.57,-1.175 4.57,-3.568 v -8.341 c -1.88,-0.304 -3.649,-2.115 -3.975,-4.099 -0.331,-2.013 0.951,-3.434 2.863,-3.173 z"
   id="path4"
   inkscape:connector-curvature="0" />
	<path
   style="fill:#f4c44e"
   d="m 26.124,32.007 c 0,2.254 -1.827,3.515 -4.081,2.818 -2.254,-0.698 -4.081,-3.09 -4.081,-5.344 0,-2.254 1.827,-3.515 4.081,-2.818 2.254,0.697 4.081,3.09 4.081,5.344 z"
   id="path6"
   inkscape:connector-curvature="0" />
	<path
   style="fill:#eeaf4b"
   d="m 22.043,26.663 c -1.672,-0.518 -3.106,0.047 -3.736,1.292 0.63,1.635 2.064,3.087 3.736,3.605 1.672,0.518 3.106,-0.047 3.736,-1.292 -0.63,-1.635 -2.064,-3.088 -3.736,-3.605 z"
   id="path8"
   inkscape:connector-curvature="0" />
	<path
   style="fill:#f4c44e"
   d="m 43.021,37.539 c 0,1.578 -1.279,2.461 -2.857,1.972 -1.578,-0.488 -2.857,-2.163 -2.857,-3.741 0,-1.578 1.279,-2.461 2.857,-1.972 1.578,0.489 2.857,2.164 2.857,3.741 z"
   id="path10"
   inkscape:connector-curvature="0" />
	<path
   style="fill:#eeaf4b"
   d="m 15.021,35.539 c 0,1.578 -1.279,2.461 -2.857,1.972 -1.578,-0.489 -2.857,-2.163 -2.857,-3.741 0,-1.578 1.279,-2.461 2.857,-1.972 1.578,0.489 2.857,2.164 2.857,3.741 z"
   id="path12"
   inkscape:connector-curvature="0" />
	<path
   style="fill:#eeaf4b"
   d="m 35.021,43.165 c 0,1.025 -0.831,1.599 -1.857,1.282 -1.025,-0.317 -1.857,-1.406 -1.857,-2.431 0,-1.025 0.831,-1.599 1.857,-1.282 1.026,0.317 1.857,1.405 1.857,2.431 z"
   id="path14"
   inkscape:connector-curvature="0" />
	<path
   style="fill:#eeaf4b"
   d="m 34.308,31.277 c 0,1.025 -0.831,1.599 -1.857,1.282 -1.025,-0.317 -1.857,-1.406 -1.857,-2.431 0,-1.025 0.831,-1.599 1.857,-1.282 1.025,0.317 1.857,1.405 1.857,2.431 z"
   id="path16"
   inkscape:connector-curvature="0" />
	<path
   style="fill:#f4c44e"
   d="m 9.308,20.775 c 0,1.127 -0.914,1.758 -2.04,1.409 -1.127,-0.349 -2.04,-1.545 -2.04,-2.672 0,-1.127 0.914,-1.758 2.04,-1.409 1.126,0.349 2.04,1.545 2.04,2.672 z"
   id="path18"
   inkscape:connector-curvature="0" />
	<path
   style="fill:#f4c44e"
   d="m 29.263,21.437 c 0,1.654 -1.341,2.58 -2.995,2.068 -1.654,-0.512 -2.995,-2.268 -2.995,-3.923 0,-1.654 1.341,-2.58 2.995,-2.068 1.653,0.512 2.995,2.268 2.995,3.923 z"
   id="path20"
   inkscape:connector-curvature="0" />
</g>
<g
   id="g24"
   transform="translate(0,88.227561)">
</g>
<g
   id="g26"
   transform="translate(0,88.227561)">
</g>
<g
   id="g28"
   transform="translate(0,88.227561)">
</g>
<g
   id="g30"
   transform="translate(0,88.227561)">
</g>
<g
   id="g32"
   transform="translate(0,88.227561)">
</g>
<g
   id="g34"
   transform="translate(0,88.227561)">
</g>
<g
   id="g36"
   transform="translate(0,88.227561)">
</g>
<g
   id="g38"
   transform="translate(0,88.227561)">
</g>
<g
   id="g40"
   transform="translate(0,88.227561)">
</g>
<g
   id="g42"
   transform="translate(0,88.227561)">
</g>
<g
   id="g44"
   transform="translate(0,88.227561)">
</g>
<g
   id="g46"
   transform="translate(0,88.227561)">
</g>
<g
   id="g48"
   transform="translate(0,88.227561)">
</g>
<g
   id="g50"
   transform="translate(0,88.227561)">
</g>
<g
   id="g52"
   transform="translate(0,88.227561)">
</g>
<text
   xml:space="preserve"
   style="font-style:normal;font-weight:normal;font-size:21.51612282px;line-height:1.25;font-family:sans-serif;letter-spacing:0px;word-spacing:0px;fill:#000000;fill-opacity:1;stroke:none;stroke-width:0.53790313"
   x="9.6720495"
   y="88.687897"
   id="text65"
   transform="scale(0.88568006,1.1290759)"><tspan
     sodipodi:role="line"
     id="tspan63"
     x="9.6720495"
     y="88.687897"
     style="stroke-width:0.53790313">CHEESE</tspan></text>
</svg>