<?xml version="1.0" encoding="UTF-8" standalone="no"?>
<!-- Generator: Adobe Illustrator 18.0.0, SVG Export Plug-In . SVG Version: 6.00 Build 0)  -->

<svg
   xmlns:dc="http://purl.org/dc/elements/1.1/"
   xmlns:cc="http://creativecommons.org/ns#"
   xmlns:rdf="http://www.w3.org/1999/02/22-rdf-syntax-ns#"
   xmlns:svg="http://www.w3.org/2000/svg"
   xmlns="http://www.w3.org/2000/svg"
   xmlns:sodipodi="http://sodipodi.sourceforge.net/DTD/sodipodi-0.dtd"
   xmlns:inkscape="http://www.inkscape.org/namespaces/inkscape"
   version="1.1"
   id="Capa_1"
   x="0px"
   y="0px"
   viewBox="0 0 57 57"
   style="enable-background:new 0 0 57 57;"
   xml:space="preserve"
   sodipodi:docname="corn.svg"
   inkscape:version="0.92.4 (5da689c313, 2019-01-14)"><metadata
   id="metadata53"><rdf:RDF><cc:Work
       rdf:about=""><dc:format>image/svg+xml</dc:format><dc:type
         rdf:resource="http://purl.org/dc/dcmitype/StillImage" /></cc:Work></rdf:RDF></metadata><defs
   id="defs51" /><sodipodi:namedview
   pagecolor="#ffffff"
   bordercolor="#666666"
   borderopacity="1"
   objecttolerance="10"
   gridtolerance="10"
   guidetolerance="10"
   inkscape:pageopacity="0"
   inkscape:pageshadow="2"
   inkscape:window-width="1366"
   inkscape:window-height="745"
   id="namedview49"
   showgrid="false"
   inkscape:zoom="8.2807018"
   inkscape:cx="47.118446"
   inkscape:cy="28.5"
   inkscape:window-x="-8"
   inkscape:window-y="-8"
   inkscape:window-maximized="1"
   inkscape:current-layer="Capa_1" />
<ellipse
   style="fill:#a02c2c;stroke-width:1.08318758"
   id="path55"
   cx="30.854874"
   cy="24.212923"
   rx="24.9375"
   ry="23.60911" /><g
   id="g16"
   transform="matrix(0.74476215,0,0,0.72933791,8.6956626,3.5549497)">
	<path
   style="fill:#88c057"
   d="m 18.986,38.342 v -6.137 c 0,-3.263 -1.082,-6.477 -3.236,-8.927 -1.845,-2.099 -4.639,-3.936 -8.764,-3.936 0,0 23,-9.563 23,10 v 9 -0.337 6.658 c 0,0 -0.536,8.572 7.024,9.843 0.453,0.076 0.508,0.699 0.071,0.84 -5.513,1.788 -18.095,5.418 -18.095,-10.684 v -6.658 z"
   id="path2"
   inkscape:connector-curvature="0" />
	<path
   style="fill:#659c35"
   d="m 32.446,24.544 c -1.594,0.672 -2.537,2.165 -2.455,3.748 0.018,0.34 0.027,0.69 0.027,1.05 v 8.663 0.337 6.321 c 0,0 -0.015,0.055 -0.036,0.147 -0.03,1.093 0.031,8.494 6.998,9.689 C 36.863,52.596 35.365,24.073 50.014,28 c 0,0 -9.3,-6.944 -17.568,-3.456 z"
   id="path4"
   inkscape:connector-curvature="0" />
	<path
   style="fill:#f9d70b"
   d="M 35.72,6.006 C 35.717,5.996 35.716,5.995 35.712,5.985 33.418,-0.042 28.718,0 28.718,0 c 0,0 -4.701,-0.042 -6.994,5.985 -0.004,0.01 -0.005,0.012 -0.008,0.022 -0.053,0.172 -1.115,3.704 -1.729,10.949 -0.004,0.05 0.022,0.091 0.039,0.136 4.373,0.408 8.432,2.515 9.609,8.486 0.37,-0.46 0.839,-0.84 1.401,-1.094 1.841,-0.832 3.734,-1.041 5.541,-0.889 0.302,-0.018 0.603,-0.026 0.904,-0.025 0.071,-0.061 0.137,-0.118 0.238,-0.205 V 21 C 37.228,11.002 35.779,6.2 35.72,6.006 Z"
   id="path6"
   inkscape:connector-curvature="0" />
	<path
   style="fill:#a4e869"
   d="m 25.984,33 c -0.022,0 -0.045,-10e-4 -0.068,-0.002 -0.551,-0.037 -0.968,-0.514 -0.931,-1.065 0.486,-7.233 -3.005,-7.919 -3.154,-7.944 -0.538,-0.093 -0.911,-0.601 -0.828,-1.14 0.083,-0.539 0.574,-0.91 1.115,-0.84 0.224,0.031 5.48,0.857 4.862,10.059 C 26.945,32.595 26.505,33 25.984,33 Z"
   id="path8"
   inkscape:connector-curvature="0" />
	<path
   style="fill:#a4e869"
   d="m 27.984,54 c -0.043,0 -0.086,-0.003 -0.129,-0.008 -4.963,-0.639 -6.01,-4.896 -5.871,-7.057 0.036,-0.551 0.52,-0.948 1.063,-0.934 0.55,0.036 0.967,0.509 0.934,1.059 -0.025,0.449 -0.123,4.4 4.129,4.947 0.548,0.071 0.935,0.572 0.864,1.12 C 28.91,53.631 28.48,54 27.984,54 Z"
   id="path10"
   inkscape:connector-curvature="0" />
	<path
   style="fill:#88c057"
   d="m 33.981,33.999 c -0.464,0 -0.88,-0.325 -0.978,-0.798 -0.028,-0.138 -0.674,-3.399 1.186,-5.238 1.117,-1.104 2.801,-1.418 5.007,-0.94 0.54,0.118 0.882,0.65 0.764,1.19 -0.118,0.539 -0.648,0.883 -1.19,0.765 -1.498,-0.33 -2.566,-0.19 -3.171,0.404 -0.905,0.89 -0.766,2.77 -0.636,3.419 0.108,0.541 -0.241,1.068 -0.781,1.178 -0.068,0.013 -0.135,0.02 -0.201,0.02 z"
   id="path12"
   inkscape:connector-curvature="0" />
	<path
   style="fill:#f1b501"
   d="M 37.718,21.228 H 35.175 V 18.04 h 2.359 c -0.052,-0.695 -0.107,-1.367 -0.166,-2 h -2.193 v -3.188 h 1.837 c -0.094,-0.722 -0.19,-1.394 -0.285,-2 H 35.175 V 7.663 h 0.959 C 35.904,6.62 35.739,6.069 35.72,6.006 35.717,5.996 35.716,5.995 35.712,5.985 35.668,5.87 35.619,5.773 35.573,5.663 H 35.174 V 4.775 C 33.885,2.214 32.139,1.023 30.785,0.474 H 29.986 V 0.206 C 29.227,0 28.718,0 28.718,0 c 0,0 -0.28,-0.001 -0.732,0.081 V 0.474 H 26.65 c -1.174,0.475 -2.642,1.438 -3.853,3.352 v 1.837 h -0.935 c -0.045,0.11 -0.095,0.208 -0.139,0.322 -0.004,0.01 -0.005,0.012 -0.008,0.022 -0.02,0.065 -0.184,0.612 -0.414,1.656 h 1.496 v 3.188 h -2.086 c -0.096,0.608 -0.192,1.274 -0.286,2 h 2.372 v 3.188 H 20.07 c -0.028,0.301 -0.057,0.601 -0.084,0.916 -0.004,0.05 0.022,0.091 0.039,0.136 1.687,0.157 3.325,0.572 4.771,1.359 v -0.41 h 3.188 v 3.188 h -0.101 c 0.791,1.149 1.4,2.575 1.75,4.349 0.103,-0.129 0.232,-0.234 0.351,-0.349 v -2 h 3.188 v 0.559 c 0.669,-0.141 1.338,-0.215 2,-0.233 v -0.326 h 2.543 v -2 z M 27.986,16.04 h -3.188 v -3.188 h 3.188 z m 0,-5.189 H 24.798 V 7.663 h 3.188 z m 0,-5.188 H 24.798 V 2.474 h 3.188 z m 5.188,15.565 H 29.986 V 18.04 h 3.188 z m 0,-5.188 h -3.188 v -3.188 h 3.188 z m 0,-5.189 H 29.986 V 7.663 h 3.188 z m 0,-5.188 H 29.986 V 2.474 h 3.188 z"
   id="path14"
   inkscape:connector-curvature="0" />
</g>
<g
   id="g18">
</g>
<g
   id="g20">
</g>
<g
   id="g22">
</g>
<g
   id="g24">
</g>
<g
   id="g26">
</g>
<g
   id="g28">
</g>
<g
   id="g30">
</g>
<g
   id="g32">
</g>
<g
   id="g34">
</g>
<g
   id="g36">
</g>
<g
   id="g38">
</g>
<g
   id="g40">
</g>
<g
   id="g42">
</g>
<g
   id="g44">
</g>
<g
   id="g46">
</g>
<text
   xml:space="preserve"
   style="font-style:normal;font-weight:normal;font-size:11.53908157px;line-height:1.25;font-family:sans-serif;letter-spacing:0px;word-spacing:0px;fill:#000000;fill-opacity:1;stroke:none;stroke-width:0.288477"
   x="11.874687"
   y="60.235176"
   id="text59"
   transform="scale(1.0665698,0.93758512)"><tspan
     sodipodi:role="line"
     id="tspan57"
     x="11.874687"
     y="60.235176"
     style="stroke-width:0.288477">CORN</tspan></text>
</svg>