<?xml version="1.0" encoding="UTF-8" standalone="no"?>
<!-- Created with Inkscape (http://www.inkscape.org/) -->

<svg
   xmlns:dc="http://purl.org/dc/elements/1.1/"
   xmlns:cc="http://creativecommons.org/ns#"
   xmlns:rdf="http://www.w3.org/1999/02/22-rdf-syntax-ns#"
   xmlns:svg="http://www.w3.org/2000/svg"
   xmlns="http://www.w3.org/2000/svg"
   xmlns:sodipodi="http://sodipodi.sourceforge.net/DTD/sodipodi-0.dtd"
   xmlns:inkscape="http://www.inkscape.org/namespaces/inkscape"
   version="1.1"
   id="svg5523"
   xml:space="preserve"
   width="1066.6667"
   height="1066.6667"
   viewBox="0 0 1066.6667 1066.6667"
   sodipodi:docname="Depressed.svg"
   inkscape:version="0.92.4 (5da689c313, 2019-01-14)"><metadata
     id="metadata5529"><rdf:RDF><cc:Work
         rdf:about=""><dc:format>image/svg+xml</dc:format><dc:type
           rdf:resource="http://purl.org/dc/dcmitype/StillImage" /><dc:title /></cc:Work></rdf:RDF></metadata><defs
     id="defs5527"><radialGradient
       fx="0"
       fy="0"
       cx="0"
       cy="0"
       r="1"
       gradientUnits="userSpaceOnUse"
       gradientTransform="matrix(400,0,0,-400,400,400)"
       spreadMethod="pad"
       id="radialGradient5549"><stop
         style="stop-opacity:1;stop-color:#ffffff"
         offset="0"
         id="stop5545" /><stop
         style="stop-opacity:1;stop-color:#fffeed"
         offset="1"
         id="stop5547" /></radialGradient><clipPath
       clipPathUnits="userSpaceOnUse"
       id="clipPath5559"><path
         d="M 0,800 H 800 V 0 H 0 Z"
         id="path5557"
         inkscape:connector-curvature="0" /></clipPath><clipPath
       clipPathUnits="userSpaceOnUse"
       id="clipPath5615"><path
         d="m 595.786,502.012 h 20.031 v -20.031 h -20.031 z"
         id="path5613"
         inkscape:connector-curvature="0" /></clipPath><clipPath
       clipPathUnits="userSpaceOnUse"
       id="clipPath5631"><path
         d="m 692.171,502.012 h 20.031 v -20.031 h -20.031 z"
         id="path5629"
         inkscape:connector-curvature="0" /></clipPath><clipPath
       clipPathUnits="userSpaceOnUse"
       id="clipPath5663"><path
         d="m 178.459,662.287 -70.586,-0.203 c -1.491,-0.004 -2.52,-1.515 -1.955,-2.895 v 0 c 2.939,-7.173 12.754,-25.233 37.1,-25.233 v 0 c 24.334,0 34.371,18.185 37.402,25.421 v 0 c 0.58,1.386 -0.454,2.91 -1.954,2.91 v 0 c -0.002,0 -0.005,0 -0.007,0"
         id="path5661"
         inkscape:connector-curvature="0" /></clipPath><clipPath
       clipPathUnits="userSpaceOnUse"
       id="clipPath5675"><path
         d="M 0,800 H 800 V 0 H 0 Z"
         id="path5673"
         inkscape:connector-curvature="0" /></clipPath><clipPath
       clipPathUnits="userSpaceOnUse"
       id="clipPath5707"><path
         d="m 178.459,309.805 -70.586,-0.204 c -1.491,-0.004 -2.52,-1.515 -1.955,-2.895 v 0 c 2.939,-7.173 12.754,-25.233 37.1,-25.233 v 0 c 24.334,0 34.371,18.185 37.402,25.422 v 0 c 0.58,1.384 -0.454,2.91 -1.954,2.91 v 0 c -0.002,0 -0.005,0 -0.007,0"
         id="path5705"
         inkscape:connector-curvature="0" /></clipPath><clipPath
       clipPathUnits="userSpaceOnUse"
       id="clipPath5719"><path
         d="M 0,800 H 800 V 0 H 0 Z"
         id="path5717"
         inkscape:connector-curvature="0" /></clipPath><clipPath
       clipPathUnits="userSpaceOnUse"
       id="clipPath5791"><path
         d="M 84.9642,142.012 H 104.995 V 121.981 H 84.9642 Z"
         id="path5789"
         inkscape:connector-curvature="0" /></clipPath><clipPath
       clipPathUnits="userSpaceOnUse"
       id="clipPath5807"><path
         d="M 181.349,142.012 H 201.38 V 121.981 H 181.349 Z"
         id="path5805"
         inkscape:connector-curvature="0" /></clipPath><clipPath
       clipPathUnits="userSpaceOnUse"
       id="clipPath5855"><path
         d="m 680.894,669.287 -51.718,-0.204 c -1.094,-0.004 -1.847,-1.514 -1.433,-2.895 v 0 c 2.153,-7.173 9.344,-25.233 27.182,-25.233 v 0 c 17.831,0 25.185,18.185 27.406,25.421 v 0 c 0.425,1.386 -0.333,2.911 -1.432,2.911 v 0 c -0.002,0 -0.003,0 -0.005,0"
         id="path5853"
         inkscape:connector-curvature="0" /></clipPath><clipPath
       clipPathUnits="userSpaceOnUse"
       id="clipPath5867"><path
         d="M 0,800 H 800 V 0 H 0 Z"
         id="path5865"
         inkscape:connector-curvature="0" /></clipPath><clipPath
       clipPathUnits="userSpaceOnUse"
       id="clipPath5883"><path
         d="m 595.786,679.012 h 20.031 v -20.031 h -20.031 z"
         id="path5881"
         inkscape:connector-curvature="0" /></clipPath><clipPath
       clipPathUnits="userSpaceOnUse"
       id="clipPath5899"><path
         d="m 692.171,679.012 h 20.031 v -20.031 h -20.031 z"
         id="path5897"
         inkscape:connector-curvature="0" /></clipPath><clipPath
       clipPathUnits="userSpaceOnUse"
       id="clipPath5935"><path
         d="m 178.459,488.287 -70.586,-0.204 c -1.491,-0.004 -2.52,-1.514 -1.955,-2.895 v 0 c 2.939,-7.173 12.754,-25.233 37.1,-25.233 v 0 c 24.334,0 34.371,18.185 37.402,25.421 v 0 c 0.58,1.386 -0.454,2.911 -1.954,2.911 v 0 c -0.002,0 -0.005,0 -0.007,0"
         id="path5933"
         inkscape:connector-curvature="0" /></clipPath><clipPath
       clipPathUnits="userSpaceOnUse"
       id="clipPath5947"><path
         d="M 0,800 H 800 V 0 H 0 Z"
         id="path5945"
         inkscape:connector-curvature="0" /></clipPath><clipPath
       clipPathUnits="userSpaceOnUse"
       id="clipPath5975"><path
         d="m 425.512,502.012 h 20.031 v -20.031 h -20.031 z"
         id="path5973"
         inkscape:connector-curvature="0" /></clipPath><clipPath
       clipPathUnits="userSpaceOnUse"
       id="clipPath5991"><path
         d="m 521.897,502.012 h 20.031 v -20.031 h -20.031 z"
         id="path5989"
         inkscape:connector-curvature="0" /></clipPath><clipPath
       clipPathUnits="userSpaceOnUse"
       id="clipPath6083"><path
         d="M 0,800 H 800 V 0 H 0 Z"
         id="path6081"
         inkscape:connector-curvature="0" /></clipPath></defs><sodipodi:namedview
     pagecolor="#ffffff"
     bordercolor="#666666"
     borderopacity="1"
     objecttolerance="10"
     gridtolerance="10"
     guidetolerance="10"
     inkscape:pageopacity="0"
     inkscape:pageshadow="2"
     inkscape:window-width="1366"
     inkscape:window-height="745"
     id="namedview5525"
     showgrid="false"
     showguides="false"
     inkscape:zoom="0.44249997"
     inkscape:cx="305.16989"
     inkscape:cy="623.72886"
     inkscape:window-x="-8"
     inkscape:window-y="-8"
     inkscape:window-maximized="1"
     inkscape:current-layer="g5531" /><g
     id="g5531"
     inkscape:groupmode="layer"
     inkscape:label="74221-OE7M2S-365"
     transform="matrix(1.3333333,0,0,-1.3333333,0,1066.6667)"><ellipse
       style="fill:#37abc8;stroke-width:0.802311"
       id="path63"
       cx="416.10172"
       cy="-476.29236"
       transform="scale(1,-1)"
       rx="324.57632"
       ry="299.97888" /><g
       id="g5533"
       transform="translate(1203.39,105.08476)"><g
         id="g5535"><g
           id="g5541"><g
             id="g5543"><path
               d="M 0,0 H 800 V 800 H 0 Z"
               style="fill:url(#radialGradient5549);stroke:none"
               id="path5551"
               inkscape:connector-curvature="0" /></g></g></g></g><g
       id="g5941"
       transform="matrix(4.1458979,0,0,3.8689508,-2295.5823,-63.836562)"><g
         id="g5943"
         clip-path="url(#clipPath5947)"><g
           id="g6025"
           transform="translate(722.825,140.6637)"><path
             d="m 0,0 c 0,-38.014 -30.818,-68.831 -68.832,-68.831 -38.013,0 -68.829,30.817 -68.829,68.831 0,38.015 30.816,68.831 68.829,68.831 C -30.818,68.831 0,38.015 0,0"
             style="fill:#ffd21f;fill-opacity:1;fill-rule:nonzero;stroke:none"
             id="path6027"
             inkscape:connector-curvature="0" /></g><g
           id="g6029"
           transform="translate(704.7466,113.5912)"><path
             d="m 0,0 c 0,-5.308 -4.305,-9.612 -9.615,-9.612 -5.309,0 -9.613,4.304 -9.613,9.612 0,5.311 9.613,23.438 9.613,23.438 C -9.615,23.438 0,5.311 0,0"
             style="fill:#2fa7bf;fill-opacity:1;fill-rule:nonzero;stroke:none"
             id="path6031"
             inkscape:connector-curvature="0" /></g><g
           id="g6033"
           transform="translate(694.7027,157.7378)"><path
             d="m 0,0 c 0,0 0.125,-10.667 -9.375,-10.667 -9.5,0 -9.292,10.584 -9.292,10.584"
             style="fill:none;stroke:#403408;stroke-width:7;stroke-linecap:round;stroke-linejoin:miter;stroke-miterlimit:10;stroke-dasharray:none;stroke-opacity:1"
             id="path6035"
             inkscape:connector-curvature="0" /></g><g
           id="g6037"
           transform="translate(631.9527,157.7378)"><path
             d="m 0,0 c 0,0 0.125,-10.667 -9.375,-10.667 -9.5,0 -9.292,10.584 -9.292,10.584"
             style="fill:none;stroke:#403408;stroke-width:7;stroke-linecap:round;stroke-linejoin:miter;stroke-miterlimit:10;stroke-dasharray:none;stroke-opacity:1"
             id="path6039"
             inkscape:connector-curvature="0" /></g><g
           id="g6041"
           transform="translate(629.3279,116.0178)"><path
             d="M 0,0 C 0,0 5.214,18.25 24.776,18.25 44.339,18.25 49.333,0.143 49.333,0.143"
             style="fill:none;stroke:#403408;stroke-width:7;stroke-linecap:round;stroke-linejoin:miter;stroke-miterlimit:10;stroke-dasharray:none;stroke-opacity:1"
             id="path6043"
             inkscape:connector-curvature="0" /></g></g></g><text
       xml:space="preserve"
       style="font-style:normal;font-weight:normal;font-size:109.67067719px;line-height:1.25;font-family:sans-serif;letter-spacing:0px;word-spacing:0px;fill:#000000;fill-opacity:1;stroke:none;stroke-width:2.74176669"
       x="166.82027"
       y="-61.545982"
       id="text67"
       transform="scale(0.86980615,-1.1496815)"><tspan
         sodipodi:role="line"
         id="tspan65"
         x="166.82027"
         y="-61.545982"
         style="stroke-width:2.74176669">DEPRESSED</tspan></text>
</g></svg>