<?xml version="1.0" encoding="UTF-8" standalone="no"?>
<!-- Generator: Adobe Illustrator 18.1.1, SVG Export Plug-In . SVG Version: 6.00 Build 0)  -->

<svg
   xmlns:dc="http://purl.org/dc/elements/1.1/"
   xmlns:cc="http://creativecommons.org/ns#"
   xmlns:rdf="http://www.w3.org/1999/02/22-rdf-syntax-ns#"
   xmlns:svg="http://www.w3.org/2000/svg"
   xmlns="http://www.w3.org/2000/svg"
   xmlns:sodipodi="http://sodipodi.sourceforge.net/DTD/sodipodi-0.dtd"
   xmlns:inkscape="http://www.inkscape.org/namespaces/inkscape"
   version="1.1"
   id="Capa_1"
   x="0px"
   y="0px"
   viewBox="0 0 50.37 50.37"
   style="enable-background:new 0 0 50.37 50.37;"
   xml:space="preserve"
   sodipodi:docname="diarrhea.svg"
   inkscape:version="0.92.4 (5da689c313, 2019-01-14)"><metadata
   id="metadata41"><rdf:RDF><cc:Work
       rdf:about=""><dc:format>image/svg+xml</dc:format><dc:type
         rdf:resource="http://purl.org/dc/dcmitype/StillImage" /></cc:Work></rdf:RDF></metadata><defs
   id="defs39" /><sodipodi:namedview
   pagecolor="#ffffff"
   bordercolor="#666666"
   borderopacity="1"
   objecttolerance="10"
   gridtolerance="10"
   guidetolerance="10"
   inkscape:pageopacity="0"
   inkscape:pageshadow="2"
   inkscape:window-width="1366"
   inkscape:window-height="745"
   id="namedview37"
   showgrid="false"
   inkscape:zoom="9.3706573"
   inkscape:cx="3.4986543"
   inkscape:cy="25.184999"
   inkscape:window-x="-8"
   inkscape:window-y="-8"
   inkscape:window-maximized="1"
   inkscape:current-layer="Capa_1" />
<ellipse
   style="fill:#ffd42a;stroke-width:1.10580075"
   id="path43"
   cx="26.412237"
   cy="20.596209"
   rx="20.862999"
   ry="20.382776" /><g
   id="g4"
   transform="matrix(0.7784353,0,0,0.63257355,7.3422715,4.4305579)">
	<path
   style="fill:#010002"
   d="M 11.33,33.579 H 8.887 V 18.665 h 2.443 z m 18.32,4.332 h 0.979 V 35.515 H 8.887 v 2.396 H 11.33 V 50.37 h 8.427 c 0,-4.398 3.264,-4.152 3.264,-4.152 8.272,-1.467 6.629,-8.307 6.629,-8.307 z m 11.702,-6.586 c -1.587,5.471 -3.672,10.815 -5.792,16.096 -1.399,3.485 -7.105,1.965 -5.687,-1.568 1.625,-4.047 3.227,-8.133 4.602,-12.283 -4.509,0.099 -9.037,0.367 -13.517,-0.057 -2.116,-0.201 -3.05,-2.334 -2.783,-4.094 -0.009,-0.166 -0.009,-0.334 0.007,-0.504 0.408,-4.523 1.007,-9.024 1.77,-13.501 0.418,-2.448 3.384,-3.801 5.601,-3.193 0.722,0.2 1.321,0.539 1.803,0.975 0.164,0.111 0.315,0.244 0.443,0.409 2.686,3.458 5.632,6.676 8.846,9.65 1.699,1.572 0.566,3.779 -1.128,4.374 0.674,0.004 1.349,0.008 2.023,0.01 0.208,0.002 0.401,0.024 0.587,0.059 1.854,-0.164 3.897,1.307 3.225,3.627 z m -7.594,-3.709 c -0.31,-0.117 -0.615,-0.302 -0.904,-0.57 -1.666,-1.54 -3.257,-3.15 -4.78,-4.822 -0.242,1.75 -0.449,3.504 -0.627,5.264 2.103,0.077 4.208,0.11 6.311,0.128 z M 25.907,10.46 c 2.888,0 5.23,-2.342 5.23,-5.23 0,-2.888 -2.342,-5.23 -5.23,-5.23 -2.888,0 -5.23,2.342 -5.23,5.23 0,2.888 2.342,5.23 5.23,5.23 z"
   id="path2"
   inkscape:connector-curvature="0" />
</g>
<g
   id="g6">
</g>
<g
   id="g8">
</g>
<g
   id="g10">
</g>
<g
   id="g12">
</g>
<g
   id="g14">
</g>
<g
   id="g16">
</g>
<g
   id="g18">
</g>
<g
   id="g20">
</g>
<g
   id="g22">
</g>
<g
   id="g24">
</g>
<g
   id="g26">
</g>
<g
   id="g28">
</g>
<g
   id="g30">
</g>
<g
   id="g32">
</g>
<g
   id="g34">
</g>
<text
   xml:space="preserve"
   style="font-style:normal;font-weight:normal;font-size:7.40517235px;line-height:1.25;font-family:sans-serif;letter-spacing:0px;word-spacing:0px;fill:#000000;fill-opacity:1;stroke:none;stroke-width:0.1851293"
   x="11.901677"
   y="42.676914"
   id="text47"
   transform="scale(0.89265796,1.1202499)"><tspan
     sodipodi:role="line"
     id="tspan45"
     x="11.901677"
     y="42.676914"
     style="stroke-width:0.1851293">DIARRHEA</tspan></text>
</svg>