<?xml version="1.0" encoding="UTF-8" standalone="no"?>
<!-- Created with Inkscape (http://www.inkscape.org/) -->

<svg
   xmlns:dc="http://purl.org/dc/elements/1.1/"
   xmlns:cc="http://creativecommons.org/ns#"
   xmlns:rdf="http://www.w3.org/1999/02/22-rdf-syntax-ns#"
   xmlns:svg="http://www.w3.org/2000/svg"
   xmlns="http://www.w3.org/2000/svg"
   xmlns:sodipodi="http://sodipodi.sourceforge.net/DTD/sodipodi-0.dtd"
   xmlns:inkscape="http://www.inkscape.org/namespaces/inkscape"
   version="1.1"
   id="svg7990"
   xml:space="preserve"
   width="1066.6667"
   height="1066.6667"
   viewBox="0 0 1066.6667 1066.6667"
   sodipodi:docname="Disappointed.svg"
   inkscape:version="0.92.4 (5da689c313, 2019-01-14)"><metadata
     id="metadata7996"><rdf:RDF><cc:Work
         rdf:about=""><dc:format>image/svg+xml</dc:format><dc:type
           rdf:resource="http://purl.org/dc/dcmitype/StillImage" /><dc:title /></cc:Work></rdf:RDF></metadata><defs
     id="defs7994"><radialGradient
       fx="0"
       fy="0"
       cx="0"
       cy="0"
       r="1"
       gradientUnits="userSpaceOnUse"
       gradientTransform="matrix(400,0,0,-400,400,400)"
       spreadMethod="pad"
       id="radialGradient8016"><stop
         style="stop-opacity:1;stop-color:#ffffff"
         offset="0"
         id="stop8012" /><stop
         style="stop-opacity:1;stop-color:#fffeed"
         offset="1"
         id="stop8014" /></radialGradient><clipPath
       clipPathUnits="userSpaceOnUse"
       id="clipPath8026"><path
         d="M 0,800 H 800 V 0 H 0 Z"
         id="path8024"
         inkscape:connector-curvature="0" /></clipPath><clipPath
       clipPathUnits="userSpaceOnUse"
       id="clipPath8082"><path
         d="m 595.786,502.012 h 20.031 v -20.031 h -20.031 z"
         id="path8080"
         inkscape:connector-curvature="0" /></clipPath><clipPath
       clipPathUnits="userSpaceOnUse"
       id="clipPath8098"><path
         d="m 692.171,502.012 h 20.031 v -20.031 h -20.031 z"
         id="path8096"
         inkscape:connector-curvature="0" /></clipPath><clipPath
       clipPathUnits="userSpaceOnUse"
       id="clipPath8130"><path
         d="m 178.459,662.287 -70.586,-0.203 c -1.491,-0.004 -2.52,-1.515 -1.955,-2.895 v 0 c 2.939,-7.173 12.754,-25.233 37.1,-25.233 v 0 c 24.334,0 34.371,18.185 37.402,25.421 v 0 c 0.58,1.386 -0.454,2.91 -1.954,2.91 v 0 c -0.002,0 -0.005,0 -0.007,0"
         id="path8128"
         inkscape:connector-curvature="0" /></clipPath><clipPath
       clipPathUnits="userSpaceOnUse"
       id="clipPath8142"><path
         d="M 0,800 H 800 V 0 H 0 Z"
         id="path8140"
         inkscape:connector-curvature="0" /></clipPath><clipPath
       clipPathUnits="userSpaceOnUse"
       id="clipPath8174"><path
         d="m 178.459,309.805 -70.586,-0.204 c -1.491,-0.004 -2.52,-1.515 -1.955,-2.895 v 0 c 2.939,-7.173 12.754,-25.233 37.1,-25.233 v 0 c 24.334,0 34.371,18.185 37.402,25.422 v 0 c 0.58,1.384 -0.454,2.91 -1.954,2.91 v 0 c -0.002,0 -0.005,0 -0.007,0"
         id="path8172"
         inkscape:connector-curvature="0" /></clipPath><clipPath
       clipPathUnits="userSpaceOnUse"
       id="clipPath8186"><path
         d="M 0,800 H 800 V 0 H 0 Z"
         id="path8184"
         inkscape:connector-curvature="0" /></clipPath><clipPath
       clipPathUnits="userSpaceOnUse"
       id="clipPath8258"><path
         d="M 84.9642,142.012 H 104.995 V 121.981 H 84.9642 Z"
         id="path8256"
         inkscape:connector-curvature="0" /></clipPath><clipPath
       clipPathUnits="userSpaceOnUse"
       id="clipPath8274"><path
         d="M 181.349,142.012 H 201.38 V 121.981 H 181.349 Z"
         id="path8272"
         inkscape:connector-curvature="0" /></clipPath><clipPath
       clipPathUnits="userSpaceOnUse"
       id="clipPath8322"><path
         d="m 680.894,669.287 -51.718,-0.204 c -1.094,-0.004 -1.847,-1.514 -1.433,-2.895 v 0 c 2.153,-7.173 9.344,-25.233 27.182,-25.233 v 0 c 17.831,0 25.185,18.185 27.406,25.421 v 0 c 0.425,1.386 -0.333,2.911 -1.432,2.911 v 0 c -0.002,0 -0.003,0 -0.005,0"
         id="path8320"
         inkscape:connector-curvature="0" /></clipPath><clipPath
       clipPathUnits="userSpaceOnUse"
       id="clipPath8334"><path
         d="M 0,800 H 800 V 0 H 0 Z"
         id="path8332"
         inkscape:connector-curvature="0" /></clipPath><clipPath
       clipPathUnits="userSpaceOnUse"
       id="clipPath8350"><path
         d="m 595.786,679.012 h 20.031 v -20.031 h -20.031 z"
         id="path8348"
         inkscape:connector-curvature="0" /></clipPath><clipPath
       clipPathUnits="userSpaceOnUse"
       id="clipPath8366"><path
         d="m 692.171,679.012 h 20.031 v -20.031 h -20.031 z"
         id="path8364"
         inkscape:connector-curvature="0" /></clipPath><clipPath
       clipPathUnits="userSpaceOnUse"
       id="clipPath8402"><path
         d="m 178.459,488.287 -70.586,-0.204 c -1.491,-0.004 -2.52,-1.514 -1.955,-2.895 v 0 c 2.939,-7.173 12.754,-25.233 37.1,-25.233 v 0 c 24.334,0 34.371,18.185 37.402,25.421 v 0 c 0.58,1.386 -0.454,2.911 -1.954,2.911 v 0 c -0.002,0 -0.005,0 -0.007,0"
         id="path8400"
         inkscape:connector-curvature="0" /></clipPath><clipPath
       clipPathUnits="userSpaceOnUse"
       id="clipPath8414"><path
         d="M 0,800 H 800 V 0 H 0 Z"
         id="path8412"
         inkscape:connector-curvature="0" /></clipPath><clipPath
       clipPathUnits="userSpaceOnUse"
       id="clipPath8442"><path
         d="m 425.512,502.012 h 20.031 v -20.031 h -20.031 z"
         id="path8440"
         inkscape:connector-curvature="0" /></clipPath><clipPath
       clipPathUnits="userSpaceOnUse"
       id="clipPath8458"><path
         d="m 521.897,502.012 h 20.031 v -20.031 h -20.031 z"
         id="path8456"
         inkscape:connector-curvature="0" /></clipPath><clipPath
       clipPathUnits="userSpaceOnUse"
       id="clipPath8550"><path
         d="M 0,800 H 800 V 0 H 0 Z"
         id="path8548"
         inkscape:connector-curvature="0" /></clipPath></defs><sodipodi:namedview
     pagecolor="#ffffff"
     bordercolor="#666666"
     borderopacity="1"
     objecttolerance="10"
     gridtolerance="10"
     guidetolerance="10"
     inkscape:pageopacity="0"
     inkscape:pageshadow="2"
     inkscape:window-width="1366"
     inkscape:window-height="745"
     id="namedview7992"
     showgrid="false"
     inkscape:zoom="0.44249997"
     inkscape:cx="497.588"
     inkscape:cy="542.61092"
     inkscape:window-x="-8"
     inkscape:window-y="-8"
     inkscape:window-maximized="1"
     inkscape:current-layer="g8410"
     units="mm" /><g
     id="g7998"
     inkscape:groupmode="layer"
     inkscape:label="74221-OE7M2S-365"
     transform="matrix(1.3333333,0,0,-1.3333333,0,1066.6667)"><g
       id="g8000"
       transform="translate(1050.8476,-40.67797)"><g
         id="g8002"><g
           id="g8008"><g
             id="g8010"><path
               d="M 0,0 H 800 V 800 H 0 Z"
               style="fill:url(#radialGradient8016);stroke:none"
               id="path8018"
               inkscape:connector-curvature="0" /></g></g></g></g><g
       id="g8408"><g
         id="g8410"
         clip-path="url(#clipPath8414)"
         transform="translate(-83.050856,71.186448)"><ellipse
           style="fill:#00aa44;stroke-width:0.68193966"
           id="path61"
           cx="500.84753"
           cy="-354.23727"
           transform="scale(1,-1)"
           rx="260.16959"
           ry="261.017" /><g
           id="g8476"
           transform="matrix(3.1053932,0,0,2.9822564,714.47972,349.88232)"><path
             d="m 0,0 c 0,-38.014 -30.817,-68.831 -68.832,-68.831 -38.013,0 -68.829,30.817 -68.829,68.831 0,38.015 30.816,68.831 68.829,68.831 C -30.817,68.831 0,38.015 0,0"
             style="fill:#ffd21f;fill-opacity:1;fill-rule:nonzero;stroke:none"
             id="path8478"
             inkscape:connector-curvature="0" /></g><g
           id="g8480"
           transform="matrix(3.1053932,0,0,2.9822564,403.4308,348.46754)"><path
             d="m 0,0 v 0 c -2.75,0 -5,2.25 -5,5 v 17.333 c 0,2.75 2.25,5 5,5 2.75,0 5,-2.25 5,-5 V 5 C 5,2.25 2.75,0 0,0"
             style="fill:#403408;fill-opacity:1;fill-rule:nonzero;stroke:none"
             id="path8482"
             inkscape:connector-curvature="0" /></g><g
           id="g8484"
           transform="matrix(3.1053932,0,0,2.9822564,598.03554,348.46754)"><path
             d="m 0,0 v 0 c -2.75,0 -5,2.25 -5,5 v 17.333 c 0,2.75 2.25,5 5,5 2.75,0 5,-2.25 5,-5 V 5 C 5,2.25 2.75,0 0,0"
             style="fill:#403408;fill-opacity:1;fill-rule:nonzero;stroke:none"
             id="path8486"
             inkscape:connector-curvature="0" /></g><g
           id="g8488"
           transform="matrix(3.1053932,0,0,2.9822564,424.13477,268.75451)"><path
             d="M 0,0 C 0,0 5.214,18.25 24.776,18.25 44.339,18.25 49.333,0.143 49.333,0.143"
             style="fill:none;stroke:#403408;stroke-width:7;stroke-linecap:round;stroke-linejoin:miter;stroke-miterlimit:10;stroke-dasharray:none;stroke-opacity:1"
             id="path8490"
             inkscape:connector-curvature="0" /></g><text
           xml:space="preserve"
           style="font-style:normal;font-weight:normal;font-size:87.65447998px;line-height:1.25;font-family:sans-serif;letter-spacing:0px;word-spacing:0px;fill:#000000;fill-opacity:1;stroke:none;stroke-width:2.1913619"
           x="284.13275"
           y="-3.7021568"
           id="text65"
           transform="scale(0.80913506,-1.2358876)"><tspan
             sodipodi:role="line"
             id="tspan63"
             x="284.13275"
             y="-3.7021568"
             style="stroke-width:2.1913619">DISAPPOINTED</tspan></text>
</g></g></g></svg>