<?xml version="1.0" encoding="UTF-8" standalone="no"?>
<!-- Created with Inkscape (http://www.inkscape.org/) -->

<svg
   xmlns:dc="http://purl.org/dc/elements/1.1/"
   xmlns:cc="http://creativecommons.org/ns#"
   xmlns:rdf="http://www.w3.org/1999/02/22-rdf-syntax-ns#"
   xmlns:svg="http://www.w3.org/2000/svg"
   xmlns="http://www.w3.org/2000/svg"
   xmlns:sodipodi="http://sodipodi.sourceforge.net/DTD/sodipodi-0.dtd"
   xmlns:inkscape="http://www.inkscape.org/namespaces/inkscape"
   version="1.1"
   id="svg10303"
   xml:space="preserve"
   width="1066.6667"
   height="1066.6667"
   viewBox="0 0 1066.6667 1066.6667"
   sodipodi:docname="Disgusted.svg"
   inkscape:version="0.92.4 (5da689c313, 2019-01-14)"><metadata
     id="metadata10309"><rdf:RDF><cc:Work
         rdf:about=""><dc:format>image/svg+xml</dc:format><dc:type
           rdf:resource="http://purl.org/dc/dcmitype/StillImage" /><dc:title /></cc:Work></rdf:RDF></metadata><defs
     id="defs10307"><radialGradient
       fx="0"
       fy="0"
       cx="0"
       cy="0"
       r="1"
       gradientUnits="userSpaceOnUse"
       gradientTransform="matrix(400,0,0,-400,400,400)"
       spreadMethod="pad"
       id="radialGradient10329"><stop
         style="stop-opacity:1;stop-color:#ffffff"
         offset="0"
         id="stop10325" /><stop
         style="stop-opacity:1;stop-color:#fffeed"
         offset="1"
         id="stop10327" /></radialGradient><clipPath
       clipPathUnits="userSpaceOnUse"
       id="clipPath10339"><path
         d="M 0,800 H 800 V 0 H 0 Z"
         id="path10337"
         inkscape:connector-curvature="0" /></clipPath><clipPath
       clipPathUnits="userSpaceOnUse"
       id="clipPath10395"><path
         d="m 595.786,502.012 h 20.031 v -20.031 h -20.031 z"
         id="path10393"
         inkscape:connector-curvature="0" /></clipPath><clipPath
       clipPathUnits="userSpaceOnUse"
       id="clipPath10411"><path
         d="m 692.171,502.012 h 20.031 v -20.031 h -20.031 z"
         id="path10409"
         inkscape:connector-curvature="0" /></clipPath><clipPath
       clipPathUnits="userSpaceOnUse"
       id="clipPath10443"><path
         d="m 178.459,662.287 -70.586,-0.203 c -1.491,-0.004 -2.52,-1.515 -1.955,-2.895 v 0 c 2.939,-7.173 12.754,-25.233 37.1,-25.233 v 0 c 24.334,0 34.371,18.185 37.402,25.421 v 0 c 0.58,1.386 -0.454,2.91 -1.954,2.91 v 0 c -0.002,0 -0.005,0 -0.007,0"
         id="path10441"
         inkscape:connector-curvature="0" /></clipPath><clipPath
       clipPathUnits="userSpaceOnUse"
       id="clipPath10455"><path
         d="M 0,800 H 800 V 0 H 0 Z"
         id="path10453"
         inkscape:connector-curvature="0" /></clipPath><clipPath
       clipPathUnits="userSpaceOnUse"
       id="clipPath10487"><path
         d="m 178.459,309.805 -70.586,-0.204 c -1.491,-0.004 -2.52,-1.515 -1.955,-2.895 v 0 c 2.939,-7.173 12.754,-25.233 37.1,-25.233 v 0 c 24.334,0 34.371,18.185 37.402,25.422 v 0 c 0.58,1.384 -0.454,2.91 -1.954,2.91 v 0 c -0.002,0 -0.005,0 -0.007,0"
         id="path10485"
         inkscape:connector-curvature="0" /></clipPath><clipPath
       clipPathUnits="userSpaceOnUse"
       id="clipPath10499"><path
         d="M 0,800 H 800 V 0 H 0 Z"
         id="path10497"
         inkscape:connector-curvature="0" /></clipPath><clipPath
       clipPathUnits="userSpaceOnUse"
       id="clipPath10571"><path
         d="M 84.9642,142.012 H 104.995 V 121.981 H 84.9642 Z"
         id="path10569"
         inkscape:connector-curvature="0" /></clipPath><clipPath
       clipPathUnits="userSpaceOnUse"
       id="clipPath10587"><path
         d="M 181.349,142.012 H 201.38 V 121.981 H 181.349 Z"
         id="path10585"
         inkscape:connector-curvature="0" /></clipPath><clipPath
       clipPathUnits="userSpaceOnUse"
       id="clipPath10635"><path
         d="m 680.894,669.287 -51.718,-0.204 c -1.094,-0.004 -1.847,-1.514 -1.433,-2.895 v 0 c 2.153,-7.173 9.344,-25.233 27.182,-25.233 v 0 c 17.831,0 25.185,18.185 27.406,25.421 v 0 c 0.425,1.386 -0.333,2.911 -1.432,2.911 v 0 c -0.002,0 -0.003,0 -0.005,0"
         id="path10633"
         inkscape:connector-curvature="0" /></clipPath><clipPath
       clipPathUnits="userSpaceOnUse"
       id="clipPath10647"><path
         d="M 0,800 H 800 V 0 H 0 Z"
         id="path10645"
         inkscape:connector-curvature="0" /></clipPath><clipPath
       clipPathUnits="userSpaceOnUse"
       id="clipPath10663"><path
         d="m 595.786,679.012 h 20.031 v -20.031 h -20.031 z"
         id="path10661"
         inkscape:connector-curvature="0" /></clipPath><clipPath
       clipPathUnits="userSpaceOnUse"
       id="clipPath10679"><path
         d="m 692.171,679.012 h 20.031 v -20.031 h -20.031 z"
         id="path10677"
         inkscape:connector-curvature="0" /></clipPath><clipPath
       clipPathUnits="userSpaceOnUse"
       id="clipPath10715"><path
         d="m 178.459,488.287 -70.586,-0.204 c -1.491,-0.004 -2.52,-1.514 -1.955,-2.895 v 0 c 2.939,-7.173 12.754,-25.233 37.1,-25.233 v 0 c 24.334,0 34.371,18.185 37.402,25.421 v 0 c 0.58,1.386 -0.454,2.911 -1.954,2.911 v 0 c -0.002,0 -0.005,0 -0.007,0"
         id="path10713"
         inkscape:connector-curvature="0" /></clipPath><clipPath
       clipPathUnits="userSpaceOnUse"
       id="clipPath10727"><path
         d="M 0,800 H 800 V 0 H 0 Z"
         id="path10725"
         inkscape:connector-curvature="0" /></clipPath><clipPath
       clipPathUnits="userSpaceOnUse"
       id="clipPath10755"><path
         d="m 425.512,502.012 h 20.031 v -20.031 h -20.031 z"
         id="path10753"
         inkscape:connector-curvature="0" /></clipPath><clipPath
       clipPathUnits="userSpaceOnUse"
       id="clipPath10771"><path
         d="m 521.897,502.012 h 20.031 v -20.031 h -20.031 z"
         id="path10769"
         inkscape:connector-curvature="0" /></clipPath><clipPath
       clipPathUnits="userSpaceOnUse"
       id="clipPath10863"><path
         d="M 0,800 H 800 V 0 H 0 Z"
         id="path10861"
         inkscape:connector-curvature="0" /></clipPath></defs><sodipodi:namedview
     pagecolor="#ffffff"
     bordercolor="#666666"
     borderopacity="1"
     objecttolerance="10"
     gridtolerance="10"
     guidetolerance="10"
     inkscape:pageopacity="0"
     inkscape:pageshadow="2"
     inkscape:window-width="1366"
     inkscape:window-height="745"
     id="namedview10305"
     showgrid="false"
     inkscape:zoom="0.44249997"
     inkscape:cx="245.19776"
     inkscape:cy="533.33337"
     inkscape:window-x="-8"
     inkscape:window-y="-8"
     inkscape:window-maximized="1"
     inkscape:current-layer="g10723" /><g
     id="g10311"
     inkscape:groupmode="layer"
     inkscape:label="74221-OE7M2S-365"
     transform="matrix(1.3333333,0,0,-1.3333333,0,1066.6667)"><g
       id="g10313"
       transform="translate(1000.0001,-145.76273)"><g
         id="g10315"><g
           id="g10321"><g
             id="g10323"><path
               d="M 0,0 H 800 V 800 H 0 Z"
               style="fill:url(#radialGradient10329);stroke:none"
               id="path10331"
               inkscape:connector-curvature="0" /></g></g></g></g><g
       id="g10493" /><g
       id="g10721"><g
         id="g10723"
         clip-path="url(#clipPath10727)"><ellipse
           style="fill:#00aa44;stroke-width:0.73882943"
           id="path65"
           cx="413.55939"
           cy="-420.80585"
           transform="scale(1,-1)"
           rx="293.2204"
           ry="272.41449" /><g
           id="g10741"
           transform="matrix(1.0949367,0,0,1.0679371,463.20845,531.62922)"><path
             d="M 0,0 C -6.076,0.743 -12.121,2.193 -17.589,5.01"
             style="fill:none;stroke:#f2f2f2;stroke-width:2.76399994;stroke-linecap:round;stroke-linejoin:miter;stroke-miterlimit:10;stroke-dasharray:none;stroke-opacity:1"
             id="path10743"
             inkscape:connector-curvature="0" /></g><g
           id="g10821"
           transform="translate(629.3279,116.0178)" /><g
           id="g10825"
           transform="matrix(3.3732468,0,0,3.0665249,645.54655,425.20536)"><path
             d="m 0,0 c 0,-38.014 -30.817,-68.831 -68.831,-68.831 -38.013,0 -68.83,30.817 -68.83,68.831 0,38.015 30.817,68.831 68.83,68.831 C -30.817,68.831 0,38.015 0,0"
             style="fill:#ffd21f;fill-opacity:1;fill-rule:nonzero;stroke:none"
             id="path10827"
             inkscape:connector-curvature="0" /></g><g
           id="g10829"
           transform="matrix(3.3732468,0,0,3.0665249,289.53747,503.99052)"><path
             d="M 0,0 16.523,-9.375 0.129,-18.667"
             style="fill:none;stroke:#403408;stroke-width:8.71199989;stroke-linecap:round;stroke-linejoin:round;stroke-miterlimit:10;stroke-dasharray:none;stroke-opacity:1"
             id="path10831"
             inkscape:connector-curvature="0" /></g><g
           id="g10833"
           transform="matrix(3.3732468,0,0,3.0665249,537.18944,446.74801)"><path
             d="m 0,0 -16.144,9.375 16.018,9.292"
             style="fill:none;stroke:#403408;stroke-width:8.61200047;stroke-linecap:round;stroke-linejoin:round;stroke-miterlimit:10;stroke-dasharray:none;stroke-opacity:1"
             id="path10835"
             inkscape:connector-curvature="0" /></g><g
           id="g10837"
           transform="matrix(3.3732468,0,0,3.0665249,330.15777,341.78515)"><path
             d="M 0,0 C 0,0 5.214,18.25 24.776,18.25 44.339,18.25 49.333,0.143 49.333,0.143"
             style="fill:none;stroke:#403408;stroke-width:7;stroke-linecap:round;stroke-linejoin:miter;stroke-miterlimit:10;stroke-dasharray:none;stroke-opacity:1"
             id="path10839"
             inkscape:connector-curvature="0" /></g><text
           xml:space="preserve"
           style="font-style:normal;font-weight:normal;font-size:87.48965454px;line-height:1.25;font-family:sans-serif;letter-spacing:0px;word-spacing:0px;fill:#000000;fill-opacity:1;stroke:none;stroke-width:2.18724155"
           x="227.43552"
           y="-47.670135"
           id="text69"
           transform="scale(0.86171611,-1.160475)"><tspan
             sodipodi:role="line"
             id="tspan67"
             x="227.43552"
             y="-47.670135"
             style="stroke-width:2.18724155">DISGUSTED</tspan></text>
</g></g></g></svg>