<?xml version="1.0" encoding="UTF-8" standalone="no"?>
<!-- Generator: Adobe Illustrator 19.0.0, SVG Export Plug-In . SVG Version: 6.00 Build 0)  -->

<svg
   xmlns:dc="http://purl.org/dc/elements/1.1/"
   xmlns:cc="http://creativecommons.org/ns#"
   xmlns:rdf="http://www.w3.org/1999/02/22-rdf-syntax-ns#"
   xmlns:svg="http://www.w3.org/2000/svg"
   xmlns="http://www.w3.org/2000/svg"
   xmlns:sodipodi="http://sodipodi.sourceforge.net/DTD/sodipodi-0.dtd"
   xmlns:inkscape="http://www.inkscape.org/namespaces/inkscape"
   version="1.1"
   id="Capa_1"
   x="0px"
   y="0px"
   viewBox="0 0 793.70074 1122.5196"
   xml:space="preserve"
   sodipodi:docname="eggs.svg"
   inkscape:version="0.92.4 (5da689c313, 2019-01-14)"
   width="210mm"
   height="297mm"><metadata
   id="metadata45"><rdf:RDF><cc:Work
       rdf:about=""><dc:format>image/svg+xml</dc:format><dc:type
         rdf:resource="http://purl.org/dc/dcmitype/StillImage" /><dc:title /></cc:Work></rdf:RDF></metadata><defs
   id="defs43" /><sodipodi:namedview
   pagecolor="#ffffff"
   bordercolor="#666666"
   borderopacity="1"
   objecttolerance="10"
   gridtolerance="10"
   guidetolerance="10"
   inkscape:pageopacity="0"
   inkscape:pageshadow="2"
   inkscape:window-width="1366"
   inkscape:window-height="745"
   id="namedview41"
   showgrid="false"
   inkscape:zoom="0.46091047"
   inkscape:cx="-112.06049"
   inkscape:cy="761.83361"
   inkscape:window-x="-8"
   inkscape:window-y="-8"
   inkscape:window-maximized="1"
   inkscape:current-layer="Capa_1"
   units="mm" />
<ellipse
   style="fill:#ffcc00;stroke-width:2.0759294"
   id="path47"
   cx="398.66748"
   cy="369.95242"
   rx="360.69913"
   ry="337.66617" /><g
   transform="matrix(1.1979629,0,0,1.0584016,81.171242,81.252128)"
   id="g8">
	<path
   style="fill:#e6e7e8"
   d="m 0.009,260.077 c -0.38,76.204 49.726,143.457 122.853,164.895 6.604,1.917 13.327,3.395 20.126,4.426 39.305,5.517 76.341,21.721 107.069,46.844 31.15,26.069 71.153,39.122 111.684,36.444 79.755,-6.288 143.161,-69.523 149.663,-149.261 2.565,-29.615 -2.88,-59.375 -15.766,-86.163 -16.06,-31.67 -24.249,-66.744 -23.872,-102.252 0.432,-15.038 -1.112,-30.068 -4.595,-44.704 C 451.007,60.804 392.565,9.186 321.598,1.732 278.963,-2.327 236.447,10.597 203.284,37.698 165.755,66.65 125.96,92.541 84.284,115.119 32.528,145.129 0.482,200.252 0.009,260.077 Z"
   id="path2"
   inkscape:connector-curvature="0" />
	<circle
   style="fill:#f3d55b"
   cx="211.85899"
   cy="257.01901"
   r="105.93"
   id="circle4" />
	<path
   style="fill:#f9eab0"
   d="m 141.239,265.847 c -2.341,0.001 -4.587,-0.929 -6.243,-2.585 -1.656,-1.656 -2.585,-3.901 -2.585,-6.243 0.049,-43.858 35.591,-79.399 79.448,-79.448 4.875,0 8.828,3.952 8.828,8.828 0,4.876 -3.952,8.828 -8.828,8.828 -34.111,0.04 -61.753,27.682 -61.793,61.793 0.001,2.341 -0.929,4.587 -2.585,6.243 -1.655,1.655 -3.901,2.584 -6.242,2.584 z"
   id="path6"
   inkscape:connector-curvature="0" />
</g>
<g
   id="g10"
   transform="translate(0,610.48966)">
</g>
<g
   id="g12"
   transform="translate(0,610.48966)">
</g>
<g
   id="g14"
   transform="translate(0,610.48966)">
</g>
<g
   id="g16"
   transform="translate(0,610.48966)">
</g>
<g
   id="g18"
   transform="translate(0,610.48966)">
</g>
<g
   id="g20"
   transform="translate(0,610.48966)">
</g>
<g
   id="g22"
   transform="translate(0,610.48966)">
</g>
<g
   id="g24"
   transform="translate(0,610.48966)">
</g>
<g
   id="g26"
   transform="translate(0,610.48966)">
</g>
<g
   id="g28"
   transform="translate(0,610.48966)">
</g>
<g
   id="g30"
   transform="translate(0,610.48966)">
</g>
<g
   id="g32"
   transform="translate(0,610.48966)">
</g>
<g
   id="g34"
   transform="translate(0,610.48966)">
</g>
<g
   id="g36"
   transform="translate(0,610.48966)">
</g>
<g
   id="g38"
   transform="translate(0,610.48966)">
</g>
<text
   xml:space="preserve"
   style="font-style:normal;font-weight:normal;font-size:221.42626953px;line-height:1.25;font-family:sans-serif;letter-spacing:0px;word-spacing:0px;fill:#000000;fill-opacity:1;stroke:none;stroke-width:5.53565693"
   x="85.727486"
   y="886.03998"
   id="text51"
   transform="scale(0.99198349,1.0080813)"><tspan
     sodipodi:role="line"
     id="tspan49"
     x="85.727486"
     y="886.03998"
     style="stroke-width:5.53565693">EGGS</tspan></text>

</svg>