<?xml version="1.0" encoding="UTF-8" standalone="no"?>
<!-- Created with Inkscape (http://www.inkscape.org/) -->

<svg
   xmlns:dc="http://purl.org/dc/elements/1.1/"
   xmlns:cc="http://creativecommons.org/ns#"
   xmlns:rdf="http://www.w3.org/1999/02/22-rdf-syntax-ns#"
   xmlns:svg="http://www.w3.org/2000/svg"
   xmlns="http://www.w3.org/2000/svg"
   xmlns:sodipodi="http://sodipodi.sourceforge.net/DTD/sodipodi-0.dtd"
   xmlns:inkscape="http://www.inkscape.org/namespaces/inkscape"
   version="1.1"
   id="svg5523"
   xml:space="preserve"
   width="1066.6667"
   height="1066.6667"
   viewBox="0 0 1066.6667 1066.6667"
   sodipodi:docname="Excited.svg"
   inkscape:version="0.92.4 (5da689c313, 2019-01-14)"><metadata
     id="metadata5529"><rdf:RDF><cc:Work
         rdf:about=""><dc:format>image/svg+xml</dc:format><dc:type
           rdf:resource="http://purl.org/dc/dcmitype/StillImage" /><dc:title /></cc:Work></rdf:RDF></metadata><defs
     id="defs5527"><radialGradient
       fx="0"
       fy="0"
       cx="0"
       cy="0"
       r="1"
       gradientUnits="userSpaceOnUse"
       gradientTransform="matrix(400,0,0,-400,400,400)"
       spreadMethod="pad"
       id="radialGradient5549"><stop
         style="stop-opacity:1;stop-color:#ffffff"
         offset="0"
         id="stop5545" /><stop
         style="stop-opacity:1;stop-color:#fffeed"
         offset="1"
         id="stop5547" /></radialGradient><clipPath
       clipPathUnits="userSpaceOnUse"
       id="clipPath5559"><path
         d="M 0,800 H 800 V 0 H 0 Z"
         id="path5557"
         inkscape:connector-curvature="0" /></clipPath><clipPath
       clipPathUnits="userSpaceOnUse"
       id="clipPath5615"><path
         d="m 595.786,502.012 h 20.031 v -20.031 h -20.031 z"
         id="path5613"
         inkscape:connector-curvature="0" /></clipPath><clipPath
       clipPathUnits="userSpaceOnUse"
       id="clipPath5631"><path
         d="m 692.171,502.012 h 20.031 v -20.031 h -20.031 z"
         id="path5629"
         inkscape:connector-curvature="0" /></clipPath><clipPath
       clipPathUnits="userSpaceOnUse"
       id="clipPath5663"><path
         d="m 178.459,662.287 -70.586,-0.203 c -1.491,-0.004 -2.52,-1.515 -1.955,-2.895 v 0 c 2.939,-7.173 12.754,-25.233 37.1,-25.233 v 0 c 24.334,0 34.371,18.185 37.402,25.421 v 0 c 0.58,1.386 -0.454,2.91 -1.954,2.91 v 0 c -0.002,0 -0.005,0 -0.007,0"
         id="path5661"
         inkscape:connector-curvature="0" /></clipPath><clipPath
       clipPathUnits="userSpaceOnUse"
       id="clipPath5675"><path
         d="M 0,800 H 800 V 0 H 0 Z"
         id="path5673"
         inkscape:connector-curvature="0" /></clipPath><clipPath
       clipPathUnits="userSpaceOnUse"
       id="clipPath5707"><path
         d="m 178.459,309.805 -70.586,-0.204 c -1.491,-0.004 -2.52,-1.515 -1.955,-2.895 v 0 c 2.939,-7.173 12.754,-25.233 37.1,-25.233 v 0 c 24.334,0 34.371,18.185 37.402,25.422 v 0 c 0.58,1.384 -0.454,2.91 -1.954,2.91 v 0 c -0.002,0 -0.005,0 -0.007,0"
         id="path5705"
         inkscape:connector-curvature="0" /></clipPath><clipPath
       clipPathUnits="userSpaceOnUse"
       id="clipPath5719"><path
         d="M 0,800 H 800 V 0 H 0 Z"
         id="path5717"
         inkscape:connector-curvature="0" /></clipPath><clipPath
       clipPathUnits="userSpaceOnUse"
       id="clipPath5791"><path
         d="M 84.9642,142.012 H 104.995 V 121.981 H 84.9642 Z"
         id="path5789"
         inkscape:connector-curvature="0" /></clipPath><clipPath
       clipPathUnits="userSpaceOnUse"
       id="clipPath5807"><path
         d="M 181.349,142.012 H 201.38 V 121.981 H 181.349 Z"
         id="path5805"
         inkscape:connector-curvature="0" /></clipPath><clipPath
       clipPathUnits="userSpaceOnUse"
       id="clipPath5855"><path
         d="m 680.894,669.287 -51.718,-0.204 c -1.094,-0.004 -1.847,-1.514 -1.433,-2.895 v 0 c 2.153,-7.173 9.344,-25.233 27.182,-25.233 v 0 c 17.831,0 25.185,18.185 27.406,25.421 v 0 c 0.425,1.386 -0.333,2.911 -1.432,2.911 v 0 c -0.002,0 -0.003,0 -0.005,0"
         id="path5853"
         inkscape:connector-curvature="0" /></clipPath><clipPath
       clipPathUnits="userSpaceOnUse"
       id="clipPath5867"><path
         d="M 0,800 H 800 V 0 H 0 Z"
         id="path5865"
         inkscape:connector-curvature="0" /></clipPath><clipPath
       clipPathUnits="userSpaceOnUse"
       id="clipPath5883"><path
         d="m 595.786,679.012 h 20.031 v -20.031 h -20.031 z"
         id="path5881"
         inkscape:connector-curvature="0" /></clipPath><clipPath
       clipPathUnits="userSpaceOnUse"
       id="clipPath5899"><path
         d="m 692.171,679.012 h 20.031 v -20.031 h -20.031 z"
         id="path5897"
         inkscape:connector-curvature="0" /></clipPath><clipPath
       clipPathUnits="userSpaceOnUse"
       id="clipPath5935"><path
         d="m 178.459,488.287 -70.586,-0.204 c -1.491,-0.004 -2.52,-1.514 -1.955,-2.895 v 0 c 2.939,-7.173 12.754,-25.233 37.1,-25.233 v 0 c 24.334,0 34.371,18.185 37.402,25.421 v 0 c 0.58,1.386 -0.454,2.911 -1.954,2.911 v 0 c -0.002,0 -0.005,0 -0.007,0"
         id="path5933"
         inkscape:connector-curvature="0" /></clipPath><clipPath
       clipPathUnits="userSpaceOnUse"
       id="clipPath5947"><path
         d="M 0,800 H 800 V 0 H 0 Z"
         id="path5945"
         inkscape:connector-curvature="0" /></clipPath><clipPath
       clipPathUnits="userSpaceOnUse"
       id="clipPath5975"><path
         d="m 425.512,502.012 h 20.031 v -20.031 h -20.031 z"
         id="path5973"
         inkscape:connector-curvature="0" /></clipPath><clipPath
       clipPathUnits="userSpaceOnUse"
       id="clipPath5991"><path
         d="m 521.897,502.012 h 20.031 v -20.031 h -20.031 z"
         id="path5989"
         inkscape:connector-curvature="0" /></clipPath><clipPath
       clipPathUnits="userSpaceOnUse"
       id="clipPath6083"><path
         d="M 0,800 H 800 V 0 H 0 Z"
         id="path6081"
         inkscape:connector-curvature="0" /></clipPath></defs><sodipodi:namedview
     pagecolor="#ffffff"
     bordercolor="#666666"
     borderopacity="1"
     objecttolerance="10"
     gridtolerance="10"
     guidetolerance="10"
     inkscape:pageopacity="0"
     inkscape:pageshadow="2"
     inkscape:window-width="1366"
     inkscape:window-height="745"
     id="namedview5525"
     showgrid="false"
     showguides="false"
     inkscape:zoom="0.44249997"
     inkscape:cx="-15.819213"
     inkscape:cy="633.62326"
     inkscape:window-x="-8"
     inkscape:window-y="-8"
     inkscape:window-maximized="1"
     inkscape:current-layer="g5943" /><g
     id="g5531"
     inkscape:groupmode="layer"
     inkscape:label="74221-OE7M2S-365"
     transform="matrix(1.3333333,0,0,-1.3333333,0,1066.6667)"><g
       id="g5533"
       transform="translate(1203.39,105.08476)"><g
         id="g5535"><g
           id="g5541"><g
             id="g5543"><path
               d="M 0,0 H 800 V 800 H 0 Z"
               style="fill:url(#radialGradient5549);stroke:none"
               id="path5551"
               inkscape:connector-curvature="0" /></g></g></g></g><g
       id="g5941"><g
         id="g5943"
         clip-path="url(#clipPath5947)"><ellipse
           style="fill:#44aa00;stroke-width:0.83367574"
           id="path79"
           cx="441.52548"
           cy="-466.64658"
           transform="scale(1,-1)"
           rx="321.18652"
           ry="299.45517" /><g
           id="g5949"
           transform="matrix(4.1307041,0,0,3.8814896,724.42034,456.08762)"><path
             d="m 0,0 c -1.186,-37.995 -32.949,-67.835 -70.944,-66.65 -37.995,1.185 -67.835,32.948 -66.649,70.943 1.185,37.996 32.947,67.836 70.942,66.65 C -28.656,69.758 1.186,37.996 0,0"
             style="fill:#ffd21f;fill-opacity:1;fill-rule:nonzero;stroke:none"
             id="path5951"
             inkscape:connector-curvature="0" /></g><g
           id="g5953"
           transform="matrix(4.1307041,0,0,3.8814896,312.06124,416.35243)"><path
             d="m 0,0 c -1.311,-0.004 -2.216,-1.332 -1.719,-2.545 2.583,-6.306 11.212,-22.182 32.614,-22.182 21.393,0 30.216,15.986 32.881,22.348 0.51,1.219 -0.402,2.562 -1.724,2.558 z"
             style="fill:#ffffff;fill-opacity:1;fill-rule:nonzero;stroke:none"
             id="path5955"
             inkscape:connector-curvature="0" /></g><g
           id="g5957"
           transform="matrix(4.1307041,0,0,3.8814896,312.06124,416.35243)"><path
             d="m 0,0 c -1.311,-0.004 -2.216,-1.332 -1.719,-2.545 2.583,-6.306 11.212,-22.182 32.614,-22.182 21.393,0 30.216,15.986 32.881,22.348 0.51,1.219 -0.402,2.562 -1.724,2.558 z"
             style="fill:none;stroke:#ffffff;stroke-width:6.15399981;stroke-linecap:round;stroke-linejoin:miter;stroke-miterlimit:10;stroke-dasharray:none;stroke-opacity:1"
             id="path5959"
             inkscape:connector-curvature="0" /></g><g
           id="g5961"
           transform="matrix(4.1307041,0,0,3.8814896,372.7392,377.95245)"><path
             d="M 0,0 C -6.076,0.743 -12.121,2.193 -17.589,5.01"
             style="fill:none;stroke:#f2f2f2;stroke-width:2.76399994;stroke-linecap:round;stroke-linejoin:miter;stroke-miterlimit:10;stroke-dasharray:none;stroke-opacity:1"
             id="path5963"
             inkscape:connector-curvature="0" /></g><g
           id="g5965"
           transform="matrix(4.1307041,0,0,3.8814896,575.5287,394.54232)"><path
             d="M 0,0 C -4.518,-1.859 -9.261,-3.126 -14.075,-3.935"
             style="fill:none;stroke:#f2f2f2;stroke-width:2.76399994;stroke-linecap:round;stroke-linejoin:miter;stroke-miterlimit:10;stroke-dasharray:none;stroke-opacity:1"
             id="path5967"
             inkscape:connector-curvature="0" /></g><g
           id="g5969"
           transform="matrix(4.1307041,0,0,3.8814896,-1557.8619,-1475.4671)"><g
             id="g5971" /><g
             id="g5983"><g
               clip-path="url(#clipPath5975)"
               id="g5981"
               style="opacity:0.60000598"><g
                 transform="translate(445.5428,491.9968)"
                 id="g5979"><path
                   d="m 0,0 c 0,-5.532 -4.485,-10.016 -10.016,-10.016 -5.532,0 -10.015,4.484 -10.015,10.016 0,5.532 4.483,10.016 10.015,10.016 C -4.485,10.016 0,5.532 0,0"
                   style="fill:#ff758a;fill-opacity:1;fill-rule:nonzero;stroke:none"
                   id="path5977"
                   inkscape:connector-curvature="0" /></g></g></g></g><g
           id="g5985"
           transform="matrix(4.1307041,0,0,3.8814896,-1557.8619,-1475.4671)"><g
             id="g5987" /><g
             id="g5999"><g
               clip-path="url(#clipPath5991)"
               id="g5997"
               style="opacity:0.60000598"><g
                 transform="translate(541.928,491.9968)"
                 id="g5995"><path
                   d="m 0,0 c 0,-5.532 -4.485,-10.016 -10.016,-10.016 -5.532,0 -10.015,4.484 -10.015,10.016 0,5.532 4.483,10.016 10.015,10.016 C -4.485,10.016 0,5.532 0,0"
                   style="fill:#ff758a;fill-opacity:1;fill-rule:nonzero;stroke:none"
                   id="path5993"
                   inkscape:connector-curvature="0" /></g></g></g></g><g
           id="g6001"
           transform="matrix(4.1307041,0,0,3.8814896,288.61122,550.94733)"><path
             d="M 0,0 16.523,-9.375 0.129,-18.667"
             style="fill:none;stroke:#403408;stroke-width:8.71199989;stroke-linecap:round;stroke-linejoin:round;stroke-miterlimit:10;stroke-dasharray:none;stroke-opacity:1"
             id="path6003"
             inkscape:connector-curvature="0" /></g><g
           id="g6005"
           transform="matrix(4.1307041,0,0,3.8814896,591.87307,478.49196)"><path
             d="m 0,0 -16.144,9.375 16.018,9.292"
             style="fill:none;stroke:#403408;stroke-width:8.61200047;stroke-linecap:round;stroke-linejoin:round;stroke-miterlimit:10;stroke-dasharray:none;stroke-opacity:1"
             id="path6007"
             inkscape:connector-curvature="0" /></g><text
           xml:space="preserve"
           style="font-style:normal;font-weight:normal;font-size:111.91223145px;line-height:1.25;font-family:sans-serif;letter-spacing:0px;word-spacing:0px;fill:#000000;fill-opacity:1;stroke:none;stroke-width:2.79780579"
           x="225.14241"
           y="-61.630951"
           id="text83"
           transform="scale(0.96532523,-1.0359203)"><tspan
             sodipodi:role="line"
             id="tspan81"
             x="225.14241"
             y="-61.630951"
             style="stroke-width:2.79780579">EXCITED</tspan></text>
</g></g></g></svg>