<?xml version="1.0" encoding="UTF-8" standalone="no"?>
<!-- Generator: Adobe Illustrator 19.1.0, SVG Export Plug-In . SVG Version: 6.00 Build 0)  -->

<svg
   xmlns:dc="http://purl.org/dc/elements/1.1/"
   xmlns:cc="http://creativecommons.org/ns#"
   xmlns:rdf="http://www.w3.org/1999/02/22-rdf-syntax-ns#"
   xmlns:svg="http://www.w3.org/2000/svg"
   xmlns="http://www.w3.org/2000/svg"
   xmlns:sodipodi="http://sodipodi.sourceforge.net/DTD/sodipodi-0.dtd"
   xmlns:inkscape="http://www.inkscape.org/namespaces/inkscape"
   version="1.1"
   id="Capa_1"
   x="0px"
   y="0px"
   viewBox="0 0 439.801 439.801"
   style="enable-background:new 0 0 439.801 439.801;"
   xml:space="preserve"
   sodipodi:docname="family.svg"
   inkscape:version="0.92.4 (5da689c313, 2019-01-14)"><metadata
   id="metadata315"><rdf:RDF><cc:Work
       rdf:about=""><dc:format>image/svg+xml</dc:format><dc:type
         rdf:resource="http://purl.org/dc/dcmitype/StillImage" /></cc:Work></rdf:RDF></metadata><defs
   id="defs313" /><sodipodi:namedview
   pagecolor="#ffffff"
   bordercolor="#666666"
   borderopacity="1"
   objecttolerance="10"
   gridtolerance="10"
   guidetolerance="10"
   inkscape:pageopacity="0"
   inkscape:pageshadow="2"
   inkscape:window-width="1366"
   inkscape:window-height="745"
   id="namedview311"
   showgrid="false"
   inkscape:zoom="0.53660634"
   inkscape:cx="50.658503"
   inkscape:cy="219.9005"
   inkscape:window-x="-8"
   inkscape:window-y="-8"
   inkscape:window-maximized="1"
   inkscape:current-layer="Capa_1" />
<ellipse
   style="fill:#808000;stroke-width:0.62226748"
   id="path4022"
   cx="209.65088"
   cy="207.78732"
   rx="135.10835"
   ry="127.6541" /><g
   id="g278"
   transform="matrix(0.4489571,0,0,0.43220598,111.85569,100.63243)"
   inkscape:transform-center-x="39.134835"
   inkscape:transform-center-y="-37.271271">
	<path
   style="fill:#e5cbbd"
   d="m 267.689,159.358 c -1.285,0.258 -2.554,0.575 -3.782,0.906 -3.132,0.843 -9.802,1.502 -16.876,1.502 -0.283,0 -0.567,-0.003 -0.852,-0.006 l 1.559,12.324 c 4.292,-0.645 8.935,-1.825 13.933,-3.717 0.587,-0.223 1.274,-0.42 2.053,-0.602 1.061,-3.808 2.38,-7.284 3.965,-10.407 z"
   id="path2"
   inkscape:connector-curvature="0" />
	<path
   style="fill:#ffffff"
   d="m 227.723,151.126 h -0.002 c -1.423,0 -2.833,-0.15 -4.215,-0.43 0.897,0.963 2.342,2.185 4.759,3.402 9.079,4.576 30.735,2.307 34.343,1.337 2.64,-0.71 5.464,-1.38 8.399,-1.585 0.22,-0.309 0.449,-0.603 0.676,-0.902 -1.256,-0.924 -2.795,-1.852 -4.4,-2.814 -3.723,-2.232 -7.785,-4.669 -9.953,-8.101 l -14.594,2.933 c -3.948,3.913 -9.291,6.16 -15.013,6.16 z"
   id="path4"
   inkscape:connector-curvature="0" />
	<path
   style="fill:#e5cbbd"
   d="m 262.174,131.969 c -1.6,1.64 -1.43,4.366 -1.428,4.393 0.009,0.087 0.012,0.174 0.011,0.261 -0.051,3.739 4.6,6.527 9.097,9.224 1.84,1.103 3.603,2.167 5.12,3.321 0.345,-0.345 0.681,-0.701 1.038,-1.029 2.372,-2.178 4.795,-3.771 7.108,-4.939 -2.555,-1.983 -4.49,-3.846 -5.401,-5.249 -4.4,-6.785 -10.102,-7.378 -10.343,-7.4 -2.367,-0.161 -4.128,0.318 -5.202,1.418 z"
   id="path6"
   inkscape:connector-curvature="0" />
	<path
   style="fill:#ffffff"
   d="m 255.789,137.243 c -0.01,-0.19 -0.033,-0.375 -0.032,-0.57 -0.06,-0.936 -0.149,-5.133 2.839,-8.195 2.104,-2.156 5.117,-3.133 8.949,-2.92 -8.675,-8.27 -17.955,-10.254 -24.052,-10.159 5.78,6.339 7.284,15.708 3.48,23.615 z"
   id="path8"
   inkscape:connector-curvature="0" />
	<path
   style="fill:#b7c16f"
   d="m 217.485,150.126 c -0.177,-0.649 -0.237,-1.239 -0.235,-1.769 -0.312,-0.177 -0.626,-0.352 -0.931,-0.544 -1.625,-1.029 -3.065,-2.265 -4.331,-3.646 -1.466,4.014 -3.243,10.94 -2.158,19.094 0.84,0.86 2.751,2.651 5.702,4.565 0.307,0.118 0.583,0.293 0.817,0.515 1.558,0.958 3.369,1.925 5.441,2.81 0.318,0.064 0.617,0.187 0.887,0.364 5.102,2.045 11.656,3.519 19.642,3.112 0.147,-0.021 0.295,-0.027 0.444,-0.021 l -1.645,-13.003 c -6.072,-0.346 -11.805,-1.275 -15.209,-3.093 -4.771,-2.55 -7.606,-5.37 -8.424,-8.384 z"
   id="path10"
   inkscape:connector-curvature="0" />
	<path
   style="fill:#a6d9ff"
   d="m 234.361,191.878 c 1.354,-4.592 2.819,-8.699 4.374,-12.27 -5.08,-0.116 -9.609,-0.918 -13.557,-2.092 l 7.138,22.46 c 0.608,-2.793 1.281,-5.507 2.045,-8.098 z"
   id="path12"
   inkscape:connector-curvature="0" />
	<path
   style="fill:#c69c6d"
   d="m 262.393,175.414 c -0.087,0.032 -0.173,0.061 -0.261,0.092 0.076,0.027 0.15,0.056 0.227,0.082 0.012,-0.058 0.023,-0.116 0.034,-0.174 z"
   id="path14"
   inkscape:connector-curvature="0" />
	<path
   style="fill:#b7c16f"
   d="m 254.503,177.816 c -2.929,0.711 -9.791,1.604 -10.199,1.635 -1.788,3.73 -3.475,8.24 -5.023,13.436 0.298,4.651 7.515,5.632 22.099,5.831 -0.534,-0.458 -0.88,-1.13 -0.88,-1.89 0,-5.842 0.346,-11.255 1.025,-16.244 -2.386,-0.798 -4.735,-1.728 -7.022,-2.768 z"
   id="path16"
   inkscape:connector-curvature="0" />
	<path
   style="fill:#c69c6d"
   d="m 182.154,93.64 7.018,-13.682 v -3.99 c -3.457,1.85 -7.584,2.73 -12.484,2.732 0,0 0,0 -0.002,0 0,0 -0.002,0 -0.004,0 -10e-4,0 -0.002,0 -0.004,0 h -0.002 c -4.899,-0.001 -9.027,-0.882 -12.483,-2.732 v 3.99 l 7.018,13.682 z"
   id="path18"
   inkscape:connector-curvature="0" />
	<path
   style="fill:#999999"
   d="m 203.705,226.925 h 8.432 v -3.901 H 184.68 v 3.901 h 6.44 c 2.389,-0.526 4.579,-0.682 6.292,-0.682 1.713,0.001 3.904,0.156 6.293,0.682 z"
   id="path20"
   inkscape:connector-curvature="0" />
	<polygon
   style="fill:#999999"
   points="168.683,223.024 157.551,223.024 158.415,226.925 168.683,226.925 "
   id="polygon22" />
	<polygon
   style="fill:#999999"
   points="170.224,98.64 169.101,99.152 173.241,107.219 180.123,107.219 184.298,99.082 183.199,98.64 "
   id="polygon24" />
	<path
   style="fill:#e0b489"
   d="m 153.934,276.496 c 1.447,0.64 2.922,1.119 4.467,0.771 3.186,-0.719 5.194,-3.897 4.476,-7.083 l -2.039,-9.207 -11.816,3.97 2.259,7.692 c 0.014,0.051 0.749,3.016 2.653,3.857 z"
   id="path26"
   inkscape:connector-curvature="0" />
	<rect
   x="173.683"
   y="223.024"
   style="fill:#4d4d4d"
   width="5.9970002"
   height="3.901"
   id="rect28" />
	<polygon
   style="fill:#999999"
   points="176.681,205.1 185.121,194.473 179.32,112.219 174.043,112.219 168.244,194.473 "
   id="polygon30" />
	<path
   style="fill:#b79870"
   d="m 175.396,255.198 h 6.203 l 5.466,-8.706 c 0.734,-1.169 2.277,-1.521 3.446,-0.788 0.33,0.207 0.588,0.483 0.781,0.793 l 0.007,-0.004 5.466,8.706 h 22.664 c -0.748,-7.632 -8.689,-23.955 -22.017,-23.955 -13.327,0 -20.722,10.758 -22.016,23.954 z"
   id="path32"
   inkscape:connector-curvature="0" />
	<path
   style="fill:#e5cbbd"
   d="m 289.194,54.748 c -4.102,-1.093 -13.268,-4.213 -17.703,-11.093 -4.435,6.88 -13.601,10 -17.702,11.093 v 4.912 c 0,13.938 7.941,25.278 17.702,25.278 9.762,0 17.703,-11.34 17.703,-25.278 z m -28.047,8.598 c -0.659,0 -1.31,-0.27 -1.77,-0.73 -0.47,-0.47 -0.73,-1.11 -0.73,-1.77 0,-0.66 0.261,-1.3 0.73,-1.77 0.93,-0.93 2.61,-0.93 3.53,0 0.47,0.47 0.739,1.11 0.739,1.77 0,0.66 -0.27,1.3 -0.739,1.77 -0.459,0.46 -1.1,0.73 -1.76,0.73 z m 10.441,14.852 c -5.44,0 -9.24,-2.193 -9.24,-5.333 0,-1.381 1.119,-2.5 2.5,-2.5 1.19,0 2.185,0.831 2.438,1.943 0.493,0.32 1.96,0.89 4.303,0.89 2.343,0 3.81,-0.57 4.303,-0.89 0.253,-1.112 1.248,-1.943 2.438,-1.943 1.381,0 2.5,1.119 2.5,2.5 -10e-4,3.14 -3.801,5.333 -9.242,5.333 z m 12.209,-15.592 c -0.46,0.47 -1.1,0.74 -1.76,0.74 -0.67,0 -1.311,-0.27 -1.771,-0.74 -0.47,-0.46 -0.729,-1.1 -0.729,-1.76 0,-0.66 0.26,-1.3 0.729,-1.77 0.931,-0.93 2.601,-0.93 3.53,0 0.47,0.47 0.74,1.11 0.74,1.77 0.002,0.66 -0.269,1.3 -0.739,1.76 z"
   id="path34"
   inkscape:connector-curvature="0" />
	<path
   style="fill:#b7c16f"
   d="m 247.587,110.666 c -0.95,-1.54 -1.615,-3.224 -1.97,-5.033 l -1.986,0.477 c -3.076,0.723 -5.905,1.951 -8.47,3.647 0.959,0.357 1.893,0.784 2.797,1.278 2.258,-0.519 5.627,-0.814 9.629,-0.369 z"
   id="path36"
   inkscape:connector-curvature="0" />
	<path
   style="fill:#e0bc4b"
   d="m 258.792,84.747 c -6.031,-5.448 -10.004,-14.66 -10.004,-25.086 v -6.889 h 0.003 c -0.001,-1.177 0.83,-2.227 2.029,-2.456 0.266,-0.052 18.17,-3.659 18.17,-15.186 0,-1.381 1.119,-2.5 2.5,-2.5 1.381,0 2.5,1.119 2.5,2.5 0,11.597 17.988,15.151 18.17,15.185 1.199,0.228 2.031,1.278 2.03,2.456 h 0.003 v 6.889 c 0,10.427 -3.973,19.639 -10.005,25.087 v 1.777 c 8.413,-0.44 14.373,-3.149 17.723,-8.085 7.714,-11.369 -0.022,-31.186 -0.102,-31.385 -0.117,-0.294 -0.178,-0.609 -0.178,-0.925 0,-7.688 -2.316,-13.811 -6.884,-18.197 -8.778,-8.429 -23.022,-7.953 -23.156,-7.946 -0.032,10e-4 -0.061,-0.005 -0.094,-0.005 -0.036,0 -0.069,0.007 -0.105,0.005 -0.146,-0.004 -14.443,-0.446 -23.182,7.967 -4.554,4.384 -6.862,10.499 -6.862,18.176 0,0.316 -0.061,0.631 -0.178,0.925 -0.079,0.199 -7.815,20.016 -0.102,31.385 3.35,4.936 9.31,7.645 17.723,8.085 v -1.777 z"
   id="path38"
   inkscape:connector-curvature="0" />
	<path
   style="fill:#e5cbbd"
   d="m 271.491,115.876 c 11.623,0 19.729,-4.514 20.997,-11.413 l -11.382,-2.731 c -1.124,-0.27 -1.917,-1.275 -1.917,-2.431 V 88.144 c -2.405,1.16 -4.997,1.795 -7.698,1.795 -2.701,0 -5.293,-0.635 -7.698,-1.795 v 11.158 c 0,1.156 -0.793,2.161 -1.917,2.431 l -11.382,2.731 c 1.269,6.898 9.374,11.412 20.997,11.412 z"
   id="path40"
   inkscape:connector-curvature="0" />
	<path
   style="fill:#a6d9ff"
   d="m 204.168,115.87 5.109,3.235 c 0.145,-0.249 0.27,-0.506 0.426,-0.751 3.019,-4.767 7.692,-8.054 13.029,-9.332 l 3.985,-11.441 c -3.202,-2.879 -7.598,-5.442 -13.673,-7.018 -0.157,-0.041 -9.177,-4.361 -9.177,-4.361 l 0.911,17.271 c 0.042,0.802 -0.314,1.562 -0.933,2.064 2.055,-0.512 4.307,-0.223 6.233,0.997 1.166,0.739 1.513,2.283 0.774,3.45 -0.739,1.167 -2.285,1.512 -3.45,0.775 -1.41,-0.895 -3.282,-0.472 -4.174,0.937 -0.89,1.409 -0.469,3.282 0.94,4.174 z"
   id="path42"
   inkscape:connector-curvature="0" />
	<path
   style="fill:#d8b4a4"
   d="m 213.928,121.03 c -2.337,3.689 -3.096,8.067 -2.14,12.328 0.957,4.261 3.516,7.894 7.205,10.23 2.622,1.661 5.641,2.539 8.729,2.539 h 0.001 c 5.645,10e-4 10.813,-2.842 13.829,-7.604 4.822,-7.617 2.55,-17.737 -5.067,-22.559 -2.621,-1.661 -5.639,-2.538 -8.726,-2.538 -5.645,-0.001 -10.816,2.842 -13.831,7.604 z m 18.359,5.836 c 0.738,-1.167 2.283,-1.513 3.449,-0.775 2.316,1.466 2.27,4.985 -0.116,8.757 -0.883,1.395 -1.976,2.585 -3.076,3.352 -1.126,0.784 -2.108,1.031 -2.901,1.031 -0.895,0 -1.549,-0.316 -1.889,-0.532 -1.166,-0.739 -1.513,-2.283 -0.774,-3.45 0.578,-0.913 1.648,-1.322 2.643,-1.106 0.389,-0.256 1.091,-0.891 1.773,-1.969 0.683,-1.079 0.957,-1.985 1.021,-2.446 -0.622,-0.809 -0.708,-1.951 -0.13,-2.862 z m -5.68,-7.47 c 0.941,-0.93 2.61,-0.93 3.54,0 0.471,0.47 0.74,1.11 0.74,1.77 0,0.66 -0.27,1.3 -0.74,1.77 -0.46,0.46 -1.109,0.73 -1.77,0.73 -0.65,0 -1.3,-0.27 -1.771,-0.73 -0.46,-0.47 -0.729,-1.11 -0.729,-1.77 0,-0.66 0.27,-1.3 0.73,-1.77 z m -8.22,12.99 c 0.93,-0.93 2.601,-0.93 3.54,0 0.46,0.47 0.73,1.11 0.73,1.77 0,0.66 -0.271,1.3 -0.73,1.77 -0.47,0.46 -1.11,0.73 -1.77,0.73 -0.66,0 -1.311,-0.27 -1.771,-0.73 -0.47,-0.47 -0.729,-1.11 -0.729,-1.77 10e-4,-0.66 0.27,-1.3 0.73,-1.77 z"
   id="path44"
   inkscape:connector-curvature="0" />
	<path
   style="fill:#a6d9ff"
   d="m 232.656,105.414 c -0.571,-1.164 -1.271,-2.366 -2.127,-3.57 l -2.298,6.598 c 0.159,0.004 0.319,0.01 0.478,0.017 1.249,-1.127 2.563,-2.149 3.947,-3.045 z"
   id="path46"
   inkscape:connector-curvature="0" />
	<path
   style="fill:#767743"
   d="m 236.606,302.861 18.265,-75.456 -0.688,-0.609 c -0.673,-0.597 -0.974,-1.509 -0.787,-2.39 0.126,-0.598 3.258,-14.636 17.608,-17.984 l 7.68,-2.665 c -2.266,0.012 -4.658,0.013 -7.193,0.013 -11.271,0 -20.173,0 -26.265,-1.127 -1.592,-0.294 -5.086,-0.954 -7.707,-3.064 -0.804,3.483 -1.486,7.122 -2.057,10.876 -0.007,0.096 -0.023,0.189 -0.041,0.283 -4.847,32.241 -1.68,72.583 0.287,91.316 0.324,0.271 0.623,0.541 0.898,0.807 z"
   id="path48"
   inkscape:connector-curvature="0" />
	<path
   style="fill:#d8b4a4"
   d="m 296.435,205.746 c -2.709,0 -5.237,-0.513 -7.557,-1.474 -0.18,0.772 -0.717,1.419 -1.463,1.732 0.217,4.784 1.581,9.002 9.02,9.002 7.447,0 8.806,-4.23 9.021,-9.001 -0.747,-0.313 -1.285,-0.961 -1.465,-1.733 -2.319,0.961 -4.847,1.474 -7.556,1.474 z"
   id="path50"
   inkscape:connector-curvature="0" />
	<path
   style="fill:#d8b4a4"
   d="m 314.253,172.202 h -12.818 c -0.943,0 -1.806,-0.531 -2.232,-1.373 l -2.768,-5.479 -2.769,5.479 c -0.426,0.842 -1.288,1.373 -2.231,1.373 h -12.818 c -0.011,0.506 -0.022,1.014 -0.022,1.532 0,8.004 1.956,16.05 6.138,21.252 0.165,0.15 4.858,5.76 11.702,5.76 6.844,0 11.537,-5.609 11.702,-5.76 4.182,-5.202 6.138,-13.248 6.138,-21.252 0,-0.518 -0.011,-1.026 -0.022,-1.532 z m -29.276,8.084 c -0.46,-0.47 -0.729,-1.12 -0.729,-1.77 0,-0.66 0.27,-1.3 0.729,-1.77 0.94,-0.93 2.61,-0.93 3.54,0 0.471,0.47 0.73,1.11 0.73,1.77 0,0.65 -0.26,1.3 -0.73,1.77 -0.46,0.46 -1.109,0.73 -1.77,0.73 -0.66,0 -1.299,-0.27 -1.77,-0.73 z m 16.631,14.124 c -1.393,0.543 -3.19,0.844 -5.064,0.848 -0.015,0 -0.029,0 -0.044,0 -4.989,0 -8.345,-1.911 -8.353,-4.761 -0.004,-1.381 1.111,-2.503 2.492,-2.508 0.003,0 0.005,0 0.008,0 1.087,0 2.013,0.694 2.356,1.664 0.508,0.25 1.723,0.605 3.5,0.605 0.011,0 0.021,0 0.03,0 1.793,-0.004 3.017,-0.366 3.526,-0.62 0.34,-0.972 1.264,-1.671 2.353,-1.674 0.003,0 0.005,0 0.008,0 1.377,0 2.496,1.114 2.5,2.492 0.002,0.993 -0.423,2.827 -3.312,3.954 z m 6.479,-14.134 c -0.47,0.47 -1.11,0.74 -1.771,0.74 -0.659,0 -1.3,-0.27 -1.77,-0.74 -0.46,-0.46 -0.73,-1.1 -0.73,-1.76 0,-0.66 0.261,-1.31 0.73,-1.77 0.93,-0.93 2.61,-0.93 3.54,0 0.46,0.47 0.729,1.11 0.729,1.77 0.002,0.649 -0.268,1.3 -0.728,1.76 z"
   id="path52"
   inkscape:connector-curvature="0" />
	<path
   style="fill:#767743"
   d="m 271.612,262.672 -0.891,-7.218 -18.36,52.866 h 1.343 c 5.77,-23.874 15.633,-41.728 17.908,-45.648 z"
   id="path54"
   inkscape:connector-curvature="0" />
	<path
   style="fill:#d8b4a4"
   d="m 242.762,312.311 c 1.69,0.379 3.387,-0.692 3.767,-2.389 0.021,-0.093 0.047,-0.185 0.078,-0.274 l 22.629,-65.156 c 0.027,-0.08 0.069,-0.149 0.105,-0.225 l -0.56,-4.533 -9.676,-8.575 -18.685,77.194 2.269,3.95 c 0.024,0.004 0.049,0.003 0.073,0.008 z"
   id="path56"
   inkscape:connector-curvature="0" />
	<polygon
   style="fill:#d6679f"
   points="316.464,260.71 317.018,256.22 275.853,256.22 276.408,260.71 "
   id="polygon58" />
	<path
   style="fill:#c69c6d"
   d="m 327.349,194.329 c -0.353,-20.084 -5.016,-34.377 -13.872,-42.508 -8.072,-7.412 -16.965,-6.758 -17.033,-6.758 -0.071,0 -9.141,-0.574 -17.148,6.848 -1.778,1.648 -3.378,3.561 -4.815,5.707 -0.012,0.018 -4.805,8.977 -6.283,14.718 -0.019,0.105 -1.027,4.477 -1.389,6.717 -0.006,0.071 -0.023,0.142 -0.035,0.213 -0.73,4.595 -1.156,9.607 -1.252,15.064 h 12.746 c -2.989,-5.375 -4.672,-12.408 -4.672,-20.595 0,-1.441 0.041,-2.849 0.122,-4.184 l 0.011,0.001 c 0.079,-1.309 1.155,-2.349 2.484,-2.349 h 13.685 l 4.307,-8.521 c 0.623,-1.233 2.123,-1.728 3.359,-1.104 0.495,0.251 0.864,0.647 1.097,1.107 l 0.007,-0.003 4.307,8.521 h 13.685 c 1.329,0 2.405,1.04 2.484,2.349 l 0.011,-0.001 c 0.081,1.335 0.122,2.743 0.122,4.184 0,8.187 -1.683,15.22 -4.672,20.595 h 12.744 z"
   id="path60"
   inkscape:connector-curvature="0" />
	<polygon
   style="fill:#8c6239"
   points="358.322,138.559 347.085,138.559 350.57,143.539 354.837,143.539 "
   id="polygon62" />
	<path
   style="fill:#c69c6d"
   d="M 351.499,85.768 V 87.5 c 0,1.887 -0.533,3.648 -1.443,5.158 v 0.85 c 0,1.46 1.188,2.647 2.646,2.647 1.46,0 2.648,-1.188 2.648,-2.647 v -0.846 c -0.911,-1.51 -1.445,-3.272 -1.445,-5.161 v -1.733 z"
   id="path64"
   inkscape:connector-curvature="0" />
	<path
   style="fill:#cccccc"
   d="m 327.124,69.306 c -2.451,7.919 -2.199,12.462 -1.301,15.045 v -3.295 c 0,-1.381 1.119,-2.5 2.5,-2.5 h 2.404 c 0.393,-8.387 2.771,-15.229 6.699,-19.923 -4.618,0.8 -8.421,4.59 -10.302,10.673 z"
   id="path66"
   inkscape:connector-curvature="0" />
	<path
   style="fill:#b7c16f"
   d="m 273.991,125.056 c 1.552,1.755 4.642,6.068 4.691,6.168 1.109,1.108 2.206,2.421 3.232,4.004 0.679,1.047 3.069,3.28 6.745,5.831 3.858,-0.787 6.939,-1.032 7.77,-0.988 0.396,-0.022 1.312,-0.046 2.602,0.058 1.031,-1.675 2.404,-3.499 4.238,-5.287 -0.393,-0.62 -0.853,-1.168 -1.395,-1.621 -1.059,-0.886 -1.197,-2.463 -0.311,-3.521 0.889,-1.059 2.463,-1.198 3.522,-0.312 0.791,0.662 1.485,1.421 2.084,2.27 2.996,-2.059 6.77,-3.882 11.545,-5.098 l 1.195,-0.401 c -1.522,-4.628 -6.768,-16.807 -20.549,-20.046 l -1.997,-0.479 c -1.698,8.678 -10.569,14.511 -23.373,15.179 v 4.243 z"
   id="path68"
   inkscape:connector-curvature="0" />
	<path
   style="fill:#cccccc"
   d="m 377.081,78.557 c 1.381,0 2.5,1.119 2.5,2.5 v 3.297 c 0.9,-2.584 1.153,-7.127 -1.299,-15.048 -1.883,-6.082 -5.685,-9.872 -10.304,-10.671 3.927,4.693 6.306,11.536 6.698,19.922 z"
   id="path70"
   inkscape:connector-curvature="0" />
	<polygon
   style="fill:#ffffff"
   points="332.039,139.758 343.167,134.827 338.168,125.31 331.495,127.548 "
   id="polygon72" />
	<path
   style="fill:#c69c6d"
   d="m 374.284,96.343 c -1.412,0.759 -3.024,1.192 -4.737,1.192 h -5.605 c -1.517,0 -2.95,-0.348 -4.24,-0.953 -1.186,2.689 -3.875,4.573 -6.998,4.573 -3.123,0 -5.811,-1.884 -6.996,-4.574 -1.291,0.605 -2.725,0.954 -4.242,0.954 h -5.605 c -1.713,0 -3.325,-0.433 -4.737,-1.192 1.599,11.015 10.012,18.421 21.581,18.421 11.567,0 19.98,-7.407 21.579,-18.421 z m -30.724,8.941 c 0,-1.381 1.119,-2.5 2.5,-2.5 0.781,0 1.479,0.359 1.938,0.92 0.695,0.206 2.354,0.496 4.802,0.496 2.448,0 4.106,-0.29 4.802,-0.496 0.459,-0.562 1.157,-0.92 1.939,-0.92 1.381,0 2.5,1.119 2.5,2.5 0,0.969 0,3.917 -9.24,3.917 -9.24,0 -9.241,-2.948 -9.241,-3.917 z"
   id="path74"
   inkscape:connector-curvature="0" />
	<path
   style="fill:#d8d5d4"
   d="m 335.859,92.535 h 5.605 c 2.776,0 5.035,-2.258 5.035,-5.035 v -3.944 h -15.676 v 1.435 2.509 c 0.001,2.777 2.259,5.035 5.036,5.035 z m 1.129,-6.109 c 0.939,-0.93 2.609,-0.93 3.54,0 0.47,0.47 0.729,1.11 0.729,1.76 0,0.66 -0.26,1.3 -0.729,1.77 -0.471,0.47 -1.11,0.74 -1.771,0.74 -0.66,0 -1.3,-0.27 -1.77,-0.74 -0.46,-0.46 -0.73,-1.11 -0.73,-1.77 0,-0.65 0.271,-1.3 0.731,-1.76 z"
   id="path76"
   inkscape:connector-curvature="0" />
	<path
   style="fill:#c69c6d"
   d="m 348.999,78.557 c 1.281,0 2.326,0.968 2.471,2.211 h 2.465 c 0.145,-1.243 1.189,-2.211 2.471,-2.211 h 13.266 c -0.601,-11.049 -5.288,-21.983 -16.969,-21.983 -11.681,0 -16.368,10.934 -16.969,21.983 z m -1.382,-17.389 h 10.369 c 1.381,0 2.5,1.119 2.5,2.5 0,1.381 -1.119,2.5 -2.5,2.5 h -10.369 c -1.381,0 -2.5,-1.119 -2.5,-2.5 0,-1.381 1.119,-2.5 2.5,-2.5 z m -4.073,8.107 h 18.514 c 1.381,0 2.5,1.119 2.5,2.5 0,1.381 -1.119,2.5 -2.5,2.5 h -18.514 c -1.381,0 -2.5,-1.119 -2.5,-2.5 0,-1.381 1.12,-2.5 2.5,-2.5 z"
   id="path78"
   inkscape:connector-curvature="0" />
	<path
   style="fill:#a6d9ff"
   d="m 184.193,110.24 5.984,84.851 c 0.044,0.624 -0.147,1.241 -0.536,1.73 l -10.464,13.177 v 8.026 h 32.959 v -46.591 c -4.263,-2.833 -6.492,-5.328 -6.559,-5.404 -0.309,-0.356 -0.511,-0.792 -0.582,-1.258 -1.896,-12.355 2.018,-22.17 3.622,-25.54 -0.741,-1.506 -1.33,-3.098 -1.707,-4.777 -0.809,-3.6 -0.665,-7.261 0.354,-10.704 l -5.771,-3.655 c -3.737,-2.367 -4.854,-7.334 -2.487,-11.074 0.828,-1.308 1.978,-2.286 3.278,-2.915 h -0.001 c -0.314,0 -0.631,-0.059 -0.931,-0.18 l -12.394,-4.974 z"
   id="path80"
   inkscape:connector-curvature="0" />
	<path
   style="fill:#d8b4a4"
   d="m 146.121,362.506 c 1.752,0.567 3.203,0.043 3.396,-0.553 0.025,-0.08 0.056,-0.158 0.089,-0.234 l 11.893,-27.091 -7.363,-2.901 -10.474,28.432 c -0.162,0.503 0.708,1.779 2.459,2.347 z"
   id="path82"
   inkscape:connector-curvature="0" />
	<polygon
   style="fill:#ffffff"
   points="362.24,134.827 373.368,139.758 373.913,127.548 367.239,125.31 "
   id="polygon84" />
	<path
   style="fill:#d8d5d4"
   d="m 358.906,87.5 c 0,2.776 2.259,5.035 5.035,5.035 h 5.605 c 2.776,0 5.035,-2.258 5.035,-5.035 V 84.991 83.556 H 358.905 V 87.5 Z m 6.172,-1.074 c 0.93,-0.93 2.6,-0.93 3.529,0 0.471,0.46 0.74,1.11 0.74,1.77 0,0.65 -0.27,1.3 -0.74,1.76 -0.46,0.47 -1.109,0.74 -1.77,0.74 -0.65,0 -1.3,-0.27 -1.76,-0.74 -0.471,-0.46 -0.74,-1.11 -0.74,-1.76 0,-0.66 0.27,-1.31 0.741,-1.77 z"
   id="path86"
   inkscape:connector-curvature="0" />
	<path
   style="fill:#c69c6d"
   d="m 362.171,118.212 c -2.907,1.009 -6.087,1.552 -9.469,1.552 -3.381,0 -6.561,-0.542 -9.467,-1.551 v 5.994 l 4.893,9.314 h 9.15 l 4.893,-9.314 z"
   id="path88"
   inkscape:connector-curvature="0" />
	<path
   style="fill:#ffffff"
   d="m 368.466,143.055 -5.486,-2.431 -4.126,5.898 1.634,6.161 c 5.161,-2.476 7.215,-7.082 7.978,-9.628 z"
   id="path90"
   inkscape:connector-curvature="0" />
	<path
   style="fill:#ffffff"
   d="m 336.941,143.055 c 0.764,2.546 2.817,7.153 7.979,9.628 l 1.634,-6.161 -4.126,-5.898 z"
   id="path92"
   inkscape:connector-curvature="0" />
	<path
   style="fill:#8c6239"
   d="m 351.19,148.539 -1.479,5.579 c 0.932,0.141 1.927,0.224 2.993,0.237 1.066,-0.013 2.062,-0.096 2.993,-0.237 l -1.48,-5.579 z"
   id="path94"
   inkscape:connector-curvature="0" />
	<path
   style="fill:#4d4d4d"
   d="m 212.136,294.732 v -4.905 c -0.279,0.221 -0.562,0.438 -0.848,0.646 v 4.096 z"
   id="path96"
   inkscape:connector-curvature="0" />
	<path
   style="fill:#d8b4a4"
   d="m 219.712,260.198 h -24.33 c -0.86,0 -1.66,-0.442 -2.117,-1.171 l -4.083,-6.504 -4.083,6.504 c -0.457,0.729 -1.257,1.171 -2.117,1.171 h -7.869 c -0.008,0.451 -0.017,0.902 -0.017,1.364 0,15.761 10.011,28.583 22.316,28.583 12.306,0 22.316,-12.822 22.316,-28.583 0.001,-0.461 -0.008,-0.913 -0.016,-1.364 z m -34.275,8.158 c -0.46,-0.46 -0.73,-1.11 -0.73,-1.77 0,-0.66 0.27,-1.3 0.73,-1.77 0.931,-0.93 2.61,-0.93 3.54,0 0.46,0.47 0.73,1.11 0.73,1.77 0,0.66 -0.27,1.3 -0.73,1.77 -0.47,0.46 -1.109,0.73 -1.77,0.73 -0.66,0 -1.31,-0.27 -1.77,-0.73 z m 17.369,15.137 c -1.451,0.566 -3.328,0.88 -5.286,0.884 -0.014,0 -0.027,0 -0.042,0 -1.941,0 -3.803,-0.305 -5.246,-0.861 -2.972,-1.145 -3.42,-3.012 -3.422,-4.023 -0.003,-1.38 1.114,-2.503 2.494,-2.505 0.002,0 0.004,0 0.004,0 1.108,0 2.047,0.718 2.376,1.714 0.528,0.276 1.891,0.662 3.825,0.675 1.974,-0.004 3.296,-0.413 3.824,-0.692 0.325,-0.999 1.264,-1.722 2.371,-1.724 0.002,0 0.004,0 0.006,0 1.378,0 2.497,1.116 2.5,2.495 0.002,1.011 -0.437,2.88 -3.404,4.037 z m 6.781,-15.187 c -0.47,0.47 -1.11,0.74 -1.77,0.74 -0.659,0 -1.31,-0.27 -1.77,-0.74 -0.47,-0.46 -0.73,-1.1 -0.73,-1.76 0,-0.66 0.261,-1.31 0.73,-1.77 0.92,-0.93 2.61,-0.93 3.54,0 0.46,0.46 0.73,1.11 0.73,1.77 0,0.65 -0.27,1.3 -0.73,1.76 z"
   id="path98"
   inkscape:connector-curvature="0" />
	<path
   style="fill:#d8b4a4"
   d="m 188.537,293.315 v 3.181 c 0.433,1.077 4.149,4.168 8.86,4.168 0.004,0 0.011,0 0.016,0 0.004,0 0.011,0 0.016,0 4.712,0 8.428,-3.092 8.86,-4.168 v -3.181 c -2.785,1.18 -5.77,1.83 -8.876,1.83 -3.106,0 -6.091,-0.65 -8.876,-1.83 z"
   id="path100"
   inkscape:connector-curvature="0" />
	<path
   style="fill:#4d4d4d"
   d="m 180.705,231.925 h -21.182 l 8.232,37.168 c 1.323,5.866 -2.378,11.725 -8.253,13.05 -0.807,0.182 -1.62,0.272 -2.427,0.272 -2.041,0 -4.044,-0.576 -5.812,-1.692 -2.443,-1.543 -4.146,-3.938 -4.803,-6.747 l -5.234,-17.827 v 96.158 l 8.254,-22.412 -3.38,-1.331 c -0.676,-0.266 -1.203,-0.814 -1.443,-1.499 -0.24,-0.686 -0.17,-1.442 0.191,-2.072 l 10.472,-18.235 c 0.632,-1.387 4.339,-8.149 16.639,-9.984 l 1.101,-20.025 c -1.891,-4.565 -2.964,-9.723 -2.964,-15.186 0,-1.321 0.044,-2.577 0.108,-3.802 -0.001,-0.021 -0.007,-0.041 -0.007,-0.062 0,-0.081 0.017,-0.157 0.023,-0.235 0.755,-13.398 5.19,-21.132 10.485,-25.539 z"
   id="path102"
   inkscape:connector-curvature="0" />
	<path
   style="fill:#4d4d4d"
   d="m 183.537,294.568 v -4.096 c -0.899,-0.655 -1.768,-1.369 -2.597,-2.143 l 0.366,6.668 z"
   id="path104"
   inkscape:connector-curvature="0" />
	<path
   style="fill:#f7a9c9"
   d="m 320.621,211.265 c -0.09,-0.02 -10.275,-3.55 -10.275,-3.55 -0.527,5.03 -2.922,12.292 -13.91,12.292 -11,0 -13.388,-7.275 -13.91,-12.292 0,0 -10.184,3.529 -10.273,3.549 -9.092,2.068 -12.527,9.686 -13.577,12.83 l 14.13,12.523 c 0.456,0.404 0.748,0.96 0.823,1.565 l 1.608,13.036 h 42.399 l 1.608,-13.036 c 0.075,-0.604 0.367,-1.161 0.823,-1.565 l 14.13,-12.524 c -1.047,-3.136 -4.481,-10.759 -13.576,-12.828 z"
   id="path106"
   inkscape:connector-curvature="0" />
	<path
   style="fill:#e5cbbd"
   d="m 248.724,328.564 -1.395,0.549 c 0.13,2.199 0.275,4.438 0.513,7.564 l 1.63,4.426 c 0.086,-9.712 1.286,-19.088 3.102,-27.783 h -2.075 c -1.105,1.903 -2.934,3.274 -5.037,3.814 l 4.514,7.859 c 0.361,0.63 0.432,1.387 0.191,2.072 -0.24,0.685 -0.767,1.233 -1.443,1.499 z"
   id="path108"
   inkscape:connector-curvature="0" />
	<path
   style="fill:#d8b4a4"
   d="m 288.488,423.149 -0.021,-78.442 h -16.618 c 0.362,29.229 7.01,69.044 8.648,78.442 z"
   id="path110"
   inkscape:connector-curvature="0" />
	<path
   style="fill:#d8b4a4"
   d="m 312.373,423.149 c 1.639,-9.399 8.287,-49.22 8.65,-78.442 h -16.618 l -0.02,78.442 z"
   id="path112"
   inkscape:connector-curvature="0" />
	<polygon
   style="fill:#c69c6d"
   points="322.289,255.852 322.151,255.453 322.101,255.852 "
   id="polygon114" />
	<path
   style="fill:#f7a9c9"
   d="m 317.23,265.71 h -41.587 c -3.622,6.441 -20.4,38.157 -21.16,73.997 h 83.904 C 337.629,303.825 320.853,272.146 317.23,265.71 Z"
   id="path116"
   inkscape:connector-curvature="0" />
	<path
   style="fill:#e5cbbd"
   d="m 273.991,415.152 h 0.104 c -0.035,-0.22 -0.068,-0.429 -0.104,-0.654 z"
   id="path118"
   inkscape:connector-curvature="0" />
	<path
   style="fill:#998675"
   d="m 273.991,423.861 c 0.478,-0.161 0.97,-0.302 1.484,-0.41 -0.154,-0.892 -0.346,-2.012 -0.561,-3.298 h -0.924 v 3.708 z"
   id="path120"
   inkscape:connector-curvature="0" />
	<path
   style="fill:#736357"
   d="m 341.499,311.165 -17.474,-50.313 h -2.541 l -0.225,1.821 c 3.261,5.62 22.153,39.907 22.153,79.535 0,1.381 -1.119,2.5 -2.5,2.5 h -14.891 c -0.215,17.6 -2.672,38.935 -4.978,55.352 v 19.438 h 24.375 l 3.39,-102.148 c -1.32,-0.098 -2.607,-0.5 -3.758,-1.23 -1.794,-1.141 -3.051,-2.896 -3.551,-4.955 z"
   id="path122"
   inkscape:connector-curvature="0" />
	<rect
   x="195.005"
   y="422.47101"
   style="fill:#333333"
   width="4.8140001"
   height="12.33"
   id="rect124" />
	<path
   style="fill:#4d4d4d"
   d="m 197.413,400.64 c -0.425,0.785 -1.251,1.312 -2.194,1.312 h -0.213 v 15.519 h 4.814 v -15.519 h -0.213 c -0.943,0 -1.77,-0.527 -2.194,-1.312 z"
   id="path126"
   inkscape:connector-curvature="0" />
	<polygon
   style="fill:#d8b4a4"
   points="178.683,401.952 180.388,423.703 190.005,423.703 190.005,401.952 "
   id="polygon128" />
	<path
   style="fill:#f4a04d"
   d="m 235.671,310.122 c -0.019,-0.03 -0.036,-0.061 -0.053,-0.092 0,0 -3.24,-7.042 -14.215,-8.428 -0.053,-0.007 -0.106,-0.015 -0.159,-0.025 l -7.105,-1.368 c -0.005,-10e-4 -0.01,-0.002 -0.014,-0.003 l -3.853,-0.742 c -2.133,3.189 -7.364,6.2 -12.847,6.2 h -0.012 -0.006 -0.012 c -5.484,0 -10.719,-3.013 -12.85,-6.199 0,0 -11.074,2.129 -11.127,2.137 -10.743,1.587 -13.445,6.976 -13.545,7.213 -0.04,0.094 -9.25,16.157 -9.25,16.157 l 15.551,6.125 4.16,-7.829 c 0.538,-1.013 1.698,-1.531 2.812,-1.253 1.114,0.277 1.896,1.278 1.896,2.426 v 38.306 h 44.734 v -38.306 c 0,-1.148 0.781,-2.148 1.895,-2.426 1.114,-0.279 2.273,0.24 2.812,1.253 l 4.16,7.829 15.551,-6.125 z"
   id="path130"
   inkscape:connector-curvature="0" />
	<path
   style="fill:#999999"
   d="m 172.658,430.652 c -1.185,1.214 -1.768,2.825 -2.053,4.148 h 19.4 v -6.098 h -11.929 c -2.366,10e-4 -4.138,0.639 -5.418,1.95 z"
   id="path132"
   inkscape:connector-curvature="0" />
	<path
   style="fill:#e0b489"
   d="M 76.256,421.04 H 87.161 V 346.027 H 66.698 c 1.535,19.009 4.399,46.498 9.558,75.013 z"
   id="path134"
   inkscape:connector-curvature="0" />
	<path
   style="fill:#5576a5"
   d="m 175.045,396.952 h 17.909 l 1.971,-19.822 c 0.137,-1.375 1.371,-2.377 2.734,-2.241 1.207,0.12 2.125,1.079 2.239,2.241 h 0.001 l 1.971,19.822 h 17.909 v -29.204 h -44.734 z"
   id="path136"
   inkscape:connector-curvature="0" />
	<path
   style="fill:#d8b4a4"
   d="m 251.132,360.066 -10.44,-28.338 -7.364,2.901 11.893,27.091 c 0.033,0.077 0.063,0.155 0.089,0.234 0.193,0.595 1.643,1.121 3.396,0.552 1.75,-0.568 2.619,-1.844 2.426,-2.44 z"
   id="path138"
   inkscape:connector-curvature="0" />
	<polygon
   style="fill:#d8b4a4"
   points="216.142,401.952 204.82,401.952 204.82,423.703 214.437,423.703 "
   id="polygon140" />
	<path
   style="fill:#e0b489"
   d="m 92.162,421.04 h 10.903 c 5.159,-28.515 8.023,-56.004 9.559,-75.013 H 92.162 Z"
   id="path142"
   inkscape:connector-curvature="0" />
	<path
   style="fill:#c4806e"
   d="m 118.956,188.289 c 2.61,-6.179 5.311,-12.568 0.417,-23.319 -0.425,-0.933 -0.236,-2.031 0.475,-2.77 l 12.907,-13.403 c -3.981,-5.218 -9.086,-8.61 -15.226,-10.054 l -8.455,-2.029 -16.914,48.874 v 59.79 h 38.046 c -0.141,-5.83 -1.542,-21.814 -11.831,-39.398 -4.002,-6.842 -1.672,-12.357 0.581,-17.691 z"
   id="path144"
   inkscape:connector-curvature="0" />
	<path
   style="fill:#96564a"
   d="m 56.864,341.027 h 65.594 c 9.631,-57.937 8.617,-83.637 8.003,-90.649 H 48.867 c -0.606,7.053 -1.6,32.917 7.997,90.649 z"
   id="path146"
   inkscape:connector-curvature="0" />
	<path
   style="fill:#4d4d4d"
   d="m 166.421,336.567 -0.268,-0.105 -11.928,27.169 c -0.909,2.583 -3.539,4.125 -6.604,4.125 -0.984,0 -2.013,-0.159 -3.044,-0.493 -1.302,-0.422 -2.434,-1.071 -3.352,-1.865 v 52.073 h 24.098 l 4.544,-82.665 -0.323,0.609 c -0.596,1.122 -1.939,1.619 -3.123,1.152 z"
   id="path148"
   inkscape:connector-curvature="0" />
	<path
   style="fill:#998675"
   d="m 92.162,426.04 v 8.761 h 22.759 c -2.233,-8.073 -8.923,-8.711 -9.847,-8.761 z"
   id="path150"
   inkscape:connector-curvature="0" />
	<path
   style="fill:#333333"
   d="m 136.334,425.467 c -2.564,2.717 -3.339,6.783 -3.565,9.333 h 32.422 v -12.33 h -21 c -3.383,10e-4 -5.953,0.981 -7.857,2.997 z"
   id="path152"
   inkscape:connector-curvature="0" />
	<path
   style="fill:#c4806e"
   d="m 141.181,238.248 6.431,21.899 12.138,-4.079 -21.156,-95.514 c -0.006,-0.026 -0.803,-3.377 -3.033,-7.461 l -10.957,11.377 c 3.592,8.794 2.726,15.292 0.967,20.607 l 15.456,52.64 c 0.07,0.168 0.121,0.346 0.154,0.531 z"
   id="path154"
   inkscape:connector-curvature="0" />
	<path
   style="fill:#a6d9ff"
   d="m 122.692,203.455 c 0.255,0.436 0.495,0.869 0.74,1.303 l 1.131,-5.363 -1.987,-6.768 c -1.495,3.799 -2.162,6.934 0.116,10.828 z"
   id="path156"
   inkscape:connector-curvature="0" />
	<path
   style="fill:#999999"
   d="m 204.82,428.703 v 6.098 h 19.4 c -0.285,-1.323 -0.867,-2.934 -2.053,-4.148 -1.28,-1.312 -3.053,-1.949 -5.419,-1.949 H 204.82 Z"
   id="path158"
   inkscape:connector-curvature="0" />
	<path
   style="fill:#998675"
   d="m 250.261,434.801 h 13.682 c 0.872,-2.532 2.504,-5.579 5.048,-7.928 v -6.721 h -10.915 c -0.741,3.216 -2.732,9.341 -7.815,14.649 z"
   id="path160"
   inkscape:connector-curvature="0" />
	<path
   style="fill:#736357"
   d="m 384.363,260.852 h -38.266 l 4.348,17.965 c 0.023,-0.047 -0.018,-1.277 2.385,-1.277 2.409,0 2.359,2.225 2.361,2.273 l 0.9,22.331 1.275,5.27 c 0.461,2.059 0.131,4.129 -0.902,5.908 l 3.523,106.175 h 24.375 V 260.852 Z"
   id="path162"
   inkscape:connector-curvature="0" />
	<path
   style="fill:#4d4d4d"
   d="M 381.904,424.497 H 363.07 v 10.304 h 28.948 c -0.229,-2.181 -0.939,-5.417 -3.059,-7.655 -1.69,-1.783 -3.998,-2.649 -7.055,-2.649 z"
   id="path164"
   inkscape:connector-curvature="0" />
	<path
   style="fill:#c69c6d"
   d="m 420.398,271.817 c 1.168,-0.363 2.189,-1.056 2.937,-2.027 0.622,-0.808 0.982,-1.745 1.103,-2.72 -1.968,0.891 -3.469,2.628 -4.04,4.747 z"
   id="path166"
   inkscape:connector-curvature="0" />
	<path
   style="fill:#c69c6d"
   d="m 423.798,260.852 h -12.517 l 1.345,6.06 c 0.016,0.069 0.718,3.494 2.767,4.317 0.916,-4.449 4.246,-8.02 8.553,-9.297 z"
   id="path168"
   inkscape:connector-curvature="0" />
	<path
   style="fill:#a6d9ff"
   d="m 193.896,81.703 -6.739,13.138 12.424,4.986 -0.849,-16.095 -4.742,-2.281 c -0.033,0.084 -0.053,0.172 -0.094,0.252 z"
   id="path170"
   inkscape:connector-curvature="0" />
	<polygon
   style="fill:#588aa3"
   points="406.656,251.556 409.506,255.852 423.874,255.852 424.524,251.556 "
   id="polygon172" />
	<path
   style="fill:#588aa3"
   d="m 404.991,150.322 c -0.059,-0.574 -1.654,-14.407 -19.614,-18.938 -0.062,-0.015 -6.533,-2.183 -6.533,-2.183 l -0.644,14.437 c -0.036,0.825 -0.479,1.579 -1.181,2.014 -0.401,0.249 -0.858,0.375 -1.316,0.375 -0.344,0 -0.689,-0.071 -1.013,-0.214 l -1.593,-0.706 c -1.598,4.872 -5.64,10.956 -13.579,13.285 -0.032,0.01 -0.06,0.026 -0.093,0.035 -0.018,0.005 -0.036,0.003 -0.054,0.007 -0.923,0.264 -3.796,0.995 -6.669,0.995 -2.873,0 -5.744,-0.731 -6.667,-0.995 -0.017,-0.004 -0.036,-0.002 -0.054,-0.007 -0.033,-0.009 -0.061,-0.025 -0.093,-0.035 -7.939,-2.329 -11.982,-8.412 -13.579,-13.285 l -1.593,0.706 c -0.323,0.144 -0.669,0.214 -1.013,0.214 -0.459,0 -0.915,-0.126 -1.316,-0.375 -0.702,-0.435 -1.145,-1.189 -1.181,-2.014 l -0.643,-14.437 c 0,0 -6.472,2.167 -6.533,2.183 -8.183,2.065 -12.914,6.104 -15.627,9.727 3.679,1.041 8.15,3.076 12.454,7.028 10.294,9.451 15.513,25.833 15.513,48.691 0,1.381 -1.119,2.5 -2.5,2.5 h -11.177 c -0.13,1.975 -0.246,3.932 -0.347,5.871 l 3.521,1.222 c 14.351,3.349 17.48,17.387 17.606,17.985 0.186,0.88 -0.114,1.792 -0.787,2.389 l -0.685,0.607 6.886,28.448 h 40.353 c 5.603,-33.089 -0.786,-80.379 -0.854,-80.875 -0.185,-1.337 0.727,-2.579 2.057,-2.805 1.328,-0.228 2.602,0.644 2.87,1.966 l 14.726,72.418 h 20.338 c -0.001,0 -19.378,-96.144 -19.386,-96.234 z"
   id="path174"
   inkscape:connector-curvature="0" />
	<path
   style="fill:#998675"
   d="m 293.491,434.801 h 1.151 c -0.395,-0.385 -0.771,-0.794 -1.151,-1.201 z"
   id="path176"
   inkscape:connector-curvature="0" />
	<path
   style="fill:#e5cbbd"
   d="m 293.467,344.707 0.003,10.653 c 0.369,-3.586 0.704,-7.135 1.011,-10.653 z"
   id="path178"
   inkscape:connector-curvature="0" />
	<path
   style="fill:#d8b4a4"
   d="m 333.766,231.157 -9.677,8.577 -0.559,4.53 c 0.035,0.076 22.734,65.384 22.734,65.384 0.031,0.09 0.754,1.798 1.466,2.249 0.711,0.452 1.559,0.598 2.377,0.415 0.823,-0.184 1.523,-0.676 1.975,-1.387 0.451,-0.711 0.599,-1.555 0.415,-2.377 z"
   id="path180"
   inkscape:connector-curvature="0" />
	<path
   style="fill:#e5cbbd"
   d="m 251.956,344.707 c -0.475,0 -0.914,-0.14 -1.292,-0.37 l 5.191,14.094 c 1.114,3.435 -1.096,7.082 -5.036,8.62 1.886,15.765 4.322,31.923 7.266,48.102 h 10.905 v -38.006 c -1.153,-10.954 -2.018,-22.314 -2.142,-32.439 h -14.892 z"
   id="path182"
   inkscape:connector-curvature="0" />
	<path
   style="fill:#d6679f"
   d="m 278.408,428.149 c -5.049,0.011 -7.751,3.805 -9.067,6.644 l 19.15,-0.041 -0.002,-6.603 z"
   id="path184"
   inkscape:connector-curvature="0" />
	<path
   style="fill:#4d4d4d"
   d="m 320.918,424.75 c 4.294,2.302 6.836,6.645 8.009,10.05 h 13.41 v -10.304 h -18.834 c -0.932,0.001 -1.787,0.091 -2.585,0.254 z"
   id="path186"
   inkscape:connector-curvature="0" />
	<path
   style="fill:#d6679f"
   d="m 314.462,428.149 h -10.079 l -0.002,6.603 19.148,0.041 c -1.314,-2.837 -4.016,-6.632 -9.067,-6.644 z"
   id="path188"
   inkscape:connector-curvature="0" />
	<path
   style="fill:#c4806e"
   d="m 87.161,185.588 -16.916,-48.874 -8.444,2.026 c -7.184,1.689 -12.045,5.806 -15.273,10.016 L 59.471,162.2 c 0.711,0.738 0.899,1.836 0.475,2.77 -4.894,10.751 -2.193,17.141 0.417,23.319 2.254,5.333 4.584,10.849 0.581,17.691 -10.324,17.645 -11.706,33.581 -11.837,39.398 h 38.054 z"
   id="path190"
   inkscape:connector-curvature="0" />
	<path
   style="fill:#d8d5d4"
   d="m 160.192,50.184 h 5.277 c 2.532,0 4.593,-1.828 4.593,-4.076 v -3.124 h -14.464 v 3.124 c 0,2.247 2.061,4.076 4.594,4.076 z m 0.966,-5.218 c 0.93,-0.94 2.609,-0.93 3.54,0 0.46,0.46 0.729,1.11 0.729,1.76 0,0.66 -0.27,1.3 -0.729,1.77 -0.471,0.47 -1.11,0.73 -1.771,0.73 -0.66,0 -1.3,-0.26 -1.77,-0.73 -0.46,-0.46 -0.73,-1.11 -0.73,-1.77 0,-0.66 0.271,-1.3 0.731,-1.76 z"
   id="path192"
   inkscape:connector-curvature="0" />
	<path
   style="fill:#e0b489"
   d="m 82.919,78.203 c -2.543,4.09 -6.804,6.824 -9.902,8.393 h 12.814 c 1.355,0 2.453,1.081 2.492,2.428 h 2.672 c 0.039,-1.347 1.137,-2.428 2.493,-2.428 h 2.735 C 89.138,84.623 85.146,81.297 82.919,78.203 Z"
   id="path194"
   inkscape:connector-curvature="0" />
	<path
   style="fill:#cccccc"
   d="m 89.662,56.18 c 3.746,0 7.263,0.772 10.383,2.158 0.351,-1.084 0.553,-2.215 0.553,-3.367 0,-6.03 -4.905,-10.937 -10.936,-10.937 -6.031,0 -10.938,4.906 -10.938,10.937 0,1.151 0.202,2.284 0.553,3.368 3.121,-1.387 6.638,-2.159 10.385,-2.159 z"
   id="path196"
   inkscape:connector-curvature="0" />
	<path
   style="fill:#998675"
   d="M 64.401,434.801 H 87.162 V 426.04 H 74.245 c -0.936,0.051 -7.613,0.696 -9.844,8.761 z"
   id="path198"
   inkscape:connector-curvature="0" />
	<path
   style="fill:#cccccc"
   d="m 80.08,70.796 c 0,-1.363 1.093,-2.476 2.456,-2.5 1.344,-0.048 2.495,1.049 2.542,2.411 0.03,0.469 1,11.814 23.311,12.604 0,0 -0.008,-4.958 -0.008,-4.985 0,-9.615 -8.223,-17.147 -18.719,-17.147 -10.496,0 -18.719,7.532 -18.719,17.147 0,0.033 -0.01,3.714 -0.01,3.714 3.684,-1.894 9.147,-5.645 9.147,-11.244 z"
   id="path200"
   inkscape:connector-curvature="0" />
	<path
   style="fill:#d8d5d4"
   d="m 95.989,94.519 c 0,2.118 1.724,3.841 3.842,3.841 h 4.717 c 2.118,0 3.841,-1.723 3.841,-3.841 v -2.923 h -12.4 z m 4.528,-1.163 c 0.92,-0.93 2.61,-0.93 3.54,0 0.46,0.46 0.731,1.11 0.731,1.77 0,0.66 -0.271,1.3 -0.731,1.76 -0.47,0.47 -1.109,0.74 -1.769,0.74 -0.66,0 -1.311,-0.27 -1.771,-0.74 -0.46,-0.46 -0.729,-1.1 -0.729,-1.76 0,-0.66 0.269,-1.31 0.729,-1.77 z"
   id="path202"
   inkscape:connector-curvature="0" />
	<path
   style="fill:#a6d9ff"
   d="m 135.352,144.048 0.791,-3.999 -13.316,-38.23 c -3.737,5.219 -4.286,10.123 -4.321,10.49 -0.008,0.08 -4.02,20.561 -4.02,20.561 l 4.199,1.007 c 6.496,1.529 12.187,5.017 16.667,10.171 z"
   id="path204"
   inkscape:connector-curvature="0" />
	<path
   style="fill:#a6d9ff"
   d="m 141.227,139.867 v 13.367 c 1.607,3.49 2.209,6.068 2.245,6.227 l 12.972,58.563 h 17.733 v -8.038 L 163.723,196.82 c -0.389,-0.49 -0.58,-1.107 -0.536,-1.73 l 5.983,-84.851 -4.624,-9.012 -12.488,5.688 c -0.33,0.151 -0.684,0.225 -1.036,0.225 -0.493,0 -0.984,-0.146 -1.405,-0.433 -0.722,-0.49 -1.136,-1.322 -1.092,-2.194 l 0.926,-18.29 c 0,0 -8.975,4.3 -9.132,4.34 -6.104,1.583 -10.501,4.166 -13.677,7.008 l 14.446,41.473 c 0.017,0.05 0.139,0.768 0.139,0.823 z"
   id="path206"
   inkscape:connector-curvature="0" />
	<path
   style="fill:#a6d9ff"
   d="m 159.467,81.703 c -0.041,-0.08 -0.062,-0.168 -0.093,-0.252 l -4.791,2.305 -0.857,16.905 12.535,-5.71 z"
   id="path208"
   inkscape:connector-curvature="0" />
	<path
   style="fill:#c69c6d"
   d="m 176.681,73.7 c 9.557,-0.001 16.733,-3.402 20.383,-19.305 -1.191,0.503 -2.506,0.788 -3.893,0.788 h -5.277 c -5.289,0 -9.593,-4.071 -9.593,-9.076 v -3.124 h -3.239 v 3.124 c 0,5.004 -4.304,9.076 -9.593,9.076 h -5.277 c -1.386,0 -2.701,-0.285 -3.893,-0.788 3.65,15.903 10.825,19.304 20.382,19.305 z m -6.379,-12.739 c 1.175,0 2.161,0.811 2.429,1.903 0.486,0.299 1.872,0.819 4.049,0.819 2.176,0 3.562,-0.52 4.049,-0.82 0.268,-1.092 1.254,-1.903 2.429,-1.903 1.381,0 2.5,1.119 2.5,2.5 0,3.075 -3.691,5.223 -8.977,5.223 -5.286,0 -8.978,-2.147 -8.978,-5.223 -0.001,-1.379 1.118,-2.499 2.499,-2.499 z"
   id="path210"
   inkscape:connector-curvature="0" />
	<path
   style="fill:#e0b489"
   d="m 18.073,262.833 c 3.912,2.059 6.589,6.16 6.589,10.879 0,1.381 -1.119,2.5 -2.5,2.5 -1.381,0 -2.5,-1.119 -2.5,-2.5 0,-2.299 -1.072,-4.349 -2.738,-5.687 l -0.476,2.149 c -0.351,1.554 -0.077,3.14 0.768,4.478 0.845,1.337 2.16,2.266 3.704,2.615 1.54,0.349 2.981,-0.225 4.467,-0.771 1.896,-0.696 2.638,-3.795 2.65,-3.841 l 2.212,-7.725 -11.764,-3.954 z"
   id="path212"
   inkscape:connector-curvature="0" />
	<path
   style="fill:#e0b489"
   d="m 98.325,152.49 5.865,-16.948 -4.915,-1.179 c -1.124,-0.27 -1.917,-1.275 -1.917,-2.431 v -9.419 c -2.415,1.016 -5.003,1.575 -7.696,1.575 -2.695,0 -5.283,-0.56 -7.7,-1.577 v 9.42 c 0,1.156 -0.793,2.161 -1.917,2.431 l -4.914,1.179 5.865,16.948 h 17.329 z"
   id="path214"
   inkscape:connector-curvature="0" />
	<polygon
   style="fill:#96564a"
   points="96.594,157.49 82.726,157.49 89.661,177.525 "
   id="polygon216" />
	<path
   style="fill:#c69c6d"
   d="m 193.623,22.716 c -0.068,-0.065 -0.128,-0.11 -0.171,-0.139 -0.347,0.089 -1.115,0.504 -1.743,0.844 -2.599,1.405 -6.947,3.755 -15.022,3.757 0,0 0,0 -0.002,0 0,0 -0.002,0 -0.004,0 -0.001,0 -0.002,0 -0.004,0 -0.001,0 -0.002,0 -0.002,0 -8.073,-0.002 -12.422,-2.353 -15.02,-3.757 -0.627,-0.338 -1.393,-0.752 -1.741,-0.843 -0.051,0.037 -0.13,0.102 -0.237,0.209 -0.838,1.208 -1.574,8.189 -1.062,15.197 h 36.135 c 0.511,-7.007 -0.23,-13.994 -1.127,-15.268 z"
   id="path218"
   inkscape:connector-curvature="0" />
	<path
   style="fill:#c4806e"
   d="m 43.734,153.064 c -2.149,3.945 -2.938,7.198 -3.009,7.506 l -21.153,95.498 12.054,4.051 21.791,-76.1 c -1.521,-5.116 -2.057,-11.33 1.3,-19.548 z"
   id="path220"
   inkscape:connector-curvature="0" />
	<path
   style="fill:#d8d5d4"
   d="m 74.774,98.36 h 4.718 c 2.117,0 3.84,-1.723 3.84,-3.841 V 91.596 H 70.933 v 2.923 c 0,2.118 1.723,3.841 3.841,3.841 z m 0.683,-5.004 c 0.93,-0.93 2.609,-0.93 3.54,0 0.47,0.46 0.729,1.11 0.729,1.77 0,0.66 -0.26,1.3 -0.729,1.77 -0.47,0.46 -1.11,0.73 -1.771,0.73 -0.66,0 -1.3,-0.27 -1.77,-0.74 -0.46,-0.46 -0.73,-1.11 -0.73,-1.76 0.001,-0.66 0.272,-1.31 0.731,-1.77 z"
   id="path222"
   inkscape:connector-curvature="0" />
	<path
   style="fill:#754c24"
   d="m 156.141,19.252 c 2.918,-2.916 5.675,-1.427 7.891,-0.229 2.464,1.331 5.838,3.155 12.65,3.156 6.813,-10e-4 10.188,-1.825 12.65,-3.156 2.217,-1.197 4.971,-2.691 7.891,0.229 2.723,2.723 2.916,12.556 2.53,18.732 h 0.513 c 1.381,0 2.5,1.119 2.5,2.5 v 4.714 c 1.673,-3.541 2.996,-10.499 0.83,-24.028 C 202.265,12.855 201.007,5.001 176.682,5 c -24.324,0.001 -25.581,7.855 -26.912,16.17 -2.166,13.529 -0.844,20.487 0.829,24.027 v -4.713 c 0,-1.381 1.119,-2.5 2.5,-2.5 h 0.513 c -0.386,-6.176 -0.193,-16.01 2.529,-18.732 z"
   id="path224"
   inkscape:connector-curvature="0" />
	<path
   style="fill:#e0b489"
   d="m 89.662,119.088 c 8.193,0 15.17,-6.783 17.703,-16.196 -0.886,0.299 -1.831,0.468 -2.817,0.468 h -4.717 c -4.875,0 -8.842,-3.966 -8.842,-8.841 v -0.495 h -2.657 v 0.495 c 0,4.875 -3.966,8.841 -8.84,8.841 h -4.718 c -0.986,0 -1.932,-0.17 -2.817,-0.468 2.534,9.413 9.51,16.196 17.705,16.196 z m -6.644,-14.675 c 1.189,0 2.184,0.831 2.438,1.943 0.493,0.32 1.96,0.89 4.303,0.89 2.343,0 3.81,-0.57 4.303,-0.89 0.253,-1.112 1.248,-1.943 2.438,-1.943 1.381,0 2.5,1.119 2.5,2.5 0,3.14 -3.8,5.333 -9.24,5.333 -5.44,0 -9.24,-2.193 -9.24,-5.333 -0.002,-1.381 1.117,-2.5 2.498,-2.5 z"
   id="path226"
   inkscape:connector-curvature="0" />
	<path
   style="fill:#d8d5d4"
   d="m 183.301,46.108 c 0,2.248 2.061,4.076 4.593,4.076 h 5.277 c 2.533,0 4.594,-1.828 4.594,-4.076 v -3.124 h -14.464 z m 5.567,-1.152 c 0.93,-0.93 2.6,-0.92 3.529,0 0.471,0.47 0.73,1.12 0.73,1.77 0,0.66 -0.26,1.31 -0.73,1.77 -0.47,0.47 -1.109,0.73 -1.77,0.73 -0.65,0 -1.3,-0.26 -1.76,-0.73 -0.471,-0.46 -0.74,-1.11 -0.74,-1.77 0,-0.66 0.27,-1.3 0.741,-1.77 z"
   id="path228"
   inkscape:connector-curvature="0" />
	<path
   style="fill:#1c1b1a"
   d="m 278.329,70.365 c -1.189,0 -2.185,0.831 -2.438,1.943 -0.493,0.32 -1.96,0.89 -4.303,0.89 -2.343,0 -3.81,-0.57 -4.303,-0.89 -0.253,-1.112 -1.248,-1.943 -2.438,-1.943 -1.381,0 -2.5,1.119 -2.5,2.5 0,3.14 3.8,5.333 9.24,5.333 5.44,0 9.24,-2.193 9.24,-5.333 0.002,-1.381 -1.117,-2.5 -2.498,-2.5 z"
   id="path230"
   inkscape:connector-curvature="0" />
	<path
   style="fill:#1c1b1a"
   d="m 263.647,60.846 c 0,-0.66 -0.27,-1.3 -0.739,-1.77 -0.92,-0.93 -2.601,-0.93 -3.53,0 -0.47,0.47 -0.73,1.11 -0.73,1.77 0,0.66 0.261,1.3 0.73,1.77 0.46,0.46 1.11,0.73 1.77,0.73 0.66,0 1.301,-0.27 1.761,-0.73 0.468,-0.47 0.738,-1.11 0.738,-1.77 z"
   id="path232"
   inkscape:connector-curvature="0" />
	<path
   style="fill:#1c1b1a"
   d="m 280.267,59.076 c -0.47,0.47 -0.729,1.11 -0.729,1.77 0,0.66 0.26,1.3 0.729,1.76 0.46,0.47 1.101,0.74 1.771,0.74 0.66,0 1.3,-0.27 1.76,-0.74 0.47,-0.46 0.74,-1.1 0.74,-1.76 0,-0.66 -0.271,-1.3 -0.74,-1.77 -0.93,-0.93 -2.6,-0.93 -3.531,0 z"
   id="path234"
   inkscape:connector-curvature="0" />
	<path
   style="fill:#1c1b1a"
   d="m 229.622,134.143 c -0.995,-0.216 -2.064,0.193 -2.643,1.106 -0.738,1.167 -0.392,2.711 0.774,3.45 0.34,0.216 0.993,0.532 1.889,0.532 0.793,0 1.775,-0.248 2.901,-1.031 1.101,-0.767 2.193,-1.957 3.076,-3.352 2.387,-3.771 2.433,-7.291 0.116,-8.757 -1.166,-0.737 -2.711,-0.392 -3.449,0.775 -0.577,0.911 -0.491,2.053 0.13,2.861 -0.064,0.461 -0.339,1.368 -1.021,2.446 -0.683,1.079 -1.385,1.714 -1.773,1.97 z"
   id="path236"
   inkscape:connector-curvature="0" />
	<path
   style="fill:#1c1b1a"
   d="m 228.377,123.665 c 0.66,0 1.31,-0.27 1.77,-0.73 0.471,-0.47 0.74,-1.11 0.74,-1.77 0,-0.66 -0.27,-1.3 -0.74,-1.77 -0.93,-0.93 -2.6,-0.93 -3.54,0 -0.46,0.47 -0.729,1.11 -0.729,1.77 0,0.66 0.27,1.3 0.729,1.77 0.471,0.461 1.12,0.73 1.77,0.73 z"
   id="path238"
   inkscape:connector-curvature="0" />
	<path
   style="fill:#1c1b1a"
   d="m 220.158,136.656 c 0.659,0 1.3,-0.27 1.77,-0.73 0.46,-0.47 0.73,-1.11 0.73,-1.77 0,-0.66 -0.271,-1.3 -0.73,-1.77 -0.939,-0.93 -2.61,-0.93 -3.54,0 -0.46,0.47 -0.729,1.11 -0.729,1.77 0,0.66 0.26,1.3 0.729,1.77 0.459,0.46 1.11,0.73 1.77,0.73 z"
   id="path240"
   inkscape:connector-curvature="0" />
	<path
   style="fill:#1c1b1a"
   d="m 203.71,276.961 c -0.002,0 -0.004,0 -0.006,0 -1.107,0.003 -2.046,0.725 -2.371,1.724 -0.528,0.279 -1.851,0.688 -3.824,0.692 -1.935,-0.014 -3.297,-0.399 -3.825,-0.675 -0.329,-0.996 -1.268,-1.714 -2.376,-1.714 0,0 -0.002,0 -0.004,0 -1.38,0.003 -2.497,1.125 -2.494,2.505 0.002,1.011 0.45,2.878 3.422,4.023 1.443,0.556 3.305,0.861 5.246,0.861 0.015,0 0.028,0 0.042,0 1.958,-0.004 3.835,-0.318 5.286,-0.884 2.967,-1.157 3.406,-3.026 3.404,-4.037 -0.003,-1.379 -1.122,-2.495 -2.5,-2.495 z"
   id="path242"
   inkscape:connector-curvature="0" />
	<path
   style="fill:#1c1b1a"
   d="m 189.707,266.586 c 0,-0.66 -0.27,-1.3 -0.73,-1.77 -0.93,-0.93 -2.609,-0.93 -3.54,0 -0.46,0.47 -0.73,1.11 -0.73,1.77 0,0.66 0.27,1.31 0.73,1.77 0.46,0.46 1.11,0.73 1.77,0.73 0.66,0 1.3,-0.27 1.77,-0.73 0.46,-0.47 0.73,-1.11 0.73,-1.77 z"
   id="path244"
   inkscape:connector-curvature="0" />
	<path
   style="fill:#1c1b1a"
   d="m 206.047,264.776 c -0.47,0.46 -0.73,1.11 -0.73,1.77 0,0.66 0.261,1.3 0.73,1.76 0.46,0.47 1.11,0.74 1.77,0.74 0.66,0 1.301,-0.27 1.77,-0.74 0.46,-0.46 0.73,-1.11 0.73,-1.76 0,-0.66 -0.27,-1.31 -0.73,-1.77 -0.929,-0.93 -2.62,-0.93 -3.54,0 z"
   id="path246"
   inkscape:connector-curvature="0" />
	<path
   style="fill:#1c1b1a"
   d="m 302.419,187.964 c -0.003,0 -0.005,0 -0.008,0 -1.089,0.003 -2.013,0.702 -2.353,1.674 -0.51,0.253 -1.733,0.616 -3.526,0.62 -0.01,0 -0.02,0 -0.03,0 -1.777,0 -2.992,-0.355 -3.5,-0.605 -0.344,-0.97 -1.27,-1.664 -2.356,-1.664 -0.003,0 -0.005,0 -0.008,0 -1.381,0.004 -2.496,1.127 -2.492,2.508 0.009,2.851 3.364,4.761 8.353,4.761 0.015,0 0.029,0 0.044,0 1.874,-0.004 3.672,-0.305 5.064,-0.848 2.889,-1.127 3.315,-2.961 3.312,-3.954 -0.004,-1.378 -1.123,-2.492 -2.5,-2.492 z"
   id="path248"
   inkscape:connector-curvature="0" />
	<path
   style="fill:#1c1b1a"
   d="m 289.248,178.516 c 0,-0.66 -0.26,-1.3 -0.73,-1.77 -0.93,-0.93 -2.6,-0.93 -3.54,0 -0.46,0.47 -0.729,1.11 -0.729,1.77 0,0.65 0.27,1.3 0.729,1.77 0.471,0.46 1.11,0.73 1.771,0.73 0.66,0 1.31,-0.27 1.77,-0.73 0.469,-0.47 0.729,-1.121 0.729,-1.77 z"
   id="path250"
   inkscape:connector-curvature="0" />
	<path
   style="fill:#1c1b1a"
   d="m 304.547,176.746 c -0.47,0.46 -0.73,1.11 -0.73,1.77 0,0.66 0.271,1.3 0.73,1.76 0.47,0.47 1.11,0.74 1.77,0.74 0.66,0 1.301,-0.27 1.771,-0.74 0.46,-0.46 0.729,-1.11 0.729,-1.76 0,-0.66 -0.27,-1.3 -0.729,-1.77 -0.93,-0.93 -2.611,-0.93 -3.541,0 z"
   id="path252"
   inkscape:connector-curvature="0" />
	<path
   style="fill:#1c1b1a"
   d="m 89.758,112.246 c 5.44,0 9.24,-2.193 9.24,-5.333 0,-1.381 -1.119,-2.5 -2.5,-2.5 -1.189,0 -2.185,0.831 -2.438,1.943 -0.493,0.32 -1.96,0.89 -4.303,0.89 -2.343,0 -3.81,-0.57 -4.303,-0.89 -0.253,-1.112 -1.248,-1.943 -2.438,-1.943 -1.381,0 -2.5,1.119 -2.5,2.5 0.002,3.14 3.802,5.333 9.242,5.333 z"
   id="path254"
   inkscape:connector-curvature="0" />
	<path
   style="fill:#1c1b1a"
   d="m 77.227,97.626 c 0.66,0 1.301,-0.27 1.771,-0.73 0.47,-0.47 0.729,-1.11 0.729,-1.77 0,-0.66 -0.26,-1.31 -0.729,-1.77 -0.931,-0.93 -2.61,-0.93 -3.54,0 -0.46,0.46 -0.73,1.11 -0.73,1.77 0,0.65 0.271,1.3 0.73,1.76 0.469,0.47 1.109,0.74 1.769,0.74 z"
   id="path256"
   inkscape:connector-curvature="0" />
	<path
   style="fill:#1c1b1a"
   d="m 102.288,97.626 c 0.66,0 1.3,-0.27 1.769,-0.74 0.46,-0.46 0.731,-1.1 0.731,-1.76 0,-0.66 -0.271,-1.31 -0.731,-1.77 -0.93,-0.93 -2.62,-0.93 -3.54,0 -0.46,0.46 -0.729,1.11 -0.729,1.77 0,0.66 0.269,1.3 0.729,1.76 0.46,0.47 1.11,0.74 1.771,0.74 z"
   id="path258"
   inkscape:connector-curvature="0" />
	<path
   style="fill:#1c1b1a"
   d="m 362.04,105.284 c 0,-1.381 -1.119,-2.5 -2.5,-2.5 -0.781,0 -1.479,0.359 -1.939,0.92 -0.695,0.206 -2.354,0.496 -4.802,0.496 -2.448,0 -4.107,-0.29 -4.802,-0.496 -0.459,-0.562 -1.157,-0.92 -1.938,-0.92 -1.381,0 -2.5,1.119 -2.5,2.5 0,0.969 0,3.917 9.24,3.917 9.24,0 9.241,-2.948 9.241,-3.917 z"
   id="path260"
   inkscape:connector-curvature="0" />
	<path
   style="fill:#1c1b1a"
   d="m 343.544,74.275 h 18.514 c 1.381,0 2.5,-1.119 2.5,-2.5 0,-1.381 -1.119,-2.5 -2.5,-2.5 h -18.514 c -1.381,0 -2.5,1.119 -2.5,2.5 0,1.381 1.12,2.5 2.5,2.5 z"
   id="path262"
   inkscape:connector-curvature="0" />
	<path
   style="fill:#1c1b1a"
   d="m 347.617,66.168 h 10.369 c 1.381,0 2.5,-1.119 2.5,-2.5 0,-1.381 -1.119,-2.5 -2.5,-2.5 h -10.369 c -1.381,0 -2.5,1.119 -2.5,2.5 0,1.381 1.119,2.5 2.5,2.5 z"
   id="path264"
   inkscape:connector-curvature="0" />
	<path
   style="fill:#1c1b1a"
   d="m 338.757,90.696 c 0.66,0 1.3,-0.27 1.771,-0.74 0.47,-0.47 0.729,-1.11 0.729,-1.77 0,-0.65 -0.26,-1.29 -0.729,-1.76 -0.931,-0.93 -2.601,-0.93 -3.54,0 -0.46,0.46 -0.73,1.11 -0.73,1.76 0,0.66 0.271,1.31 0.73,1.77 0.469,0.47 1.109,0.74 1.769,0.74 z"
   id="path266"
   inkscape:connector-curvature="0" />
	<path
   style="fill:#1c1b1a"
   d="m 366.837,90.696 c 0.66,0 1.31,-0.27 1.77,-0.74 0.471,-0.46 0.74,-1.11 0.74,-1.76 0,-0.66 -0.27,-1.31 -0.74,-1.77 -0.93,-0.93 -2.6,-0.93 -3.529,0 -0.471,0.46 -0.74,1.11 -0.74,1.77 0,0.65 0.27,1.3 0.74,1.76 0.46,0.47 1.109,0.74 1.759,0.74 z"
   id="path268"
   inkscape:connector-curvature="0" />
	<path
   style="fill:#1c1b1a"
   d="m 428.935,261.521 -0.408,-3.009 1.376,-9.083 c 0.013,-0.084 -19.949,-99.715 -19.949,-99.715 -0.218,-1.874 -2.672,-17.914 -23.261,-23.155 l -19.522,-6.545 v -4.16 c 7.627,-4.652 12.41,-13.098 12.41,-23.381 v -0.557 c 1.119,-0.614 2.492,-1.684 3.615,-3.533 2.735,-4.506 2.689,-11.421 -0.138,-20.556 -3.224,-10.417 -11.669,-15.983 -20.769,-13.895 -2.814,-1.535 -6.031,-2.359 -9.588,-2.359 -3.557,0 -6.773,0.824 -9.588,2.358 -9.094,-2.088 -17.543,3.479 -20.767,13.895 -2.827,9.134 -2.873,16.05 -0.138,20.556 1.122,1.85 2.496,2.919 3.614,3.533 v 0.557 c 0,10.284 4.784,18.731 12.412,23.383 v 4.159 l -13.588,4.556 c -1.842,-5.546 -8.002,-19.531 -24.132,-23.323 l -16.327,-3.918 v -5.797 c 10.202,-0.479 17.556,-3.933 21.868,-10.298 8.576,-12.658 1.817,-32.253 0.572,-35.575 -0.096,-8.885 -2.927,-16.061 -8.418,-21.333 -9.974,-9.576 -25.157,-9.381 -26.714,-9.339 -1.459,-0.045 -16.716,-0.274 -26.728,9.339 -5.491,5.273 -8.322,12.448 -8.418,21.333 -1.245,3.322 -8.004,22.917 0.572,35.575 4.312,6.366 11.666,9.82 21.868,10.298 v 5.797 l -16.316,3.915 c -1.884,0.443 -3.686,1.056 -5.415,1.81 -1.165,-2.315 -2.895,-4.996 -5.414,-7.608 -0.143,-0.203 -0.319,-0.38 -0.52,-0.535 -3.698,-3.659 -8.999,-7.114 -16.586,-9.125 l -20.369,-9.797 v -3.863 c 3.953,-4.189 6.632,-10.479 8.308,-19.171 3.379,-1.86 9.891,-8.606 6.054,-32.577 C 206.813,9.642 203.083,0.002 176.687,0 c 0,0 0,0 -0.001,0 0,0 -0.003,0 -0.005,0 -0.001,0 -0.002,0 -0.004,0 h -0.001 c -26.398,0.002 -30.126,9.642 -31.845,20.38 -3.837,23.97 2.674,30.715 6.053,32.576 1.676,8.692 4.355,14.982 8.308,19.171 v 3.863 l -20.368,9.797 c -22.469,5.951 -25.065,23.953 -25.283,25.923 l -3.92,19.993 -7.263,-1.743 v -10.394 c 6.623,-5.151 11.03,-14.198 11.03,-24.485 0,0 -0.009,-16.824 -0.011,-16.859 -0.034,-7.108 -3.483,-13.322 -8.928,-17.325 0.751,-1.876 1.147,-3.887 1.147,-5.927 0,-8.788 -7.148,-15.937 -15.936,-15.937 -8.788,0 -15.938,7.149 -15.938,15.937 0,2.04 0.396,4.051 1.149,5.928 -5.438,3.999 -8.884,10.202 -8.926,17.298 -0.003,0.044 -0.014,16.885 -0.014,16.885 0,10.286 4.406,19.331 11.028,24.483 v 10.396 l -16.316,3.915 c -19.84,4.664 -24.602,24.733 -24.798,25.597 l -22.59,101.993 c -0.294,-0.021 -0.587,-0.045 -0.886,-0.045 -6.778,0 -12.293,5.514 -12.293,12.293 v 163.588 c 0,1.381 1.119,2.5 2.5,2.5 1.381,0 2.5,-1.119 2.5,-2.5 V 273.712 c 0,-3.949 3.157,-7.167 7.079,-7.282 l -0.588,2.652 c -0.644,2.846 -0.139,5.772 1.419,8.239 1.559,2.467 3.984,4.179 6.83,4.822 0.807,0.182 1.619,0.272 2.427,0.272 2.041,0 4.044,-0.575 5.812,-1.692 2.445,-1.545 4.149,-3.942 4.805,-6.756 l 23.537,-82.199 c 1.726,4.195 2.677,7.504 0.229,11.686 -13.005,22.23 -12.628,41.643 -12.509,44.294 -0.446,3.04 -3.353,27.819 8.164,96.193 0.202,1.204 1.244,2.085 2.465,2.085 h 6.935 c 1.528,19.04 4.395,46.705 9.574,75.459 -4.783,1.261 -11.138,5.441 -12.363,15.513 -0.087,0.711 0.136,1.424 0.61,1.96 0.475,0.536 1.155,0.842 1.871,0.842 h 56.572 c 0.716,0 1.396,-0.307 1.871,-0.842 0.475,-0.536 0.697,-1.249 0.61,-1.96 -1.226,-10.071 -7.58,-14.251 -12.363,-15.513 5.18,-28.754 8.046,-56.419 9.574,-75.459 h 6.935 c 1.221,0 2.263,-0.881 2.465,-2.085 11.521,-68.409 8.606,-93.179 8.162,-96.198 0.104,-2.33 0.393,-17.378 -8.149,-35.923 l 0.484,-2.298 8.69,29.597 v 180.205 c -1.306,0.705 -2.485,1.606 -3.528,2.711 -5.49,5.816 -5.026,15.021 -5.004,15.41 0.076,1.323 1.171,2.356 2.496,2.356 h 96.802 c 1.349,0 2.454,-1.069 2.499,-2.417 0.008,-0.251 0.16,-6.186 -3.711,-10.188 -0.863,-0.893 -1.848,-1.614 -2.943,-2.165 -0.878,-1.534 -1.936,-2.858 -3.18,-3.941 l 1.5,-19.138 h 1.122 c 1.381,0 2.5,-1.119 2.5,-2.5 v -64.979 l 0.5,0.942 c 0.598,1.123 1.94,1.619 3.124,1.153 l 0.268,-0.105 11.928,27.169 c 0.771,2.194 2.789,3.625 5.256,4.01 1.962,16.403 4.518,33.226 7.613,50.056 -0.319,1.921 -2.382,11.839 -11.57,17.473 -0.954,0.585 -1.403,1.733 -1.1,2.811 0.304,1.077 1.287,1.821 2.406,1.821 h 101.633 c 1.381,0 2.5,-1.119 2.5,-2.5 v -12.804 h 0.5 c 1.349,0 2.454,-1.069 2.499,-2.417 l 2.367,-71.313 2.367,71.313 c 0.045,1.348 1.15,2.417 2.499,2.417 h 0.5 v 12.804 c 0,1.381 1.119,2.5 2.5,2.5 h 34.043 c 1.323,0 2.417,-1.031 2.496,-2.352 0.02,-0.343 0.442,-8.476 -4.495,-13.715 -0.959,-1.018 -2.047,-1.848 -3.251,-2.5 v -160.27 c 0.145,-0.693 0.283,-1.393 0.417,-2.099 0.001,-0.007 0.003,-0.013 0.004,-0.02 2.577,-13.653 3.056,-29.679 2.686,-44.092 0,0 7.368,35.572 7.443,35.686 l 5.913,8.909 1.897,8.55 c 0.771,5.327 5.459,9.21 10.827,9.21 0.465,0 0.935,-0.029 1.409,-0.089 2.944,-0.373 5.55,-1.856 7.337,-4.178 1.379,-1.791 2.123,-3.917 2.189,-6.121 3.023,0.89 5.239,3.686 5.239,6.993 v 163.588 c 0,1.381 1.119,2.5 2.5,2.5 1.381,0 2.5,-1.119 2.5,-2.5 V 273.712 c 0.003,-6.268 -4.716,-11.445 -10.786,-12.191 z m -61.696,-136.211 6.674,2.238 -0.545,12.21 -11.128,-4.931 z m -12.402,18.229 h -4.268 l -3.484,-4.98 h 11.236 z m 0.86,10.579 c -0.932,0.141 -1.927,0.224 -2.993,0.237 -1.066,-0.013 -2.061,-0.096 -2.993,-0.237 l 1.479,-5.579 h 3.027 z m 1.582,-20.598 h -9.15 l -4.893,-9.314 v -5.994 c 2.906,1.009 6.086,1.551 9.467,1.551 3.382,0 6.562,-0.542 9.469,-1.552 v 5.994 z m -10.726,13.001 -1.634,6.161 c -5.161,-2.475 -7.215,-7.082 -7.979,-9.628 l 5.486,-2.431 z m 16.427,-5.898 5.486,2.431 c -0.764,2.546 -2.817,7.153 -7.979,9.628 l -1.634,-6.161 z M 374.581,84.991 V 87.5 c 0,2.776 -2.259,5.035 -5.035,5.035 h -5.605 c -2.776,0 -5.035,-2.258 -5.035,-5.035 v -3.944 h 15.676 v 1.435 z m 3.702,-15.685 c 2.452,7.921 2.198,12.464 1.299,15.048 v -3.297 c 0,-1.381 -1.119,-2.5 -2.5,-2.5 h -2.404 c -0.392,-8.387 -2.771,-15.229 -6.698,-19.922 4.618,0.799 8.42,4.589 10.303,10.671 z m -25.58,-12.732 c 11.681,0 16.368,10.934 16.969,21.983 h -13.266 c -1.281,0 -2.326,0.968 -2.471,2.211 h -2.465 c -0.145,-1.243 -1.189,-2.211 -2.471,-2.211 h -13.266 c 0.602,-11.05 5.289,-21.983 16.97,-21.983 z m 2.648,36.088 v 0.846 c 0,1.46 -1.189,2.647 -2.648,2.647 -1.459,0 -2.646,-1.188 -2.646,-2.647 v -0.85 c 0.91,-1.509 1.443,-3.271 1.443,-5.158 v -1.733 h 2.406 V 87.5 c 0,1.889 0.534,3.651 1.445,5.162 z M 328.324,78.557 c -1.381,0 -2.5,1.119 -2.5,2.5 v 3.295 c -0.898,-2.583 -1.15,-7.126 1.301,-15.045 1.881,-6.083 5.684,-9.873 10.303,-10.672 -3.928,4.693 -6.307,11.536 -6.699,19.923 h -2.405 z m 2.5,6.434 V 83.556 H 346.5 V 87.5 c 0,2.776 -2.259,5.035 -5.035,5.035 h -5.605 c -2.776,0 -5.035,-2.258 -5.035,-5.035 v -2.509 z m 0.298,11.352 c 1.412,0.759 3.024,1.192 4.737,1.192 h 5.605 c 1.518,0 2.951,-0.348 4.242,-0.954 1.186,2.689 3.873,4.574 6.996,4.574 3.123,0 5.812,-1.884 6.998,-4.573 1.29,0.605 2.724,0.953 4.24,0.953 h 5.605 c 1.713,0 3.325,-0.433 4.737,-1.192 -1.599,11.015 -10.012,18.421 -21.581,18.421 -11.568,0 -19.981,-7.407 -21.579,-18.421 z m 7.046,28.967 4.999,9.517 -11.128,4.931 -0.545,-12.21 z m -40.804,-19.677 1.997,0.479 c 13.781,3.24 19.026,15.419 20.549,20.046 l -1.195,0.401 c -4.775,1.216 -8.549,3.039 -11.545,5.098 -0.599,-0.849 -1.293,-1.608 -2.084,-2.27 -1.06,-0.886 -2.634,-0.747 -3.522,0.312 -0.886,1.058 -0.747,2.635 0.311,3.521 0.541,0.453 1.001,1.001 1.395,1.621 -1.834,1.788 -3.207,3.612 -4.238,5.287 -1.289,-0.104 -2.206,-0.08 -2.602,-0.058 -0.83,-0.043 -3.911,0.202 -7.77,0.988 -3.676,-2.55 -6.066,-4.784 -6.745,-5.831 -1.026,-1.583 -2.123,-2.896 -3.232,-4.004 -0.05,-0.1 -3.14,-4.413 -4.691,-6.168 v -4.244 c 12.802,-0.667 21.673,-6.5 23.372,-15.178 z m 22.702,130.986 c -0.456,0.404 -0.748,0.96 -0.823,1.565 l -1.608,13.036 h -42.399 l -1.608,-13.036 c -0.075,-0.604 -0.367,-1.161 -0.823,-1.565 l -14.13,-12.523 c 1.05,-3.144 4.485,-10.762 13.577,-12.83 0.09,-0.02 10.273,-3.549 10.273,-3.549 0.522,5.017 2.91,12.292 13.91,12.292 10.988,0 13.383,-7.262 13.91,-12.292 0,0 10.186,3.53 10.275,3.55 9.096,2.069 12.529,9.692 13.575,12.83 z m 2.223,19.233 h -0.188 l 0.05,-0.399 z m -67.806,83.855 c 0.76,-35.84 17.538,-67.556 21.16,-73.997 h 41.587 c 3.623,6.436 20.399,38.115 21.157,73.997 z m 66.54,5 c -0.363,29.222 -7.012,69.043 -8.65,78.442 h -7.988 l 0.02,-78.442 z m -46.109,75.445 c 0.215,1.287 0.406,2.406 0.561,3.298 -0.515,0.108 -1.007,0.25 -1.484,0.41 v -3.708 z m -0.923,-5 v -0.654 c 0.036,0.226 0.069,0.434 0.104,0.654 z m -2.142,-70.445 h 16.618 l 0.021,78.442 h -7.99 c -1.639,-9.398 -8.287,-49.213 -8.649,-78.442 z m -21.873,-19.714 -4.514,-7.859 c 2.104,-0.54 3.932,-1.911 5.037,-3.814 h 2.075 c -1.816,8.695 -3.017,18.07 -3.102,27.783 l -1.63,-4.426 c -0.237,-3.125 -0.383,-5.365 -0.513,-7.564 l 1.395,-0.549 c 0.676,-0.266 1.203,-0.814 1.443,-1.499 0.241,-0.686 0.17,-1.442 -0.191,-2.072 z m -19.621,-26.185 c -2.218,-0.948 -4.927,-1.73 -8.243,-2.156 l -4.976,-0.958 v -10.861 c 0,-0.022 -0.006,-0.043 -0.007,-0.065 4.702,-6.035 7.6,-14.21 7.6,-23.207 0,-1.321 -0.044,-2.577 -0.108,-3.802 0.001,-0.021 0.007,-0.041 0.007,-0.062 0,-0.081 -0.017,-0.157 -0.023,-0.235 -0.605,-10.749 -3.577,-17.855 -7.468,-22.514 V 174.33 c 0.672,0.338 1.369,0.67 2.099,0.994 l 11.181,35.179 c -4.519,30.743 -2.023,68.214 -0.062,88.305 z m -32.942,-8.663 c -12.306,0 -22.316,-12.822 -22.316,-28.583 0,-0.461 0.009,-0.913 0.017,-1.364 h 7.869 c 0.86,0 1.66,-0.442 2.117,-1.171 l 4.083,-6.504 4.083,6.504 c 0.457,0.729 1.257,1.171 2.117,1.171 h 24.33 c 0.008,0.451 0.017,0.902 0.017,1.364 -10e-4,15.761 -10.012,28.583 -22.317,28.583 z m 14.723,-0.318 v 4.905 l -0.848,-0.163 v -4.096 c 0.287,-0.209 0.569,-0.425 0.848,-0.646 z m -5.847,3.488 v 3.181 c -0.433,1.076 -4.148,4.168 -8.86,4.168 -0.005,0 -0.012,0 -0.016,0 -0.005,0 -0.012,0 -0.016,0 -4.711,0 -8.428,-3.092 -8.86,-4.168 v -3.181 c 2.785,1.18 5.77,1.83 8.876,1.83 3.106,0 6.09,-0.65 8.876,-1.83 z m -22.752,-2.842 v 4.096 l -2.23,0.429 -0.366,-6.668 c 0.828,0.773 1.696,1.488 2.596,2.143 z M 170.205,257.76 c -0.064,1.225 -0.108,2.48 -0.108,3.802 0,5.463 1.073,10.622 2.964,15.186 l -1.101,20.025 c -12.3,1.835 -16.007,8.597 -16.639,9.984 l -10.472,18.235 c -0.361,0.63 -0.432,1.387 -0.191,2.072 0.24,0.685 0.768,1.233 1.443,1.499 l 3.38,1.331 -8.254,22.412 v -96.158 l 5.234,17.827 c 0.656,2.81 2.359,5.204 4.803,6.747 1.768,1.117 3.771,1.692 5.812,1.692 0.807,0 1.62,-0.09 2.427,-0.272 5.875,-1.326 9.576,-7.185 8.253,-13.05 l -8.232,-37.168 h 21.182 c -5.295,4.406 -9.729,12.141 -10.483,25.538 -0.007,0.079 -0.023,0.155 -0.023,0.235 -0.002,0.022 0.004,0.042 0.005,0.063 z m -16.071,73.967 7.363,2.901 -11.893,27.091 c -0.033,0.077 -0.064,0.155 -0.089,0.234 -0.192,0.596 -1.644,1.12 -3.396,0.553 -1.751,-0.568 -2.62,-1.845 -2.46,-2.347 z m -5.113,-66.78 11.816,-3.97 2.039,9.207 c 0.719,3.186 -1.289,6.363 -4.476,7.083 -1.545,0.349 -3.02,-0.131 -4.467,-0.771 -1.904,-0.841 -2.639,-3.806 -2.654,-3.857 z m 9.394,-38.022 -0.864,-3.901 h 11.132 v 3.901 z M 170.224,98.64 h 12.975 l 1.1,0.441 -4.176,8.138 h -6.882 l -4.14,-8.067 z m -6.032,-18.682 v -3.99 c 3.456,1.85 7.584,2.73 12.483,2.732 h 0.002 c 0.002,0 0.003,0 0.004,0 0.002,0 0.004,0 0.004,0 0.002,0 0.002,0 0.002,0 4.9,-0.001 9.027,-0.882 12.484,-2.732 v 3.99 l -7.018,13.682 h -10.944 z m 9.851,32.261 h 5.276 l 5.801,82.254 -8.439,10.627 -8.438,-10.627 z m -0.36,114.706 v -3.901 h 5.997 v 3.901 z m 23.73,4.319 c 13.327,0 21.269,16.322 22.017,23.955 h -22.664 l -5.466,-8.706 -0.007,0.004 c -0.193,-0.31 -0.451,-0.586 -0.781,-0.793 -1.169,-0.733 -2.712,-0.381 -3.446,0.788 l -5.466,8.706 h -6.203 c 1.293,-13.196 8.688,-23.954 22.016,-23.954 z m -12.733,-4.319 v -3.901 h 27.456 v 3.901 h -8.432 c -2.389,-0.526 -4.579,-0.682 -6.292,-0.682 -1.713,0 -3.903,0.155 -6.292,0.682 z m 58.813,-111.526 c 6.097,-0.096 15.377,1.889 24.052,10.159 -3.832,-0.213 -6.846,0.764 -8.949,2.92 -2.988,3.062 -2.899,7.26 -2.839,8.195 -0.001,0.195 0.023,0.38 0.032,0.57 l -8.815,1.771 c 3.803,-7.907 2.299,-17.276 -3.481,-23.615 z m 34.226,22.55 c 0.911,1.403 2.847,3.266 5.401,5.249 -2.314,1.169 -4.736,2.762 -7.108,4.939 -0.357,0.328 -0.693,0.684 -1.038,1.029 -1.517,-1.154 -3.28,-2.218 -5.12,-3.321 -4.497,-2.697 -9.148,-5.485 -9.097,-9.224 10e-4,-0.087 -0.002,-0.174 -0.011,-0.261 -0.002,-0.027 -0.172,-2.753 1.428,-4.393 1.073,-1.1 2.835,-1.579 5.202,-1.419 0.242,0.023 5.943,0.616 10.343,7.401 z m -20.389,4.084 c 2.168,3.433 6.23,5.869 9.953,8.101 1.605,0.962 3.145,1.89 4.4,2.814 -0.227,0.299 -0.456,0.593 -0.676,0.902 -2.935,0.206 -5.76,0.876 -8.399,1.585 -3.607,0.97 -25.264,3.24 -34.343,-1.337 -2.417,-1.218 -3.862,-2.439 -4.759,-3.402 1.382,0.28 2.792,0.43 4.215,0.43 h 0.002 c 5.722,0 11.064,-2.247 15.013,-6.161 z m 4.34,28.334 c -4.998,1.892 -9.641,3.072 -13.933,3.717 l -1.559,-12.324 c 0.284,0.002 0.568,0.006 0.852,0.006 7.074,0 13.744,-0.659 16.876,-1.502 1.229,-0.331 2.497,-0.648 3.782,-0.906 -1.585,3.124 -2.904,6.599 -3.966,10.407 -0.777,0.181 -1.465,0.379 -2.052,0.602 z m 0.723,5.047 c -0.011,0.058 -0.022,0.116 -0.034,0.174 -0.076,-0.026 -0.15,-0.055 -0.227,-0.082 0.088,-0.031 0.174,-0.06 0.261,-0.092 z m -1.014,23.305 c -14.584,-0.199 -21.801,-1.18 -22.099,-5.831 1.549,-5.197 3.235,-9.706 5.023,-13.436 0.408,-0.031 7.27,-0.924 10.199,-1.635 2.287,1.041 4.636,1.97 7.022,2.77 -0.68,4.988 -1.025,10.401 -1.025,16.244 0,0.757 0.346,1.43 0.88,1.888 z m -35.469,-40.21 c 3.404,1.818 9.137,2.747 15.209,3.093 l 1.645,13.003 c -0.149,-0.005 -0.298,0.001 -0.444,0.021 -7.985,0.407 -14.54,-1.067 -19.642,-3.112 -0.27,-0.177 -0.568,-0.3 -0.887,-0.364 -2.072,-0.885 -3.884,-1.852 -5.441,-2.81 -0.234,-0.222 -0.511,-0.396 -0.817,-0.515 -2.951,-1.914 -4.862,-3.705 -5.702,-4.565 -1.085,-8.154 0.692,-15.08 2.158,-19.094 1.266,1.381 2.706,2.617 4.331,3.646 0.305,0.193 0.618,0.368 0.931,0.544 -0.002,0.53 0.059,1.12 0.235,1.769 0.817,3.015 3.652,5.835 8.424,8.384 z m -0.732,19.007 c 3.947,1.174 8.477,1.977 13.557,2.092 -1.555,3.571 -3.02,7.678 -4.374,12.27 -0.764,2.591 -1.436,5.305 -2.045,8.098 z m 10.243,33.22 c 0.018,-0.094 0.034,-0.187 0.041,-0.283 0.57,-3.754 1.253,-7.393 2.057,-10.876 2.621,2.11 6.115,2.77 7.707,3.064 6.092,1.127 14.994,1.127 26.265,1.127 2.535,0 4.928,0 7.193,-0.013 l -7.68,2.665 c -14.351,3.349 -17.482,17.387 -17.608,17.984 -0.187,0.88 0.114,1.793 0.787,2.39 l 0.688,0.609 -18.265,75.456 c -0.275,-0.267 -0.574,-0.536 -0.897,-0.809 -1.967,-18.73 -5.134,-59.073 -0.288,-91.314 z m 72.716,-15.75 c -0.165,0.15 -4.858,5.76 -11.702,5.76 -6.844,0 -11.537,-5.609 -11.702,-5.76 -4.182,-5.202 -6.138,-13.248 -6.138,-21.252 0,-0.519 0.011,-1.026 0.022,-1.532 h 12.818 c 0.943,0 1.806,-0.531 2.231,-1.373 l 2.769,-5.479 2.768,5.479 c 0.426,0.842 1.288,1.373 2.232,1.373 h 12.818 c 0.011,0.506 0.022,1.014 0.022,1.532 0,8.004 -1.956,16.05 -6.138,21.252 z m 5.547,4.343 c -0.091,1.397 -0.176,2.783 -0.252,4.165 l -4.513,-1.566 v -0.626 c 0.73,-0.601 1.426,-1.262 2.088,-1.974 h 2.677 z m -8.228,6.677 c -0.216,4.771 -1.574,9.001 -9.021,9.001 -7.439,0 -8.803,-4.219 -9.02,-9.002 0.746,-0.314 1.283,-0.961 1.463,-1.732 2.319,0.96 4.848,1.474 7.557,1.474 2.709,0 5.237,-0.513 7.557,-1.474 0.179,0.772 0.718,1.42 1.464,1.733 z m -46.351,25.153 9.676,8.575 0.56,4.533 c -0.035,0.075 -0.077,0.145 -0.105,0.225 l -22.629,65.156 c -0.031,0.09 -0.058,0.182 -0.078,0.274 -0.38,1.697 -2.076,2.768 -3.767,2.389 -0.024,-0.005 -0.049,-0.004 -0.073,-0.009 l -2.269,-3.95 z m -6.744,77.161 18.36,-52.866 0.891,7.218 c -2.274,3.92 -12.138,21.774 -17.908,45.647 h -1.343 z m 23.492,-52.1 h 41.165 l -0.554,4.49 h -40.057 z m 43.3,-86.67 -0.011,10e-4 c -0.079,-1.309 -1.155,-2.349 -2.484,-2.349 h -13.685 l -4.307,-8.521 -0.007,0.003 c -0.233,-0.46 -0.602,-0.857 -1.097,-1.107 -1.236,-0.624 -2.736,-0.129 -3.359,1.104 l -4.307,8.521 h -13.685 c -1.329,0 -2.405,1.04 -2.484,2.349 l -0.011,-10e-4 c -0.081,1.335 -0.122,2.743 -0.122,4.184 0,8.187 1.683,15.22 4.672,20.595 H 265.52 c 0.096,-5.456 0.521,-10.469 1.252,-15.064 0.012,-0.071 0.029,-0.142 0.035,-0.213 0.361,-2.24 1.37,-6.611 1.389,-6.717 1.478,-5.742 6.271,-14.701 6.283,-14.718 1.438,-2.146 3.037,-4.058 4.815,-5.707 8.008,-7.422 17.077,-6.848 17.148,-6.848 0.068,0 8.961,-0.654 17.033,6.758 8.857,8.131 13.519,22.424 13.872,42.508 h -12.746 c 2.989,-5.375 4.672,-12.408 4.672,-20.595 0.002,-1.44 -0.039,-2.848 -0.12,-4.183 z M 271.491,84.938 c -9.761,0 -17.702,-11.34 -17.702,-25.278 v -4.912 c 4.102,-1.093 13.268,-4.213 17.702,-11.093 4.435,6.88 13.602,10 17.703,11.093 v 4.912 c 0,13.939 -7.942,25.278 -17.703,25.278 z M 241.07,78.439 c -7.714,-11.369 0.023,-31.186 0.102,-31.385 0.117,-0.294 0.178,-0.609 0.178,-0.925 0,-7.677 2.309,-13.792 6.862,-18.176 8.738,-8.413 23.036,-7.971 23.182,-7.967 0.036,0.002 0.069,-0.006 0.105,-0.005 0.032,0 0.062,0.007 0.094,0.005 0.134,-0.007 14.378,-0.482 23.156,7.946 4.567,4.386 6.884,10.509 6.884,18.197 0,0.316 0.061,0.631 0.178,0.925 0.079,0.199 7.815,20.016 0.102,31.385 -3.35,4.936 -9.31,7.645 -17.723,8.085 v -1.777 c 6.032,-5.448 10.005,-14.661 10.005,-25.087 v -6.889 h -0.003 c 10e-4,-1.178 -0.831,-2.228 -2.03,-2.456 -0.182,-0.035 -18.17,-3.589 -18.17,-15.185 0,-1.381 -1.119,-2.5 -2.5,-2.5 -1.381,0 -2.5,1.119 -2.5,2.5 0,11.527 -17.904,15.134 -18.17,15.186 -1.199,0.228 -2.03,1.278 -2.029,2.456 h -0.003 v 6.889 c 0,10.426 3.973,19.638 10.004,25.086 v 1.778 c -8.415,-0.441 -14.375,-3.15 -17.724,-8.086 z m 20.805,23.293 c 1.124,-0.27 1.917,-1.275 1.917,-2.431 V 88.143 c 2.405,1.16 4.997,1.795 7.698,1.795 2.701,0 5.293,-0.635 7.698,-1.795 V 99.3 c 0,1.156 0.793,2.161 1.917,2.431 l 11.382,2.731 c -1.269,6.898 -9.374,11.413 -20.997,11.413 -11.623,0 -19.727,-4.514 -20.997,-11.413 z m -18.244,4.378 1.986,-0.477 c 0.355,1.809 1.02,3.493 1.97,5.033 -4.002,-0.446 -7.371,-0.15 -9.629,0.369 -0.904,-0.494 -1.838,-0.922 -2.797,-1.278 2.565,-1.696 5.394,-2.924 8.47,-3.647 z m -13.102,-4.266 c 0.855,1.204 1.556,2.407 2.127,3.57 -1.384,0.896 -2.697,1.918 -3.947,3.044 -0.158,-0.007 -0.318,-0.013 -0.478,-0.017 z m 5.956,14.119 c 7.617,4.822 9.89,14.942 5.067,22.559 -3.016,4.762 -8.185,7.605 -13.829,7.604 h -0.001 c -3.088,0 -6.107,-0.878 -8.729,-2.539 -3.689,-2.336 -6.248,-5.969 -7.205,-10.23 -0.956,-4.261 -0.197,-8.639 2.14,-12.328 3.015,-4.762 8.186,-7.605 13.831,-7.605 3.087,10e-4 6.105,0.878 8.726,2.539 z m -33.254,-4.267 c 0.892,-1.409 2.764,-1.831 4.174,-0.937 1.165,0.737 2.711,0.392 3.45,-0.775 0.738,-1.166 0.392,-2.711 -0.774,-3.45 -1.927,-1.22 -4.179,-1.509 -6.233,-0.997 0.619,-0.502 0.975,-1.262 0.933,-2.064 L 203.87,86.202 c 0,0 9.02,4.321 9.177,4.361 6.075,1.576 10.471,4.139 13.673,7.018 l -3.985,11.441 c -5.337,1.278 -10.011,4.565 -13.029,9.332 -0.155,0.245 -0.281,0.502 -0.426,0.751 l -5.109,-3.235 c -1.412,-0.892 -1.833,-2.765 -0.94,-4.174 z m -0.947,-5.59 h 0.001 c -1.301,0.629 -2.45,1.607 -3.278,2.915 -2.366,3.739 -1.25,8.707 2.487,11.074 l 5.771,3.655 c -1.02,3.443 -1.163,7.104 -0.354,10.704 0.377,1.679 0.966,3.271 1.707,4.777 -1.604,3.371 -5.519,13.185 -3.622,25.54 0.071,0.466 0.273,0.902 0.582,1.258 0.066,0.076 2.296,2.572 6.559,5.404 v 46.591 h -32.959 v -8.026 l 10.464,-13.177 c 0.389,-0.49 0.58,-1.107 0.536,-1.73 l -5.984,-84.851 4.767,-9.288 12.394,4.974 c 0.298,0.121 0.614,0.18 0.929,0.18 z m -3.552,-22.374 0.849,16.095 -12.424,-4.986 6.739,-13.138 c 0.041,-0.08 0.061,-0.168 0.094,-0.252 z m -0.967,-37.624 c 0,2.248 -2.061,4.076 -4.594,4.076 h -5.277 c -2.532,0 -4.593,-1.828 -4.593,-4.076 v -3.124 h 14.464 z m -39.15,-8.124 c -0.513,-7.008 0.224,-13.989 1.062,-15.197 0.107,-0.107 0.186,-0.172 0.237,-0.209 0.349,0.09 1.114,0.504 1.741,0.843 2.599,1.405 6.947,3.755 15.02,3.757 0,0 10e-4,0 0.002,0 0.002,0 0.003,0 0.004,0 0.002,0 0.004,0 0.004,0 0.002,0 0.002,0 0.002,0 8.075,-0.002 12.424,-2.353 15.022,-3.757 0.628,-0.339 1.396,-0.755 1.743,-0.844 0.043,0.029 0.103,0.074 0.171,0.139 0.896,1.274 1.638,8.26 1.126,15.268 z m -5.517,0 c -1.381,0 -2.5,1.119 -2.5,2.5 v 4.713 C 148.925,41.656 147.603,34.698 149.769,21.17 151.1,12.855 152.357,5.001 176.681,5 c 24.325,0.001 25.583,7.855 26.914,16.17 2.166,13.53 0.843,20.488 -0.83,24.028 v -4.714 c 0,-1.381 -1.119,-2.5 -2.5,-2.5 h -0.513 c 0.386,-6.176 0.192,-16.01 -2.53,-18.732 -2.92,-2.92 -5.674,-1.426 -7.891,-0.229 -2.463,1.331 -5.837,3.155 -12.65,3.156 -6.812,-10e-4 -10.186,-1.825 -12.65,-3.156 -2.216,-1.198 -4.973,-2.687 -7.891,0.229 -2.722,2.722 -2.915,12.556 -2.53,18.732 z m 2.5,5 h 14.464 v 3.124 c 0,2.248 -2.061,4.076 -4.593,4.076 h -5.277 c -2.533,0 -4.594,-1.828 -4.594,-4.076 z m 0.701,11.412 c 1.191,0.503 2.507,0.788 3.893,0.788 h 5.277 c 5.289,0 9.593,-4.071 9.593,-9.076 v -3.124 h 3.239 v 3.124 c 0,5.004 4.304,9.076 9.593,9.076 h 5.277 c 1.387,0 2.701,-0.285 3.893,-0.788 -3.65,15.902 -10.826,19.304 -20.383,19.305 -9.557,-0.002 -16.732,-3.403 -20.382,-19.305 z m -1.716,29.36 4.791,-2.305 c 0.031,0.084 0.052,0.172 0.093,0.252 l 6.795,13.248 -12.535,5.71 z m -14.264,6.808 c 0.157,-0.041 9.132,-4.34 9.132,-4.34 l -0.926,18.29 c -0.044,0.872 0.37,1.704 1.092,2.194 0.421,0.287 0.912,0.433 1.405,0.433 0.353,0 0.706,-0.074 1.036,-0.225 l 12.488,-5.688 4.624,9.012 -5.983,84.851 c -0.044,0.624 0.147,1.241 0.536,1.73 l 10.454,13.166 v 8.038 h -17.733 l -12.972,-58.563 c -0.036,-0.158 -0.639,-2.736 -2.245,-6.227 v -13.367 c 0,-0.055 -0.122,-0.773 -0.139,-0.822 L 126.642,97.573 c 3.176,-2.842 7.572,-5.425 13.677,-7.009 z m -21.814,21.746 c 0.035,-0.368 0.584,-5.271 4.321,-10.49 l 13.316,38.23 -0.791,3.999 c -4.48,-5.154 -10.171,-8.643 -16.667,-10.17 l -4.199,-1.007 c 0.001,-0.001 4.013,-20.482 4.02,-20.562 z M 108.388,94.519 c 0,2.118 -1.723,3.841 -3.841,3.841 H 99.83 c -2.118,0 -3.842,-1.723 -3.842,-3.841 v -2.923 h 12.399 v 2.923 z M 93.489,86.596 c -1.356,0 -2.454,1.081 -2.493,2.428 H 88.324 C 88.285,87.677 87.187,86.596 85.832,86.596 H 73.017 c 3.099,-1.569 7.359,-4.303 9.902,-8.393 2.227,3.094 6.219,6.42 13.305,8.393 z M 89.662,44.034 c 6.03,0 10.936,4.906 10.936,10.937 0,1.152 -0.202,2.284 -0.553,3.367 -3.12,-1.386 -6.637,-2.158 -10.383,-2.158 -3.746,0 -7.264,0.772 -10.385,2.159 -0.351,-1.084 -0.553,-2.216 -0.553,-3.368 0,-6.031 4.906,-10.937 10.938,-10.937 z M 70.943,78.327 c 0,-9.615 8.223,-17.147 18.719,-17.147 10.496,0 18.719,7.532 18.719,17.147 0,0.026 0.008,4.985 0.008,4.985 -22.311,-0.79 -23.28,-12.135 -23.311,-12.604 -0.047,-1.362 -1.198,-2.459 -2.542,-2.411 -1.363,0.024 -2.456,1.136 -2.456,2.5 0,5.599 -5.463,9.351 -9.147,11.245 0,-0.001 0.01,-3.682 0.01,-3.715 z m -0.01,13.269 h 12.398 v 2.923 c 0,2.118 -1.723,3.841 -3.84,3.841 h -4.718 c -2.118,0 -3.841,-1.723 -3.841,-3.841 v -2.923 z m 1.023,11.296 c 0.886,0.299 1.831,0.468 2.817,0.468 h 4.718 c 4.874,0 8.84,-3.966 8.84,-8.841 v -0.495 h 2.657 v 0.495 c 0,4.875 3.967,8.841 8.842,8.841 h 4.717 c 0.986,0 1.932,-0.17 2.817,-0.468 -2.533,9.413 -9.51,16.196 -17.703,16.196 -8.194,0 -15.17,-6.783 -17.705,-16.196 z m 8.088,31.471 c 1.124,-0.27 1.917,-1.275 1.917,-2.431 v -9.42 c 2.417,1.017 5.005,1.577 7.7,1.577 2.693,0 5.281,-0.56 7.696,-1.575 v 9.419 c 0,1.156 0.793,2.161 1.917,2.431 l 4.915,1.179 -5.865,16.948 H 80.996 L 75.131,135.543 Z M 96.594,157.49 89.66,177.525 82.726,157.49 Z M 28.036,272.655 c -0.013,0.045 -0.755,3.145 -2.65,3.841 -1.485,0.545 -2.927,1.119 -4.467,0.771 -1.544,-0.349 -2.859,-1.277 -3.704,-2.615 -0.845,-1.338 -1.118,-2.924 -0.768,-4.478 l 0.476,-2.149 c 1.666,1.338 2.738,3.388 2.738,5.687 0,1.381 1.119,2.5 2.5,2.5 1.381,0 2.5,-1.119 2.5,-2.5 0,-4.72 -2.677,-8.82 -6.589,-10.879 l 0.411,-1.856 11.764,3.954 z m 25.38,-88.636 -21.791,76.1 -12.054,-4.051 21.153,-95.498 c 0.071,-0.308 0.859,-3.561 3.009,-7.506 l 10.982,11.406 c -3.355,8.218 -2.819,14.432 -1.299,19.549 z m 7.528,21.961 c 4.003,-6.843 1.673,-12.358 -0.581,-17.691 -2.61,-6.179 -5.311,-12.568 -0.417,-23.319 0.425,-0.933 0.236,-2.031 -0.475,-2.77 L 46.527,148.757 c 3.229,-4.21 8.09,-8.327 15.273,-10.016 l 8.444,-2.026 16.916,48.874 v 59.79 H 49.107 c 0.131,-5.818 1.513,-21.753 11.837,-39.399 z M 87.162,434.801 H 64.401 c 2.231,-8.065 8.908,-8.71 9.844,-8.761 h 12.917 z m 0,-13.761 H 76.256 c -5.159,-28.515 -8.023,-56.004 -9.559,-75.013 h 20.464 v 75.013 z m 27.758,13.761 H 92.162 v -8.761 h 12.912 c 0.924,0.049 7.613,0.687 9.846,8.761 z M 103.065,421.04 H 92.162 v -75.013 h 20.462 c -1.536,19.009 -4.4,46.498 -9.559,75.013 z m 19.392,-80.013 H 56.864 c -9.597,-57.732 -8.603,-83.596 -7.997,-90.649 h 81.594 c 0.614,7.013 1.627,32.713 -8.004,90.649 z m 7.749,-95.649 H 92.161 v -59.79 l 16.914,-48.874 8.455,2.029 c 6.14,1.443 11.244,4.835 15.226,10.054 L 119.848,162.2 c -0.711,0.739 -0.899,1.837 -0.475,2.77 4.894,10.751 2.193,17.141 -0.417,23.319 -2.254,5.333 -4.584,10.849 -0.581,17.691 10.289,17.584 11.691,33.568 11.831,39.398 z m -5.643,-45.983 -1.131,5.363 c -0.245,-0.434 -0.485,-0.867 -0.74,-1.303 -2.278,-3.894 -1.61,-7.029 -0.116,-10.828 z m 1.007,-14.318 c 1.759,-5.314 2.625,-11.813 -0.967,-20.607 l 10.957,-11.377 c 2.23,4.084 3.027,7.435 3.033,7.461 l 21.156,95.514 -12.138,4.079 -6.431,-21.899 c -0.033,-0.185 -0.084,-0.363 -0.155,-0.531 z m 39.621,249.724 h -32.422 c 0.227,-2.55 1.001,-6.617 3.565,-9.333 1.903,-2.017 4.474,-2.997 7.856,-2.997 h 21 v 12.33 z m 0.134,-17.33 h -24.098 v -52.073 c 0.918,0.793 2.05,1.442 3.352,1.865 1.031,0.334 2.06,0.493 3.044,0.493 3.064,0 5.694,-1.542 6.604,-4.125 l 11.928,-27.169 0.268,0.105 c 1.184,0.467 2.526,-0.03 3.124,-1.153 l 0.323,-0.609 z m 24.68,17.33 h -19.4 c 0.285,-1.324 0.868,-2.935 2.053,-4.148 1.28,-1.312 3.053,-1.949 5.419,-1.949 h 11.929 v 6.097 z m -19.814,-8.628 v -6.136 l 1.016,-18.48 c 0.388,0.247 0.846,0.395 1.339,0.395 h 1.122 l 1.723,21.973 c -1.995,0.345 -3.731,1.101 -5.2,2.248 z m 19.814,-2.47 h -9.617 l -1.705,-21.751 h 11.322 z m 9.815,11.098 h -4.814 v -12.33 h 4.814 z m 0,-17.33 h -4.814 v -15.519 h 0.213 c 0.943,0 1.77,-0.527 2.194,-1.312 0.425,0.785 1.251,1.312 2.194,1.312 h 0.213 z m 22.347,13.181 c 1.186,1.214 1.768,2.826 2.053,4.148 h -19.4 v -6.098 h 11.929 c 2.366,10e-4 4.138,0.639 5.418,1.95 z m -17.347,-6.949 v -21.751 h 11.322 l -1.705,21.751 z m 14.96,-26.751 H 201.871 L 199.9,377.13 h -0.001 c -0.114,-1.162 -1.032,-2.121 -2.239,-2.241 -1.363,-0.137 -2.598,0.866 -2.734,2.241 l -1.971,19.822 h -17.909 v -29.204 h 44.734 z m 8.868,-65.855 -4.16,-7.829 c -0.539,-1.013 -1.698,-1.531 -2.812,-1.253 -1.114,0.277 -1.895,1.278 -1.895,2.426 v 38.306 h -44.734 v -38.306 c 0,-1.148 -0.781,-2.148 -1.896,-2.426 -1.114,-0.279 -2.274,0.24 -2.812,1.253 l -4.16,7.829 -15.551,-6.125 c 0,0 9.21,-16.063 9.25,-16.157 0.1,-0.237 2.802,-5.626 13.545,-7.213 0.053,-0.008 11.127,-2.137 11.127,-2.137 2.131,3.187 7.365,6.199 12.85,6.199 h 0.012 0.006 0.012 c 5.482,0 10.714,-3.01 12.847,-6.2 l 3.853,0.742 c 0.004,10e-4 0.009,0.002 0.014,0.003 l 7.105,1.368 c 0.053,0.01 0.106,0.019 0.159,0.025 10.975,1.386 14.215,8.428 14.215,8.428 0.017,0.031 0.034,0.061 0.053,0.092 l 8.527,14.851 z m 20.058,31.409 c -1.754,0.568 -3.203,0.043 -3.396,-0.552 -0.025,-0.08 -0.056,-0.158 -0.089,-0.234 l -11.893,-27.091 7.364,-2.901 10.44,28.338 c 0.193,0.596 -0.676,1.872 -2.426,2.44 z m 20.285,64.367 c -2.544,2.349 -4.176,5.396 -5.048,7.928 h -13.682 c 5.083,-5.308 7.073,-11.433 7.814,-14.648 h 10.915 v 6.72 z m 0,-11.721 h -10.905 c -2.943,-16.179 -5.38,-32.336 -7.266,-48.102 3.941,-1.538 6.15,-5.185 5.036,-8.62 l -5.191,-14.094 c 0.378,0.23 0.817,0.37 1.292,0.37 h 14.893 c 0.123,10.125 0.988,21.486 2.142,32.439 v 38.007 z m 0.349,19.641 c 1.316,-2.839 4.019,-6.632 9.067,-6.644 h 10.081 l 0.002,6.603 z m 24.127,-90.086 h 1.014 c -0.307,3.519 -0.642,7.067 -1.011,10.653 z m 0.024,90.094 V 433.6 c 0.38,0.407 0.757,0.816 1.151,1.201 z m 5.89,-2.448 c -2.2,-1.917 -4.171,-4.21 -5.892,-6.858 l -0.009,-31.238 c 2.562,-16.591 4.549,-32.87 5.925,-48.465 z m 5,2.399 0.002,-6.603 h 10.079 c 5.051,0.011 7.753,3.807 9.067,6.644 z m 37.956,0.049 h -13.41 c -1.173,-3.405 -3.715,-7.748 -8.009,-10.05 0.798,-0.163 1.652,-0.254 2.585,-0.254 h 18.834 z m 3.082,-15.304 h -24.375 v -19.438 c 2.307,-16.417 4.764,-37.752 4.978,-55.352 h 14.891 c 1.381,0 2.5,-1.119 2.5,-2.5 0,-39.628 -18.893,-73.915 -22.153,-79.535 l 0.225,-1.821 h 2.541 l 17.474,50.313 c 0.5,2.06 1.757,3.814 3.552,4.954 1.15,0.73 2.438,1.132 3.758,1.23 z m 6.663,-108.573 c -0.451,0.711 -1.151,1.203 -1.975,1.387 -0.818,0.183 -1.666,0.037 -2.377,-0.415 -0.712,-0.451 -1.435,-2.159 -1.466,-2.249 0,0 -22.699,-65.308 -22.734,-65.384 l 0.559,-4.53 9.677,-8.577 18.732,77.39 c 0.183,0.823 0.036,1.667 -0.416,2.378 z m 7.906,108.573 -3.523,-106.175 c 1.033,-1.779 1.363,-3.849 0.902,-5.908 l -1.275,-5.27 -0.9,-22.331 c -0.002,-0.048 0.048,-2.273 -2.361,-2.273 -2.402,0 -2.361,1.23 -2.385,1.277 l -4.348,-17.965 h 38.266 v 158.645 z m 32.03,15.304 H 363.07 v -10.304 h 18.834 c 3.058,0 5.365,0.867 7.056,2.649 2.12,2.238 2.829,5.474 3.058,7.655 z m 12.021,-188.245 -14.726,-72.418 c -0.269,-1.323 -1.542,-2.194 -2.87,-1.966 -1.33,0.227 -2.241,1.468 -2.057,2.805 0.068,0.496 6.457,47.786 0.854,80.875 h -40.353 l -6.886,-28.448 0.685,-0.607 c 0.673,-0.597 0.974,-1.509 0.787,-2.389 -0.126,-0.598 -3.256,-14.636 -17.606,-17.985 l -3.521,-1.222 c 0.101,-1.939 0.217,-3.896 0.347,-5.871 h 11.177 c 1.381,0 2.5,-1.119 2.5,-2.5 0,-22.858 -5.219,-39.24 -15.513,-48.691 -4.304,-3.952 -8.775,-5.987 -12.454,-7.028 2.713,-3.623 7.444,-7.662 15.627,-9.727 0.061,-0.015 6.533,-2.183 6.533,-2.183 l 0.643,14.437 c 0.036,0.825 0.479,1.579 1.181,2.014 0.401,0.249 0.857,0.375 1.316,0.375 0.344,0 0.689,-0.071 1.013,-0.214 l 1.593,-0.706 c 1.598,4.872 5.64,10.956 13.579,13.285 0.032,0.01 0.06,0.026 0.093,0.035 0.018,0.005 0.036,0.003 0.054,0.007 0.923,0.264 3.794,0.995 6.667,0.995 2.873,0 5.746,-0.731 6.669,-0.995 0.018,-0.004 0.036,-0.002 0.054,-0.007 0.033,-0.009 0.06,-0.025 0.093,-0.035 7.939,-2.329 11.981,-8.412 13.579,-13.285 l 1.593,0.706 c 0.323,0.144 0.669,0.214 1.013,0.214 0.458,0 0.915,-0.126 1.316,-0.375 0.702,-0.435 1.145,-1.189 1.181,-2.014 l 0.644,-14.437 c 0,0 6.472,2.167 6.533,2.183 17.96,4.531 19.556,18.364 19.614,18.938 0.008,0.09 19.386,96.234 19.386,96.234 z m 11.353,24.672 c -2.049,-0.823 -2.751,-4.247 -2.767,-4.317 l -1.345,-6.06 h 12.517 l 0.147,1.08 c -4.306,1.277 -7.636,4.848 -8.552,9.297 z m 7.943,-1.438 c -0.748,0.971 -1.769,1.664 -2.937,2.027 0.571,-2.119 2.072,-3.856 4.04,-4.747 -0.121,0.975 -0.482,1.913 -1.103,2.72 z m 0.539,-13.938 h -14.367 l -2.85,-4.296 h 17.868 z"
   id="path270"
   inkscape:connector-curvature="0" />
	<path
   style="fill:#1c1b1a"
   d="m 176.78,68.684 c 5.286,0 8.977,-2.147 8.977,-5.223 0,-1.381 -1.119,-2.5 -2.5,-2.5 -1.175,0 -2.161,0.811 -2.429,1.903 -0.486,0.3 -1.873,0.82 -4.049,0.82 -2.177,0 -3.562,-0.52 -4.049,-0.819 -0.268,-1.093 -1.254,-1.903 -2.429,-1.903 -1.381,0 -2.5,1.119 -2.5,2.5 0.001,3.075 3.693,5.222 8.979,5.222 z"
   id="path272"
   inkscape:connector-curvature="0" />
	<path
   style="fill:#1c1b1a"
   d="m 162.927,49.226 c 0.66,0 1.3,-0.26 1.771,-0.73 0.46,-0.47 0.729,-1.11 0.729,-1.77 0,-0.65 -0.27,-1.3 -0.729,-1.76 -0.931,-0.93 -2.61,-0.94 -3.54,0 -0.46,0.46 -0.73,1.1 -0.73,1.76 0,0.66 0.271,1.31 0.73,1.77 0.469,0.47 1.109,0.73 1.769,0.73 z"
   id="path274"
   inkscape:connector-curvature="0" />
	<path
   style="fill:#1c1b1a"
   d="m 190.627,49.226 c 0.66,0 1.3,-0.26 1.77,-0.73 0.471,-0.46 0.73,-1.11 0.73,-1.77 0,-0.65 -0.26,-1.3 -0.73,-1.77 -0.93,-0.92 -2.6,-0.93 -3.529,0 -0.471,0.47 -0.74,1.11 -0.74,1.77 0,0.66 0.27,1.31 0.74,1.77 0.46,0.47 1.109,0.73 1.759,0.73 z"
   id="path276"
   inkscape:connector-curvature="0" />
</g>
<g
   id="g280">
</g>
<g
   id="g282">
</g>
<g
   id="g284">
</g>
<g
   id="g286">
</g>
<g
   id="g288">
</g>
<g
   id="g290">
</g>
<g
   id="g292">
</g>
<g
   id="g294">
</g>
<g
   id="g296">
</g>
<g
   id="g298">
</g>
<g
   id="g300">
</g>
<g
   id="g302">
</g>
<g
   id="g304">
</g>
<g
   id="g306">
</g>
<g
   id="g308">
</g>
<text
   xml:space="preserve"
   style="font-style:normal;font-weight:normal;font-size:65.9811554px;line-height:1.25;font-family:sans-serif;letter-spacing:0px;word-spacing:0px;fill:#000000;fill-opacity:1;stroke:none;stroke-width:1.64952886"
   x="99.395432"
   y="414.03961"
   id="text163"
   transform="scale(1.0053226,0.99470558)"><tspan
     sodipodi:role="line"
     id="tspan161"
     x="99.395432"
     y="414.03961"
     style="stroke-width:1.64952886">NEEDS</tspan></text>


</svg>