<?xml version="1.0" encoding="UTF-8" standalone="no"?>
<!-- Created with Inkscape (http://www.inkscape.org/) -->

<svg
   xmlns:dc="http://purl.org/dc/elements/1.1/"
   xmlns:cc="http://creativecommons.org/ns#"
   xmlns:rdf="http://www.w3.org/1999/02/22-rdf-syntax-ns#"
   xmlns:svg="http://www.w3.org/2000/svg"
   xmlns="http://www.w3.org/2000/svg"
   xmlns:sodipodi="http://sodipodi.sourceforge.net/DTD/sodipodi-0.dtd"
   xmlns:inkscape="http://www.inkscape.org/namespaces/inkscape"
   version="1.1"
   id="svg10"
   xml:space="preserve"
   width="1066.6667"
   height="1066.6667"
   viewBox="0 0 1066.6667 1066.6667"
   sodipodi:docname="Happy.svg"
   inkscape:version="0.92.4 (5da689c313, 2019-01-14)"><metadata
     id="metadata16"><rdf:RDF><cc:Work
         rdf:about=""><dc:format>image/svg+xml</dc:format><dc:type
           rdf:resource="http://purl.org/dc/dcmitype/StillImage" /><dc:title /></cc:Work></rdf:RDF></metadata><defs
     id="defs14"><inkscape:perspective
       sodipodi:type="inkscape:persp3d"
       inkscape:vp_x="102.92591 : 473.35091 : 1"
       inkscape:vp_y="0 : 1000 : 0"
       inkscape:vp_z="1169.5926 : 473.35091 : 1"
       inkscape:persp3d-origin="636.25929 : 295.57313 : 1"
       id="perspective1638" /><inkscape:perspective
       sodipodi:type="inkscape:persp3d"
       inkscape:vp_x="-140.70726 : 595.88112 : 1"
       inkscape:vp_y="0 : 1147.982 : 0"
       inkscape:vp_z="1139.1089 : 595.88112 : 1"
       inkscape:persp3d-origin="499.20085 : 391.79541 : 1"
       id="perspective1348" /><radialGradient
       fx="0"
       fy="0"
       cx="0"
       cy="0"
       r="1"
       gradientUnits="userSpaceOnUse"
       gradientTransform="matrix(400,0,0,-400,400,400)"
       spreadMethod="pad"
       id="radialGradient36"><stop
         style="stop-opacity:1;stop-color:#ffffff"
         offset="0"
         id="stop32" /><stop
         style="stop-opacity:1;stop-color:#fffeed"
         offset="1"
         id="stop34" /></radialGradient><clipPath
       clipPathUnits="userSpaceOnUse"
       id="clipPath46"><path
         d="M 0,800 H 800 V 0 H 0 Z"
         id="path44"
         inkscape:connector-curvature="0" /></clipPath><clipPath
       clipPathUnits="userSpaceOnUse"
       id="clipPath102"><path
         d="m 595.786,502.012 h 20.031 v -20.031 h -20.031 z"
         id="path100"
         inkscape:connector-curvature="0" /></clipPath><clipPath
       clipPathUnits="userSpaceOnUse"
       id="clipPath118"><path
         d="m 692.171,502.012 h 20.031 v -20.031 h -20.031 z"
         id="path116"
         inkscape:connector-curvature="0" /></clipPath><clipPath
       clipPathUnits="userSpaceOnUse"
       id="clipPath150"><path
         d="m 178.459,662.287 -70.586,-0.203 c -1.491,-0.004 -2.52,-1.515 -1.955,-2.895 v 0 c 2.939,-7.173 12.754,-25.233 37.1,-25.233 v 0 c 24.334,0 34.371,18.185 37.402,25.421 v 0 c 0.58,1.386 -0.454,2.91 -1.954,2.91 v 0 c -0.002,0 -0.005,0 -0.007,0"
         id="path148"
         inkscape:connector-curvature="0" /></clipPath><clipPath
       clipPathUnits="userSpaceOnUse"
       id="clipPath162"><path
         d="M 0,800 H 800 V 0 H 0 Z"
         id="path160"
         inkscape:connector-curvature="0" /></clipPath><clipPath
       clipPathUnits="userSpaceOnUse"
       id="clipPath194"><path
         d="m 178.459,309.805 -70.586,-0.204 c -1.491,-0.004 -2.52,-1.515 -1.955,-2.895 v 0 c 2.939,-7.173 12.754,-25.233 37.1,-25.233 v 0 c 24.334,0 34.371,18.185 37.402,25.422 v 0 c 0.58,1.384 -0.454,2.91 -1.954,2.91 v 0 c -0.002,0 -0.005,0 -0.007,0"
         id="path192"
         inkscape:connector-curvature="0" /></clipPath><clipPath
       clipPathUnits="userSpaceOnUse"
       id="clipPath206"><path
         d="M 0,800 H 800 V 0 H 0 Z"
         id="path204"
         inkscape:connector-curvature="0" /></clipPath><clipPath
       clipPathUnits="userSpaceOnUse"
       id="clipPath278"><path
         d="M 84.9642,142.012 H 104.995 V 121.981 H 84.9642 Z"
         id="path276"
         inkscape:connector-curvature="0" /></clipPath><clipPath
       clipPathUnits="userSpaceOnUse"
       id="clipPath294"><path
         d="M 181.349,142.012 H 201.38 V 121.981 H 181.349 Z"
         id="path292"
         inkscape:connector-curvature="0" /></clipPath><clipPath
       clipPathUnits="userSpaceOnUse"
       id="clipPath342"><path
         d="m 680.894,669.287 -51.718,-0.204 c -1.094,-0.004 -1.847,-1.514 -1.433,-2.895 v 0 c 2.153,-7.173 9.344,-25.233 27.182,-25.233 v 0 c 17.831,0 25.185,18.185 27.406,25.421 v 0 c 0.425,1.386 -0.333,2.911 -1.432,2.911 v 0 c -0.002,0 -0.003,0 -0.005,0"
         id="path340"
         inkscape:connector-curvature="0" /></clipPath><clipPath
       clipPathUnits="userSpaceOnUse"
       id="clipPath354"><path
         d="M 0,800 H 800 V 0 H 0 Z"
         id="path352"
         inkscape:connector-curvature="0" /></clipPath><clipPath
       clipPathUnits="userSpaceOnUse"
       id="clipPath370"><path
         d="m 595.786,679.012 h 20.031 v -20.031 h -20.031 z"
         id="path368"
         inkscape:connector-curvature="0" /></clipPath><clipPath
       clipPathUnits="userSpaceOnUse"
       id="clipPath386"><path
         d="m 692.171,679.012 h 20.031 v -20.031 h -20.031 z"
         id="path384"
         inkscape:connector-curvature="0" /></clipPath><clipPath
       clipPathUnits="userSpaceOnUse"
       id="clipPath422"><path
         d="m 178.459,488.287 -70.586,-0.204 c -1.491,-0.004 -2.52,-1.514 -1.955,-2.895 v 0 c 2.939,-7.173 12.754,-25.233 37.1,-25.233 v 0 c 24.334,0 34.371,18.185 37.402,25.421 v 0 c 0.58,1.386 -0.454,2.911 -1.954,2.911 v 0 c -0.002,0 -0.005,0 -0.007,0"
         id="path420"
         inkscape:connector-curvature="0" /></clipPath><clipPath
       clipPathUnits="userSpaceOnUse"
       id="clipPath434"><path
         d="M 0,800 H 800 V 0 H 0 Z"
         id="path432"
         inkscape:connector-curvature="0" /></clipPath><clipPath
       clipPathUnits="userSpaceOnUse"
       id="clipPath462"><path
         d="m 425.512,502.012 h 20.031 v -20.031 h -20.031 z"
         id="path460"
         inkscape:connector-curvature="0" /></clipPath><clipPath
       clipPathUnits="userSpaceOnUse"
       id="clipPath478"><path
         d="m 521.897,502.012 h 20.031 v -20.031 h -20.031 z"
         id="path476"
         inkscape:connector-curvature="0" /></clipPath><clipPath
       clipPathUnits="userSpaceOnUse"
       id="clipPath570"><path
         d="M 0,800 H 800 V 0 H 0 Z"
         id="path568"
         inkscape:connector-curvature="0" /></clipPath></defs><sodipodi:namedview
     pagecolor="#ffffff"
     bordercolor="#666666"
     borderopacity="1"
     objecttolerance="10"
     gridtolerance="10"
     guidetolerance="10"
     inkscape:pageopacity="0"
     inkscape:pageshadow="2"
     inkscape:window-width="1366"
     inkscape:window-height="745"
     id="namedview12"
     showgrid="false"
     showguides="true"
     inkscape:guide-bbox="true"
     inkscape:zoom="0.53999996"
     inkscape:cx="443.12117"
     inkscape:cy="543.86449"
     inkscape:window-x="-8"
     inkscape:window-y="-8"
     inkscape:window-maximized="1"
     inkscape:current-layer="g18" /><g
     id="g18"
     inkscape:groupmode="layer"
     inkscape:label="74221-OE7M2S-365"
     transform="matrix(1.3333333,0,0,-1.3333333,0,1066.6667)"><ellipse
       style="fill:#00aa44;stroke-width:0.79970837"
       id="path71"
       cx="402.72998"
       cy="-477.20474"
       transform="scale(1,-1)"
       rx="333.28546"
       ry="306.12857" /><g
       id="g20"
       transform="translate(-1068.0557,-19.444446)"><g
         id="g22"><g
           id="g28"><g
             id="g30"><path
               d="M 0,0 H 800 V 800 H 0 Z"
               style="fill:url(#radialGradient36);stroke:none"
               id="path38"
               inkscape:connector-curvature="0" /></g></g></g></g><g
       id="g40"
       transform="matrix(4.0753877,0,0,3.7790796,-333.47327,-1321.2955)"><g
         id="g42"
         clip-path="url(#clipPath46)"
         transform="translate(37.415118,-202.7778)"><g
           id="g128"
           transform="translate(212.0031,679.3362)"><path
             d="m 0,0 c 0,-38.014 -30.817,-68.831 -68.831,-68.831 -38.014,0 -68.83,30.817 -68.83,68.831 0,38.015 30.816,68.831 68.83,68.831 C -30.817,68.831 0,38.015 0,0"
             style="fill:#ffd21f;fill-opacity:1;fill-rule:nonzero;stroke:none"
             id="path130"
             inkscape:connector-curvature="0" /></g><g
           id="g132"
           transform="translate(111.839,678.3362)"><path
             d="m 0,0 v 0 c -2.75,0 -5,2.25 -5,5 v 12 c 0,2.75 2.25,5 5,5 v 0 c 2.75,0 5,-2.25 5,-5 V 5 C 5,2.25 2.75,0 0,0"
             style="fill:#403408;fill-opacity:1;fill-rule:nonzero;stroke:none"
             id="path134"
             inkscape:connector-curvature="0" /></g><g
           id="g136"
           transform="translate(174.5057,678.3362)"><path
             d="m 0,0 v 0 c -2.75,0 -5,2.25 -5,5 v 12 c 0,2.75 2.25,5 5,5 v 0 c 2.75,0 5,-2.25 5,-5 V 5 C 5,2.25 2.75,0 0,0"
             style="fill:#403408;fill-opacity:1;fill-rule:nonzero;stroke:none"
             id="path138"
             inkscape:connector-curvature="0" /></g><g
           id="g140"
           transform="translate(107.8732,662.0837)"><path
             d="m 0,0 c -1.492,-0.004 -2.521,-1.515 -1.955,-2.895 2.938,-7.173 12.754,-25.233 37.1,-25.233 24.334,0 34.371,18.185 37.402,25.421 0.581,1.388 -0.457,2.915 -1.961,2.911 z"
             style="fill:#403408;fill-opacity:1;fill-rule:nonzero;stroke:none"
             id="path142"
             inkscape:connector-curvature="0" /></g></g></g><g
       sodipodi:type="inkscape:box3d"
       id="g1610"
       style="fill:#00ff00"
       inkscape:perspectiveID="#perspective1348"
       inkscape:corner0="-0.41174066 : 0.087254782 : 0 : 1"
       inkscape:corner7="-0.41174067 : 0.08725478 : 0.25 : 1"><path
         sodipodi:type="inkscape:box3dside"
         id="path1612"
         style="fill:#353564;fill-rule:evenodd;stroke:none;stroke-width:1.17361867;stroke-linejoin:round"
         inkscape:box3dsidetype="6"
         d="m 710.31909,314.41978 v 0 l 42.94991,39.51374 v 1e-5 z"
         points="710.31909,314.41978 753.269,353.93352 753.269,353.93353 710.31909,314.41978 " /><path
         sodipodi:type="inkscape:box3dside"
         id="path1620"
         style="fill:#afafde;fill-rule:evenodd;stroke:none;stroke-width:1.17361867;stroke-linejoin:round"
         inkscape:box3dsidetype="13"
         d="m 710.31909,314.41978 2e-5,0 42.9499,39.51374 -10e-6,0 z"
         points="710.31911,314.41978 753.26901,353.93352 753.269,353.93352 710.31909,314.41978 " /><path
         sodipodi:type="inkscape:box3dside"
         id="path1622"
         style="fill:#e9e9ff;fill-rule:evenodd;stroke:none;stroke-width:1.17361867;stroke-linejoin:round"
         inkscape:box3dsidetype="11"
         d="m 753.269,353.93353 10e-6,-1e-5 v 0 l -10e-6,0 z"
         points="753.26901,353.93352 753.26901,353.93352 753.269,353.93352 753.269,353.93353 " /><path
         sodipodi:type="inkscape:box3dside"
         id="path1614"
         style="fill:#4d4d9f;fill-rule:evenodd;stroke:none;stroke-width:1.17361867;stroke-linejoin:round"
         inkscape:box3dsidetype="5"
         d="m 710.31909,314.41978 2e-5,0 42.9499,39.51374 -10e-6,1e-5 z"
         points="710.31911,314.41978 753.26901,353.93352 753.269,353.93353 710.31909,314.41978 " /><path
         sodipodi:type="inkscape:box3dside"
         id="path1618"
         style="fill:#d7d7ff;fill-rule:evenodd;stroke:none;stroke-width:1.17361867;stroke-linejoin:round"
         inkscape:box3dsidetype="14"
         d="m 710.31911,314.41978 v 0 l 42.9499,39.51374 v 0 z"
         points="710.31911,314.41978 753.26901,353.93352 753.26901,353.93352 710.31911,314.41978 " /><path
         sodipodi:type="inkscape:box3dside"
         id="path1616"
         style="fill:#8686bf;fill-rule:evenodd;stroke:none;stroke-width:1.17361867;stroke-linejoin:round"
         inkscape:box3dsidetype="3"
         d="m 710.31909,314.41978 2e-5,0 v 0 l -2e-5,0 z"
         points="710.31911,314.41978 710.31911,314.41978 710.31909,314.41978 710.31909,314.41978 " /></g><text
       xml:space="preserve"
       style="font-style:normal;font-weight:normal;font-size:118.18895721px;line-height:1.25;font-family:sans-serif;letter-spacing:0px;word-spacing:0px;fill:#000000;fill-opacity:1;stroke:none;stroke-width:2.95472407"
       x="208.95158"
       y="-72.477081"
       id="text75"
       transform="scale(1.0035291,-0.99648331)"><tspan
         sodipodi:role="line"
         id="tspan73"
         x="208.95158"
         y="-72.477081"
         style="stroke-width:2.95472407">HAPPY</tspan></text>
</g></svg>