<?xml version="1.0" encoding="UTF-8" standalone="no"?>
<svg
   xmlns:dc="http://purl.org/dc/elements/1.1/"
   xmlns:cc="http://creativecommons.org/ns#"
   xmlns:rdf="http://www.w3.org/1999/02/22-rdf-syntax-ns#"
   xmlns:svg="http://www.w3.org/2000/svg"
   xmlns="http://www.w3.org/2000/svg"
   xmlns:sodipodi="http://sodipodi.sourceforge.net/DTD/sodipodi-0.dtd"
   xmlns:inkscape="http://www.inkscape.org/namespaces/inkscape"
   height="486pt"
   viewBox="0 -4 486.63273 486"
   width="486pt"
   version="1.1"
   id="svg22"
   sodipodi:docname="hygiene.svg"
   inkscape:version="0.92.4 (5da689c313, 2019-01-14)">
  <metadata
     id="metadata28">
    <rdf:RDF>
      <cc:Work
         rdf:about="">
        <dc:format>image/svg+xml</dc:format>
        <dc:type
           rdf:resource="http://purl.org/dc/dcmitype/StillImage" />
      </cc:Work>
    </rdf:RDF>
  </metadata>
  <defs
     id="defs26" />
  <sodipodi:namedview
     pagecolor="#ffffff"
     bordercolor="#666666"
     borderopacity="1"
     objecttolerance="10"
     gridtolerance="10"
     guidetolerance="10"
     inkscape:pageopacity="0"
     inkscape:pageshadow="2"
     inkscape:window-width="1366"
     inkscape:window-height="745"
     id="namedview24"
     showgrid="false"
     inkscape:zoom="0.72839506"
     inkscape:cx="324"
     inkscape:cy="324"
     inkscape:window-x="-8"
     inkscape:window-y="-8"
     inkscape:window-maximized="1"
     inkscape:current-layer="svg22" />
  <ellipse
     style="fill:#ff7f2a;stroke-width:0.88989997"
     id="path30"
     cx="250.53337"
     cy="209.99898"
     rx="226.82034"
     ry="210.19136" />
  <path
     d="m 409.27722,193.09154 c 12.08559,0 21.88091,9.05298 21.88091,20.21992 0,11.16692 -9.79532,20.21992 -21.88091,20.21992 h -60.86979 v -40.43984 z m 0,0"
     id="path2"
     inkscape:connector-curvature="0"
     style="fill:#00efd1;stroke-width:0.73970878" />
  <path
     d="M 348.52466,342.96729 H 143.52043 c -16.13416,0 -30.09225,-10.38913 -33.53068,-24.95893 L 90.137651,233.93139 v -0.40001 H 253.24354 v 54.6235 h 95.16389 v -54.6235 h 60.13944 v 0.40001 l -19.85212,84.07697 c -3.43843,14.5698 -17.39652,24.95893 -33.53067,24.95893 z m 0,0"
     id="path4"
     inkscape:connector-curvature="0"
     style="fill:#fedb41;stroke-width:0.73970878" />
  <path
     d="m 348.52466,342.96729 v 21.31438 h -47.20025 l -16.87352,-21.31438 z m 0,0"
     id="path6"
     inkscape:connector-curvature="0"
     style="fill:#00efd1;stroke-width:0.73970878" />
  <path
     d="m 253.24354,268.56275 h 95.16389 v 19.59213 h -95.16389 z m 0,0"
     id="path8"
     inkscape:connector-curvature="0"
     style="fill:#00efd1;stroke-width:0.73970878" />
  <path
     d="m 348.40743,193.09154 v 75.47121 h -95.16389 v -78.29627 c 0,-4.63623 4.06962,-8.39465 9.08599,-8.38911 h 76.99793 c 5.01638,0 9.07997,3.75566 9.07997,8.38911 z m 0,0"
     id="path10"
     inkscape:connector-curvature="0"
     style="fill:#00acea;stroke-width:0.73970878" />
  <path
     d="m 117.48275,193.09154 h 135.76079 v 40.43984 H 89.407281 c -12.082589,0 -21.877895,-9.053 -21.877895,-20.21992 0,-11.16694 9.795306,-20.21992 21.877895,-20.21992 z m 0,0"
     id="path12"
     inkscape:connector-curvature="0"
     style="fill:#00efd1;stroke-width:0.73970878" />
  <path
     d="m 229.13849,118.52867 v 16.36984 h -74.49126 v -16.36984 z m 0,0"
     id="path14"
     inkscape:connector-curvature="0"
     style="fill:#00efd1;stroke-width:0.73970878" />
  <path
     d="m 220.31999,118.25088 v 0.27779 h -57.00154 v -12.70863 c 0.003,-7.85297 6.89188,-14.219773 15.38875,-14.222552 h 26.22403 c 8.49689,0.0041 15.38577,6.369582 15.38876,14.222552 z m 0,0"
     id="path16"
     inkscape:connector-curvature="0"
     style="fill:#00acea;stroke-width:0.73970878" />
  <path
     d="m 214.23362,342.96729 -16.87354,21.31438 h -47.19723 v -21.31438 z m 0,0"
     id="path18"
     inkscape:connector-curvature="0"
     style="fill:#00efd1;stroke-width:0.73970878" />
  <path
     d="m 85.647245,238.26761 19.082675,80.97133 c 3.94638,16.73096 20.26086,29.04236 38.79051,29.04236 h 1.1782 v 16.00037 c 0,2.74729 2.48866,5.33346 5.46422,5.33346 h 47.19723 c 1.71921,-0.005 3.33323,-0.76668 4.34613,-2.05003 l 15.25952,-19.2838 h 64.75605 l 15.25652,19.2838 c 1.01289,1.28335 2.6269,2.04447 4.34611,2.05003 h 47.20025 c 2.97254,0 5.46121,-2.58617 5.46121,-5.33346 V 348.2813 h 1.17821 c 18.52963,0 34.84413,-12.3114 38.79351,-29.04513 l 19.07667,-80.88246 c 14.18952,-1.80005 24.44168,-13.45588 23.44983,-26.66173 -0.98885,-13.20588 -12.88508,-23.44222 -27.20687,-23.41445 h -55.68809 c -1.10909,-6.50294 -7.13835,-11.31414 -14.26167,-11.37804 h -76.99793 c -7.12332,0.0612 -13.15559,4.87233 -14.26767,11.37804 H 123.15435 V 69.383075 c 0,-16.103156 14.12341,-29.156235 31.54698,-29.156235 17.42357,0 31.54698,13.053079 31.54698,29.156235 v 17.20318 h -7.54111 c -11.50549,0.01666 -20.84697,8.600208 -20.92812,19.233785 v 7.78908 h -3.13185 c -1.41565,-0.0108 -2.7772,0.50278 -3.78107,1.42781 -1.00087,0.92501 -1.55992,2.18337 -1.55089,3.49174 v 16.36984 c -0.0301,2.74727 2.3594,4.99733 5.33196,5.02233 h 74.49126 c 3.02064,-0.005 5.49426,-2.22783 5.58443,-5.02233 v -16.36984 c -0.0992,-2.77229 -2.58482,-4.96123 -5.58443,-4.91955 h -3.64883 v -7.78908 c 0.045,-5.07234 -2.10092,-9.953016 -5.95713,-13.561428 -3.85922,-3.611195 -9.11303,-5.65291 -14.6013,-5.672357 h -7.9108 v -17.20318 c 0,-21.600508 -18.9474,-39.112029 -42.3191,-39.112029 -23.37168,0 -42.3191,17.511521 -42.3191,39.112029 V 188.27753 H 89.407281 c -14.32177,-0.0611 -26.233035,10.16413 -27.224896,23.36721 -0.994855,13.2031 9.275338,24.85337 23.46486,26.62287 z M 223.95079,129.96505 H 160.0874 v -6.40015 h 63.86339 z m -9.23327,-24.14501 v 7.78908 h -46.1663 v -7.78908 c 0.0751,-5.13623 4.5986,-9.266885 10.15598,-9.277993 h 26.22403 c 2.63293,0.01666 5.14862,1.008339 6.98807,2.752842 1.83642,1.741711 2.84631,4.091751 2.79822,6.525151 z m -20.09255,253.8393 h -39.1542 V 348.2813 h 48.147 z m 148.58876,0 h -39.15419 l -8.99282,-11.37804 h 48.14701 z m 40.21818,-42.41766 c -2.95151,12.25863 -14.67943,21.00604 -28.26783,21.08383 H 143.52043 c -13.5884,-0.0778 -25.31632,-8.8252 -28.26784,-21.08383 L 96.731972,238.76761 H 247.80338 v 49.38727 c 0,2.75006 2.4616,4.65844 5.44016,4.65844 h 95.16389 c 2.97558,0 5.57844,-1.90838 5.57844,-4.65844 v -49.38727 h 47.96668 z M 258.57552,273.61287 h 84.63821 v 9.24467 h -84.63821 z m 167.19954,-60.21529 c 0.009,8.45019 -7.35173,15.3309 -16.49784,15.41424 h -55.29135 v -30.5785 h 55.29135 c 4.36417,-0.014 8.55701,1.57503 11.64979,4.41956 3.09578,2.8445 4.83905,6.71126 4.84805,10.7447 z m -163.44553,-26.5423 h 76.99793 c 2.07689,-0.0139 3.79309,1.49447 3.88627,3.4112 v 73.3906 h -84.63821 v -73.3906 c 0.0301,-1.8945 1.70419,-3.41676 3.75401,-3.4112 z M 77.742471,202.61676 c 3.095784,-2.84728 7.297644,-4.4251 11.66481,-4.38344 H 247.80338 v 30.5785 H 89.407281 c -6.690506,-0.0472 -12.69874,-3.80009 -15.247504,-9.51689 -2.545761,-5.71958 -1.133116,-12.29197 3.582694,-16.67817 z m 0,0"
     id="path20"
     inkscape:connector-curvature="0"
     style="fill:#083863;stroke-width:0.73970878" />
  <text
     xml:space="preserve"
     style="font-style:normal;font-weight:normal;font-size:74.53100586px;line-height:1.25;font-family:sans-serif;letter-spacing:0px;word-spacing:0px;fill:#000000;fill-opacity:1;stroke:none;stroke-width:1.86327529"
     x="101.97794"
     y="467.24445"
     id="text34"
     transform="scale(0.97215985,1.0286374)"><tspan
       sodipodi:role="line"
       id="tspan32"
       x="101.97794"
       y="467.24445"
       style="stroke-width:1.86327529">HYGIENE</tspan></text>
</svg>
