<?xml version="1.0" encoding="UTF-8" standalone="no"?>
<!-- Generator: Adobe Illustrator 17.1.0, SVG Export Plug-In . SVG Version: 6.00 Build 0)  -->

<svg
   xmlns:dc="http://purl.org/dc/elements/1.1/"
   xmlns:cc="http://creativecommons.org/ns#"
   xmlns:rdf="http://www.w3.org/1999/02/22-rdf-syntax-ns#"
   xmlns:svg="http://www.w3.org/2000/svg"
   xmlns="http://www.w3.org/2000/svg"
   xmlns:sodipodi="http://sodipodi.sourceforge.net/DTD/sodipodi-0.dtd"
   xmlns:inkscape="http://www.inkscape.org/namespaces/inkscape"
   version="1.1"
   id="Capa_1"
   x="0px"
   y="0px"
   viewBox="0 0 85.761 85.761"
   style="enable-background:new 0 0 85.761 85.761;"
   xml:space="preserve"
   sodipodi:docname="I HAVE FALLEN AND I CAN'T GET UP.svg"
   inkscape:version="0.92.4 (5da689c313, 2019-01-14)"><metadata
   id="metadata43"><rdf:RDF><cc:Work
       rdf:about=""><dc:format>image/svg+xml</dc:format><dc:type
         rdf:resource="http://purl.org/dc/dcmitype/StillImage" /></cc:Work></rdf:RDF></metadata><defs
   id="defs41" /><sodipodi:namedview
   pagecolor="#ffffff"
   bordercolor="#666666"
   borderopacity="1"
   objecttolerance="10"
   gridtolerance="10"
   guidetolerance="10"
   inkscape:pageopacity="0"
   inkscape:pageshadow="2"
   inkscape:window-width="1366"
   inkscape:window-height="745"
   id="namedview39"
   showgrid="false"
   inkscape:zoom="2.7518335"
   inkscape:cx="-49.784988"
   inkscape:cy="42.880499"
   inkscape:window-x="-8"
   inkscape:window-y="-8"
   inkscape:window-maximized="1"
   inkscape:current-layer="Capa_1" />
<ellipse
   style="fill:#ff0000;stroke-width:0.79023623"
   id="path45"
   cx="48.149715"
   cy="42.335411"
   rx="28.16304"
   ry="27.799648" /><g
   id="g6"
   transform="matrix(0.51920188,0,0,0.65550307,20.064872,12.711791)">
	<path
   d="m 91.3371,60.798745 h -6.341 v -45.51 c 0,-2.757 -2.243,-5 -5,-5 h -1.917 c -2.757,0 -5,2.243 -5,5 v 32.139 h -33.547 c -1.654,0 -3,1.346 -3,3 v 13.081 c 0,0.05 0.012,0.096 0.015,0.145 -0.002,0.049 -0.015,0.095 -0.015,0.145 v 3.42 c 0,1.654 1.346,3 3,3 h 51.805 c 1.654,0 3,-1.346 3,-3 v -3.42 c 0,-1.654 -1.346,-3 -3,-3 z"
   id="path2"
   inkscape:connector-curvature="0" />
	<path
   d="m 21.534113,46.834582 c -6.554,0 -11.8860002,5.332 -11.8860002,11.885 0,6.555 5.3320002,11.887 11.8860002,11.887 6.554,0 11.886,-5.332 11.886,-11.887 0,-6.553 -5.332,-11.885 -11.886,-11.885 z"
   id="path4"
   inkscape:connector-curvature="0" />
</g>
<g
   id="g8">
</g>
<g
   id="g10">
</g>
<g
   id="g12">
</g>
<g
   id="g14">
</g>
<g
   id="g16">
</g>
<g
   id="g18">
</g>
<g
   id="g20">
</g>
<g
   id="g22">
</g>
<g
   id="g24">
</g>
<g
   id="g26">
</g>
<g
   id="g28">
</g>
<g
   id="g30">
</g>
<g
   id="g32">
</g>
<g
   id="g34">
</g>
<g
   id="g36">
</g>
<text
   xml:space="preserve"
   style="font-style:normal;font-weight:normal;font-size:15.31995296px;line-height:1.25;font-family:sans-serif;letter-spacing:0px;word-spacing:0px;fill:#000000;fill-opacity:1;stroke:none;stroke-width:0.38299882"
   x="24.598007"
   y="70.35099"
   id="text49"
   transform="scale(0.8348115,1.1978752)"><tspan
     sodipodi:role="line"
     id="tspan47"
     x="24.598007"
     y="70.35099"
     style="stroke-width:0.38299882">URGENT</tspan></text>


</svg>