<?xml version="1.0" encoding="UTF-8" standalone="no"?>
<!-- Generator: Adobe Illustrator 18.0.0, SVG Export Plug-In . SVG Version: 6.00 Build 0)  -->

<svg
   xmlns:dc="http://purl.org/dc/elements/1.1/"
   xmlns:cc="http://creativecommons.org/ns#"
   xmlns:rdf="http://www.w3.org/1999/02/22-rdf-syntax-ns#"
   xmlns:svg="http://www.w3.org/2000/svg"
   xmlns="http://www.w3.org/2000/svg"
   xmlns:sodipodi="http://sodipodi.sourceforge.net/DTD/sodipodi-0.dtd"
   xmlns:inkscape="http://www.inkscape.org/namespaces/inkscape"
   version="1.1"
   id="Capa_1"
   x="0px"
   y="0px"
   viewBox="0 0 55.569 55.569"
   style="enable-background:new 0 0 55.569 55.569;"
   xml:space="preserve"
   sodipodi:docname="lettuce.svg"
   inkscape:version="0.92.4 (5da689c313, 2019-01-14)"><metadata
   id="metadata45"><rdf:RDF><cc:Work
       rdf:about=""><dc:format>image/svg+xml</dc:format><dc:type
         rdf:resource="http://purl.org/dc/dcmitype/StillImage" /></cc:Work></rdf:RDF></metadata><defs
   id="defs43" /><sodipodi:namedview
   pagecolor="#ffffff"
   bordercolor="#666666"
   borderopacity="1"
   objecttolerance="10"
   gridtolerance="10"
   guidetolerance="10"
   inkscape:pageopacity="0"
   inkscape:pageshadow="2"
   inkscape:window-width="1366"
   inkscape:window-height="745"
   id="namedview41"
   showgrid="false"
   inkscape:zoom="4.2469722"
   inkscape:cx="87.233518"
   inkscape:cy="27.7845"
   inkscape:window-x="-8"
   inkscape:window-y="-8"
   inkscape:window-maximized="1"
   inkscape:current-layer="Capa_1" />
<ellipse
   style="fill:#a02c2c;stroke-width:1.10324383"
   id="path47"
   cx="28.844076"
   cy="23.745548"
   rx="21.54476"
   ry="22.097315" /><g
   id="g8"
   transform="matrix(0.66502707,0,0,0.63158181,12.313517,6.8467609)">
	<path
   style="fill:#88c057"
   d="m 41.971,27.098 c 1.551,0.368 3.246,0.36 5.054,-0.403 3.108,-1.311 5.318,-4.292 5.387,-7.665 0.078,-3.778 -2.319,-7 -5.677,-8.178 -0.236,-3.43 -3.086,-6.14 -6.575,-6.14 -0.01,0 -0.02,0.001 -0.03,0.001 C 40.192,4.194 40.157,3.645 39.989,3.072 39.517,1.462 38.102,0.227 36.436,0.029 35.07,-0.133 33.816,0.356 32.937,1.225 32.103,0.472 31.007,0 29.792,0 c -2.603,0 -4.713,2.11 -4.713,4.713 0,0.008 0.002,0.016 0.002,0.024 -3.164,0.24 -5.658,2.878 -5.658,6.103 0,0.493 0.064,0.97 0.174,1.429 -3.766,0.157 -6.773,3.25 -6.773,7.054 0,1.289 0.35,2.493 0.953,3.534 -1.157,0.951 -1.895,2.393 -1.895,4.007 0,2.257 1.445,4.172 3.459,4.884 -0.26,9.217 3.029,14.655 9.392,21.98 0.114,0.131 0.229,0.263 0.345,0.394 0.025,0.028 0.05,0.056 0.075,0.084 2.646,2.969 8.614,0.695 7.33,-3.069 -6.855,-20.11 14.275,-17.203 14.275,-17.203 0,0 0.604,-6.083 -4.847,-6.368 0.007,-0.152 0.014,-0.305 0.021,-0.457 0.014,-0.003 0.025,-0.008 0.039,-0.011 z"
   id="path2"
   inkscape:connector-curvature="0" />
	<path
   style="fill:#659c35"
   d="M 25.154,54.206 C 25.129,54.178 25.104,54.15 25.079,54.122 24.963,53.991 24.848,53.86 24.734,53.728 18.37,46.403 15.081,40.965 15.342,31.748 c -2.014,-0.712 -3.459,-2.627 -3.459,-4.884 0,-1.615 0.738,-3.056 1.895,-4.007 -0.602,-1.041 -0.953,-2.245 -0.953,-3.534 0,-3.804 3.007,-6.898 6.773,-7.054 C 19.488,11.81 19.424,11.333 19.424,10.84 19.424,8.278 21,6.092 23.233,5.178 23.085,4.693 22.897,4.204 22.65,3.715 21.418,1.274 19.25,-0.259 17.271,0.063 15.64,0.328 14.499,1.659 14.008,3.449 12.64,2.528 11.122,2.17 9.751,2.653 6.812,3.688 5.885,7.914 7.568,11.828 7.573,11.84 7.58,11.85 7.585,11.862 4.399,13.384 3.552,17.909 5.572,21.991 c 0.295,0.595 0.638,1.142 1.012,1.647 -3.519,1.455 -4.448,5.873 -2.232,9.734 0.708,1.234 1.654,2.25 2.706,3.017 -0.498,1.191 -0.39,2.656 0.402,4.008 1.063,1.816 3.058,2.894 4.926,2.881 3.283,6.447 7.311,8.948 13.41,11.536 0.064,0.027 0.128,0.054 0.192,0.08 -0.3,-0.19 -0.585,-0.408 -0.834,-0.688 z"
   id="path4"
   inkscape:connector-curvature="0" />
	<path
   style="fill:#659c35"
   d="m 27.545,24.419 c 0.058,-0.128 0.085,-0.262 0.087,-0.394 0.717,-1.804 1.58,-3.318 2.478,-4.581 4.484,-0.932 7.867,0.469 7.942,0.501 0.131,0.058 0.267,0.084 0.399,0.084 0.385,0 0.752,-0.224 0.917,-0.598 0.222,-0.506 -0.009,-1.096 -0.514,-1.318 -0.139,-0.06 -2.898,-1.238 -6.865,-0.949 1.938,-2.021 3.639,-2.938 3.893,-3.066 1.453,-0.696 3.576,0.204 4.273,0.61 0.159,0.094 0.333,0.138 0.506,0.138 0.342,0 0.676,-0.176 0.862,-0.492 0.28,-0.476 0.123,-1.088 -0.354,-1.369 -0.114,-0.068 -2.362,-1.367 -4.665,-1.106 0.197,-0.811 0.634,-1.549 0.857,-1.845 0.335,-0.438 0.251,-1.065 -0.188,-1.4 -0.437,-0.335 -1.066,-0.253 -1.401,0.187 -0.063,0.081 -1.375,1.821 -1.372,3.824 -1.455,0.891 -5.214,3.592 -7.844,9.02 -0.142,0.292 -0.279,0.606 -0.415,0.921 -2.728,-1.865 -2.279,-5.183 -2.254,-5.344 0.085,-0.544 -0.286,-1.055 -0.831,-1.142 -0.544,-0.087 -1.058,0.285 -1.145,0.83 -0.29,1.815 0.126,5.555 3.495,7.564 -0.744,2.188 -1.308,4.8 -1.482,7.883 -0.02,0.097 -0.024,0.191 -0.016,0.287 -0.104,2.161 -0.004,4.558 0.344,7.183 -1.268,-0.698 -1.848,-1.719 -1.885,-1.788 -0.261,-0.485 -0.863,-0.67 -1.349,-0.414 -0.488,0.257 -0.677,0.862 -0.419,1.351 0.053,0.101 1.25,2.314 4.017,3.169 0.721,3.956 2.006,8.398 4.084,13.383 0.685,-0.045 1.352,-0.226 1.942,-0.52 -0.003,-0.008 -0.002,-0.017 -0.005,-0.026 -2.181,-5.189 -3.497,-9.76 -4.197,-13.799 -0.004,-0.024 -0.006,-0.047 -0.011,-0.07 -0.52,-3.03 -0.689,-5.753 -0.591,-8.192 1.4,-2.387 5.515,-2.483 5.557,-2.484 0.552,-0.009 0.993,-0.462 0.985,-1.014 -0.008,-0.548 -0.453,-0.986 -0.999,-0.986 -0.004,0 -0.008,0 -0.012,0 -0.163,0.002 -3.014,0.064 -5.276,1.482 0.276,-1.98 0.735,-3.734 1.304,-5.292 0.059,-0.069 0.11,-0.144 0.148,-0.228 z"
   id="path6"
   inkscape:connector-curvature="0" />
</g>
<g
   id="g10">
</g>
<g
   id="g12">
</g>
<g
   id="g14">
</g>
<g
   id="g16">
</g>
<g
   id="g18">
</g>
<g
   id="g20">
</g>
<g
   id="g22">
</g>
<g
   id="g24">
</g>
<g
   id="g26">
</g>
<g
   id="g28">
</g>
<g
   id="g30">
</g>
<g
   id="g32">
</g>
<g
   id="g34">
</g>
<g
   id="g36">
</g>
<g
   id="g38">
</g>

<text
   xml:space="preserve"
   style="font-style:normal;font-weight:normal;font-size:8.53947926px;line-height:1.25;font-family:sans-serif;letter-spacing:0px;word-spacing:0px;fill:#000000;fill-opacity:1;stroke:none;stroke-width:0.21348698"
   x="5.0281048"
   y="47.313778"
   id="text30"
   transform="scale(0.87815611,1.1387497)"><tspan
     sodipodi:role="line"
     id="tspan28"
     x="5.0281048"
     y="47.313778"
     style="stroke-width:0.21348698">VEGETABLES</tspan></text>
</svg>