<?xml version="1.0" encoding="UTF-8" standalone="no"?>
<!-- Created with Inkscape (http://www.inkscape.org/) -->

<svg
   xmlns:dc="http://purl.org/dc/elements/1.1/"
   xmlns:cc="http://creativecommons.org/ns#"
   xmlns:rdf="http://www.w3.org/1999/02/22-rdf-syntax-ns#"
   xmlns:svg="http://www.w3.org/2000/svg"
   xmlns="http://www.w3.org/2000/svg"
   xmlns:sodipodi="http://sodipodi.sourceforge.net/DTD/sodipodi-0.dtd"
   xmlns:inkscape="http://www.inkscape.org/namespaces/inkscape"
   version="1.1"
   id="svg5523"
   xml:space="preserve"
   width="1066.6667"
   height="1066.6667"
   viewBox="0 0 1066.6667 1066.6667"
   sodipodi:docname="Love.svg"
   inkscape:version="0.92.4 (5da689c313, 2019-01-14)"><metadata
     id="metadata5529"><rdf:RDF><cc:Work
         rdf:about=""><dc:format>image/svg+xml</dc:format><dc:type
           rdf:resource="http://purl.org/dc/dcmitype/StillImage" /><dc:title /></cc:Work></rdf:RDF></metadata><defs
     id="defs5527"><inkscape:perspective
       sodipodi:type="inkscape:persp3d"
       inkscape:vp_x="0 : 533.33335 : 1"
       inkscape:vp_y="0 : 1000 : 0"
       inkscape:vp_z="1066.6667 : 533.33335 : 1"
       inkscape:persp3d-origin="533.33335 : 355.55557 : 1"
       id="perspective6288" /><radialGradient
       fx="0"
       fy="0"
       cx="0"
       cy="0"
       r="1"
       gradientUnits="userSpaceOnUse"
       gradientTransform="matrix(400,0,0,-400,400,400)"
       spreadMethod="pad"
       id="radialGradient5549"><stop
         style="stop-opacity:1;stop-color:#ffffff"
         offset="0"
         id="stop5545" /><stop
         style="stop-opacity:1;stop-color:#fffeed"
         offset="1"
         id="stop5547" /></radialGradient><clipPath
       clipPathUnits="userSpaceOnUse"
       id="clipPath5559"><path
         d="M 0,800 H 800 V 0 H 0 Z"
         id="path5557"
         inkscape:connector-curvature="0" /></clipPath><clipPath
       clipPathUnits="userSpaceOnUse"
       id="clipPath5615"><path
         d="m 595.786,502.012 h 20.031 v -20.031 h -20.031 z"
         id="path5613"
         inkscape:connector-curvature="0" /></clipPath><clipPath
       clipPathUnits="userSpaceOnUse"
       id="clipPath5631"><path
         d="m 692.171,502.012 h 20.031 v -20.031 h -20.031 z"
         id="path5629"
         inkscape:connector-curvature="0" /></clipPath><clipPath
       clipPathUnits="userSpaceOnUse"
       id="clipPath5663"><path
         d="m 178.459,662.287 -70.586,-0.203 c -1.491,-0.004 -2.52,-1.515 -1.955,-2.895 v 0 c 2.939,-7.173 12.754,-25.233 37.1,-25.233 v 0 c 24.334,0 34.371,18.185 37.402,25.421 v 0 c 0.58,1.386 -0.454,2.91 -1.954,2.91 v 0 c -0.002,0 -0.005,0 -0.007,0"
         id="path5661"
         inkscape:connector-curvature="0" /></clipPath><clipPath
       clipPathUnits="userSpaceOnUse"
       id="clipPath5675"><path
         d="M 0,800 H 800 V 0 H 0 Z"
         id="path5673"
         inkscape:connector-curvature="0" /></clipPath><clipPath
       clipPathUnits="userSpaceOnUse"
       id="clipPath5707"><path
         d="m 178.459,309.805 -70.586,-0.204 c -1.491,-0.004 -2.52,-1.515 -1.955,-2.895 v 0 c 2.939,-7.173 12.754,-25.233 37.1,-25.233 v 0 c 24.334,0 34.371,18.185 37.402,25.422 v 0 c 0.58,1.384 -0.454,2.91 -1.954,2.91 v 0 c -0.002,0 -0.005,0 -0.007,0"
         id="path5705"
         inkscape:connector-curvature="0" /></clipPath><clipPath
       clipPathUnits="userSpaceOnUse"
       id="clipPath5719"><path
         d="M 0,800 H 800 V 0 H 0 Z"
         id="path5717"
         inkscape:connector-curvature="0" /></clipPath><clipPath
       clipPathUnits="userSpaceOnUse"
       id="clipPath5791"><path
         d="M 84.9642,142.012 H 104.995 V 121.981 H 84.9642 Z"
         id="path5789"
         inkscape:connector-curvature="0" /></clipPath><clipPath
       clipPathUnits="userSpaceOnUse"
       id="clipPath5807"><path
         d="M 181.349,142.012 H 201.38 V 121.981 H 181.349 Z"
         id="path5805"
         inkscape:connector-curvature="0" /></clipPath><clipPath
       clipPathUnits="userSpaceOnUse"
       id="clipPath5855"><path
         d="m 680.894,669.287 -51.718,-0.204 c -1.094,-0.004 -1.847,-1.514 -1.433,-2.895 v 0 c 2.153,-7.173 9.344,-25.233 27.182,-25.233 v 0 c 17.831,0 25.185,18.185 27.406,25.421 v 0 c 0.425,1.386 -0.333,2.911 -1.432,2.911 v 0 c -0.002,0 -0.003,0 -0.005,0"
         id="path5853"
         inkscape:connector-curvature="0" /></clipPath><clipPath
       clipPathUnits="userSpaceOnUse"
       id="clipPath5867"><path
         d="M 0,800 H 800 V 0 H 0 Z"
         id="path5865"
         inkscape:connector-curvature="0" /></clipPath><clipPath
       clipPathUnits="userSpaceOnUse"
       id="clipPath5883"><path
         d="m 595.786,679.012 h 20.031 v -20.031 h -20.031 z"
         id="path5881"
         inkscape:connector-curvature="0" /></clipPath><clipPath
       clipPathUnits="userSpaceOnUse"
       id="clipPath5899"><path
         d="m 692.171,679.012 h 20.031 v -20.031 h -20.031 z"
         id="path5897"
         inkscape:connector-curvature="0" /></clipPath><clipPath
       clipPathUnits="userSpaceOnUse"
       id="clipPath5935"><path
         d="m 178.459,488.287 -70.586,-0.204 c -1.491,-0.004 -2.52,-1.514 -1.955,-2.895 v 0 c 2.939,-7.173 12.754,-25.233 37.1,-25.233 v 0 c 24.334,0 34.371,18.185 37.402,25.421 v 0 c 0.58,1.386 -0.454,2.911 -1.954,2.911 v 0 c -0.002,0 -0.005,0 -0.007,0"
         id="path5933"
         inkscape:connector-curvature="0" /></clipPath><clipPath
       clipPathUnits="userSpaceOnUse"
       id="clipPath5947"><path
         d="M 0,800 H 800 V 0 H 0 Z"
         id="path5945"
         inkscape:connector-curvature="0" /></clipPath><clipPath
       clipPathUnits="userSpaceOnUse"
       id="clipPath5975"><path
         d="m 425.512,502.012 h 20.031 v -20.031 h -20.031 z"
         id="path5973"
         inkscape:connector-curvature="0" /></clipPath><clipPath
       clipPathUnits="userSpaceOnUse"
       id="clipPath5991"><path
         d="m 521.897,502.012 h 20.031 v -20.031 h -20.031 z"
         id="path5989"
         inkscape:connector-curvature="0" /></clipPath><clipPath
       clipPathUnits="userSpaceOnUse"
       id="clipPath6083"><path
         d="M 0,800 H 800 V 0 H 0 Z"
         id="path6081"
         inkscape:connector-curvature="0" /></clipPath></defs><sodipodi:namedview
     pagecolor="#ffffff"
     bordercolor="#666666"
     borderopacity="1"
     objecttolerance="10"
     gridtolerance="10"
     guidetolerance="10"
     inkscape:pageopacity="0"
     inkscape:pageshadow="2"
     inkscape:window-width="1366"
     inkscape:window-height="745"
     id="namedview5525"
     showgrid="false"
     showguides="false"
     inkscape:zoom="0.44249997"
     inkscape:cx="185.86115"
     inkscape:cy="623.72886"
     inkscape:window-x="-8"
     inkscape:window-y="-8"
     inkscape:window-maximized="1"
     inkscape:current-layer="g5531" /><g
     id="g5531"
     inkscape:groupmode="layer"
     inkscape:label="74221-OE7M2S-365"
     transform="matrix(1.3333333,0,0,-1.3333333,0,1066.6667)"><ellipse
       style="fill:#cc00ff;stroke-width:0.8586911"
       id="path65"
       cx="420.33902"
       cy="-462.79837"
       transform="scale(1,-1)"
       rx="315.25427"
       ry="289.74402" /><g
       id="g5533"
       transform="translate(1203.39,105.08476)"><g
         id="g5535"><g
           id="g5541"><g
             id="g5543"><path
               d="M 0,0 H 800 V 800 H 0 Z"
               style="fill:url(#radialGradient5549);stroke:none"
               id="path5551"
               inkscape:connector-curvature="0" /></g></g></g></g><g
       id="g5553" /><g
       id="g5713"
       transform="matrix(3.9506574,0,0,3.6113731,-815.00705,-1342.3541)"><g
         id="g5715"
         clip-path="url(#clipPath5719)"><g
           id="g5757"
           transform="translate(274.0307,121)" /><g
           id="g5769"
           transform="translate(177.5057,137.4225)" /><g
           id="g5825"
           transform="translate(382.2433,497.6323)"><path
             d="m 0,0 c -1.185,-37.995 -32.95,-67.836 -70.945,-66.65 -37.995,1.184 -67.836,32.947 -66.649,70.942 1.185,37.997 32.947,67.837 70.942,66.652 C -28.657,69.759 1.185,37.996 0,0"
             style="fill:#ffd21f;fill-opacity:1;fill-rule:nonzero;stroke:none"
             id="path5827"
             inkscape:connector-curvature="0" /></g><g
           id="g5829"
           transform="translate(344.4457,490.5834)"><path
             d="m 0,0 c 0,0 -6.553,-9.917 -31.138,-9.917 -24.585,0 -30.861,9.84 -30.861,9.84"
             style="fill:none;stroke:#403408;stroke-width:7;stroke-linecap:round;stroke-linejoin:miter;stroke-miterlimit:10;stroke-dasharray:none;stroke-opacity:1"
             id="path5831"
             inkscape:connector-curvature="0" /></g><g
           id="g5833"
           transform="translate(337.0512,529.0955)"><path
             d="m 0,0 c 3.469,1.382 6.728,-0.051 8.79,-2.891 2.152,2.771 5.456,4.098 8.879,2.603 4.299,-1.876 5.131,-6.388 3.255,-10.688 -1.353,-3.102 -7.254,-8.881 -10.437,-11.86 C 9.34,-23.909 7.554,-23.88 6.444,-22.77 3.359,-19.689 -2.35,-13.721 -3.602,-10.577 -5.337,-6.218 -4.358,-1.736 0,0"
             style="fill:#ff5a58;fill-opacity:1;fill-rule:nonzero;stroke:none"
             id="path5835"
             inkscape:connector-curvature="0" /></g><g
           id="g5837"
           transform="translate(272.3846,529.0955)"><path
             d="m 0,0 c 3.469,1.382 6.728,-0.051 8.79,-2.891 2.152,2.771 5.456,4.098 8.879,2.603 4.299,-1.876 5.131,-6.388 3.255,-10.688 -1.353,-3.102 -7.254,-8.881 -10.437,-11.86 C 9.34,-23.909 7.554,-23.88 6.444,-22.77 3.359,-19.689 -2.35,-13.721 -3.602,-10.577 -5.337,-6.218 -4.358,-1.736 0,0"
             style="fill:#ff5a58;fill-opacity:1;fill-rule:nonzero;stroke:none"
             id="path5839"
             inkscape:connector-curvature="0" /></g></g></g><text
       xml:space="preserve"
       style="font-style:normal;font-weight:normal;font-size:159.71353149px;line-height:1.25;font-family:sans-serif;letter-spacing:0px;word-spacing:0px;fill:#000000;fill-opacity:1;stroke:none;stroke-width:3.99283814"
       x="219.76627"
       y="-48.889839"
       id="text69"
       transform="scale(1.0256839,-0.9749592)"><tspan
         sodipodi:role="line"
         id="tspan67"
         x="219.76627"
         y="-48.889839"
         style="stroke-width:3.99283814">LOVE</tspan></text>
</g></svg>