<?xml version="1.0" encoding="UTF-8" standalone="no"?>
<svg
   xmlns:dc="http://purl.org/dc/elements/1.1/"
   xmlns:cc="http://creativecommons.org/ns#"
   xmlns:rdf="http://www.w3.org/1999/02/22-rdf-syntax-ns#"
   xmlns:svg="http://www.w3.org/2000/svg"
   xmlns="http://www.w3.org/2000/svg"
   xmlns:sodipodi="http://sodipodi.sourceforge.net/DTD/sodipodi-0.dtd"
   xmlns:inkscape="http://www.inkscape.org/namespaces/inkscape"
   height="512pt"
   viewBox="0 -19 512 512"
   width="512pt"
   version="1.1"
   id="svg44"
   sodipodi:docname="medicine.svg"
   inkscape:version="0.92.4 (5da689c313, 2019-01-14)">
  <metadata
     id="metadata50">
    <rdf:RDF>
      <cc:Work
         rdf:about="">
        <dc:format>image/svg+xml</dc:format>
        <dc:type
           rdf:resource="http://purl.org/dc/dcmitype/StillImage" />
      </cc:Work>
    </rdf:RDF>
  </metadata>
  <defs
     id="defs48" />
  <sodipodi:namedview
     pagecolor="#ffffff"
     bordercolor="#666666"
     borderopacity="1"
     objecttolerance="10"
     gridtolerance="10"
     guidetolerance="10"
     inkscape:pageopacity="0"
     inkscape:pageshadow="2"
     inkscape:window-width="1366"
     inkscape:window-height="745"
     id="namedview46"
     showgrid="false"
     inkscape:zoom="0.69140625"
     inkscape:cx="341.33333"
     inkscape:cy="341.33333"
     inkscape:window-x="-8"
     inkscape:window-y="-8"
     inkscape:window-maximized="1"
     inkscape:current-layer="svg44" />
  <ellipse
     style="fill:#d4ff2a;stroke-width:0.85999638"
     id="path52"
     cx="259.25421"
     cy="211.50851"
     rx="245.15254"
     ry="226.16949" />
  <path
     d="m 271.51523,362.13543 c 12.17207,0 22.38514,-7.17017 25.226,-16.85605 -17.05127,-12.67544 -27.83799,-31.38751 -27.83799,-52.26189 0,-21.19377 11.11933,-40.15452 28.62524,-52.83255 v -87.84312 c 0,-12.32464 -11.64722,-22.31419 -26.01325,-22.31419 H 99.141258 c -14.362991,0 -26.010206,9.98955 -26.010206,22.31419 v 187.47942 c 0,12.32464 11.647215,22.31419 26.010206,22.31419"
     id="path2"
     inkscape:connector-curvature="0"
     style="fill:#5b9ed6;stroke-width:0.72353375" />
  <path
     d="M 271.51523,130.02763 H 252.2456 c 14.36604,0 26.01325,9.98955 26.01325,22.31419 v 76.58654 c 0,3.48168 -1.45246,6.84295 -4.07363,9.50263 -7.92754,8.03405 -14.13716,17.35345 -18.14367,27.54457 -4.12245,8.3063 -6.40794,17.44243 -6.40794,27.03931 0,9.644 2.30381,18.82465 6.46287,27.16236 0.0274,0.0706 0.0549,0.14136 0.0824,0.21204 3.82038,9.58118 -4.34824,19.56287 -16.15414,19.56287 H 99.141258 c -14.362991,0 -26.010206,-9.99216 -26.010206,-22.31681 v 22.18591 c 0,12.32464 11.647215,22.31419 26.013246,22.31419 H 271.51523 c 8.4463,0 15.9497,-3.4555 20.70074,-8.80892 0.0275,-0.0315 0.0549,-0.0628 0.0855,-0.0969 0.18919,-0.21728 0.37838,-0.43978 0.56146,-0.66492 0.0489,-0.0602 0.0946,-0.12042 0.14343,-0.18064 0.15867,-0.19894 0.31734,-0.40314 0.4699,-0.60994 0.0549,-0.0759 0.11291,-0.15446 0.16784,-0.23037 0.13731,-0.19111 0.27158,-0.38481 0.40278,-0.58116 0.0611,-0.089 0.12206,-0.18062 0.18005,-0.26963 0.12204,-0.18587 0.24105,-0.37435 0.35395,-0.56282 0.061,-0.0995 0.12205,-0.20157 0.18308,-0.30367 0.10684,-0.18324 0.21055,-0.36649 0.31124,-0.55236 0.0579,-0.10994 0.11901,-0.21728 0.17395,-0.32461 0.0976,-0.18586 0.18918,-0.37171 0.28072,-0.55758 0.0548,-0.11258 0.10983,-0.22515 0.16172,-0.3377 0.0885,-0.19111 0.17089,-0.3822 0.25327,-0.57331 0.0489,-0.11257 0.0976,-0.22514 0.14342,-0.33769 0.0855,-0.20681 0.16172,-0.41623 0.238,-0.62565 0.0365,-0.0995 0.0763,-0.19896 0.1129,-0.29844 0.10684,-0.31152 0.2075,-0.62304 0.3021,-0.93979 -0.8788,-0.65445 -1.7393,-1.32722 -2.58454,-2.0131 -0.10074,-0.0811 -0.20139,-0.15968 -0.30209,-0.24344 -0.81167,-0.66493 -1.6081,-1.34556 -2.38621,-2.03928 -0.10984,-0.0969 -0.21665,-0.19372 -0.32344,-0.29059 -0.78421,-0.70418 -1.55012,-1.42146 -2.29772,-2.15707 -0.0732,-0.0733 -0.14951,-0.14658 -0.22275,-0.2199 -0.7781,-0.76961 -1.54096,-1.54973 -2.2794,-2.34815 -10.91793,-11.79584 -17.44488,-26.71996 -17.44488,-42.95036 0,-21.19376 11.12237,-40.15451 28.62523,-52.83255 v -87.84312 c 0.003,-12.32463 -11.64417,-22.31418 -26.01019,-22.31418 z m 0,0"
     id="path4"
     inkscape:connector-curvature="0"
     style="fill:#4c83b3;stroke-width:0.72353375" />
  <path
     d="M 123.85766,109.25535 H 246.8019 v 20.77228 H 123.85766 Z m 0,0"
     id="path6"
     inkscape:connector-curvature="0"
     style="fill:#5a67ad;stroke-width:0.72353375" />
  <path
     d="m 215.18626,109.25535 h 31.61564 v 20.77228 h -31.61564 z m 0,0"
     id="path8"
     inkscape:connector-curvature="0"
     style="fill:#48538a;stroke-width:0.72353375" />
  <path
     d="m 98.305168,79.394034 v 21.481716 c 0,4.62828 4.375712,8.3796 9.767552,8.3796 h 154.51105 c 5.39489,0 9.76756,-3.75132 9.76756,-8.3796 V 57.909701 c 0,-4.628282 -4.37267,-8.379604 -9.76756,-8.379604 H 108.07272 c -5.39489,0 -9.767552,3.753926 -9.767552,8.379604 z m 0,0"
     id="path10"
     inkscape:connector-curvature="0"
     style="fill:#5b9ed6;stroke-width:0.72353375" />
  <path
     d="m 228.50566,49.530097 v 59.725253 h 34.07811 c 5.39489,0 9.76756,-3.75132 9.76756,-8.3796 V 57.909701 c 0,-4.628282 -4.37267,-8.379604 -9.76756,-8.379604 z m 0,0"
     id="path12"
     inkscape:connector-curvature="0"
     style="fill:#4c83b3;stroke-width:0.72353375" />
  <path
     d="m 252.7979,246.08284 c 0,31.96603 -30.20587,57.88232 -67.46964,57.88232 -37.26074,0 -67.46967,-25.91629 -67.46967,-57.88232 0,-31.96865 30.20893,-57.88494 67.46967,-57.88494 37.26377,0 67.46964,25.91629 67.46964,57.88494 z m 0,0"
     id="path14"
     inkscape:connector-curvature="0"
     style="fill:#ef2d57;stroke-width:0.72353375" />
  <path
     d="m 223.56847,198.39951 c 7.49123,9.32461 11.88829,20.62306 11.88829,32.80371 0,31.96867 -30.20893,57.88232 -67.46966,57.88232 -14.20125,0 -27.36806,-3.76964 -38.24023,-10.19897 12.169,15.14401 32.51884,25.07859 55.58139,25.07859 37.26377,0 67.46964,-25.91629 67.46964,-57.88232 0,-19.78539 -11.57702,-37.24352 -29.22943,-47.68333 z m 0,0"
     id="path16"
     inkscape:connector-curvature="0"
     style="fill:#d9294f;stroke-width:0.72353375" />
  <path
     d="m 430.03889,293.01487 c 0,38.17547 -36.07068,69.12056 -80.56935,69.12056 -44.49561,0 -80.5663,-30.94509 -80.5663,-69.12056 0,-38.17285 36.07069,-69.11793 80.5663,-69.11793 44.49867,0 80.56935,30.94508 80.56935,69.11793 z m 0,0"
     id="path18"
     inkscape:connector-curvature="0"
     style="fill:#fcda55;stroke-width:0.72353375" />
  <path
     d="m 398.16998,237.95194 c 10.28021,11.60473 16.38607,26.0812 16.38607,41.78018 0,38.17547 -36.07069,69.12056 -80.56935,69.12056 -18.29928,0 -35.17357,-5.23824 -48.70046,-14.05762 14.71694,16.6126 37.98697,27.34037 64.18635,27.34037 44.49562,0 80.5663,-30.94509 80.5663,-69.12056 0,-22.47387 -12.50466,-42.43726 -31.86891,-55.06293 z m 0,0"
     id="path20"
     inkscape:connector-curvature="0"
     style="fill:#d9bc4a;stroke-width:0.72353375" />
  <path
     d="m 294.15059,342.59612 c 3.08496,2.29844 6.37742,4.40054 9.84687,6.28274 l 111.13837,-95.34837 c -2.19398,-2.97644 -4.64121,-5.80106 -7.32338,-8.44503 -0.49738,0.2356 -0.97035,0.53141 -1.3945,0.89528 l -111.22379,95.41904 c -0.42415,0.36388 -0.76895,0.76702 -1.04357,1.19634 z m 0,0"
     id="path22"
     inkscape:connector-curvature="0"
     style="fill:#d9bc4a;stroke-width:0.72353375" />
  <path
     d="m 399.92456,138.03026 c -28.80528,5.97908 -51.35824,26.27232 -51.35824,52.57864 v 33.29851 c 0.30209,-0.003 0.60113,-0.0108 0.90322,-0.0108 44.49867,0 80.56935,30.94508 80.56935,69.12057 0,18.8351 -8.785,35.90844 -23.02897,48.37443 1.26329,0.0681 2.53267,0.10995 3.81426,0.10995 34.38631,0 62.26091,-23.91367 62.26091,-53.41111 v -97.48181 c 0,-26.30634 -22.17458,-48.15454 -51.35823,-52.57865 0,0 -14.33856,-1.54971 -21.8023,0 z m 0,0"
     id="path24"
     inkscape:connector-curvature="0"
     style="fill:#f084ad;stroke-width:0.72353375" />
  <path
     d="m 421.72686,138.03026 c -7.81769,-0.91885 -15.08311,-0.91885 -21.8023,0 -0.21972,0.0342 -0.4394,0.0785 -0.65911,0.11257 28.85411,4.65446 50.69608,26.3587 50.69608,52.46607 v 97.48189 c 0,22.42412 -16.11449,41.61001 -38.94817,49.52627 -1.28158,1.30105 -2.61504,2.5602 -4.00344,3.77487 1.26329,0.0681 2.53267,0.10994 3.81732,0.10994 34.38325,0 62.25785,-23.91366 62.25785,-53.41108 V 190.6089 c 0,-26.30632 -22.17458,-48.15453 -51.35823,-52.57864 z m 0,0"
     id="path26"
     inkscape:connector-curvature="0"
     style="fill:#d47499;stroke-width:0.72353375" />
  <path
     d="m 400.24189,239.34983 c 18.17724,12.67283 29.797,32.00531 29.797,53.66504 0,18.83774 -8.785,35.91108 -23.02897,48.37706 1.26329,0.0654 2.53267,0.10994 3.81426,0.10994 34.38631,0 62.26091,-23.91366 62.26091,-53.41108 v -48.74096 z m 0,0"
     id="path28"
     inkscape:connector-curvature="0"
     style="fill:#ef2d57;stroke-width:0.72353375" />
  <path
     d="m 449.96153,288.09079 c 0,22.42412 -16.11449,41.6074 -38.94817,49.52627 -0.59501,0.60471 -1.20224,1.19634 -1.82168,1.78271 -0.10684,0.0995 -0.2136,0.19896 -0.31734,0.29843 -0.61334,0.57331 -1.23277,1.14138 -1.86442,1.69373 1.26329,0.0681 2.53267,0.10994 3.81426,0.10994 34.38631,0 62.26091,-23.91366 62.26091,-53.41108 v -48.74096 h -23.12356 z m 0,0"
     id="path30"
     inkscape:connector-curvature="0"
     style="fill:#cc264b;stroke-width:0.72353375" />
  <path
     d="M 216.33054,240.76869 H 191.5226 v -21.28275 c 0,-2.93456 -2.77372,-5.31417 -6.19434,-5.31417 -3.42064,0 -6.19132,2.37961 -6.19132,5.31417 v 21.28275 H 154.329 c -3.42063,0 -6.19435,2.37698 -6.19435,5.31153 0,2.93457 2.77372,5.31414 6.19435,5.31414 h 24.80794 v 21.28278 c 0,2.93455 2.77068,5.31415 6.19132,5.31415 3.42062,0 6.19434,-2.3796 6.19434,-5.31415 v -21.28278 h 24.80794 c 3.42064,0 6.19437,-2.37957 6.19437,-5.31414 0,-2.93455 -2.77373,-5.31153 -6.19437,-5.31153 z m 0,0"
     id="path32"
     inkscape:connector-curvature="0"
     style="fill:#ffffff;stroke-width:0.72353375" />
  <g
     id="g40"
     transform="matrix(0.78116021,0,0,0.67015841,73.131052,44.07981)"
     style="fill:#674297">
    <path
       d="m 86.835938,104.98047 c -4.378907,0 -7.929688,-3.55078 -7.929688,-7.929689 V 7.929688 C 78.90625,3.550781 82.457031,0 86.835938,0 c 4.378906,0 7.929687,3.550781 7.929687,7.929688 v 89.121093 c 0,4.378909 -3.550781,7.929689 -7.929687,7.929689 z m 0,0"
       id="path34"
       inkscape:connector-curvature="0" />
    <path
       d="m 143.75,104.98047 c -4.37891,0 -7.92969,-3.55078 -7.92969,-7.929689 V 7.929688 C 135.82031,3.550781 139.37109,0 143.75,0 c 4.37891,0 7.92578,3.550781 7.92578,7.929688 v 89.121093 c 0.004,4.378909 -3.54687,7.929689 -7.92578,7.929689 z m 0,0"
       id="path36"
       inkscape:connector-curvature="0" />
    <path
       d="m 200.66406,104.98047 c -4.3789,0 -7.92969,-3.55078 -7.92969,-7.929689 V 7.929688 C 192.73437,3.550781 196.28516,0 200.66406,0 c 4.37891,0 7.92578,3.550781 7.92578,7.929688 v 89.121093 c 0.004,4.378909 -3.54687,7.929689 -7.92578,7.929689 z m 0,0"
       id="path38"
       inkscape:connector-curvature="0" />
  </g>
  <path
     d="m 293.04597,346.6799 c -1.58368,0 -3.16737,-0.52095 -4.37877,-1.55761 -2.41671,-2.0759 -2.41671,-5.4398 0,-7.51569 l 111.22379,-95.41906 c 2.41976,-2.0733 6.34083,-2.07591 8.76059,0 2.41977,2.07592 2.41977,5.4398 0,7.51573 l -111.22379,95.41902 c -1.21141,1.03666 -2.79509,1.55761 -4.38182,1.55761 z m 0,0"
     id="path42"
     inkscape:connector-curvature="0"
     style="fill:#e69326;stroke-width:0.72353375" />
  <text
     xml:space="preserve"
     style="font-style:normal;font-weight:normal;font-size:69.55617523px;line-height:1.25;font-family:sans-serif;letter-spacing:0px;word-spacing:0px;fill:#000000;fill-opacity:1;stroke:none;stroke-width:1.73890436"
     x="97.880447"
     y="467.96265"
     id="text56"
     transform="scale(0.95031204,1.0522859)"><tspan
       sodipodi:role="line"
       id="tspan54"
       x="97.880447"
       y="467.96265"
       style="stroke-width:1.73890436">MEDICINE</tspan></text>
</svg>
