<?xml version="1.0" encoding="UTF-8" standalone="no"?>
<svg
   xmlns:dc="http://purl.org/dc/elements/1.1/"
   xmlns:cc="http://creativecommons.org/ns#"
   xmlns:rdf="http://www.w3.org/1999/02/22-rdf-syntax-ns#"
   xmlns:svg="http://www.w3.org/2000/svg"
   xmlns="http://www.w3.org/2000/svg"
   xmlns:sodipodi="http://sodipodi.sourceforge.net/DTD/sodipodi-0.dtd"
   xmlns:inkscape="http://www.inkscape.org/namespaces/inkscape"
   height="512pt"
   viewBox="-121 0 512 512"
   width="512pt"
   version="1.1"
   id="svg28"
   sodipodi:docname="milkshake.svg"
   inkscape:version="0.92.4 (5da689c313, 2019-01-14)">
  <metadata
     id="metadata34">
    <rdf:RDF>
      <cc:Work
         rdf:about="">
        <dc:format>image/svg+xml</dc:format>
        <dc:type
           rdf:resource="http://purl.org/dc/dcmitype/StillImage" />
      </cc:Work>
    </rdf:RDF>
  </metadata>
  <defs
     id="defs32" />
  <sodipodi:namedview
     pagecolor="#ffffff"
     bordercolor="#666666"
     borderopacity="1"
     objecttolerance="10"
     gridtolerance="10"
     guidetolerance="10"
     inkscape:pageopacity="0"
     inkscape:pageshadow="2"
     inkscape:window-width="1366"
     inkscape:window-height="745"
     id="namedview30"
     showgrid="false"
     inkscape:zoom="0.69140625"
     inkscape:cx="333.04717"
     inkscape:cy="341.33333"
     inkscape:window-x="-8"
     inkscape:window-y="-8"
     inkscape:window-maximized="1"
     inkscape:current-layer="svg28" />
  <ellipse
     style="fill:#c8ab37;stroke-width:0.84389675"
     id="path36"
     cx="147.47456"
     cy="224.54236"
     rx="218.57628"
     ry="215.8644" />
  <path
     d="m 132.38089,347.19879 h 30.76648 v 65.38362 h -30.76648 z m 0,0"
     id="path2"
     inkscape:connector-curvature="0"
     style="fill:#cb8252;stroke-width:0.83298278" />
  <path
     d="M 216.99042,419.37702 H 78.537838 c -4.248308,0 -7.693352,-3.04259 -7.693352,-6.79461 0,-3.74896 3.445044,-6.79156 7.693352,-6.79156 H 216.99042 c 4.24831,0 7.69335,3.0426 7.69335,6.79156 0,3.75202 -3.44504,6.79461 -7.69335,6.79461 z m 0,0"
     id="path4"
     inkscape:connector-curvature="0"
     style="fill:#805333;stroke-width:0.83298278" />
  <path
     d="m 247.7569,106.88597 c 0.21813,7.37866 -2.50327,14.5922 -7.68988,20.38078 l -1.30878,3.05788 c 0,0.13455 -0.0762,0.20182 -0.15234,0.33941 -6.69273,9.78217 -36.99871,30.56966 -90.84177,30.56966 -55.536147,0 -92.226708,-22.14824 -98.915975,-31.45337 -0.04156,-0.0367 -0.06924,-0.0856 -0.07963,-0.13761 l -0.997158,-2.37597 c -5.186606,-5.78858 -7.908016,-13.00212 -7.69335,-20.38078 0,-15.005038 13.776706,-27.172351 30.766473,-27.172351 0.335849,-0.01221 0.671698,0.01221 1.000621,0.06728 -0.647459,-2.241421 -0.983308,-4.547072 -1.000621,-6.861881 -0.03808,-9.776055 5.892928,-18.812092 15.521733,-23.640487 9.625343,-4.828395 21.449277,-4.696907 30.939587,0.342482 -0.21813,-1.28431 -0.32201,-2.577793 -0.30816,-3.874336 0,-15.005027 13.77326,-27.172338 30.76648,-27.172338 16.99323,0 30.76646,12.167311 30.76646,27.172338 0.0139,0.296615 -0.0138,0.593229 -0.0762,0.883728 2.53789,-0.574882 5.14852,-0.871497 7.76952,-0.883728 16.98976,0 30.76647,12.167307 30.76647,27.172341 -0.0139,2.314809 -0.34969,4.62046 -1.00062,6.861881 0.32893,-0.05507 0.66477,-0.0795 1.00062,-0.06728 16.99324,0 30.76647,12.167324 30.76647,27.172351 z m 0,0"
     id="path6"
     inkscape:connector-curvature="0"
     style="fill:#f3d55b;stroke-width:0.83298278" />
  <path
     d="m 101.61443,113.68057 c -4.248313,0 -7.693357,-3.04258 -7.693357,-6.7946 0,-15.005038 13.776707,-27.172351 30.766477,-27.172351 3.93323,0.0095 7.82492,0.688024 11.46038,2.002909 3.92978,1.42803 5.80636,5.397175 4.19292,8.867872 -1.61347,3.46763 -6.1076,5.12806 -10.03737,3.70003 -1.78312,-0.6452 -3.68741,-0.97852 -5.61593,-0.98464 -8.49662,0 -15.38325,6.08213 -15.38325,13.58618 0,3.75202 -3.44157,6.7946 -7.68987,6.7946 z m 0,0"
     id="path8"
     inkscape:connector-curvature="0"
     style="fill:#f9eab0;stroke-width:0.83298278" />
  <path
     d="m 178.53059,100.09441 c -4.2483,0 -7.68988,-3.04259 -7.68988,-6.79462 -0.10043,-6.742624 -5.78212,-12.39971 -13.35083,-13.289555 -7.56871,-0.89291 -14.72886,3.253576 -16.82703,9.736301 -0.6821,2.366794 -2.75259,4.225994 -5.41859,4.871204 -2.666,0.64521 -5.52245,-0.0244 -7.47522,-1.75217 -1.95278,-1.727698 -2.70756,-4.247396 -1.97355,-6.601955 4.08212,-13.075518 18.4578,-21.490813 33.68524,-19.717238 15.22397,1.773575 26.63935,13.191701 26.74322,26.753413 0,3.75203 -3.44504,6.79462 -7.69336,6.79462 z m 0,0"
     id="path10"
     inkscape:connector-curvature="0"
     style="fill:#f9eab0;stroke-width:0.83298278" />
  <path
     d="m 201.60719,127.26675 c -4.24831,0 -7.69335,-3.04259 -7.69335,-6.79461 0,-7.501 -6.88662,-13.58617 -15.38325,-13.58617 -8.49661,0 -15.38322,6.08517 -15.38322,13.58617 0,3.75202 -3.44505,6.79461 -7.6899,6.79461 -4.2483,0 -7.69334,-3.04259 -7.69334,-6.79461 0,-15.00503 13.77323,-27.17235 30.76646,-27.17235 16.99324,0 30.76648,12.16732 30.76648,27.17235 0,1.80415 -0.81018,3.53185 -2.25052,4.80392 -1.44381,1.27514 -3.40004,1.99069 -5.43936,1.99069 z m 0,0"
     id="path12"
     inkscape:connector-curvature="0"
     style="fill:#f9eab0;stroke-width:0.83298278" />
  <path
     d="m 238.6059,130.66404 c -6.15607,14.4699 -29.30883,72.6186 -29.30883,125.6759 0,44.08548 0,88.17402 -23.07312,109.37125 -4.35911,3.97526 -9.59418,7.11876 -15.38324,9.23787 -4.90962,1.77663 -10.09969,2.87442 -15.38324,3.2597 -5.11043,0.5443 -10.27627,0.5443 -15.3867,0 -5.26968,-0.38836 -10.44937,-1.44332 -15.38322,-3.12516 -5.66442,-1.89588 -10.87871,-4.70607 -15.38325,-8.28685 -26.611638,-20.5826 -30.766462,-65.55488 -30.766462,-110.45681 0,-54.21013 -24.15338,-113.71957 -29.689683,-126.55961 3.76704,5.2993 17.152499,14.67172 38.151674,21.80575 l 0.692471,0.20488 c 4.307168,1.42498 8.922486,2.78572 13.84249,4.00583 l 0.6163,0.1376 c 12.3779,2.97838 25.10206,4.68774 37.91968,5.09443 h 0.0797 c 2.46173,0.13761 4.99964,0.20488 7.61372,0.20488 2.30592,0 4.53914,-0.0673 6.7689,-0.13761 h 0.92444 c 12.87996,-0.41586 25.65259,-2.2873 37.99587,-5.5684 4.90616,-1.2782 9.7119,-2.84689 14.38262,-4.68773 l 0.1558,-0.0673 c 12.08362,-4.11898 22.67149,-11.07259 30.61414,-20.10865 z m 0,0"
     id="path14"
     inkscape:connector-curvature="0"
     style="fill:#e4c05c;stroke-width:0.83298278" />
  <g
     id="g26"
     transform="matrix(0.88636253,0,0,0.78281775,24.694776,18.574329)"
     style="fill:#b19046">
    <path
       d="m 147.52734,182.0625 v 277.34766 c -5.76562,0.69531 -11.59375,0.69531 -17.35937,0 v -277.4336 h 0.0898 l 16.22656,0.0859 z m 0,0"
       id="path16"
       inkscape:connector-curvature="0" />
    <path
       d="m 112.8125,328.11328 v 127.30469 c -6.39062,-2.42188 -12.27344,-6.01172 -17.355469,-10.58594 V 328.11328 c 0.0039,-21.38281 -2.265625,-42.70703 -6.769531,-63.60937 l -19.089844,-89.1211 c -0.390625,-1.85156 -0.144531,-3.77734 0.695313,-5.46875 l 0.78125,0.26172 15.617187,5.11719 0.695313,0.17578 18.312501,85.39062 c 4.70703,22.10938 7.09375,44.64844 7.11328,67.25391 z m 0,0"
       id="path18"
       inkscape:connector-curvature="0" />
    <path
       d="m 208.09766,175.38281 -19.08985,89.1211 c -4.5039,20.90234 -6.77344,42.22656 -6.76953,63.60937 v 115.33203 c -4.91797,5.07813 -10.82422,9.09375 -17.35547,11.80078 V 328.11328 c 0.0195,-22.60547 2.40625,-45.14453 7.11328,-67.2539 l 18.39844,-85.91016 16.22656,-5.98828 0.17578,-0.0859 c 1.29297,1.90234 1.76172,4.25 1.30079,6.50781 z m 0,0"
       id="path20"
       inkscape:connector-curvature="0" />
    <path
       d="m 34.710938,151.86328 c 0,9.58594 -7.769532,17.35547 -17.355469,17.35547 C 7.769531,169.21875 0,161.44922 0,151.86328 c 0,-9.58594 7.769531,-17.35547 17.355469,-17.35547 9.585937,0 17.355469,7.76953 17.355469,17.35547 z m 0,0"
       id="path22"
       inkscape:connector-curvature="0" />
    <path
       d="m 269.01562,151.86328 c 0,9.58594 -7.76953,17.35547 -17.35546,17.35547 -9.58594,0 -17.35547,-7.76953 -17.35547,-17.35547 0,-9.58594 7.76953,-17.35547 17.35547,-17.35547 9.58593,0 17.35546,7.76953 17.35546,17.35547 z m 0,0"
       id="path24"
       inkscape:connector-curvature="0" />
  </g>
  <text
     xml:space="preserve"
     style="font-style:normal;font-weight:normal;font-size:77.2382431px;line-height:1.25;font-family:sans-serif;letter-spacing:0px;word-spacing:0px;fill:#000000;fill-opacity:1;stroke:none;stroke-width:1.93095601"
     x="-39.287601"
     y="416.50192"
     id="text40"
     transform="scale(0.81483967,1.2272353)"><tspan
       sodipodi:role="line"
       id="tspan38"
       x="-39.287601"
       y="416.50192"
       style="stroke-width:1.93095601">MILK SHAKE</tspan></text>
</svg>
