<?xml version="1.0" encoding="UTF-8" standalone="no"?>
<!-- Generator: Adobe Illustrator 18.0.0, SVG Export Plug-In . SVG Version: 6.00 Build 0)  -->

<svg
   xmlns:dc="http://purl.org/dc/elements/1.1/"
   xmlns:cc="http://creativecommons.org/ns#"
   xmlns:rdf="http://www.w3.org/1999/02/22-rdf-syntax-ns#"
   xmlns:svg="http://www.w3.org/2000/svg"
   xmlns="http://www.w3.org/2000/svg"
   xmlns:sodipodi="http://sodipodi.sourceforge.net/DTD/sodipodi-0.dtd"
   xmlns:inkscape="http://www.inkscape.org/namespaces/inkscape"
   version="1.1"
   id="Capa_1"
   x="0px"
   y="0px"
   viewBox="0 0 51.529 51.529"
   style="enable-background:new 0 0 51.529 51.529;"
   xml:space="preserve"
   sodipodi:docname="orange.svg"
   inkscape:version="0.92.4 (5da689c313, 2019-01-14)"><metadata
   id="metadata71"><rdf:RDF><cc:Work
       rdf:about=""><dc:format>image/svg+xml</dc:format><dc:type
         rdf:resource="http://purl.org/dc/dcmitype/StillImage" /></cc:Work></rdf:RDF></metadata><defs
   id="defs69" /><sodipodi:namedview
   pagecolor="#ffffff"
   bordercolor="#666666"
   borderopacity="1"
   objecttolerance="10"
   gridtolerance="10"
   guidetolerance="10"
   inkscape:pageopacity="0"
   inkscape:pageshadow="2"
   inkscape:window-width="1366"
   inkscape:window-height="745"
   id="namedview67"
   showgrid="false"
   inkscape:zoom="9.1598907"
   inkscape:cx="23.477191"
   inkscape:cy="22.114839"
   inkscape:window-x="-8"
   inkscape:window-y="-8"
   inkscape:window-maximized="1"
   inkscape:current-layer="Capa_1" />
<ellipse
   style="fill:#5fd35f;stroke-width:1.26783454"
   id="path73"
   cx="26.042496"
   cy="21.916365"
   rx="21.254789"
   ry="21.370508" /><g
   id="g34"
   transform="matrix(0.61161642,0,0,0.59495353,10.284778,7.0330441)">
	<path
   style="fill:#ed8f20"
   d="M 36.486,12.899 31.397,12.48 33.281,7.734 C 33.589,6.959 33.977,6.235 34.42,5.557 31.465,4.257 28.201,3.53 24.765,3.53 c -13.255,0 -24,10.745 -24,24 0,13.255 10.745,24 24,24 13.255,0 24,-10.745 24,-24 0,-6.059 -2.25,-11.59 -5.954,-15.813 -1.922,0.926 -4.092,1.366 -6.325,1.182 z"
   id="path2"
   inkscape:connector-curvature="0" />
	<circle
   style="fill:#ef771d"
   cx="38.536999"
   cy="18.496"
   r="2"
   id="circle4" />
	<circle
   style="fill:#ef771d"
   cx="43.856998"
   cy="29.650999"
   r="2"
   id="circle6" />
	<circle
   style="fill:#ef771d"
   cx="43.536999"
   cy="23.496"
   r="2"
   id="circle8" />
	<circle
   style="fill:#ef771d"
   cx="37.493"
   cy="27.528999"
   r="2"
   id="circle10" />
	<circle
   style="fill:#ef771d"
   cx="38.536999"
   cy="34.495998"
   r="2"
   id="circle12" />
	<circle
   style="fill:#ef771d"
   cx="20.537001"
   cy="10.496"
   r="2"
   id="circle14" />
	<circle
   style="fill:#ef771d"
   cx="13.537"
   cy="13.496"
   r="2"
   id="circle16" />
	<g
   id="g22">
		<path
   style="fill:#ed8f20"
   d="m 27.765,11.529 c 0,0 4.25,0.7 5.4,3.6"
   id="path18"
   inkscape:connector-curvature="0" />
		<path
   style="fill:#9b6026"
   d="m 33.165,16.13 c -0.397,0 -0.773,-0.239 -0.93,-0.632 -0.925,-2.331 -4.599,-2.976 -4.635,-2.982 -0.544,-0.092 -0.912,-0.606 -0.821,-1.151 0.09,-0.543 0.603,-0.912 1.147,-0.822 0.197,0.032 4.824,0.831 6.168,4.218 0.203,0.513 -0.048,1.095 -0.561,1.298 -0.12,0.048 -0.245,0.071 -0.368,0.071 z"
   id="path20"
   inkscape:connector-curvature="0" />
	</g>
	<g
   id="g28">
		<path
   style="fill:#ed8f20"
   d="m 28.365,14.529 c 1.037,-1.14 2.345,-2.025 3.787,-2.567"
   id="path24"
   inkscape:connector-curvature="0" />
		<path
   style="fill:#9b6026"
   d="m 28.364,15.529 c -0.24,0 -0.481,-0.086 -0.673,-0.26 -0.408,-0.372 -0.438,-1.004 -0.066,-1.413 1.142,-1.255 2.585,-2.233 4.176,-2.831 0.517,-0.192 1.093,0.067 1.288,0.584 0.193,0.517 -0.068,1.094 -0.585,1.288 -1.295,0.486 -2.471,1.283 -3.4,2.304 -0.198,0.218 -0.468,0.328 -0.74,0.328 z"
   id="path26"
   inkscape:connector-curvature="0" />
	</g>
	<path
   style="fill:#659c35"
   d="M 50.765,0.46 45.676,0.041 C 40.301,-0.401 35.27,2.722 33.281,7.734 l -1.884,4.746 5.089,0.419 c 5.374,0.442 10.406,-2.681 12.395,-7.693 z"
   id="path30"
   inkscape:connector-curvature="0" />
	<path
   style="fill:#88c057"
   d="m 31.958,11.068 -0.561,1.413 0.718,0.059 C 38.373,6.429 45.174,4.423 45.918,4.376 L 45.953,3.817 46.366,4.23 46.524,3.637 46.08,3.212 C 45.482,3.08 38.497,5.009 31.958,11.068 Z"
   id="path32"
   inkscape:connector-curvature="0" />
</g>
<g
   id="g36">
</g>
<g
   id="g38">
</g>
<g
   id="g40">
</g>
<g
   id="g42">
</g>
<g
   id="g44">
</g>
<g
   id="g46">
</g>
<g
   id="g48">
</g>
<g
   id="g50">
</g>
<g
   id="g52">
</g>
<g
   id="g54">
</g>
<g
   id="g56">
</g>
<g
   id="g58">
</g>
<g
   id="g60">
</g>
<g
   id="g62">
</g>
<g
   id="g64">
</g>
<text
   xml:space="preserve"
   style="font-style:normal;font-weight:normal;font-size:9.4569397px;line-height:1.25;font-family:sans-serif;letter-spacing:0px;word-spacing:0px;fill:#000000;fill-opacity:1;stroke:none;stroke-width:0.23642348"
   x="2.8173275"
   y="51.065338"
   id="text77"
   transform="scale(0.99685067,1.0031593)"><tspan
     sodipodi:role="line"
     id="tspan75"
     x="2.8173275"
     y="51.065338"
     style="stroke-width:0.23642348">ORANGES</tspan></text>
</svg>