<?xml version="1.0" encoding="UTF-8" standalone="no"?>
<!-- Generator: Adobe Illustrator 18.1.1, SVG Export Plug-In . SVG Version: 6.00 Build 0)  -->

<svg
   xmlns:dc="http://purl.org/dc/elements/1.1/"
   xmlns:cc="http://creativecommons.org/ns#"
   xmlns:rdf="http://www.w3.org/1999/02/22-rdf-syntax-ns#"
   xmlns:svg="http://www.w3.org/2000/svg"
   xmlns="http://www.w3.org/2000/svg"
   xmlns:sodipodi="http://sodipodi.sourceforge.net/DTD/sodipodi-0.dtd"
   xmlns:inkscape="http://www.inkscape.org/namespaces/inkscape"
   version="1.1"
   id="Capa_1"
   x="0px"
   y="0px"
   viewBox="0 0 58.329 58.329"
   style="enable-background:new 0 0 58.329 58.329;"
   xml:space="preserve"
   sodipodi:docname="pain.svg"
   inkscape:version="0.92.4 (5da689c313, 2019-01-14)"><metadata
   id="metadata49"><rdf:RDF><cc:Work
       rdf:about=""><dc:format>image/svg+xml</dc:format><dc:type
         rdf:resource="http://purl.org/dc/dcmitype/StillImage" /></cc:Work></rdf:RDF></metadata><defs
   id="defs47" /><sodipodi:namedview
   pagecolor="#ffffff"
   bordercolor="#666666"
   borderopacity="1"
   objecttolerance="10"
   gridtolerance="10"
   guidetolerance="10"
   inkscape:pageopacity="0"
   inkscape:pageshadow="2"
   inkscape:window-width="1366"
   inkscape:window-height="745"
   id="namedview45"
   showgrid="false"
   inkscape:zoom="8.0920299"
   inkscape:cx="56.439304"
   inkscape:cy="30.067882"
   inkscape:window-x="-8"
   inkscape:window-y="-8"
   inkscape:window-maximized="1"
   inkscape:current-layer="Capa_1" />
<ellipse
   style="fill:#d40000;stroke-width:1.13484085"
   id="path51"
   cx="30.523861"
   cy="23.597818"
   rx="21.749798"
   ry="21.373405" /><g
   id="g12"
   transform="matrix(0.67162711,0,0,0.63514216,9.2224916,4.6855915)">
	<g
   id="g10">
		<circle
   style="fill:#010002"
   cx="24.752001"
   cy="5.8759999"
   r="5.8759999"
   id="circle2" />
		<path
   style="fill:#010002"
   d="M 49.479,27.865 C 48.926,24.28 48.315,21.262 45.85,18.47 42.604,14.79 37.282,13.033 32.702,11.773 l -0.021,-0.028 c -3.27,-0.849 -7.549,1.283 -7.64,1.386 -0.102,0.034 -1.144,0.507 -1.791,1.513 -0.191,0.142 -0.375,0.315 -0.551,0.533 -5.661,7.056 -4.388,15.234 -0.448,22.833 0.669,1.289 1.835,1.616 2.905,1.351 -1.046,4.805 -2.02,10.516 -1.838,14.556 0.227,5.062 8.115,5.086 7.887,0 -0.285,-6.361 0.524,-12.46 2.59,-18.39 0.37,0.166 0.757,0.301 1.152,0.396 0.36,6.651 1.391,13.228 3.327,19.642 1.468,4.854 9.08,2.782 7.604,-2.099 C 43.664,46.139 42.726,38.737 42.674,31.094 42.67,30.511 42.31,28.81 42.228,28.44 41.824,26.589 41.249,24.819 40.53,23.122 l -2.148,-3.114 c 1.019,0.559 1.988,1.201 2.869,1.98 2.158,1.91 2.286,4.731 2.699,7.406 0.563,3.642 6.089,2.088 5.529,-1.529 z M 26.51,33.689 c -1.811,-3.918 -2.87,-8.312 -1.118,-12.213 0.25,0.295 0.482,0.599 0.717,0.901 1.291,2.209 1.338,7.863 1.338,7.863 0,0 -0.393,1.346 -0.937,3.449 z"
   id="path4"
   inkscape:connector-curvature="0" />
		<path
   style="fill:#010002"
   d="m 20.083,41.463 c -0.041,-0.008 -0.078,-0.007 -0.116,0.002 -0.091,0.022 -0.165,0.097 -0.188,0.192 -0.171,0.781 -0.465,1.604 -0.862,2.406 -0.042,-0.135 -0.083,-0.269 -0.116,-0.396 -0.025,-0.104 -0.111,-0.18 -0.217,-0.189 -0.104,-0.014 -0.205,0.039 -0.255,0.131 -0.562,1.045 -1.336,2.4 -2.326,3.631 -0.09,0.109 -0.072,0.271 0.038,0.359 0.11,0.09 0.271,0.07 0.36,-0.039 0.852,-1.059 1.544,-2.201 2.085,-3.172 0.043,0.141 0.085,0.277 0.119,0.41 0.027,0.102 0.111,0.178 0.216,0.188 0.102,0.016 0.204,-0.035 0.256,-0.127 0.567,-1.019 0.982,-2.086 1.203,-3.096 0.029,-0.135 -0.058,-0.271 -0.197,-0.3 z"
   id="path6"
   inkscape:connector-curvature="0" />
		<path
   style="fill:#010002"
   d="m 21.048,37.601 c -0.157,-0.062 -0.341,-0.037 -0.478,0.084 -1.075,0.959 -2.376,1.844 -3.804,2.594 0.08,-0.239 0.161,-0.479 0.249,-0.698 0.071,-0.179 0.025,-0.377 -0.113,-0.509 -0.139,-0.129 -0.342,-0.159 -0.514,-0.076 -1.928,0.926 -4.492,2.085 -7.237,2.826 -0.245,0.064 -0.392,0.318 -0.325,0.563 0.067,0.246 0.321,0.392 0.566,0.324 2.362,-0.64 4.584,-1.573 6.398,-2.415 -0.083,0.249 -0.167,0.495 -0.258,0.727 -0.07,0.174 -0.026,0.375 0.112,0.504 0.135,0.129 0.336,0.164 0.508,0.084 1.903,-0.881 3.643,-2 5.03,-3.236 0.19,-0.168 0.207,-0.46 0.039,-0.65 -0.05,-0.058 -0.109,-0.098 -0.173,-0.122 z"
   id="path8"
   inkscape:connector-curvature="0" />
	</g>
</g>
<g
   id="g14">
</g>
<g
   id="g16">
</g>
<g
   id="g18">
</g>
<g
   id="g20">
</g>
<g
   id="g22">
</g>
<g
   id="g24">
</g>
<g
   id="g26">
</g>
<g
   id="g28">
</g>
<g
   id="g30">
</g>
<g
   id="g32">
</g>
<g
   id="g34">
</g>
<g
   id="g36">
</g>
<g
   id="g38">
</g>
<g
   id="g40">
</g>
<g
   id="g42">
</g>
<text
   xml:space="preserve"
   style="font-style:normal;font-weight:normal;font-size:12.55822182px;line-height:1.25;font-family:sans-serif;letter-spacing:0px;word-spacing:0px;fill:#000000;fill-opacity:1;stroke:none;stroke-width:0.31395549"
   x="9.9733124"
   y="66.678879"
   id="text55"
   transform="scale(1.257733,0.79508131)"><tspan
     sodipodi:role="line"
     id="tspan53"
     x="9.9733124"
     y="66.678879"
     style="stroke-width:0.31395549">PAIN</tspan></text>
</svg>