<?xml version="1.0" encoding="UTF-8" standalone="no"?>
<!-- Generator: Adobe Illustrator 18.0.0, SVG Export Plug-In . SVG Version: 6.00 Build 0)  -->

<svg
   xmlns:dc="http://purl.org/dc/elements/1.1/"
   xmlns:cc="http://creativecommons.org/ns#"
   xmlns:rdf="http://www.w3.org/1999/02/22-rdf-syntax-ns#"
   xmlns:svg="http://www.w3.org/2000/svg"
   xmlns="http://www.w3.org/2000/svg"
   xmlns:sodipodi="http://sodipodi.sourceforge.net/DTD/sodipodi-0.dtd"
   xmlns:inkscape="http://www.inkscape.org/namespaces/inkscape"
   version="1.1"
   id="Capa_1"
   x="0px"
   y="0px"
   viewBox="0 0 57.06 57.06"
   style="enable-background:new 0 0 57.06 57.06;"
   xml:space="preserve"
   sodipodi:docname="pineapple.svg"
   inkscape:version="0.92.4 (5da689c313, 2019-01-14)"><metadata
   id="metadata89"><rdf:RDF><cc:Work
       rdf:about=""><dc:format>image/svg+xml</dc:format><dc:type
         rdf:resource="http://purl.org/dc/dcmitype/StillImage" /></cc:Work></rdf:RDF></metadata><defs
   id="defs87" /><sodipodi:namedview
   pagecolor="#ffffff"
   bordercolor="#666666"
   borderopacity="1"
   objecttolerance="10"
   gridtolerance="10"
   guidetolerance="10"
   inkscape:pageopacity="0"
   inkscape:pageshadow="2"
   inkscape:window-width="1366"
   inkscape:window-height="745"
   id="namedview85"
   showgrid="false"
   inkscape:zoom="8.2719942"
   inkscape:cx="29.420475"
   inkscape:cy="28.530001"
   inkscape:window-x="-8"
   inkscape:window-y="-8"
   inkscape:window-maximized="1"
   inkscape:current-layer="Capa_1" />
<ellipse
   style="fill:#abc837;stroke-width:1.42223525"
   id="path91"
   cx="30.434801"
   cy="24.309801"
   rx="22.912386"
   ry="23.94713" /><g
   id="g52"
   transform="matrix(0.82331776,0,0,0.74806912,6.7807125,3.8916039)">
	<path
   style="fill:#d6a550"
   d="m 28.758,19.06 c 16.058,0 15.944,8.507 15.944,19 0,10.493 -7.139,19 -15.944,19 h -0.456 c -8.806,0 -15.944,-8.507 -15.944,-19 0,-10.493 -0.114,-19 15.944,-19"
   id="path2"
   inkscape:connector-curvature="0" />
	<g
   id="g6">
		<path
   style="fill:#88c057"
   d="m 32.51,13.389 c 0.515,-0.644 1.095,-1.246 1.728,-1.77 0.791,-4.56 6.234,-8.278 10.119,-9.28 0,0 -3.318,-2.76 -7.433,-2.284 -4.264,0.493 -6.688,2.584 -8.055,5.056 2.881,2.25 3.56,5.793 3.641,8.278 z"
   id="path4"
   inkscape:connector-curvature="0" />
	</g>
	<path
   style="fill:#659c35"
   d="M 23.255,19.411 C 24.731,19.183 26.4,19.06 28.303,19.06 h 0.056 c 0,0 0.167,-5.042 -5,-6 -5.167,-0.958 -6,2 -6,2 4.466,1.071 5.604,3.261 5.896,4.351 z"
   id="path8"
   inkscape:connector-curvature="0" />
	<path
   style="fill:#659c35"
   d="m 34.612,19.553 c 0.819,-1.552 4.68,-5.279 9.746,-6.493 0,0 -1.833,-3.958 -7,-3 -5.167,0.958 -7.999,9 -7.999,9 0,0 0.028,0.005 0.069,0.011 1.971,0.031 3.689,0.196 5.184,0.482 z"
   id="path10"
   inkscape:connector-curvature="0" />
	<path
   style="fill:#a4e869"
   d="m 25.988,14.156 c 2.26,1.652 2.367,4.399 2.37,4.838 0.335,0.016 0.679,0.014 1.025,0 0.145,-0.395 1.021,-2.682 2.565,-4.859 0.059,-0.115 0.119,-0.204 0.181,-0.242 0.074,-0.101 0.152,-0.201 0.228,-0.301 0.052,-0.067 0.1,-0.136 0.154,-0.203 C 32.392,9.763 31.005,3.882 23.358,3.06 c -3.875,-0.417 -7,2 -7,2 3.951,0.947 9.625,4.667 9.63,9.096 z"
   id="path12"
   inkscape:connector-curvature="0" />
	<g
   id="g50">
		<polygon
   style="fill:#f4c44e"
   points="21.358,47.474 23.651,49.767 25.065,48.353 21.358,44.646 17.651,48.353 19.065,49.767 "
   id="polygon14" />
		<polygon
   style="fill:#f4c44e"
   points="30.651,54.767 32.065,53.353 28.358,49.646 24.651,53.353 26.065,54.767 28.358,52.474 "
   id="polygon16" />
		<polygon
   style="fill:#f4c44e"
   points="37.651,49.767 39.065,48.353 35.358,44.646 31.651,48.353 33.065,49.767 35.358,47.474 "
   id="polygon18" />
		<polygon
   style="fill:#f4c44e"
   points="25.065,40.353 21.358,36.646 17.651,40.353 19.065,41.767 21.358,39.474 23.651,41.767 "
   id="polygon20" />
		<polygon
   style="fill:#f4c44e"
   points="28.358,40.646 24.651,44.353 26.065,45.767 28.358,43.474 30.651,45.767 32.065,44.353 "
   id="polygon22" />
		<polygon
   style="fill:#f4c44e"
   points="14.498,43.474 16.791,45.767 18.205,44.353 14.498,40.646 12.791,42.353 14.205,43.767 "
   id="polygon24" />
		<polygon
   style="fill:#f4c44e"
   points="35.358,36.646 31.651,40.353 33.065,41.767 35.358,39.474 37.651,41.767 39.065,40.353 "
   id="polygon26" />
		<polygon
   style="fill:#f4c44e"
   points="23.651,33.767 25.065,32.353 21.358,28.646 17.651,32.353 19.065,33.767 21.358,31.474 "
   id="polygon28" />
		<polygon
   style="fill:#f4c44e"
   points="28.358,32.646 24.651,36.353 26.065,37.767 28.358,35.474 30.651,37.767 32.065,36.353 "
   id="polygon30" />
		<polygon
   style="fill:#f4c44e"
   points="35.358,31.474 37.651,33.767 39.065,32.353 35.358,28.646 31.651,32.353 33.065,33.767 "
   id="polygon32" />
		<polygon
   style="fill:#f4c44e"
   points="21.358,20.646 17.651,24.353 19.065,25.767 21.358,23.474 23.651,25.767 25.065,24.353 "
   id="polygon34" />
		<polygon
   style="fill:#f4c44e"
   points="32.065,28.353 28.358,24.646 24.651,28.353 26.065,29.767 28.358,27.474 30.651,29.767 "
   id="polygon36" />
		<polygon
   style="fill:#f4c44e"
   points="35.358,20.646 31.651,24.353 33.065,25.767 35.358,23.474 37.651,25.767 39.065,24.353 "
   id="polygon38" />
		<path
   style="fill:#f4c44e"
   d="m 43.212,25.538 -0.699,-1.048 -3.862,3.863 1.414,1.414 2.138,-2.137 1.323,1.985 0.732,-0.488 c -0.22,-1.294 -0.553,-2.496 -1.046,-3.589 z"
   id="path40"
   inkscape:connector-curvature="0" />
		<path
   style="fill:#f4c44e"
   d="m 42.16,40.843 -3.51,3.51 1.414,1.414 2.49,-2.49 1.355,0.678 c 0.18,-0.656 0.336,-1.323 0.456,-2.008 z"
   id="path42"
   inkscape:connector-curvature="0" />
		<path
   style="fill:#f4c44e"
   d="m 14.23,24.774 c -0.383,0.693 -0.688,1.438 -0.93,2.228 l 0.765,0.765 0.293,-0.293 2.293,2.293 1.414,-1.414 -3.707,-3.707 z"
   id="path44"
   inkscape:connector-curvature="0" />
		<path
   style="fill:#f4c44e"
   d="m 44.689,34.977 -2.331,-2.331 -3.707,3.707 1.414,1.414 2.293,-2.293 1.293,1.293 1.046,-1.046 c -0.002,-0.249 -0.005,-0.498 -0.008,-0.744 z"
   id="path46"
   inkscape:connector-curvature="0" />
		<path
   style="fill:#f4c44e"
   d="m 12.378,34.626 c -0.008,0.474 -0.014,0.952 -0.017,1.437 l 0.704,0.704 1.293,-1.293 2.293,2.293 1.414,-1.414 -3.707,-3.707 z"
   id="path48"
   inkscape:connector-curvature="0" />
	</g>
</g>
<g
   id="g54">
</g>
<g
   id="g56">
</g>
<g
   id="g58">
</g>
<g
   id="g60">
</g>
<g
   id="g62">
</g>
<g
   id="g64">
</g>
<g
   id="g66">
</g>
<g
   id="g68">
</g>
<g
   id="g70">
</g>
<g
   id="g72">
</g>
<g
   id="g74">
</g>
<g
   id="g76">
</g>
<g
   id="g78">
</g>
<g
   id="g80">
</g>
<g
   id="g82">
</g>
<text
   xml:space="preserve"
   style="font-style:normal;font-weight:normal;font-size:9.8573513px;line-height:1.25;font-family:sans-serif;letter-spacing:0px;word-spacing:0px;fill:#000000;fill-opacity:1;stroke:none;stroke-width:0.24643378"
   x="4.6041365"
   y="54.67643"
   id="text95"
   transform="scale(0.96230438,1.0391722)"><tspan
     sodipodi:role="line"
     id="tspan93"
     x="4.6041365"
     y="54.67643"
     style="stroke-width:0.24643378">PINEAPPLE</tspan></text>
</svg>