<?xml version="1.0" encoding="UTF-8" standalone="no"?>
<svg
   xmlns:dc="http://purl.org/dc/elements/1.1/"
   xmlns:cc="http://creativecommons.org/ns#"
   xmlns:rdf="http://www.w3.org/1999/02/22-rdf-syntax-ns#"
   xmlns:svg="http://www.w3.org/2000/svg"
   xmlns="http://www.w3.org/2000/svg"
   xmlns:sodipodi="http://sodipodi.sourceforge.net/DTD/sodipodi-0.dtd"
   xmlns:inkscape="http://www.inkscape.org/namespaces/inkscape"
   height="480pt"
   viewBox="0 -47 480 479"
   width="480pt"
   version="1.1"
   id="svg18"
   sodipodi:docname="rice1.svg"
   inkscape:version="0.92.4 (5da689c313, 2019-01-14)">
  <metadata
     id="metadata24">
    <rdf:RDF>
      <cc:Work
         rdf:about="">
        <dc:format>image/svg+xml</dc:format>
        <dc:type
           rdf:resource="http://purl.org/dc/dcmitype/StillImage" />
      </cc:Work>
    </rdf:RDF>
  </metadata>
  <defs
     id="defs22" />
  <sodipodi:namedview
     pagecolor="#ffffff"
     bordercolor="#666666"
     borderopacity="1"
     objecttolerance="10"
     gridtolerance="10"
     guidetolerance="10"
     inkscape:pageopacity="0"
     inkscape:pageshadow="2"
     inkscape:window-width="1366"
     inkscape:window-height="745"
     id="namedview20"
     showgrid="false"
     inkscape:zoom="0.36875"
     inkscape:cx="-371.52542"
     inkscape:cy="320"
     inkscape:window-x="-8"
     inkscape:window-y="-8"
     inkscape:window-maximized="1"
     inkscape:current-layer="svg18" />
  <ellipse
     style="fill:#d4aa00;stroke-width:0.68404704"
     id="path26"
     cx="250.16948"
     cy="149.78812"
     rx="199.32204"
     ry="191.18646" />
  <path
     d="m 403.05262,213.27714 -4.59059,11.03262 -16.93307,40.65587 c -0.87159,2.09825 -2.98472,3.47732 -5.33886,3.47463 H 119.9746 c -2.35416,0.003 -4.46728,-1.37638 -5.33888,-3.47463 L 97.702668,224.30976 93.112077,213.27714 Z m 0,0"
     id="path2"
     inkscape:connector-curvature="0"
     style="fill:#78b9eb;stroke-width:0.70335847" />
  <path
     d="m 414.53189,196.7282 v 11.03263 c 0,3.04637 -2.56995,5.51631 -5.73963,5.51631 H 87.372438 c -3.169693,0 -5.73964,-2.46994 -5.73964,-5.51631 V 196.7282 c 0,-3.04636 2.569947,-5.51631 5.73964,-5.51631 H 408.79226 c 3.16968,0 5.73963,2.46995 5.73963,5.51631 z m 0,0"
     id="path4"
     inkscape:connector-curvature="0"
     style="fill:#3d9ae2;stroke-width:0.70335847" />
  <path
     d="M 391.57334,191.21189 H 105.05097 c -0.32789,-1.82081 -0.48203,-3.66856 -0.45961,-5.51631 0.0112,-14.64462 8.64309,-28.02599 22.28594,-34.54698 13.64565,-6.52099 29.95373,-5.0638 42.11405,3.76553 4.07212,-14.38604 17.65892,-24.37358 33.17388,-24.38167 5.30243,0 10.5292,1.18785 15.26834,3.47463 8.03773,-19.16433 27.59679,-31.53294 49.09241,-31.04272 21.49562,0.49022 40.4213,13.73961 47.50617,33.2487 0.96968,-0.10773 1.94777,-0.16429 2.92586,-0.16429 15.59905,0.0189 29.7828,8.70273 36.38843,22.28611 1.25554,-0.15892 2.5223,-0.23164 3.78906,-0.22087 19.01816,0 34.43784,14.8197 34.43784,33.09787 z m 0,0"
     id="path6"
     inkscape:connector-curvature="0"
     style="fill:#e6e7e8;stroke-width:0.70335847" />
  <path
     d="m 403.05262,213.27714 -4.59059,11.03262 H 97.702668 l -4.590591,-11.03262 z m 0,0"
     id="path8"
     inkscape:connector-curvature="0"
     style="fill:#5aaae7;stroke-width:0.70335847" />
  <path
     d="m 408.79226,185.69558 h -11.9389 c -2.85021,-18.98117 -19.76364,-33.07632 -39.71786,-33.09786 h -0.44281 c -8.07697,-13.3302 -22.77078,-21.68278 -38.81544,-22.06526 -8.81403,-19.43638 -28.44316,-32.292509 -50.48527,-33.065553 -22.04494,-0.773034 -42.5989,10.671693 -52.86467,29.434693 -3.98804,-1.25787 -8.16385,-1.89353 -12.36208,-1.88545 -15.31599,0.0243 -29.28954,8.40915 -36.0381,21.6235 -6.58041,-3.34532 -13.91471,-5.08803 -21.3583,-5.07456 -25.34634,0.027 -45.889087,19.77037 -45.917113,44.13049 H 87.372438 c -6.339388,0 -11.47928,4.93989 -11.47928,11.03262 v 11.03263 c 0,6.09273 5.139892,11.03263 11.47928,11.03263 h 1.855294 l 20.088738,48.22463 c 1.72638,4.19379 5.94703,6.94657 10.63851,6.93848 h 256.25473 c 4.69708,0.0162 8.92615,-2.7366 10.65813,-6.9331 l 20.06912,-48.23001 h 1.8553 c 6.33938,0 11.47927,-4.9399 11.47927,-11.03263 V 196.7282 c 0,-6.09273 -5.13989,-11.03262 -11.47927,-11.03262 z M 144.76883,152.59772 c 7.49965,-0.008 14.79471,2.35143 20.76135,6.71761 1.51899,1.10703 3.51161,1.4114 5.31645,0.81882 1.80205,-0.59257 3.18371,-2.00666 3.68257,-3.7736 3.40511,-11.97805 14.71623,-20.29023 27.63603,-20.31177 4.41122,-0.008 8.7636,0.98312 12.70119,2.89013 1.43771,0.68955 3.10803,0.76766 4.6074,0.21817 1.49938,-0.54947 2.69046,-1.67536 3.2846,-3.1083 7.14652,-17.03647 24.5336,-28.02869 43.63863,-27.59234 19.10785,0.43904 35.92882,12.21777 42.22055,29.56129 0.89121,2.43494 3.41632,3.95139 6.08436,3.65241 0.74828,-0.0781 1.50217,-0.11314 2.25605,-0.10505 13.36261,0.0592 25.50049,7.49873 31.19529,19.11855 1.07338,2.1952 3.5116,3.45577 6.00869,3.111 0.98649,-0.12122 1.9786,-0.17508 2.97351,-0.16431 13.63164,0.0162 25.37717,9.23067 28.12367,22.06525 H 110.33099 c 0.0196,-18.27278 15.42528,-33.07901 34.43784,-33.09786 z M 376.20971,262.92395 H 119.96338 L 101.59542,218.79346 H 394.57488 Z M 87.372438,207.76083 V 196.7282 H 408.79226 v 11.03263 z m 0,0"
     id="path10"
     inkscape:connector-curvature="0"
     style="stroke-width:0.70335847" />
  <path
     d="m 238.20893,75.369336 h 11.47928 c -0.0477,-2.879363 1.04536,-5.667149 3.0548,-7.80041 6.95033,-8.325645 6.95033,-20.174403 0,-28.502741 -4.07213,-4.476616 -4.07213,-11.156525 0,-15.633141 3.43873,-4.01064 5.28561,-9.063667 5.21275,-14.2594518 h -11.47928 c 0.0448,2.8820578 -1.04536,5.6752298 -3.05479,7.8165708 -6.94754,8.333726 -6.94754,20.185177 0,28.518902 2.00383,2.135955 3.09402,4.921046 3.05479,7.795024 0.0617,2.879363 -1.03414,5.669841 -3.05479,7.795022 -3.44435,4.010639 -5.29403,9.069054 -5.21276,14.270225 z m 0,0"
     id="path12"
     inkscape:connector-curvature="0"
     style="stroke-width:0.70335847" />
  <path
     d="m 324.30353,75.369336 h 11.47927 c -0.0477,-2.879363 1.04536,-5.667149 3.05479,-7.80041 6.95034,-8.325645 6.95034,-20.174403 0,-28.502741 -4.07211,-4.476616 -4.07211,-11.156525 0,-15.633141 3.43874,-4.01064 5.28562,-9.063667 5.21277,-14.2594518 h -11.47929 c 0.0448,2.8820578 -1.04535,5.6752298 -3.05479,7.8165708 -6.94753,8.333726 -6.94753,20.185177 0,28.518902 2.00384,2.135955 3.09403,4.921046 3.05479,7.795024 0.0617,2.879363 -1.03414,5.669841 -3.05479,7.795022 -3.44434,4.010639 -5.29402,9.069054 -5.21275,14.270225 z m 0,0"
     id="path14"
     inkscape:connector-curvature="0"
     style="stroke-width:0.70335847" />
  <path
     d="m 152.11433,75.369336 h 11.47929 c -0.0477,-2.879363 1.04534,-5.667149 3.05479,-7.80041 6.95033,-8.325645 6.95033,-20.174403 0,-28.502741 -4.07212,-4.476616 -4.07212,-11.156525 0,-15.633141 3.43873,-4.01064 5.28562,-9.063667 5.21275,-14.2594518 h -11.47927 c 0.0448,2.8820578 -1.04536,5.6752298 -3.0548,7.8165708 -6.94754,8.333726 -6.94754,20.185177 0,28.518902 2.00384,2.135955 3.09403,4.921046 3.0548,7.795024 0.0617,2.879363 -1.03416,5.669841 -3.0548,7.795022 -3.44434,4.010639 -5.29403,9.069054 -5.21276,14.270225 z m 0,0"
     id="path16"
     inkscape:connector-curvature="0"
     style="stroke-width:0.70335847" />
  <text
     xml:space="preserve"
     style="font-style:normal;font-weight:normal;font-size:103.57637787px;line-height:1.25;font-family:sans-serif;letter-spacing:0px;word-spacing:0px;fill:#000000;fill-opacity:1;stroke:none;stroke-width:2.58940959"
     x="109.35938"
     y="448.06226"
     id="text30"
     transform="scale(1.0633178,0.9404526)"><tspan
       sodipodi:role="line"
       id="tspan28"
       x="109.35938"
       y="448.06226"
       style="stroke-width:2.58940959">RICE</tspan></text>
</svg>
