<?xml version="1.0" encoding="UTF-8" standalone="no"?>
<svg
   xmlns:dc="http://purl.org/dc/elements/1.1/"
   xmlns:cc="http://creativecommons.org/ns#"
   xmlns:rdf="http://www.w3.org/1999/02/22-rdf-syntax-ns#"
   xmlns:svg="http://www.w3.org/2000/svg"
   xmlns="http://www.w3.org/2000/svg"
   xmlns:sodipodi="http://sodipodi.sourceforge.net/DTD/sodipodi-0.dtd"
   xmlns:inkscape="http://www.inkscape.org/namespaces/inkscape"
   height="480pt"
   viewBox="0 -47 480 479"
   width="480pt"
   version="1.1"
   id="svg18"
   sodipodi:docname="rice.svg"
   inkscape:version="0.92.4 (5da689c313, 2019-01-14)">
  <metadata
     id="metadata24">
    <rdf:RDF>
      <cc:Work
         rdf:about="">
        <dc:format>image/svg+xml</dc:format>
        <dc:type
           rdf:resource="http://purl.org/dc/dcmitype/StillImage" />
      </cc:Work>
    </rdf:RDF>
  </metadata>
  <defs
     id="defs22" />
  <sodipodi:namedview
     pagecolor="#ffffff"
     bordercolor="#666666"
     borderopacity="1"
     objecttolerance="10"
     gridtolerance="10"
     guidetolerance="10"
     inkscape:pageopacity="0"
     inkscape:pageshadow="2"
     inkscape:window-width="1366"
     inkscape:window-height="745"
     id="namedview20"
     showgrid="false"
     inkscape:zoom="0.36875"
     inkscape:cx="320"
     inkscape:cy="320"
     inkscape:window-x="-8"
     inkscape:window-y="-8"
     inkscape:window-maximized="1"
     inkscape:current-layer="svg18" />
  <ellipse
     style="fill:#d4aa00;stroke-width:0.67166412"
     id="path26"
     cx="238.98303"
     cy="168.0932"
     rx="194.23729"
     ry="189.15256" />
  <path
     d="m 387.9661,230.90681 -4.47348,10.91525 -16.5011,40.22336 c -0.84936,2.07593 -2.90858,3.44033 -5.20267,3.43766 H 112.10946 c -2.2941,0.003 -4.35332,-1.36173 -5.20268,-3.43766 L 90.405687,241.82206 85.932203,230.90681 Z m 0,0"
     id="path2"
     inkscape:connector-curvature="0"
     style="fill:#78b9eb;stroke-width:0.69062597" />
  <path
     d="m 399.15254,214.53392 v 10.91526 c 0,3.01396 -2.50439,5.45763 -5.59322,5.45763 H 80.338983 c -3.088834,0 -5.593221,-2.44367 -5.593221,-5.45763 v -10.91526 c 0,-3.01395 2.504387,-5.45763 5.593221,-5.45763 H 393.55932 c 3.08883,0 5.59322,2.44368 5.59322,5.45763 z m 0,0"
     id="path4"
     inkscape:connector-curvature="0"
     style="fill:#3d9ae2;stroke-width:0.69062597" />
  <path
     d="M 376.77966,209.07629 H 97.566538 c -0.319534,-1.80144 -0.469743,-3.62953 -0.447894,-5.45762 0.01093,-14.48883 8.422606,-27.72784 21.717426,-34.17946 13.29755,-6.45162 29.18961,-5.00993 41.03971,3.72547 3.96824,-14.233 17.20844,-24.11429 32.32761,-24.12229 5.16717,0 10.2606,1.17521 14.87884,3.43766 7.83269,-18.96045 26.89279,-31.19748 47.84006,-30.71247 20.94726,0.485 39.39014,13.59344 46.29427,32.89499 0.94495,-0.10659 1.89809,-0.16255 2.85123,-0.16255 15.20111,0.0187 29.02303,8.61015 35.46015,22.04903 1.22351,-0.15723 2.45795,-0.22918 3.6924,-0.21852 18.533,0 33.55932,14.66204 33.55932,32.74576 z m 0,0"
     id="path6"
     inkscape:connector-curvature="0"
     style="fill:#e6e7e8;stroke-width:0.69062597" />
  <path
     d="m 387.9661,230.90681 -4.47348,10.91525 H 90.405687 l -4.473484,-10.91525 z m 0,0"
     id="path8"
     inkscape:connector-curvature="0"
     style="fill:#5aaae7;stroke-width:0.69062597" />
  <path
     d="m 393.55932,203.61867 h -11.63433 c -2.7775,-18.77925 -19.25947,-32.72445 -38.70465,-32.74576 h -0.43151 c -7.87093,-13.18839 -22.1899,-21.45211 -37.82525,-21.83052 -8.58919,-19.22961 -27.71757,-31.94897 -49.19739,-32.71379 -21.48256,-0.76481 -41.51219,10.55816 -51.51608,29.12156 -3.8863,-1.24449 -7.95559,-1.87339 -12.04672,-1.8654 -14.92527,0.024 -28.54236,8.31969 -35.11876,21.39347 -6.41254,-3.30974 -13.55974,-5.03391 -20.81344,-5.02058 -24.69975,0.0267 -44.718456,19.56005 -44.745767,43.66102 h -11.18644 c -6.177669,0 -11.186441,4.88734 -11.186441,10.91525 v 10.91526 c 0,6.02791 5.008772,10.91526 11.186441,10.91526 h 1.807965 l 19.576272,47.7116 c 1.68234,4.14918 5.79532,6.87267 10.36712,6.86467 h 249.71762 c 4.57726,0.016 8.69844,-2.70749 10.38624,-6.85934 l 19.55715,-47.71693 h 1.80797 c 6.17767,0 11.18644,-4.88735 11.18644,-10.91526 v -10.91526 c 0,-6.02791 -5.00877,-10.91525 -11.18644,-10.91525 z M 136.27119,170.87291 c 7.30833,-0.008 14.41729,2.32642 20.23172,6.64615 1.48024,1.09525 3.42203,1.39638 5.18083,0.81011 1.75608,-0.58627 3.10249,-1.98532 3.58862,-3.73346 3.31825,-11.85062 14.34082,-20.07437 26.93103,-20.09569 4.29869,-0.008 8.54004,0.97267 12.37718,2.85939 1.40104,0.68221 3.02875,0.75949 4.48987,0.21585 1.46113,-0.54363 2.62182,-1.65754 3.20081,-3.07524 6.96421,-16.85523 23.90774,-27.73051 42.5254,-27.2988 18.6204,0.43437 35.01226,12.08779 41.14349,29.24681 0.86848,2.40903 3.32917,3.90935 5.92915,3.61355 0.72919,-0.0773 1.46385,-0.11193 2.1985,-0.10393 13.02172,0.0586 24.84996,7.41896 30.39949,18.91516 1.04599,2.17185 3.42202,3.41901 5.8554,3.07791 0.96133,-0.11993 1.92813,-0.17322 2.89766,-0.16257 13.28389,0.016 24.72979,9.13248 27.40623,21.83052 H 102.71186 c 0.0191,-18.07839 15.03178,-32.72711 33.55933,-32.74576 z M 361.80796,280.02546 H 112.09853 L 94.199136,236.36444 H 379.70463 Z M 80.338983,225.44918 V 214.53392 H 393.55932 v 10.91526 z m 0,0"
     id="path10"
     inkscape:connector-curvature="0"
     style="stroke-width:0.69062597" />
  <path
     d="m 227.32761,94.46611 h 11.18644 c -0.0465,-2.848732 1.01869,-5.60686 2.97687,-7.717427 6.77303,-8.237075 6.77303,-19.959782 0,-28.199521 -3.96825,-4.428992 -3.96825,-11.037838 0,-15.466831 3.35101,-3.967973 5.15078,-8.967245 5.07977,-14.107755 h -11.18644 c 0.0437,2.851398 -1.01869,5.614855 -2.97686,7.733416 -6.77031,8.245069 -6.77031,19.970441 0,28.215509 1.95271,2.113232 3.01509,4.868695 2.97686,7.712098 0.0601,2.848732 -1.00776,5.609524 -2.97686,7.712097 -3.35648,3.967972 -5.15898,8.972574 -5.07978,14.118414 z m 0,0"
     id="path12"
     inkscape:connector-curvature="0"
     style="stroke-width:0.69062597" />
  <path
     d="m 311.22592,94.46611 h 11.18643 c -0.0465,-2.848732 1.01869,-5.60686 2.97686,-7.717427 6.77304,-8.237075 6.77304,-19.959782 0,-28.199521 -3.96823,-4.428992 -3.96823,-11.037838 0,-15.466831 3.35102,-3.967973 5.15079,-8.967245 5.07979,-14.107755 h -11.18645 c 0.0437,2.851398 -1.01868,5.614855 -2.97686,7.733416 -6.7703,8.245069 -6.7703,19.970441 0,28.215509 1.95272,2.113232 3.0151,4.868695 2.97686,7.712098 0.0601,2.848732 -1.00776,5.609524 -2.97686,7.712097 -3.35647,3.967972 -5.15897,8.972574 -5.07977,14.118414 z m 0,0"
     id="path14"
     inkscape:connector-curvature="0"
     style="stroke-width:0.69062597" />
  <path
     d="m 143.4293,94.46611 h 11.18645 c -0.0465,-2.848732 1.01868,-5.60686 2.97686,-7.717427 6.77303,-8.237075 6.77303,-19.959782 0,-28.199521 -3.96824,-4.428992 -3.96824,-11.037838 0,-15.466831 3.35101,-3.967973 5.15079,-8.967245 5.07978,-14.107755 h -11.18644 c 0.0437,2.851398 -1.01869,5.614855 -2.97687,7.733416 -6.7703,8.245069 -6.7703,19.970441 0,28.215509 1.95272,2.113232 3.0151,4.868695 2.97687,7.712098 0.0601,2.848732 -1.00777,5.609524 -2.97687,7.712097 -3.35647,3.967972 -5.15898,8.972574 -5.07978,14.118414 z m 0,0"
     id="path16"
     inkscape:connector-curvature="0"
     style="stroke-width:0.69062597" />
  <text
     xml:space="preserve"
     style="font-style:normal;font-weight:normal;font-size:85.79927063px;line-height:1.25;font-family:sans-serif;letter-spacing:0px;word-spacing:0px;fill:#000000;fill-opacity:1;stroke:none;stroke-width:2.14498186"
     x="114.76887"
     y="398.69598"
     id="text30"
     transform="scale(0.932504,1.0723815)"><tspan
       sodipodi:role="line"
       id="tspan28"
       x="114.76887"
       y="398.69598"
       style="stroke-width:2.14498186">GRAIN</tspan></text>
</svg>
