<?xml version="1.0" encoding="UTF-8" standalone="no"?>
<!-- Created with Inkscape (http://www.inkscape.org/) -->

<svg
   xmlns:dc="http://purl.org/dc/elements/1.1/"
   xmlns:cc="http://creativecommons.org/ns#"
   xmlns:rdf="http://www.w3.org/1999/02/22-rdf-syntax-ns#"
   xmlns:svg="http://www.w3.org/2000/svg"
   xmlns="http://www.w3.org/2000/svg"
   xmlns:sodipodi="http://sodipodi.sourceforge.net/DTD/sodipodi-0.dtd"
   xmlns:inkscape="http://www.inkscape.org/namespaces/inkscape"
   version="1.1"
   id="svg10303"
   xml:space="preserve"
   width="1066.6667"
   height="1066.6667"
   viewBox="0 0 1066.6667 1066.6667"
   sodipodi:docname="Scared.svg"
   inkscape:version="0.92.4 (5da689c313, 2019-01-14)"><metadata
     id="metadata10309"><rdf:RDF><cc:Work
         rdf:about=""><dc:format>image/svg+xml</dc:format><dc:type
           rdf:resource="http://purl.org/dc/dcmitype/StillImage" /><dc:title /></cc:Work></rdf:RDF></metadata><defs
     id="defs10307"><inkscape:perspective
       sodipodi:type="inkscape:persp3d"
       inkscape:vp_x="0 : 533.33335 : 1"
       inkscape:vp_y="0 : 1000 : 0"
       inkscape:vp_z="1066.6667 : 533.33335 : 1"
       inkscape:persp3d-origin="533.33335 : 355.55557 : 1"
       id="perspective12219" /><radialGradient
       fx="0"
       fy="0"
       cx="0"
       cy="0"
       r="1"
       gradientUnits="userSpaceOnUse"
       gradientTransform="matrix(400,0,0,-400,400,400)"
       spreadMethod="pad"
       id="radialGradient10329"><stop
         style="stop-opacity:1;stop-color:#ffffff"
         offset="0"
         id="stop10325" /><stop
         style="stop-opacity:1;stop-color:#fffeed"
         offset="1"
         id="stop10327" /></radialGradient><clipPath
       clipPathUnits="userSpaceOnUse"
       id="clipPath10339"><path
         d="M 0,800 H 800 V 0 H 0 Z"
         id="path10337"
         inkscape:connector-curvature="0" /></clipPath><clipPath
       clipPathUnits="userSpaceOnUse"
       id="clipPath10395"><path
         d="m 595.786,502.012 h 20.031 v -20.031 h -20.031 z"
         id="path10393"
         inkscape:connector-curvature="0" /></clipPath><clipPath
       clipPathUnits="userSpaceOnUse"
       id="clipPath10411"><path
         d="m 692.171,502.012 h 20.031 v -20.031 h -20.031 z"
         id="path10409"
         inkscape:connector-curvature="0" /></clipPath><clipPath
       clipPathUnits="userSpaceOnUse"
       id="clipPath10443"><path
         d="m 178.459,662.287 -70.586,-0.203 c -1.491,-0.004 -2.52,-1.515 -1.955,-2.895 v 0 c 2.939,-7.173 12.754,-25.233 37.1,-25.233 v 0 c 24.334,0 34.371,18.185 37.402,25.421 v 0 c 0.58,1.386 -0.454,2.91 -1.954,2.91 v 0 c -0.002,0 -0.005,0 -0.007,0"
         id="path10441"
         inkscape:connector-curvature="0" /></clipPath><clipPath
       clipPathUnits="userSpaceOnUse"
       id="clipPath10455"><path
         d="M 0,800 H 800 V 0 H 0 Z"
         id="path10453"
         inkscape:connector-curvature="0" /></clipPath><clipPath
       clipPathUnits="userSpaceOnUse"
       id="clipPath10487"><path
         d="m 178.459,309.805 -70.586,-0.204 c -1.491,-0.004 -2.52,-1.515 -1.955,-2.895 v 0 c 2.939,-7.173 12.754,-25.233 37.1,-25.233 v 0 c 24.334,0 34.371,18.185 37.402,25.422 v 0 c 0.58,1.384 -0.454,2.91 -1.954,2.91 v 0 c -0.002,0 -0.005,0 -0.007,0"
         id="path10485"
         inkscape:connector-curvature="0" /></clipPath><clipPath
       clipPathUnits="userSpaceOnUse"
       id="clipPath10499"><path
         d="M 0,800 H 800 V 0 H 0 Z"
         id="path10497"
         inkscape:connector-curvature="0" /></clipPath><clipPath
       clipPathUnits="userSpaceOnUse"
       id="clipPath10571"><path
         d="M 84.9642,142.012 H 104.995 V 121.981 H 84.9642 Z"
         id="path10569"
         inkscape:connector-curvature="0" /></clipPath><clipPath
       clipPathUnits="userSpaceOnUse"
       id="clipPath10587"><path
         d="M 181.349,142.012 H 201.38 V 121.981 H 181.349 Z"
         id="path10585"
         inkscape:connector-curvature="0" /></clipPath><clipPath
       clipPathUnits="userSpaceOnUse"
       id="clipPath10635"><path
         d="m 680.894,669.287 -51.718,-0.204 c -1.094,-0.004 -1.847,-1.514 -1.433,-2.895 v 0 c 2.153,-7.173 9.344,-25.233 27.182,-25.233 v 0 c 17.831,0 25.185,18.185 27.406,25.421 v 0 c 0.425,1.386 -0.333,2.911 -1.432,2.911 v 0 c -0.002,0 -0.003,0 -0.005,0"
         id="path10633"
         inkscape:connector-curvature="0" /></clipPath><clipPath
       clipPathUnits="userSpaceOnUse"
       id="clipPath10647"><path
         d="M 0,800 H 800 V 0 H 0 Z"
         id="path10645"
         inkscape:connector-curvature="0" /></clipPath><clipPath
       clipPathUnits="userSpaceOnUse"
       id="clipPath10663"><path
         d="m 595.786,679.012 h 20.031 v -20.031 h -20.031 z"
         id="path10661"
         inkscape:connector-curvature="0" /></clipPath><clipPath
       clipPathUnits="userSpaceOnUse"
       id="clipPath10679"><path
         d="m 692.171,679.012 h 20.031 v -20.031 h -20.031 z"
         id="path10677"
         inkscape:connector-curvature="0" /></clipPath><clipPath
       clipPathUnits="userSpaceOnUse"
       id="clipPath10715"><path
         d="m 178.459,488.287 -70.586,-0.204 c -1.491,-0.004 -2.52,-1.514 -1.955,-2.895 v 0 c 2.939,-7.173 12.754,-25.233 37.1,-25.233 v 0 c 24.334,0 34.371,18.185 37.402,25.421 v 0 c 0.58,1.386 -0.454,2.911 -1.954,2.911 v 0 c -0.002,0 -0.005,0 -0.007,0"
         id="path10713"
         inkscape:connector-curvature="0" /></clipPath><clipPath
       clipPathUnits="userSpaceOnUse"
       id="clipPath10727"><path
         d="M 0,800 H 800 V 0 H 0 Z"
         id="path10725"
         inkscape:connector-curvature="0" /></clipPath><clipPath
       clipPathUnits="userSpaceOnUse"
       id="clipPath10755"><path
         d="m 425.512,502.012 h 20.031 v -20.031 h -20.031 z"
         id="path10753"
         inkscape:connector-curvature="0" /></clipPath><clipPath
       clipPathUnits="userSpaceOnUse"
       id="clipPath10771"><path
         d="m 521.897,502.012 h 20.031 v -20.031 h -20.031 z"
         id="path10769"
         inkscape:connector-curvature="0" /></clipPath><clipPath
       clipPathUnits="userSpaceOnUse"
       id="clipPath10863"><path
         d="M 0,800 H 800 V 0 H 0 Z"
         id="path10861"
         inkscape:connector-curvature="0" /></clipPath></defs><sodipodi:namedview
     pagecolor="#ffffff"
     bordercolor="#666666"
     borderopacity="1"
     objecttolerance="10"
     gridtolerance="10"
     guidetolerance="10"
     inkscape:pageopacity="0"
     inkscape:pageshadow="2"
     inkscape:window-width="1366"
     inkscape:window-height="745"
     id="namedview10305"
     showgrid="false"
     inkscape:zoom="0.44249997"
     inkscape:cx="253.30103"
     inkscape:cy="533.33337"
     inkscape:window-x="-8"
     inkscape:window-y="-8"
     inkscape:window-maximized="1"
     inkscape:current-layer="g10311" /><g
     id="g10311"
     inkscape:groupmode="layer"
     inkscape:label="74221-OE7M2S-365"
     transform="matrix(1.3333333,0,0,-1.3333333,0,1066.6667)"><ellipse
       style="fill:#000080;stroke-width:0.93351483"
       id="path66"
       cx="405.08478"
       cy="-368.64404"
       transform="scale(1,-1)"
       rx="300"
       ry="290.67801" /><g
       id="g10313"
       transform="translate(1000.0001,-145.76273)"><g
         id="g10315"><g
           id="g10321"><g
             id="g10323"><path
               d="M 0,0 H 800 V 800 H 0 Z"
               style="fill:url(#radialGradient10329);stroke:none"
               id="path10331"
               inkscape:connector-curvature="0" /></g></g></g></g><g
       id="g10493"
       transform="matrix(3.6304192,0,0,3.6294595,-1967.429,-790.64737)"><g
         id="g10495"
         clip-path="url(#clipPath10499)"><g
           id="g10501"
           transform="translate(722.825,320.2213)"><path
             d="m 0,0 c 0,-38.014 -30.817,-68.831 -68.832,-68.831 -38.013,0 -68.829,30.817 -68.829,68.831 0,38.015 30.816,68.831 68.829,68.831 C -30.817,68.831 0,38.015 0,0"
             style="fill:#ffd21f;fill-opacity:1;fill-rule:nonzero;stroke:none"
             id="path10503"
             inkscape:connector-curvature="0" /></g><g
           id="g10505"
           transform="translate(622.6609,317.4135)"><path
             d="m 0,0 v 0 c -2.75,0 -5,2.25 -5,5 v 12 c 0,2.75 2.25,5 5,5 2.75,0 5,-2.25 5,-5 V 5 C 5,2.25 2.75,0 0,0"
             style="fill:#403408;fill-opacity:1;fill-rule:nonzero;stroke:none"
             id="path10507"
             inkscape:connector-curvature="0" /></g><g
           id="g10509"
           transform="translate(685.3276,317.4135)"><path
             d="m 0,0 v 0 c -2.75,0 -5,2.25 -5,5 v 12 c 0,2.75 2.25,5 5,5 2.75,0 5,-2.25 5,-5 V 5 C 5,2.25 2.75,0 0,0"
             style="fill:#403408;fill-opacity:1;fill-rule:nonzero;stroke:none"
             id="path10511"
             inkscape:connector-curvature="0" /></g><g
           id="g10513"
           transform="translate(614.9526,351.8978)"><path
             d="M 0,0 C 0,0 9.865,-4.059 13.377,4.768"
             style="fill:none;stroke:#403408;stroke-width:4;stroke-linecap:round;stroke-linejoin:miter;stroke-miterlimit:10;stroke-dasharray:none;stroke-opacity:1"
             id="path10515"
             inkscape:connector-curvature="0" /></g><g
           id="g10517"
           transform="translate(692.0793,351.8978)"><path
             d="M 0,0 C 0,0 -9.865,-4.059 -13.377,4.768"
             style="fill:none;stroke:#403408;stroke-width:4;stroke-linecap:round;stroke-linejoin:miter;stroke-miterlimit:10;stroke-dasharray:none;stroke-opacity:1"
             id="path10519"
             inkscape:connector-curvature="0" /></g><g
           id="g10521"
           transform="translate(678.5834,283.199)"><path
             d="M 0,0 C 1.13,-1.172 3.162,-0.086 2.719,1.481 2.715,1.494 2.711,1.508 2.707,1.522 0.554,8.695 -6.638,26.755 -24.476,26.755 -42.306,26.755 -49.66,8.57 -51.881,1.333 -51.885,1.32 -51.889,1.306 -51.893,1.292 c -0.455,-1.572 1.593,-2.666 2.721,-1.48 3.6,3.783 14.267,9.864 24.587,9.864 C -14.267,9.676 -3.602,3.735 0,0"
             style="fill:#403408;fill-opacity:1;fill-rule:nonzero;stroke:none"
             id="path10523"
             inkscape:connector-curvature="0" /></g></g></g><flowRoot
       xml:space="preserve"
       id="flowRoot68"
       style="fill:black;fill-opacity:1;stroke:none;font-family:sans-serif;font-style:normal;font-weight:normal;font-size:40px;line-height:1.25;letter-spacing:0px;word-spacing:0px"><flowRegion
         id="flowRegion70"><rect
           id="rect72"
           width="687.00568"
           height="101.69492"
           x="158.19211"
           y="964.9718" /></flowRegion><flowPara
         id="flowPara74"></flowPara></flowRoot><text
       xml:space="preserve"
       style="font-style:normal;font-weight:normal;font-size:75.69130707px;line-height:1.25;font-family:sans-serif;letter-spacing:0px;word-spacing:0px;fill:#000000;fill-opacity:1;stroke:none;stroke-width:1.89228261"
       x="193.04283"
       y="-17.84609"
       id="text3781"
       transform="scale(1.0124487,-0.98770435)"><tspan
         sodipodi:role="line"
         id="tspan3779"
         x="193.04283"
         y="-17.84609"
         style="stroke-width:1.89228261">REACTIONS</tspan></text>
</g></svg>