<?xml version="1.0" encoding="UTF-8" standalone="no"?>
<!-- Generator: Adobe Illustrator 19.0.0, SVG Export Plug-In . SVG Version: 6.00 Build 0)  -->

<svg
   xmlns:dc="http://purl.org/dc/elements/1.1/"
   xmlns:cc="http://creativecommons.org/ns#"
   xmlns:rdf="http://www.w3.org/1999/02/22-rdf-syntax-ns#"
   xmlns:svg="http://www.w3.org/2000/svg"
   xmlns="http://www.w3.org/2000/svg"
   xmlns:sodipodi="http://sodipodi.sourceforge.net/DTD/sodipodi-0.dtd"
   xmlns:inkscape="http://www.inkscape.org/namespaces/inkscape"
   version="1.1"
   id="Capa_1"
   x="0px"
   y="0px"
   viewBox="0 0 480 480"
   style="enable-background:new 0 0 480 480;"
   xml:space="preserve"
   sodipodi:docname="sleep.svg"
   inkscape:version="0.92.4 (5da689c313, 2019-01-14)"><metadata
   id="metadata61"><rdf:RDF><cc:Work
       rdf:about=""><dc:format>image/svg+xml</dc:format><dc:type
         rdf:resource="http://purl.org/dc/dcmitype/StillImage" /></cc:Work></rdf:RDF></metadata><defs
   id="defs59" /><sodipodi:namedview
   pagecolor="#ffffff"
   bordercolor="#666666"
   borderopacity="1"
   objecttolerance="10"
   gridtolerance="10"
   guidetolerance="10"
   inkscape:pageopacity="0"
   inkscape:pageshadow="2"
   inkscape:window-width="1366"
   inkscape:window-height="745"
   id="namedview57"
   showgrid="false"
   inkscape:zoom="0.69532167"
   inkscape:cx="240"
   inkscape:cy="240"
   inkscape:window-x="-8"
   inkscape:window-y="-8"
   inkscape:window-maximized="1"
   inkscape:current-layer="Capa_1" />
<ellipse
   style="fill:#2ca02c;stroke-width:1.13687098"
   id="path63"
   cx="244.49115"
   cy="199.37289"
   rx="205.66019"
   ry="193.97336" /><g
   id="g6"
   transform="matrix(0.64954085,0,0,0.61507802,88.933355,29.317797)">
	<g
   id="g4">
		<path
   d="m 456,224 c -14.133,0 -24,6.301 -24,15.32 v 27.505 C 419.333,241.793 399.85,224 376,224 H 152 c -4.417,-0.001 -7.999,3.579 -8,7.996 0,0.001 0,0.003 0,0.004 v 48.067 c 0.045,-13.052 -5.201,-26.075 -15.586,-35.583 -19.552,-17.902 -49.915,-16.564 -67.816,2.989 -16.764,18.309 -16.801,46.38 -0.086,64.734 -4.612,0.508 -8.968,2.38 -12.512,5.375 V 115.199 C 48,104.434 37.461,96 24,96 10.539,96 0,104.434 0,115.199 V 460.801 C 0,471.566 10.539,480 24,480 c 13.461,0 24,-8.434 24,-19.199 V 408 h 384 v 56.68 c 0,9.019 9.867,15.32 24,15.32 14.133,0 24,-6.301 24,-15.32 V 239.32 C 480,230.301 470.133,224 456,224 Z M 32,460.801 c -0.086,0.656 -2.773,3.199 -8,3.199 -5.25,0 -7.922,-2.543 -8,-3.199 V 115.199 c 0.078,-0.656 2.75,-3.199 8,-3.199 5.227,0 7.914,2.543 8,3.199 z M 160,240 h 216 c 30.172,0 53.172,44.926 55.758,88 H 160 Z m -16,40.083 v 38.56 c -3.452,-3.353 -7.848,-5.566 -12.597,-6.342 8.39,-9.164 12.553,-20.701 12.597,-32.218 z M 96,248 c 17.673,0 32,14.327 32,32 0,17.673 -14.327,32 -32,32 -17.673,0 -32,-14.327 -32,-32 0.019,-17.665 14.335,-31.981 32,-32 z M 432,392 H 48 v -48.023 c 4.163,-0.328 7.374,-3.801 7.375,-7.977 -0.077,-4.331 3.364,-7.909 7.695,-8 h 64.61 c 4.331,0.091 7.772,3.669 7.695,8 -0.001,4.417 3.579,7.999 7.996,8 0.001,0 0.003,0 0.004,0 H 432 Z m 32,70.594 c -5.169,1.875 -10.831,1.875 -16,0 V 241.406 c 5.169,-1.875 10.831,-1.875 16,0 z"
   id="path2"
   inkscape:connector-curvature="0" />
	</g>
</g>
<g
   id="g12"
   transform="matrix(0.64954085,0,0,0.61507802,88.933355,29.317797)">
	<g
   id="g10">
		<path
   d="m 137.078,176 29.07,-34.879 c 1.986,-2.386 2.413,-5.705 1.094,-8.516 C 165.926,129.795 163.103,128 160,128 h -48 v 16 h 30.922 l -29.07,34.879 c -2.827,3.398 -2.364,8.444 1.034,11.27 1.437,1.195 3.246,1.85 5.114,1.851 h 48 v -16 z"
   id="path8"
   inkscape:connector-curvature="0" />
	</g>
</g>
<g
   id="g18"
   transform="matrix(0.64954085,0,0,0.61507802,88.933355,29.317797)">
	<g
   id="g16">
		<path
   d="m 224.359,136 45.953,-59.09 c 1.877,-2.411 2.217,-5.681 0.875,-8.426 -1.344,-2.743 -4.132,-4.483 -7.188,-4.484 h -64 v 16 h 47.641 l -45.953,59.09 c -2.714,3.484 -2.089,8.509 1.396,11.223 1.405,1.094 3.136,1.688 4.917,1.688 h 64 v -16 h -47.641 z"
   id="path14"
   inkscape:connector-curvature="0" />
	</g>
</g>
<g
   id="g24"
   transform="matrix(0.64954085,0,0,0.61507802,88.933355,29.317797)">
	<g
   id="g22">
		<path
   d="M 328,96 390.398,12.801 C 393.05,9.268 392.337,4.255 388.804,1.602 387.419,0.562 385.733,0 384,0 h -72 v 16 h 56 l -62.398,83.199 c -1.818,2.424 -2.112,5.668 -0.758,8.379 1.356,2.71 4.126,4.422 7.156,4.422 h 80 V 96 Z"
   id="path20"
   inkscape:connector-curvature="0" />
	</g>
</g>
<g
   id="g26">
</g>
<g
   id="g28">
</g>
<g
   id="g30">
</g>
<g
   id="g32">
</g>
<g
   id="g34">
</g>
<g
   id="g36">
</g>
<g
   id="g38">
</g>
<g
   id="g40">
</g>
<g
   id="g42">
</g>
<g
   id="g44">
</g>
<g
   id="g46">
</g>
<g
   id="g48">
</g>
<g
   id="g50">
</g>
<g
   id="g52">
</g>
<g
   id="g54">
</g>
<text
   xml:space="preserve"
   style="font-style:normal;font-weight:normal;font-size:98.02639008px;line-height:1.25;font-family:sans-serif;letter-spacing:0px;word-spacing:0px;fill:#000000;fill-opacity:1;stroke:none;stroke-width:2.45065975"
   x="102.94512"
   y="473.75925"
   id="text67"
   transform="scale(0.9945581,1.0054717)"><tspan
     sodipodi:role="line"
     id="tspan65"
     x="102.94512"
     y="473.75925"
     style="stroke-width:2.45065975">SLEEP</tspan></text>
</svg>