<?xml version="1.0" encoding="UTF-8" standalone="no"?>
<!-- Generator: Adobe Illustrator 18.0.0, SVG Export Plug-In . SVG Version: 6.00 Build 0)  -->

<svg
   xmlns:dc="http://purl.org/dc/elements/1.1/"
   xmlns:cc="http://creativecommons.org/ns#"
   xmlns:rdf="http://www.w3.org/1999/02/22-rdf-syntax-ns#"
   xmlns:svg="http://www.w3.org/2000/svg"
   xmlns="http://www.w3.org/2000/svg"
   xmlns:sodipodi="http://sodipodi.sourceforge.net/DTD/sodipodi-0.dtd"
   xmlns:inkscape="http://www.inkscape.org/namespaces/inkscape"
   version="1.1"
   id="Capa_1"
   x="0px"
   y="0px"
   viewBox="0 0 57 57"
   style="enable-background:new 0 0 57 57;"
   xml:space="preserve"
   sodipodi:docname="strawberry.svg"
   inkscape:version="0.92.4 (5da689c313, 2019-01-14)"><metadata
   id="metadata59"><rdf:RDF><cc:Work
       rdf:about=""><dc:format>image/svg+xml</dc:format><dc:type
         rdf:resource="http://purl.org/dc/dcmitype/StillImage" /></cc:Work></rdf:RDF></metadata><defs
   id="defs57" /><sodipodi:namedview
   pagecolor="#ffffff"
   bordercolor="#666666"
   borderopacity="1"
   objecttolerance="10"
   gridtolerance="10"
   guidetolerance="10"
   inkscape:pageopacity="0"
   inkscape:pageshadow="2"
   inkscape:window-width="1366"
   inkscape:window-height="745"
   id="namedview55"
   showgrid="false"
   inkscape:zoom="8.2807018"
   inkscape:cx="41.430573"
   inkscape:cy="24.457082"
   inkscape:window-x="-8"
   inkscape:window-y="-8"
   inkscape:window-maximized="1"
   inkscape:current-layer="Capa_1" />
<ellipse
   style="fill:#d35f5f;stroke-width:1.19213915"
   id="path61"
   cx="29.313856"
   cy="24.741133"
   rx="24.121059"
   ry="24.378845" /><g
   id="g22"
   transform="matrix(0.85463604,0,0,0.78070137,4.3199422,2.2851261)">
	<polygon
   style="fill:#659c35"
   points="29.841,9.386 26.905,10 24.038,1.455 29.038,0 "
   id="polygon2" />
	<path
   style="fill:#88c057"
   d="M 36.143,8.465 C 37.219,7.486 38.036,6.304 38.452,4.911 32.995,2.88 31.296,5.513 31.296,5.513 31.217,4.444 30.408,3.991 29.371,3.885 l 0.471,5.5 v 0 0 0 L 26.905,10 v 0 0 L 26.904,9.998 25.148,4.764 c -0.524,0.264 -0.877,0.538 -0.893,0.749 0,0 -1.7,-2.633 -7.156,-0.602 0.429,1.432 1.266,2.654 2.389,3.647 -4.387,0.621 -8.419,2.131 -10.449,5.844 10.277,3.075 13.336,-1.882 13.336,-1.882 0.623,6.736 5.841,8.725 6.63,9 0.789,-0.275 6.007,-2.264 6.63,-9 0,0 1.127,4.957 11.405,1.882 -2.265,-3.739 -6.497,-5.32 -10.897,-5.937 z"
   id="path4"
   inkscape:connector-curvature="0" />
	<g
   id="g8">
		<path
   style="fill:#e22f37"
   d="m 45.326,14.923 c -0.015,-0.018 -0.027,-0.038 -0.042,-0.056 -8.647,2.023 -9.65,-2.347 -9.65,-2.347 -0.623,6.736 -5.841,8.725 -6.63,9 -0.789,-0.275 -6.007,-2.264 -6.63,-9 0,0 -2.555,4.06 -10.726,2.501 -0.018,0.017 -0.036,0.035 -0.055,0.052 0.024,0.004 0.05,0.011 0.073,0.015 C 9.24,17.528 7.961,21.316 7.961,27.052 7.962,39.874 20.848,57 28.5,57 c 7.652,0 20.538,-17.126 20.538,-29.949 0,-5.843 -1.328,-9.664 -3.842,-12.099 0.042,-0.008 0.088,-0.02 0.13,-0.029 z"
   id="path6"
   inkscape:connector-curvature="0" />
	</g>
	<path
   style="fill:#994530"
   d="m 17.295,20.672 c -0.122,-0.391 -0.675,-0.391 -0.796,0 0,0 -1.516,5.294 -1.516,5.805 0,0.511 0.199,0.992 0.561,1.354 0.361,0.362 0.842,0.561 1.353,0.561 0.511,0 0.992,-0.199 1.353,-0.561 0.362,-0.362 0.561,-0.842 0.561,-1.354 0,-0.512 -1.516,-5.805 -1.516,-5.805 z"
   id="path10"
   inkscape:connector-curvature="0" />
	<path
   style="fill:#994530"
   d="m 29.123,24.672 c -0.122,-0.391 -0.675,-0.391 -0.796,0 0,0 -1.516,5.294 -1.516,5.805 0,0.511 0.199,0.992 0.561,1.354 0.361,0.362 0.842,0.561 1.353,0.561 0.511,0 0.992,-0.199 1.353,-0.561 0.362,-0.362 0.561,-0.842 0.561,-1.354 0,-0.512 -1.516,-5.805 -1.516,-5.805 z"
   id="path12"
   inkscape:connector-curvature="0" />
	<path
   style="fill:#994530"
   d="m 40.295,20.66 c -0.122,-0.391 -0.675,-0.391 -0.796,0 0,0 -1.516,5.294 -1.516,5.805 0,0.511 0.199,0.992 0.561,1.354 0.361,0.362 0.842,0.561 1.353,0.561 0.511,0 0.992,-0.199 1.353,-0.561 0.362,-0.362 0.561,-0.842 0.561,-1.354 0,-0.512 -1.516,-5.805 -1.516,-5.805 z"
   id="path14"
   inkscape:connector-curvature="0" />
	<path
   style="fill:#994530"
   d="m 22.123,33.685 c -0.122,-0.391 -0.675,-0.391 -0.796,0 0,0 -1.516,5.294 -1.516,5.805 0,0.511 0.199,0.992 0.561,1.354 0.361,0.362 0.842,0.561 1.353,0.561 0.511,0 0.992,-0.199 1.353,-0.561 0.362,-0.362 0.561,-0.842 0.561,-1.354 0,-0.512 -1.516,-5.805 -1.516,-5.805 z"
   id="path16"
   inkscape:connector-curvature="0" />
	<path
   style="fill:#994530"
   d="m 29.123,42.66 c -0.122,-0.391 -0.675,-0.391 -0.796,0 0,0 -1.516,5.294 -1.516,5.805 0,0.511 0.199,0.992 0.561,1.354 0.361,0.362 0.842,0.561 1.353,0.561 0.511,0 0.992,-0.199 1.353,-0.561 0.362,-0.362 0.561,-0.842 0.561,-1.354 0,-0.512 -1.516,-5.805 -1.516,-5.805 z"
   id="path18"
   inkscape:connector-curvature="0" />
	<path
   style="fill:#994530"
   d="m 36.123,33.672 c -0.122,-0.391 -0.675,-0.391 -0.796,0 0,0 -1.516,5.294 -1.516,5.805 0,0.511 0.199,0.992 0.561,1.354 0.361,0.362 0.842,0.561 1.353,0.561 0.511,0 0.992,-0.199 1.353,-0.561 0.362,-0.362 0.561,-0.842 0.561,-1.354 0,-0.512 -1.516,-5.805 -1.516,-5.805 z"
   id="path20"
   inkscape:connector-curvature="0" />
</g>
<g
   id="g24">
</g>
<g
   id="g26">
</g>
<g
   id="g28">
</g>
<g
   id="g30">
</g>
<g
   id="g32">
</g>
<g
   id="g34">
</g>
<g
   id="g36">
</g>
<g
   id="g38">
</g>
<g
   id="g40">
</g>
<g
   id="g42">
</g>
<g
   id="g44">
</g>
<g
   id="g46">
</g>
<g
   id="g48">
</g>
<g
   id="g50">
</g>
<g
   id="g52">
</g>
<text
   xml:space="preserve"
   style="font-style:normal;font-weight:normal;font-size:8.63406467px;line-height:1.25;font-family:sans-serif;letter-spacing:0px;word-spacing:0px;fill:#000000;fill-opacity:1;stroke:none;stroke-width:0.2158516"
   x="3.6402833"
   y="50.065559"
   id="text65"
   transform="scale(0.8759479,1.1416204)"><tspan
     sodipodi:role="line"
     id="tspan63"
     x="3.6402833"
     y="50.065559"
     style="stroke-width:0.2158516">STRAWBERRY</tspan></text>
</svg>