<?xml version="1.0" encoding="UTF-8" standalone="no"?>
<!-- Created with Inkscape (http://www.inkscape.org/) -->

<svg
   xmlns:dc="http://purl.org/dc/elements/1.1/"
   xmlns:cc="http://creativecommons.org/ns#"
   xmlns:rdf="http://www.w3.org/1999/02/22-rdf-syntax-ns#"
   xmlns:svg="http://www.w3.org/2000/svg"
   xmlns="http://www.w3.org/2000/svg"
   xmlns:sodipodi="http://sodipodi.sourceforge.net/DTD/sodipodi-0.dtd"
   xmlns:inkscape="http://www.inkscape.org/namespaces/inkscape"
   version="1.1"
   id="svg12507"
   xml:space="preserve"
   width="1066.6667"
   height="1066.6667"
   viewBox="0 0 1066.6667 1066.6667"
   sodipodi:docname="Surprised.svg"
   inkscape:version="0.92.4 (5da689c313, 2019-01-14)"><metadata
     id="metadata12513"><rdf:RDF><cc:Work
         rdf:about=""><dc:format>image/svg+xml</dc:format><dc:type
           rdf:resource="http://purl.org/dc/dcmitype/StillImage" /><dc:title /></cc:Work></rdf:RDF></metadata><defs
     id="defs12511"><inkscape:perspective
       sodipodi:type="inkscape:persp3d"
       inkscape:vp_x="0 : 533.33335 : 1"
       inkscape:vp_y="0 : 1000 : 0"
       inkscape:vp_z="1066.6667 : 533.33335 : 1"
       inkscape:persp3d-origin="533.33335 : 355.55557 : 1"
       id="perspective13489" /><radialGradient
       fx="0"
       fy="0"
       cx="0"
       cy="0"
       r="1"
       gradientUnits="userSpaceOnUse"
       gradientTransform="matrix(400,0,0,-400,400,400)"
       spreadMethod="pad"
       id="radialGradient12533"><stop
         style="stop-opacity:1;stop-color:#ffffff"
         offset="0"
         id="stop12529" /><stop
         style="stop-opacity:1;stop-color:#fffeed"
         offset="1"
         id="stop12531" /></radialGradient><clipPath
       clipPathUnits="userSpaceOnUse"
       id="clipPath12543"><path
         d="M 0,800 H 800 V 0 H 0 Z"
         id="path12541"
         inkscape:connector-curvature="0" /></clipPath><clipPath
       clipPathUnits="userSpaceOnUse"
       id="clipPath12599"><path
         d="m 595.786,502.012 h 20.031 v -20.031 h -20.031 z"
         id="path12597"
         inkscape:connector-curvature="0" /></clipPath><clipPath
       clipPathUnits="userSpaceOnUse"
       id="clipPath12615"><path
         d="m 692.171,502.012 h 20.031 v -20.031 h -20.031 z"
         id="path12613"
         inkscape:connector-curvature="0" /></clipPath><clipPath
       clipPathUnits="userSpaceOnUse"
       id="clipPath12647"><path
         d="m 178.459,662.287 -70.586,-0.203 c -1.491,-0.004 -2.52,-1.515 -1.955,-2.895 v 0 c 2.939,-7.173 12.754,-25.233 37.1,-25.233 v 0 c 24.334,0 34.371,18.185 37.402,25.421 v 0 c 0.58,1.386 -0.454,2.91 -1.954,2.91 v 0 c -0.002,0 -0.005,0 -0.007,0"
         id="path12645"
         inkscape:connector-curvature="0" /></clipPath><clipPath
       clipPathUnits="userSpaceOnUse"
       id="clipPath12659"><path
         d="M 0,800 H 800 V 0 H 0 Z"
         id="path12657"
         inkscape:connector-curvature="0" /></clipPath><clipPath
       clipPathUnits="userSpaceOnUse"
       id="clipPath12691"><path
         d="m 178.459,309.805 -70.586,-0.204 c -1.491,-0.004 -2.52,-1.515 -1.955,-2.895 v 0 c 2.939,-7.173 12.754,-25.233 37.1,-25.233 v 0 c 24.334,0 34.371,18.185 37.402,25.422 v 0 c 0.58,1.384 -0.454,2.91 -1.954,2.91 v 0 c -0.002,0 -0.005,0 -0.007,0"
         id="path12689"
         inkscape:connector-curvature="0" /></clipPath><clipPath
       clipPathUnits="userSpaceOnUse"
       id="clipPath12703"><path
         d="M 0,800 H 800 V 0 H 0 Z"
         id="path12701"
         inkscape:connector-curvature="0" /></clipPath><clipPath
       clipPathUnits="userSpaceOnUse"
       id="clipPath12775"><path
         d="M 84.9642,142.012 H 104.995 V 121.981 H 84.9642 Z"
         id="path12773"
         inkscape:connector-curvature="0" /></clipPath><clipPath
       clipPathUnits="userSpaceOnUse"
       id="clipPath12791"><path
         d="M 181.349,142.012 H 201.38 V 121.981 H 181.349 Z"
         id="path12789"
         inkscape:connector-curvature="0" /></clipPath><clipPath
       clipPathUnits="userSpaceOnUse"
       id="clipPath12839"><path
         d="m 680.894,669.287 -51.718,-0.204 c -1.094,-0.004 -1.847,-1.514 -1.433,-2.895 v 0 c 2.153,-7.173 9.344,-25.233 27.182,-25.233 v 0 c 17.831,0 25.185,18.185 27.406,25.421 v 0 c 0.425,1.386 -0.333,2.911 -1.432,2.911 v 0 c -0.002,0 -0.003,0 -0.005,0"
         id="path12837"
         inkscape:connector-curvature="0" /></clipPath><clipPath
       clipPathUnits="userSpaceOnUse"
       id="clipPath12851"><path
         d="M 0,800 H 800 V 0 H 0 Z"
         id="path12849"
         inkscape:connector-curvature="0" /></clipPath><clipPath
       clipPathUnits="userSpaceOnUse"
       id="clipPath12867"><path
         d="m 595.786,679.012 h 20.031 v -20.031 h -20.031 z"
         id="path12865"
         inkscape:connector-curvature="0" /></clipPath><clipPath
       clipPathUnits="userSpaceOnUse"
       id="clipPath12883"><path
         d="m 692.171,679.012 h 20.031 v -20.031 h -20.031 z"
         id="path12881"
         inkscape:connector-curvature="0" /></clipPath><clipPath
       clipPathUnits="userSpaceOnUse"
       id="clipPath12919"><path
         d="m 178.459,488.287 -70.586,-0.204 c -1.491,-0.004 -2.52,-1.514 -1.955,-2.895 v 0 c 2.939,-7.173 12.754,-25.233 37.1,-25.233 v 0 c 24.334,0 34.371,18.185 37.402,25.421 v 0 c 0.58,1.386 -0.454,2.911 -1.954,2.911 v 0 c -0.002,0 -0.005,0 -0.007,0"
         id="path12917"
         inkscape:connector-curvature="0" /></clipPath><clipPath
       clipPathUnits="userSpaceOnUse"
       id="clipPath12931"><path
         d="M 0,800 H 800 V 0 H 0 Z"
         id="path12929"
         inkscape:connector-curvature="0" /></clipPath><clipPath
       clipPathUnits="userSpaceOnUse"
       id="clipPath12959"><path
         d="m 425.512,502.012 h 20.031 v -20.031 h -20.031 z"
         id="path12957"
         inkscape:connector-curvature="0" /></clipPath><clipPath
       clipPathUnits="userSpaceOnUse"
       id="clipPath12975"><path
         d="m 521.897,502.012 h 20.031 v -20.031 h -20.031 z"
         id="path12973"
         inkscape:connector-curvature="0" /></clipPath><clipPath
       clipPathUnits="userSpaceOnUse"
       id="clipPath13067"><path
         d="M 0,800 H 800 V 0 H 0 Z"
         id="path13065"
         inkscape:connector-curvature="0" /></clipPath></defs><sodipodi:namedview
     pagecolor="#ffffff"
     bordercolor="#666666"
     borderopacity="1"
     objecttolerance="10"
     gridtolerance="10"
     guidetolerance="10"
     inkscape:pageopacity="0"
     inkscape:pageshadow="2"
     inkscape:window-width="1366"
     inkscape:window-height="745"
     id="namedview12509"
     showgrid="false"
     inkscape:zoom="0.44249997"
     inkscape:cx="27.172477"
     inkscape:cy="528.97356"
     inkscape:window-x="-8"
     inkscape:window-y="-8"
     inkscape:window-maximized="1"
     inkscape:current-layer="g12699" /><g
     id="g12515"
     inkscape:groupmode="layer"
     inkscape:label="74221-OE7M2S-365"
     transform="matrix(1.3333333,0,0,-1.3333333,0,1066.6667)"><g
       id="g12517"
       transform="translate(-1422.034,267.79664)"><g
         id="g12519"><g
           id="g12525"><g
             id="g12527"><path
               d="M 0,0 H 800 V 800 H 0 Z"
               style="fill:url(#radialGradient12533);stroke:none"
               id="path12535"
               inkscape:connector-curvature="0" /></g></g></g></g><g
       id="g12697"><g
         id="g12699"
         clip-path="url(#clipPath12703)"><ellipse
   style="fill:#a02c2c;stroke-width:1.60680878"
   id="path80"
   cx="426.27121"
   cy="-411.86441"
   transform="scale(1,-1)"
   rx="270.33905"
   ry="261.017" /><g
   id="g12825"
   transform="matrix(3.1700196,0,0,3.057686,646.09629,412.42331)"><path
     d="m 0,0 c 0,-38.014 -30.818,-68.831 -68.832,-68.831 -38.013,0 -68.829,30.817 -68.829,68.831 0,38.015 30.816,68.831 68.829,68.831 C -30.818,68.831 0,38.015 0,0"
     style="fill:#ffd21f;fill-opacity:1;fill-rule:nonzero;stroke:none"
     id="path12827"
     inkscape:connector-curvature="0" /></g><g
   id="g12829"
   transform="matrix(3.1700196,0,0,3.057686,349.22523,381.07316)"><path
     d="m 0,0 c -1.093,-0.004 -1.847,-1.515 -1.432,-2.895 2.152,-7.173 9.344,-25.233 27.183,-25.233 17.83,0 25.184,18.185 27.404,25.421 0.426,1.388 -0.335,2.915 -1.436,2.911 z"
     style="fill:#403408;fill-opacity:1;fill-rule:nonzero;stroke:none"
     id="path12831"
     inkscape:connector-curvature="0" /></g><text
   xml:space="preserve"
   style="font-style:normal;font-weight:normal;font-size:95.09651947px;line-height:1.25;font-family:sans-serif;letter-spacing:0px;word-spacing:0px;fill:#000000;fill-opacity:1;stroke:none;stroke-width:2.37741303"
   x="255.96707"
   y="-39.562267"
   id="text83"
   transform="scale(0.84140373,-1.1884901)"><tspan
     sodipodi:role="line"
     id="tspan81"
     x="255.96707"
     y="-39.562267"
     style="stroke-width:2.37741303">SURPRISED</tspan></text>

</g></g><g
       id="g12833"
       transform="matrix(3.1700196,0,0,3.057686,-1645.2732,-1664.7734)"><g
         id="g12835"
         clip-path="url(#clipPath12839)"><g
           id="g12841"
           transform="translate(674.0607,640.9167)"><path
             d="m 0,0 c 0,-7.939 -8.693,-14.375 -19.417,-14.375 -10.723,0 -19.416,6.436 -19.416,14.375 0,7.939 8.693,14.375 19.416,14.375 C -8.693,14.375 0,7.939 0,0"
             style="fill:#ff5a58;fill-opacity:1;fill-rule:nonzero;stroke:none"
             id="path12843"
             inkscape:connector-curvature="0" /></g></g></g><g
       id="g12845"
       transform="matrix(3.1700196,0,0,3.057686,-1645.2732,-1664.7734)"><g
         id="g12847"
         clip-path="url(#clipPath12851)"><g
           id="g12853"
           transform="translate(675.4108,684.5833)"><path
             d="m 0,0 c 0,0 -0.125,10.667 9.375,10.667 9.5,0 9.292,-10.584 9.292,-10.584"
             style="fill:none;stroke:#403408;stroke-width:7;stroke-linecap:round;stroke-linejoin:miter;stroke-miterlimit:10;stroke-dasharray:none;stroke-opacity:1"
             id="path12855"
             inkscape:connector-curvature="0" /></g><g
           id="g12857"
           transform="translate(613.9108,684.5833)"><path
             d="m 0,0 c 0,0 -0.125,10.667 9.375,10.667 9.5,0 9.292,-10.584 9.292,-10.584"
             style="fill:none;stroke:#403408;stroke-width:7;stroke-linecap:round;stroke-linejoin:miter;stroke-miterlimit:10;stroke-dasharray:none;stroke-opacity:1"
             id="path12859"
             inkscape:connector-curvature="0" /></g><g
           id="g12861"><g
             id="g12863" /><g
             id="g12875"><g
               clip-path="url(#clipPath12867)"
               id="g12873"
               style="opacity:0.60000598"><g
                 transform="translate(615.8171,668.9968)"
                 id="g12871"><path
                   d="m 0,0 c 0,-5.532 -4.485,-10.016 -10.016,-10.016 -5.532,0 -10.015,4.484 -10.015,10.016 0,5.532 4.483,10.016 10.015,10.016 C -4.485,10.016 0,5.532 0,0"
                   style="fill:#ff758a;fill-opacity:1;fill-rule:nonzero;stroke:none"
                   id="path12869"
                   inkscape:connector-curvature="0" /></g></g></g></g><g
           id="g12877"><g
             id="g12879" /><g
             id="g12891"><g
               clip-path="url(#clipPath12883)"
               id="g12889"
               style="opacity:0.60000598"><g
                 transform="translate(712.2023,668.9968)"
                 id="g12887"><path
                   d="m 0,0 c 0,-5.532 -4.485,-10.016 -10.016,-10.016 -5.532,0 -10.015,4.484 -10.015,10.016 0,5.532 4.483,10.016 10.015,10.016 C -4.485,10.016 0,5.532 0,0"
                   style="fill:#ff758a;fill-opacity:1;fill-rule:nonzero;stroke:none"
                   id="path12885"
                   inkscape:connector-curvature="0" /></g></g></g></g></g></g></g></svg>