<?xml version="1.0" encoding="UTF-8" standalone="no"?>
<!-- Generator: Adobe Illustrator 18.0.0, SVG Export Plug-In . SVG Version: 6.00 Build 0)  -->

<svg
   xmlns:dc="http://purl.org/dc/elements/1.1/"
   xmlns:cc="http://creativecommons.org/ns#"
   xmlns:rdf="http://www.w3.org/1999/02/22-rdf-syntax-ns#"
   xmlns:svg="http://www.w3.org/2000/svg"
   xmlns="http://www.w3.org/2000/svg"
   xmlns:sodipodi="http://sodipodi.sourceforge.net/DTD/sodipodi-0.dtd"
   xmlns:inkscape="http://www.inkscape.org/namespaces/inkscape"
   version="1.1"
   id="Capa_1"
   x="0px"
   y="0px"
   viewBox="0 0 52.854 52.854"
   style="enable-background:new 0 0 52.854 52.854;"
   xml:space="preserve"
   sodipodi:docname="sweet potato.svg"
   inkscape:version="0.92.4 (5da689c313, 2019-01-14)"><metadata
   id="metadata59"><rdf:RDF><cc:Work
       rdf:about=""><dc:format>image/svg+xml</dc:format><dc:type
         rdf:resource="http://purl.org/dc/dcmitype/StillImage" /></cc:Work></rdf:RDF></metadata><defs
   id="defs57" /><sodipodi:namedview
   pagecolor="#ffffff"
   bordercolor="#666666"
   borderopacity="1"
   objecttolerance="10"
   gridtolerance="10"
   guidetolerance="10"
   inkscape:pageopacity="0"
   inkscape:pageshadow="2"
   inkscape:window-width="1366"
   inkscape:window-height="745"
   id="namedview55"
   showgrid="false"
   inkscape:zoom="8.9302607"
   inkscape:cx="30.341062"
   inkscape:cy="22.125066"
   inkscape:window-x="-8"
   inkscape:window-y="-8"
   inkscape:window-maximized="1"
   inkscape:current-layer="Capa_1" />
<ellipse
   style="fill:#ff6600;stroke-width:1.02795887"
   id="path61"
   cx="29.618395"
   cy="22.563736"
   rx="20.88405"
   ry="19.988218" /><g
   id="g22"
   transform="matrix(0.71186765,0,0,0.70404723,11.533685,5.245526)">
	<path
   style="fill:#a46f3e"
   d="M 44.282,36.698 C 43.153,44.347 33.601,49.274 22.947,47.701 12.293,46.129 4.571,38.654 5.7,31.005 c 0.678,-4.595 2.771,-7.552 8.239,-7.882 5.269,-0.318 12.417,2.843 16.672,3.471 10.654,1.572 14.8,2.455 13.671,10.104 z"
   id="path2"
   inkscape:connector-curvature="0" />
	<path
   style="fill:#994530"
   d="m 52.521,18.292 c -1.957,-7.48 -6.118,-6.668 -16.537,-3.942 -4.16,1.089 -11.975,0.98 -16.699,3.336 -2.883,1.438 -4.328,3.258 -4.796,5.425 5.208,-0.085 12.013,2.875 16.122,3.482 9.047,1.335 13.385,2.189 13.802,7.094 6.136,-3.832 9.564,-9.831 8.108,-15.395 z"
   id="path4"
   inkscape:connector-curvature="0" />
	<path
   style="fill:#6a3311"
   d="M 14.204,23.07 C 14.672,20.903 16.117,19.083 19,17.645 20.522,16.886 22.367,16.384 24.305,16.014 21.218,12.91 17.423,8.141 13.51,6.117 8.645,3.601 5.333,5.07 2.398,8.67 c -4.325,5.305 -2.613,14.039 3.625,20.695 0.929,-3.652 3.129,-5.954 7.916,-6.243 0.859,-0.052 1.772,-0.004 2.71,0.103 -0.84,-0.105 -1.662,-0.168 -2.445,-0.155 z"
   id="path6"
   inkscape:connector-curvature="0" />
	<path
   style="fill:#6a3311"
   d="m 12.999,36.793 c -0.448,0 -0.855,-0.303 -0.969,-0.757 l -1,-4 c -0.134,-0.536 0.192,-1.079 0.728,-1.213 0.536,-0.133 1.079,0.192 1.213,0.728 l 1,4 c 0.134,0.536 -0.192,1.079 -0.728,1.213 -0.082,0.02 -0.163,0.029 -0.244,0.029 z"
   id="path8"
   inkscape:connector-curvature="0" />
	<path
   style="fill:#6a3311"
   d="m 34.999,23.793 c -0.448,0 -0.855,-0.303 -0.969,-0.757 l -1,-4 c -0.134,-0.536 0.192,-1.079 0.728,-1.213 0.537,-0.133 1.079,0.192 1.213,0.728 l 1,4 c 0.134,0.536 -0.192,1.079 -0.728,1.213 -0.082,0.02 -0.163,0.029 -0.244,0.029 z"
   id="path10"
   inkscape:connector-curvature="0" />
	<path
   style="fill:#6a3311"
   d="m 26.575,44.793 c -0.323,0 -0.639,-0.156 -0.832,-0.444 -0.307,-0.458 -0.184,-1.08 0.275,-1.387 l 3.426,-2.294 c 0.458,-0.306 1.08,-0.184 1.387,0.275 0.307,0.458 0.184,1.08 -0.275,1.387 l -3.426,2.294 c -0.17,0.114 -0.364,0.169 -0.555,0.169 z"
   id="path12"
   inkscape:connector-curvature="0" />
	<path
   style="fill:#a46f3e"
   d="m 9.001,13.793 c -0.323,0 -0.639,-0.156 -0.832,-0.444 -0.307,-0.458 -0.184,-1.08 0.275,-1.387 L 11.87,9.668 c 0.458,-0.307 1.08,-0.184 1.387,0.275 0.307,0.458 0.184,1.08 -0.275,1.387 l -3.426,2.294 c -0.17,0.114 -0.364,0.169 -0.555,0.169 z"
   id="path14"
   inkscape:connector-curvature="0" />
	<path
   style="fill:#6a3311"
   d="m 29.275,34.486 c -0.087,0 -0.177,-0.012 -0.265,-0.036 l -3.976,-1.092 c -0.533,-0.146 -0.846,-0.697 -0.7,-1.229 0.146,-0.532 0.696,-0.849 1.229,-0.7 l 3.976,1.092 c 0.533,0.146 0.846,0.697 0.7,1.229 -0.122,0.444 -0.525,0.736 -0.964,0.736 z"
   id="path16"
   inkscape:connector-curvature="0" />
	<path
   style="fill:#a46f3e"
   d="m 8.486,20.993 c -0.183,0 -0.367,-0.05 -0.533,-0.154 l -3.487,-2.2 C 4,18.344 3.859,17.727 4.154,17.259 4.448,16.793 5.068,16.653 5.533,16.947 l 3.487,2.2 c 0.467,0.295 0.607,0.912 0.312,1.379 -0.189,0.302 -0.514,0.467 -0.846,0.467 z"
   id="path18"
   inkscape:connector-curvature="0" />
	<path
   style="fill:#6a3311"
   d="m 45.001,26.564 c -0.272,0 -0.543,-0.11 -0.741,-0.328 -0.371,-0.409 -0.34,-1.042 0.069,-1.413 l 3.053,-2.771 c 0.409,-0.371 1.041,-0.34 1.413,0.069 0.371,0.409 0.34,1.042 -0.069,1.413 l -3.053,2.771 c -0.192,0.173 -0.433,0.259 -0.672,0.259 z"
   id="path20"
   inkscape:connector-curvature="0" />
</g>
<g
   id="g24">
</g>
<g
   id="g26">
</g>
<g
   id="g28">
</g>
<g
   id="g30">
</g>
<g
   id="g32">
</g>
<g
   id="g34">
</g>
<g
   id="g36">
</g>
<g
   id="g38">
</g>
<g
   id="g40">
</g>
<g
   id="g42">
</g>
<g
   id="g44">
</g>
<g
   id="g46">
</g>
<g
   id="g48">
</g>
<g
   id="g50">
</g>
<g
   id="g52">
</g>
<text
   xml:space="preserve"
   style="font-style:normal;font-weight:normal;font-size:7.57739544px;line-height:1.25;font-family:sans-serif;letter-spacing:0px;word-spacing:0px;fill:#000000;fill-opacity:1;stroke:none;stroke-width:0.18943487"
   x="10.640074"
   y="37.939568"
   id="text65"
   transform="scale(0.74786387,1.3371417)"><tspan
     sodipodi:role="line"
     id="tspan63"
     x="10.640074"
     y="37.939568"
     style="stroke-width:0.18943487">SWEET POTATO</tspan></text>

</svg>