<?xml version="1.0" encoding="UTF-8" standalone="no"?>
<!-- Generator: Adobe Illustrator 19.0.0, SVG Export Plug-In . SVG Version: 6.00 Build 0)  -->

<svg
   xmlns:dc="http://purl.org/dc/elements/1.1/"
   xmlns:cc="http://creativecommons.org/ns#"
   xmlns:rdf="http://www.w3.org/1999/02/22-rdf-syntax-ns#"
   xmlns:svg="http://www.w3.org/2000/svg"
   xmlns="http://www.w3.org/2000/svg"
   xmlns:sodipodi="http://sodipodi.sourceforge.net/DTD/sodipodi-0.dtd"
   xmlns:inkscape="http://www.inkscape.org/namespaces/inkscape"
   version="1.1"
   id="Capa_1"
   x="0px"
   y="0px"
   viewBox="0 0 512 512"
   style="enable-background:new 0 0 512 512;"
   xml:space="preserve"
   sodipodi:docname="vomit.svg"
   inkscape:version="0.92.4 (5da689c313, 2019-01-14)"><metadata
   id="metadata91"><rdf:RDF><cc:Work
       rdf:about=""><dc:format>image/svg+xml</dc:format><dc:type
         rdf:resource="http://purl.org/dc/dcmitype/StillImage" /></cc:Work></rdf:RDF></metadata><defs
   id="defs89" /><sodipodi:namedview
   pagecolor="#ffffff"
   bordercolor="#666666"
   borderopacity="1"
   objecttolerance="10"
   gridtolerance="10"
   guidetolerance="10"
   inkscape:pageopacity="0"
   inkscape:pageshadow="2"
   inkscape:window-width="1366"
   inkscape:window-height="745"
   id="namedview87"
   showgrid="false"
   inkscape:zoom="0.921875"
   inkscape:cx="256"
   inkscape:cy="243.18433"
   inkscape:window-x="-8"
   inkscape:window-y="-8"
   inkscape:window-maximized="1"
   inkscape:current-layer="Capa_1" />
<ellipse
   style="fill:#55ff55;stroke-width:1.06499159"
   id="path93"
   cx="267.24539"
   cy="210.01375"
   rx="208.66913"
   ry="206.75952" /><g
   id="g6"
   transform="matrix(0.66571289,0,0,0.6747092,95.698004,9.4553789)">
	<g
   id="g4">
		<path
   d="m 504.485,343.671 c 4.151,0 7.515,-3.364 7.515,-10.521 V 136.767 c 0,-1.145 -3.364,-4.509 -7.515,-4.509 h -96.188 c -4.151,0 -7.515,3.364 -7.515,7.515 V 289.566 H 247.984 c -4.151,0 -7.515,3.364 -7.515,7.515 v 43.084 c 0,1.259 0.316,2.498 0.921,3.604 l 0.185,0.348 c 6.437,12.118 31.126,51.657 78.549,51.657 h 82.757 l 22.334,67.003 c 1.023,3.069 3.895,5.138 7.129,5.138 h 72.141 c 4.151,0 7.515,-3.364 7.515,-7.515 v -85.166 c 0,-4.151 -3.364,-7.515 -7.515,-7.515 -4.151,0 -7.515,3.364 -7.515,7.515 v 77.652 h -59.21 l -22.334,-67.003 c -1.023,-3.069 -3.895,-5.138 -7.129,-5.138 h -88.172 c -37.63,0 -58.307,-31.06 -64.626,-42.479 v -33.67 h 241.472 v 31.562 c 0,4.15 3.363,7.513 7.514,7.513 z M 415.812,289.566 V 147.288 h 81.159 v 142.278 z"
   id="path2"
   inkscape:connector-curvature="0" />
	</g>
</g>
<g
   id="g12"
   transform="matrix(0.66571289,0,0,0.6747092,95.698004,9.4553789)">
	<g
   id="g10">
		<path
   d="m 464.407,172.337 h -32.063 c -4.151,0 -7.515,3.364 -7.515,7.515 0,4.151 3.364,7.515 7.515,7.515 h 10.117 c -1.029,2.643 -1.6,5.514 -1.6,8.517 0,12.983 10.563,23.546 23.546,23.546 12.983,0 23.546,-10.563 23.546,-23.546 0,-12.985 -10.563,-23.547 -23.546,-23.547 z m 0,32.062 c -4.696,0 -8.517,-3.82 -8.517,-8.517 0,-4.697 3.82,-8.517 8.517,-8.517 4.697,0 8.517,3.82 8.517,8.517 0,4.697 -3.821,8.517 -8.517,8.517 z"
   id="path8"
   inkscape:connector-curvature="0" />
	</g>
</g>
<g
   id="g18"
   transform="matrix(0.66571289,0,0,0.6747092,95.698004,9.4553789)">
	<g
   id="g16">
		<path
   d="m 325.763,148.675 c -10.073,3.36 -23.975,-2.19 -37.417,-7.556 -14.014,-5.595 -28.504,-11.378 -41.837,-8.715 -24.468,4.894 -33.537,20.345 -36.837,32.444 -2.991,10.965 -1.695,21.044 -1.247,23.778 0.41,25.892 21.587,46.832 47.575,46.832 25.066,0 45.653,-19.482 47.451,-44.098 14.629,-7.011 25.326,-17.968 31.597,-32.598 2.504,-5.841 -3.263,-12.089 -9.285,-10.087 z M 256,220.431 c -14.606,0 -26.996,-9.666 -31.111,-22.937 7.959,1.445 19.538,3.011 32.371,3.011 1.99,0 4.011,-0.038 6.053,-0.119 8.622,-0.345 16.596,-1.446 23.903,-3.266 -3.996,13.461 -16.474,23.311 -31.216,23.311 z m -33.17,-38.678 c -0.148,-3.423 0.017,-8.336 1.466,-13.388 3.314,-11.558 11.544,-18.5 25.161,-21.223 8.953,-1.795 21.339,3.154 33.317,7.935 10.397,4.151 21.023,8.393 31.398,9.433 -23.641,28.68 -75.192,20.628 -91.342,17.243 z"
   id="path14"
   inkscape:connector-curvature="0" />
	</g>
</g>
<g
   id="g24"
   transform="matrix(0.66571289,0,0,0.6747092,95.698004,9.4553789)">
	<g
   id="g22">
		<path
   d="m 336.157,244.477 h -95.738 c -9.768,-7.912 -49.838,-40.359 -53.543,-43.208 -4.985,-3.836 -11.167,-5.501 -17.402,-4.687 -6.146,0.802 -11.623,3.915 -15.449,8.776 L 69.33,301.373 c -0.111,0.125 -0.219,0.256 -0.321,0.389 -6.615,8.599 -10.956,31.572 -3.621,42.571 11.88,17.822 40.641,56.692 55.385,76.489 H 23.546 C 10.563,420.822 0,431.385 0,444.368 c 0,12.983 10.563,23.546 23.546,23.546 h 144.282 c 12.662,0 23.352,-10.443 23.564,-23.144 0.063,-3.781 -0.814,-7.552 -2.504,-10.932 l -49.66,-99.319 54.036,-64.469 23.924,16.314 c 4.175,3.361 9.402,5.205 14.766,5.205 h 104.203 v 10e-4 c 12.983,0 23.546,-10.563 23.546,-23.546 0,-12.984 -10.563,-23.547 -23.546,-23.547 z M 175.446,440.559 c 2.789,5.577 -1.405,12.325 -7.618,12.325 H 23.546 c -4.696,0 -8.517,-3.82 -8.517,-8.517 0,-4.696 3.82,-8.517 8.517,-8.517 h 112.219 c 6.065,0 9.658,-7.161 6.012,-12.023 -0.48,-0.64 -48.152,-64.232 -63.885,-87.833 -2.721,-4.08 -0.868,-19.713 2.903,-24.903 l 7.157,-8.113 34.483,34.483 c 0.662,0.662 1.421,1.166 2.226,1.53 z M 296.579,276.54 h -64.626 c -1.988,0 -3.925,-0.701 -5.454,-1.975 -0.185,-0.153 -0.377,-0.3 -0.575,-0.435 l -29.815,-20.332 c -3.191,-2.174 -7.513,-1.579 -9.994,1.382 l -56.863,67.843 -31.338,-31.338 67.533,-76.558 c 0.111,-0.126 0.219,-0.257 0.322,-0.39 1.387,-1.804 3.393,-2.958 5.649,-3.252 2.252,-0.297 4.489,0.307 6.293,1.695 3.189,2.452 37.577,30.279 55.315,44.65 1.339,1.084 3.009,1.676 4.731,1.676 h 58.822 z m 39.578,0 h -24.548 v -17.033 h 24.548 c 4.696,0 8.517,3.82 8.517,8.517 -10e-4,4.696 -3.821,8.516 -8.517,8.516 z"
   id="path20"
   inkscape:connector-curvature="0" />
	</g>
</g>
<g
   id="g30"
   transform="matrix(0.66571289,0,0,0.6747092,95.698004,9.4553789)">
	<g
   id="g28">
		<path
   d="m 239.969,44.086 c -12.983,0 -23.546,10.563 -23.546,23.546 0,12.983 10.563,23.546 23.546,23.546 12.983,0 23.546,-10.563 23.546,-23.546 0,-12.983 -10.563,-23.546 -23.546,-23.546 z m 0,32.063 c -4.696,0 -8.517,-3.82 -8.517,-8.517 0,-4.697 3.82,-8.517 8.517,-8.517 4.697,0 8.517,3.82 8.517,8.517 0,4.697 -3.821,8.517 -8.517,8.517 z"
   id="path26"
   inkscape:connector-curvature="0" />
	</g>
</g>
<g
   id="g36"
   transform="matrix(0.66571289,0,0,0.6747092,95.698004,9.4553789)">
	<g
   id="g34">
		<path
   d="m 360.203,156.305 c -12.983,0 -23.546,10.563 -23.546,23.546 0,12.983 10.563,23.546 23.546,23.546 12.983,0 23.546,-10.563 23.546,-23.546 10e-4,-12.983 -10.562,-23.546 -23.546,-23.546 z m 0,32.063 c -4.696,0 -8.517,-3.82 -8.517,-8.517 0,-4.697 3.82,-8.517 8.517,-8.517 4.696,0 8.517,3.82 8.517,8.517 0,4.697 -3.82,8.517 -8.517,8.517 z"
   id="path32"
   inkscape:connector-curvature="0" />
	</g>
</g>
<g
   id="g42"
   transform="matrix(0.66571289,0,0,0.6747092,95.698004,9.4553789)">
	<g
   id="g40">
		<path
   d="m 111.718,124.243 c -12.983,0 -23.546,10.563 -23.546,23.546 0,12.983 10.563,23.546 23.546,23.546 12.983,0 23.546,-10.563 23.546,-23.546 0,-12.984 -10.562,-23.546 -23.546,-23.546 z m 0,32.062 c -4.696,0 -8.517,-3.82 -8.517,-8.517 0,-4.697 3.82,-8.517 8.517,-8.517 4.697,0 8.517,3.82 8.517,8.517 0,4.697 -3.821,8.517 -8.517,8.517 z"
   id="path38"
   inkscape:connector-curvature="0" />
	</g>
</g>
<g
   id="g48"
   transform="matrix(0.66571289,0,0,0.6747092,95.698004,9.4553789)">
	<g
   id="g46">
		<path
   d="m 328.141,100.196 h -8.517 v -8.517 c 0,-4.151 -3.364,-7.515 -7.515,-7.515 -4.151,0 -7.515,3.364 -7.515,7.515 v 8.517 h -8.517 c -4.151,0 -7.515,3.364 -7.515,7.515 0,4.151 3.364,7.515 7.515,7.515 h 8.517 v 8.517 c 0,4.151 3.364,7.515 7.515,7.515 4.151,0 7.515,-3.364 7.515,-7.515 v -8.517 h 8.517 c 4.151,0 7.515,-3.364 7.515,-7.515 0,-4.152 -3.364,-7.515 -7.515,-7.515 z"
   id="path44"
   inkscape:connector-curvature="0" />
	</g>
</g>
<g
   id="g54"
   transform="matrix(0.66571289,0,0,0.6747092,95.698004,9.4553789)">
	<g
   id="g52">
		<path
   d="m 199.89,124.243 h -8.517 v -8.517 c 0,-4.151 -3.364,-7.515 -7.515,-7.515 -4.151,0 -7.515,3.364 -7.515,7.515 v 8.517 h -8.517 c -4.151,0 -7.515,3.364 -7.515,7.515 0,4.151 3.364,7.515 7.515,7.515 h 8.517 v 8.517 c 0,4.151 3.364,7.515 7.515,7.515 4.151,0 7.515,-3.364 7.515,-7.515 v -8.517 h 8.517 c 4.151,0 7.515,-3.364 7.515,-7.515 0,-4.151 -3.363,-7.515 -7.515,-7.515 z"
   id="path50"
   inkscape:connector-curvature="0" />
	</g>
</g>
<g
   id="g56">
</g>
<g
   id="g58">
</g>
<g
   id="g60">
</g>
<g
   id="g62">
</g>
<g
   id="g64">
</g>
<g
   id="g66">
</g>
<g
   id="g68">
</g>
<g
   id="g70">
</g>
<g
   id="g72">
</g>
<g
   id="g74">
</g>
<g
   id="g76">
</g>
<g
   id="g78">
</g>
<g
   id="g80">
</g>
<g
   id="g82">
</g>
<g
   id="g84">
</g>
<text
   xml:space="preserve"
   style="font-style:normal;font-weight:normal;font-size:79.57228088px;line-height:1.25;font-family:sans-serif;letter-spacing:0px;word-spacing:0px;fill:#000000;fill-opacity:1;stroke:none;stroke-width:1.98930728"
   x="79.369774"
   y="455.2135"
   id="text97"
   transform="scale(0.94222964,1.0613124)"><tspan
     sodipodi:role="line"
     id="tspan95"
     x="79.369774"
     y="455.2135"
     style="stroke-width:1.98930728">VOMITING</tspan></text>
</svg>