<?xml version="1.0" encoding="UTF-8" standalone="no"?>
<!-- Generator: Adobe Illustrator 19.0.0, SVG Export Plug-In . SVG Version: 6.00 Build 0)  -->

<svg
   xmlns:dc="http://purl.org/dc/elements/1.1/"
   xmlns:cc="http://creativecommons.org/ns#"
   xmlns:rdf="http://www.w3.org/1999/02/22-rdf-syntax-ns#"
   xmlns:svg="http://www.w3.org/2000/svg"
   xmlns="http://www.w3.org/2000/svg"
   xmlns:sodipodi="http://sodipodi.sourceforge.net/DTD/sodipodi-0.dtd"
   xmlns:inkscape="http://www.inkscape.org/namespaces/inkscape"
   version="1.1"
   id="Capa_1"
   x="0px"
   y="0px"
   viewBox="0 0 512 512"
   style="enable-background:new 0 0 512 512;"
   xml:space="preserve"
   sodipodi:docname="water.svg"
   inkscape:version="0.92.4 (5da689c313, 2019-01-14)"><metadata
   id="metadata87"><rdf:RDF><cc:Work
       rdf:about=""><dc:format>image/svg+xml</dc:format><dc:type
         rdf:resource="http://purl.org/dc/dcmitype/StillImage" /></cc:Work></rdf:RDF></metadata><defs
   id="defs85" /><sodipodi:namedview
   pagecolor="#ffffff"
   bordercolor="#666666"
   borderopacity="1"
   objecttolerance="10"
   gridtolerance="10"
   guidetolerance="10"
   inkscape:pageopacity="0"
   inkscape:pageshadow="2"
   inkscape:window-width="1366"
   inkscape:window-height="745"
   id="namedview83"
   showgrid="false"
   inkscape:zoom="0.921875"
   inkscape:cx="117.69492"
   inkscape:cy="299.38983"
   inkscape:window-x="-8"
   inkscape:window-y="-8"
   inkscape:window-maximized="1"
   inkscape:current-layer="Capa_1" />
<ellipse
   style="fill:#00ff66;stroke-width:1.08583522"
   id="path89"
   cx="256"
   cy="223.28958"
   rx="219.11864"
   ry="217.86584" /><polygon
   style="fill:#baf0ff"
   points="280.313,47.092 360.47,151.296 152.063,151.296 232.219,47.092 "
   id="polygon2"
   transform="matrix(0.89087828,0,0,0.71835106,25.566311,28.850165)" />
<g
   id="g12"
   transform="matrix(0.89087828,0,0,0.71835106,25.566311,28.850165)">
	<polygon
   style="fill:#8adeff"
   points="173.104,151.296 253.26,47.092 232.219,47.092 152.063,151.296 "
   id="polygon4" />
	<polygon
   style="fill:#8adeff"
   points="280.313,47.092 292.645,63.124 219.887,63.123 232.219,47.092 "
   id="polygon6" />
	<polygon
   style="fill:#8adeff"
   points="164.397,135.264 348.135,135.264 360.47,151.296 152.063,151.296 "
   id="polygon8" />
	<path
   style="fill:#8adeff"
   d="M 360.47,223.436 V 151.295 H 152.062 v 72.141 c 0,17.708 14.355,32.063 32.063,32.063 h -4.008 c -15.494,0 -28.055,12.561 -28.055,28.055 v 0 c 0,15.494 12.561,28.055 28.055,28.055 -15.494,0 -28.055,12.561 -28.055,28.055 v 0 c 0,15.494 12.561,28.055 28.055,28.055 h 4.008 c -17.708,0 -32.063,14.355 -32.063,32.063 v 64.125 c 0,17.708 14.355,32.063 32.063,32.063 h 42.929 c 5.651,4.985 13.068,8.016 21.196,8.016 h 16.031 c 8.128,0 15.544,-3.031 21.196,-8.016 h 42.929 c 17.708,0 32.063,-14.355 32.063,-32.063 v -64.125 c 0,-17.708 -14.355,-32.063 -32.063,-32.063 h 4.008 c 15.494,0 28.055,-12.561 28.055,-28.055 v 0 c 0,-15.494 -12.561,-28.055 -28.055,-28.055 15.494,0 28.055,-12.561 28.055,-28.055 v 0 c 0,-15.494 -12.561,-28.055 -28.055,-28.055 h -4.008 c 17.709,0 32.064,-14.355 32.064,-32.063 z"
   id="path10"
   inkscape:connector-curvature="0" />
</g>
<g
   id="g22"
   transform="matrix(0.89087828,0,0,0.71835106,25.566311,28.850165)">
	<path
   style="fill:#2fb6eb"
   d="m 172.102,463.906 v -64.125 c 0,-17.708 14.355,-32.063 32.063,-32.063 h -4.008 c -15.494,0 -28.055,-12.561 -28.055,-28.055 0,-15.494 12.561,-28.055 28.055,-28.055 -15.494,0 -28.055,-12.561 -28.055,-28.055 0,-15.494 12.561,-28.055 28.055,-28.055 h 4.008 c -17.708,0 -32.063,-14.355 -32.063,-32.063 v -72.141 h -20.039 v 72.141 c 0,17.708 14.355,32.063 32.063,32.063 h -4.008 c -15.494,0 -28.055,12.561 -28.055,28.055 0,15.494 12.561,28.055 28.055,28.055 -15.494,0 -28.055,12.561 -28.055,28.055 0,15.494 12.561,28.055 28.055,28.055 h 4.008 c -17.708,0 -32.063,14.355 -32.063,32.063 v 64.125 c 0,17.708 14.355,32.063 32.063,32.063 h 20.039 c -17.709,0 -32.063,-14.355 -32.063,-32.063 z"
   id="path14"
   inkscape:connector-curvature="0" />
	<path
   style="fill:#2fb6eb"
   d="m 247.093,495.969 h -20.039 c 5.651,4.985 13.068,8.016 21.196,8.016 h 16.031 c 0.673,0 1.341,-0.028 2.004,-0.069 -7.34,-0.455 -14.009,-3.375 -19.192,-7.947 z"
   id="path16"
   inkscape:connector-curvature="0" />
	<path
   style="fill:#2fb6eb"
   d="M 328.407,367.718 H 184.125 c -17.708,0 -32.063,14.355 -32.063,32.063 v 64.125 c 0,17.708 14.355,32.063 32.063,32.063 h 42.929 c 5.651,4.985 13.068,8.016 21.196,8.016 h 16.031 c 8.128,0 15.544,-3.031 21.196,-8.016 h 42.929 c 17.708,0 32.063,-14.355 32.063,-32.063 v -64.125 c 0.001,-17.708 -14.354,-32.063 -32.062,-32.063 z"
   id="path18"
   inkscape:connector-curvature="0" />
	<path
   style="fill:#2fb6eb"
   d="M 332.415,311.609 H 180.117 c -15.494,0 -28.055,-12.561 -28.055,-28.055 v 0 c 0,-15.494 12.561,-28.055 28.055,-28.055 h 152.297 c 15.494,0 28.055,12.561 28.055,28.055 v 0 c 0.001,15.494 -12.56,28.055 -28.054,28.055 z"
   id="path20"
   inkscape:connector-curvature="0" />
</g>
<path
   style="fill:#0097c6;stroke-width:0.79997712"
   d="m 178.88823,362.09754 v -46.06425 c 0,-12.72057 12.78857,-23.03251 28.56423,-23.03251 h -17.8523 c -15.77567,0 -28.56424,10.31194 -28.56424,23.03251 v 46.06425 c 0,12.72056 12.78857,23.03249 28.56424,23.03249 h 17.8523 c -15.77655,0 -28.56423,-10.31193 -28.56423,-23.03249 z"
   id="path24"
   inkscape:connector-curvature="0" />
<path
   style="fill:#00a1d3;stroke-width:0.79997712"
   d="m 245.69609,385.13003 h -17.85231 c 5.03436,3.58098 11.64201,5.7583 18.88306,5.7583 h 14.28167 c 0.59957,0 1.19467,-0.0202 1.78533,-0.0496 -6.53905,-0.32684 -12.48032,-2.42443 -17.09775,-5.70874 z"
   id="path26"
   inkscape:connector-curvature="0" />
<path
   style="fill:#0097c6;stroke-width:0.79997712"
   d="m 178.88823,232.54149 c 0,-11.13013 11.19035,-20.15335 24.99361,-20.15335 h -17.85231 c -13.80327,0 -24.99361,9.02322 -24.99361,20.15335 0,11.13013 11.19034,20.15334 24.99361,20.15334 h 17.85231 c -13.80416,0 -24.99361,-9.02321 -24.99361,-20.15334 z"
   id="path28"
   inkscape:connector-curvature="0" />
<rect
   x="211.02579"
   y="33.888676"
   style="fill:#ff6243;stroke-width:0.79997712"
   width="85.691803"
   height="28.790075"
   id="rect30" />
<g
   id="g36"
   transform="matrix(0.89087828,0,0,0.71835106,25.566311,28.850165)">
	<rect
   x="208.17599"
   y="7.0139999"
   style="fill:#d80027"
   width="16.031"
   height="40.077999"
   id="rect32" />
	<rect
   x="208.17599"
   y="31.061001"
   style="fill:#d80027"
   width="96.188004"
   height="16.031"
   id="rect34" />
</g>
<path
   d="m 353.2839,272.84745 c 0,-8.18274 -4.74392,-15.47328 -12.18722,-20.15333 7.44241,-4.68006 12.27096,-11.9706 12.27096,-20.15335 0,-8.61518 -5.52968,-16.24264 -13.65537,-20.87384 8.18093,-5.21092 13.23666,-13.27226 13.23666,-22.31198 V 135.69771 L 288.88676,68.437054 h 14.07589 V 28.850165 h -99.08169 v 39.586889 h 14.96763 l -64.95394,67.260656 v 53.65866 c 0,9.03972 5.4887,17.10036 13.66964,22.31199 -8.1257,4.63122 -13.33467,12.25795 -13.33467,20.87385 0,8.18273 4.85617,15.47328 12.29858,20.15333 -7.44241,4.68007 -12.21483,11.97061 -12.21483,20.15334 0,8.6152 5.11097,16.24264 13.23666,20.87385 -8.18092,5.21091 -13.65538,13.27227 -13.65538,22.31199 v 46.06425 c 0,15.67658 16.26387,28.79007 35.70461,28.79007 h 35.70463 v -0.47338 c 5.94305,3.67794 13.36942,6.2317 21.42295,6.2317 h 14.28167 c 8.05356,0 15.47991,-2.55303 21.42295,-6.2317 v 0.47338 h 35.70463 c 19.44163,0 34.81195,-13.11421 34.81195,-28.79007 v -46.06425 c 0,-9.03972 -5.04237,-17.10108 -13.22331,-22.31199 8.1266,-4.63193 13.55917,-12.25938 13.55917,-20.87528 z M 217.27086,57.640238 V 39.646261 h 72.30279 v 17.993977 z m 18.47056,10.796816 h 36.25162 l 61.1107,64.058256 h -158.473 m 147.07687,125.9571 c 10.0901,0 18.29865,6.61889 18.29865,14.75494 0,8.13604 -8.20855,14.75493 -18.29865,14.75493 H 303.8553 v 10.79609 h 14.28168 c 12.05893,0 21.42294,7.5506 21.42294,17.27418 v 46.06428 c 0,9.72358 -9.36401,17.99397 -21.42294,17.99397 h -25.10496 c 2.0713,-4.31873 3.23568,-7.99812 3.23568,-12.23568 h -13.38901 c 0,9.72362 -9.81035,17.99397 -21.86929,17.99397 h -14.28256 c -12.05803,0 -21.86928,-8.26964 -21.86928,-17.99397 h -13.389 c 0,4.23828 1.16527,7.91767 3.23566,12.23568 h -25.10496 c -12.05803,0 -22.31559,-8.26965 -22.31559,-17.99397 v -46.06428 c 0,-9.72358 10.25666,-17.27418 22.31559,-17.27418 h 71.41014 v -10.79609 h -74.97987 c -10.09009,0 -18.29865,-6.61889 -18.29865,-14.75493 0,-8.13605 8.20856,-14.75494 18.29865,-14.75494 h 74.97987 v -10.7961 h -74.97987 c -10.09009,0 -18.29865,-6.61888 -18.29865,-14.75494 0,-8.13605 8.20856,-14.75491 18.29865,-14.75491 h 74.97987 v -10.79611 h -71.41014 c -12.05803,0 -22.31559,-8.26965 -22.31559,-17.99398 v -46.06426 h 172.27625 v 46.06426 c 0,9.72362 -9.36401,17.99398 -21.42294,17.99398 H 303.8553 v 10.79611 h 17.85231 c 10.0901,0 18.29865,6.61886 18.29865,14.75491 0,8.13606 -8.20855,14.75494 -18.29865,14.75494 H 303.8553 v 10.7961 z"
   id="path38"
   inkscape:connector-curvature="0"
   style="stroke-width:0.79997712" />
<g
   id="g50"
   transform="matrix(0.89087828,0,0,0.71835106,25.566311,28.850165)">
	<rect
   x="200.16"
   y="111.718"
   style="fill:#ffffff"
   width="16.031"
   height="15.029"
   id="rect40" />
	<rect
   x="216.192"
   y="95.686996"
   style="fill:#ffffff"
   width="16.031"
   height="15.029"
   id="rect42" />
	<rect
   x="280.31699"
   y="304.09399"
   style="fill:#ffffff"
   width="16.031"
   height="15.029"
   id="rect44" />
	<rect
   x="280.31699"
   y="247.98399"
   style="fill:#ffffff"
   width="16.031"
   height="15.029"
   id="rect46" />
	<rect
   x="280.31699"
   y="360.20401"
   style="fill:#ffffff"
   width="16.031"
   height="15.029"
   id="rect48" />
</g>
<g
   id="g52">
</g>
<g
   id="g54">
</g>
<g
   id="g56">
</g>
<g
   id="g58">
</g>
<g
   id="g60">
</g>
<g
   id="g62">
</g>
<g
   id="g64">
</g>
<g
   id="g66">
</g>
<g
   id="g68">
</g>
<g
   id="g70">
</g>
<g
   id="g72">
</g>
<g
   id="g74">
</g>
<g
   id="g76">
</g>
<g
   id="g78">
</g>
<g
   id="g80">
</g>
<text
   xml:space="preserve"
   style="font-style:normal;font-weight:normal;font-size:92.79734039px;line-height:1.25;font-family:sans-serif;letter-spacing:0px;word-spacing:0px;fill:#000000;fill-opacity:1;stroke:none;stroke-width:2.31993294"
   x="100.68948"
   y="515.41376"
   id="text93"
   transform="scale(1.0066677,0.99337645)"><tspan
     sodipodi:role="line"
     id="tspan91"
     x="100.68948"
     y="515.41376"
     style="stroke-width:2.31993294">DRINK</tspan></text>

</svg>