<?xml version="1.0" encoding="UTF-8" standalone="no"?>
<svg
   xmlns:dc="http://purl.org/dc/elements/1.1/"
   xmlns:cc="http://creativecommons.org/ns#"
   xmlns:rdf="http://www.w3.org/1999/02/22-rdf-syntax-ns#"
   xmlns:svg="http://www.w3.org/2000/svg"
   xmlns="http://www.w3.org/2000/svg"
   xmlns:sodipodi="http://sodipodi.sourceforge.net/DTD/sodipodi-0.dtd"
   xmlns:inkscape="http://www.inkscape.org/namespaces/inkscape"
   height="511pt"
   viewBox="-40 1 511 511.99997"
   width="511pt"
   version="1.1"
   id="svg68"
   sodipodi:docname="wheat.svg"
   inkscape:version="0.92.4 (5da689c313, 2019-01-14)">
  <metadata
     id="metadata74">
    <rdf:RDF>
      <cc:Work
         rdf:about="">
        <dc:format>image/svg+xml</dc:format>
        <dc:type
           rdf:resource="http://purl.org/dc/dcmitype/StillImage" />
      </cc:Work>
    </rdf:RDF>
  </metadata>
  <defs
     id="defs72" />
  <sodipodi:namedview
     pagecolor="#ffffff"
     bordercolor="#666666"
     borderopacity="1"
     objecttolerance="10"
     gridtolerance="10"
     guidetolerance="10"
     inkscape:pageopacity="0"
     inkscape:pageshadow="2"
     inkscape:window-width="1366"
     inkscape:window-height="745"
     id="namedview70"
     showgrid="false"
     inkscape:zoom="0.6927593"
     inkscape:cx="340.66667"
     inkscape:cy="340.66667"
     inkscape:window-x="-8"
     inkscape:window-y="-8"
     inkscape:window-maximized="1"
     inkscape:current-layer="svg68" />
  <ellipse
     style="fill:#ff6600;stroke-width:0.86235809"
     id="path76"
     cx="242.61864"
     cy="220.66103"
     rx="227.79662"
     ry="215.32202" />
  <path
     d="m 152.75357,96.979675 h 40.97175 V 267.87171 h -40.97175 z m 0,0"
     id="path2"
     inkscape:connector-curvature="0"
     style="fill:#ed9a00;stroke-width:0.68089116" />
  <path
     d="m 238.92757,53.540754 v 20.758773 c 0,23.990898 -19.85696,43.433643 -44.35293,43.433643 H 173.37651 V 96.974405 c 0,-23.988256 19.85695,-43.433651 44.35561,-43.433651 z m 0,0"
     id="path4"
     inkscape:connector-curvature="0"
     style="fill:#ed9a00;stroke-width:0.68089116" />
  <path
     d="m 238.92757,53.540754 v 20.758773 c 0,23.990898 -19.85696,43.433643 -44.35293,43.433643 h -0.85201 V 96.974405 c 0,-23.988256 19.85696,-43.433651 44.35292,-43.433651 z m 0,0"
     id="path6"
     inkscape:connector-curvature="0"
     style="fill:#ffdf59;stroke-width:0.68089116" />
  <path
     d="m 173.37651,96.979675 v 20.758765 h -21.19812 c -24.49598,0 -44.35294,-19.445395 -44.35294,-43.436284 V 53.546019 h 21.19814 c 24.49598,0 44.35292,19.442759 44.35292,43.433656 z m 0,0"
     id="path8"
     inkscape:connector-curvature="0"
     style="fill:#ed9a00;stroke-width:0.68089116" />
  <path
     d="m 173.37651,96.979675 v 20.758765 h -1.60457 c -24.49866,0 -44.35561,-19.445395 -44.35561,-43.436284 V 53.546019 h 1.60726 c 24.49598,0 44.35292,19.442759 44.35292,43.433656 z m 0,0"
     id="path10"
     inkscape:connector-curvature="0"
     style="fill:#ffdf59;stroke-width:0.68089116" />
  <path
     d="m 173.37651,398.52538 c -3.12045,0 -5.65229,-2.47673 -5.65229,-5.53515 V 288.18304 c 0,-3.05578 2.53184,-5.53515 5.65229,-5.53515 3.12046,0 5.6523,2.47937 5.6523,5.53515 v 104.80719 c 0,3.05842 -2.52915,5.53515 -5.6523,5.53515 z m 0,0"
     id="path12"
     inkscape:connector-curvature="0"
     style="fill:#ed9a00;stroke-width:0.68089116" />
  <path
     d="m 238.92757,110.35561 v 20.75878 c 0,23.99089 -19.85696,43.43365 -44.35293,43.43365 H 173.37651 V 153.7919 c 0,-23.99089 19.85695,-43.43629 44.35561,-43.43629 z m 0,0"
     id="path14"
     inkscape:connector-curvature="0"
     style="fill:#ed9a00;stroke-width:0.68089116" />
  <path
     d="m 238.92757,110.35561 v 20.75878 c 0,23.99089 -19.85696,43.43365 -44.35293,43.43365 h -0.85201 V 153.7919 c 0,-23.99089 19.85696,-43.43629 44.35561,-43.43629 z m 0,0"
     id="path16"
     inkscape:connector-curvature="0"
     style="fill:#ffdf59;stroke-width:0.68089116" />
  <path
     d="m 173.37651,153.79453 v 20.75877 h -21.19812 c -24.49598,0 -44.35294,-19.44539 -44.35294,-43.43627 v -20.75615 h 21.19814 c 24.49598,0 44.35292,19.4454 44.35292,43.43365 z m 0,0"
     id="path18"
     inkscape:connector-curvature="0"
     style="fill:#ed9a00;stroke-width:0.68089116" />
  <path
     d="m 173.37651,153.79453 v 20.75877 h -1.60457 c -24.49866,0 -44.35561,-19.44539 -44.35561,-43.43627 v -20.75615 h 1.60726 c 24.49598,0 44.35292,19.4454 44.35292,43.43365 z m 0,0"
     id="path20"
     inkscape:connector-curvature="0"
     style="fill:#ffdf59;stroke-width:0.68089116" />
  <path
     d="m 238.92757,167.17048 v 20.75877 c 0,23.9909 -19.85696,43.43366 -44.35293,43.43366 h -21.19813 v -20.75614 c 0,-23.9909 19.85695,-43.43629 44.35561,-43.43629 z m 0,0"
     id="path22"
     inkscape:connector-curvature="0"
     style="fill:#ed9a00;stroke-width:0.68089116" />
  <path
     d="m 238.92757,167.17048 v 20.75877 c 0,23.9909 -19.85696,43.43366 -44.35293,43.43366 h -0.85201 v -20.75614 c 0,-23.9909 19.85696,-43.43629 44.35561,-43.43629 z m 0,0"
     id="path24"
     inkscape:connector-curvature="0"
     style="fill:#ffdf59;stroke-width:0.68089116" />
  <path
     d="m 173.37651,210.6094 v 20.75877 h -21.19812 c -24.49598,0 -44.35294,-19.44539 -44.35294,-43.43365 v -20.75877 h 21.19814 c 24.49598,0 44.35292,19.44539 44.35292,43.43365 z m 0,0"
     id="path26"
     inkscape:connector-curvature="0"
     style="fill:#ed9a00;stroke-width:0.68089116" />
  <path
     d="m 173.37651,210.6094 v 20.75877 h -1.60457 c -24.49866,0 -44.35561,-19.44539 -44.35561,-43.43365 v -20.75877 h 1.60726 c 24.49598,0 44.35292,19.44539 44.35292,43.43365 z m 0,0"
     id="path28"
     inkscape:connector-curvature="0"
     style="fill:#ffdf59;stroke-width:0.68089116" />
  <path
     d="m 173.37651,267.42163 v 20.75878 h -21.19812 c -24.49598,0 -44.35294,-19.4454 -44.35294,-43.43365 v -20.75878 h 21.19814 c 24.49598,0 44.35292,19.4454 44.35292,43.43365 z m 0,0"
     id="path30"
     inkscape:connector-curvature="0"
     style="fill:#ed9a00;stroke-width:0.68089116" />
  <path
     d="m 173.37651,267.42163 v 20.75878 h -1.60457 c -24.49866,0 -44.35561,-19.4454 -44.35561,-43.43365 v -20.75878 h 1.60726 c 24.49598,0 44.35292,19.4454 44.35292,43.43365 z m 0,0"
     id="path32"
     inkscape:connector-curvature="0"
     style="fill:#ffdf59;stroke-width:0.68089116" />
  <path
     d="m 238.92757,223.98798 v 20.75878 c 0,23.99089 -19.85696,43.43365 -44.35293,43.43365 h -21.19813 v -20.75878 c 0,-23.98825 19.85695,-43.43365 44.35561,-43.43365 z m 0,0"
     id="path34"
     inkscape:connector-curvature="0"
     style="fill:#ed9a00;stroke-width:0.68089116" />
  <path
     d="m 238.92757,223.98798 v 20.75878 c 0,23.99089 -19.85696,43.43365 -44.35293,43.43365 h -0.85201 v -20.75878 c 0,-23.98825 19.85696,-43.43365 44.35561,-43.43365 z m 0,0"
     id="path36"
     inkscape:connector-curvature="0"
     style="fill:#ffdf59;stroke-width:0.68089116" />
  <g
     id="g44"
     transform="matrix(0.68805895,0,0,0.6737981,107.48142,53.540754)"
     style="fill:#ed9a00">
    <path
       d="m 306.03516,148.78906 h 59.54687 v 169.30469 h -59.54687 z m 0,0"
       id="path38"
       inkscape:connector-curvature="0" />
    <path
       d="m 336.01172,512 c -4.53516,0 -8.21485,-3.67578 -8.21485,-8.21484 V 348.23828 c 0,-4.53515 3.67969,-8.21484 8.21485,-8.21484 4.53515,0 8.21484,3.67969 8.21484,8.21484 V 503.78516 C 344.22266,508.32422 340.54687,512 336.01172,512 Z m 0,0"
       id="path40"
       inkscape:connector-curvature="0" />
    <path
       d="m 431.28125,84.320312 v 30.808598 c 0,35.60546 -28.85938,64.46093 -64.46484,64.46093 h -30.80469 v -30.80468 c 0,-35.60547 28.85547,-64.464848 64.46094,-64.464848 z m 0,0"
       id="path42"
       inkscape:connector-curvature="0" />
  </g>
  <path
     d="m 404.22835,110.35561 v 20.75878 c 0,23.99089 -19.85695,43.43365 -44.3556,43.43365 h -0.84933 V 153.7919 c 0,-23.99089 19.85426,-43.43629 44.35291,-43.43629 z m 0,0"
     id="path46"
     inkscape:connector-curvature="0"
     style="fill:#ffdf59;stroke-width:0.68089116" />
  <path
     d="m 338.67729,153.79453 v 20.75877 h -21.19813 c -24.49865,0 -44.35291,-19.44539 -44.35291,-43.43627 v -20.75615 h 21.19544 c 24.49866,0 44.3556,19.4454 44.3556,43.43365 z m 0,0"
     id="path48"
     inkscape:connector-curvature="0"
     style="fill:#ed9a00;stroke-width:0.68089116" />
  <path
     d="m 338.67729,153.79453 v 20.75877 h -1.60725 c -24.49867,0 -44.35293,-19.44539 -44.35293,-43.43627 v -20.75615 h 1.60458 c 24.49866,0 44.3556,19.4454 44.3556,43.43365 z m 0,0"
     id="path50"
     inkscape:connector-curvature="0"
     style="fill:#ffdf59;stroke-width:0.68089116" />
  <path
     d="m 404.22835,167.17048 v 20.75877 c 0,23.9909 -19.85695,43.43366 -44.3556,43.43366 h -21.19546 v -20.75614 c 0,-23.9909 19.85427,-43.43629 44.35293,-43.43629 z m 0,0"
     id="path52"
     inkscape:connector-curvature="0"
     style="fill:#ed9a00;stroke-width:0.68089116" />
  <path
     d="m 404.22835,167.17048 v 20.75877 c 0,23.9909 -19.85695,43.43366 -44.3556,43.43366 h -0.84933 v -20.75614 c 0,-23.9909 19.85426,-43.43629 44.35291,-43.43629 z m 0,0"
     id="path54"
     inkscape:connector-curvature="0"
     style="fill:#ffdf59;stroke-width:0.68089116" />
  <path
     d="m 338.67729,210.6094 v 20.75877 h -21.19813 c -24.49865,0 -44.35291,-19.44539 -44.35291,-43.43365 v -20.75877 h 21.19544 c 24.49866,0 44.3556,19.44539 44.3556,43.43365 z m 0,0"
     id="path56"
     inkscape:connector-curvature="0"
     style="fill:#ed9a00;stroke-width:0.68089116" />
  <path
     d="m 338.67729,210.6094 v 20.75877 h -1.60725 c -24.49867,0 -44.35293,-19.44539 -44.35293,-43.43365 v -20.75877 h 1.60458 c 24.49866,0 44.3556,19.44539 44.3556,43.43365 z m 0,0"
     id="path58"
     inkscape:connector-curvature="0"
     style="fill:#ffdf59;stroke-width:0.68089116" />
  <path
     d="m 338.67729,267.42163 v 20.75878 h -21.19813 c -24.49865,0 -44.35291,-19.4454 -44.35291,-43.43365 v -20.75878 h 21.19544 c 24.49866,0 44.3556,19.4454 44.3556,43.43365 z m 0,0"
     id="path60"
     inkscape:connector-curvature="0"
     style="fill:#ed9a00;stroke-width:0.68089116" />
  <path
     d="m 338.67729,267.42163 v 20.75878 h -1.60725 c -24.49867,0 -44.35293,-19.4454 -44.35293,-43.43365 v -20.75878 h 1.60458 c 24.49866,0 44.3556,19.4454 44.3556,43.43365 z m 0,0"
     id="path62"
     inkscape:connector-curvature="0"
     style="fill:#ffdf59;stroke-width:0.68089116" />
  <path
     d="m 404.22835,223.98798 v 20.75878 c 0,23.99089 -19.85695,43.43365 -44.3556,43.43365 h -21.19546 v -20.75878 c 0,-23.98825 19.85427,-43.43365 44.35293,-43.43365 z m 0,0"
     id="path64"
     inkscape:connector-curvature="0"
     style="fill:#ed9a00;stroke-width:0.68089116" />
  <path
     d="m 404.22835,223.98798 v 20.75878 c 0,23.99089 -19.85695,43.43365 -44.3556,43.43365 h -0.84933 v -20.75878 c 0,-23.98825 19.85426,-43.43365 44.35291,-43.43365 z m 0,0"
     id="path66"
     inkscape:connector-curvature="0"
     style="fill:#ffdf59;stroke-width:0.68089116" />
  <text
     xml:space="preserve"
     style="font-style:normal;font-weight:normal;font-size:91.03934479px;line-height:1.25;font-family:sans-serif;letter-spacing:0px;word-spacing:0px;fill:#000000;fill-opacity:1;stroke:none;stroke-width:2.27598357"
     x="71.728912"
     y="516.03784"
     id="text80"
     transform="scale(1.0145023,0.98570502)"><tspan
       sodipodi:role="line"
       id="tspan78"
       x="71.728912"
       y="516.03784"
       style="stroke-width:2.27598357">WHEAT</tspan></text>
</svg>
